<?xml version="1.0" encoding="utf-8"?>
<!-- Generator: Adobe Illustrator 16.0.0, SVG Export Plug-In . SVG Version: 6.00 Build 0)  -->
<!DOCTYPE svg PUBLIC "-//W3C//DTD SVG 1.1//EN" "http://www.w3.org/Graphics/SVG/1.1/DTD/svg11.dtd">
<svg version="1.1" id="Layer_1" xmlns="http://www.w3.org/2000/svg" xmlns:xlink="http://www.w3.org/1999/xlink" x="0px" y="0px"
	 width="302.133px" height="80px" viewBox="0 0 302.133 80" enable-background="new 0 0 302.133 80" xml:space="preserve">
<g>
	<g>
		<path fill="#004C97" d="M221.932,41.214V30.58h4.091v10.524c0,3.032,1.519,4.6,4.017,4.6c2.496,0,4.013-1.518,4.013-4.463V30.58
			h4.093v10.498c0,5.64-3.163,8.402-8.16,8.402C224.992,49.48,221.932,46.69,221.932,41.214z"/>
		<path fill="#004C97" d="M240.034,30.58h14.17v3.724H244.13v3.962h8.873v3.717h-8.873v7.207h-4.097V30.58z"/>
		<path fill="#004C97" d="M256.094,30.58h7.6c4.438,0,7.123,2.631,7.123,6.435v0.053c0,4.303-3.348,6.542-7.522,6.542h-3.111v5.58
			h-4.09V30.58z M263.427,39.966c2.047,0,3.244-1.226,3.244-2.819v-0.053c0-1.836-1.277-2.816-3.324-2.816h-3.163v5.688H263.427z"/>
		<path fill="#004C97" d="M272.707,30.58h14.036v3.642h-9.97v3.773h8.77v3.644h-8.77v3.909h10.102v3.642h-14.167V30.58z"/>
		<path fill="#004C97" d="M288.763,30.58h4.093v14.889h9.277v3.721h-13.371V30.58z"/>
	</g>
	<g>
		<g>
			<circle fill="#004C97" cx="151.832" cy="40.021" r="22.766"/>
			<path fill="#C3161C" d="M154.432,34.487h-2.45h-2.801c-0.145-0.566-0.223-1.16-0.223-1.771c0-0.627,0.082-1.232,0.234-1.811
				c0.001,0,0.002-0.002,0.004-0.003c0.28-1.063,0.798-2.03,1.497-2.838c-0.071,0.113-0.114,0.246-0.114,0.389
				c0,0.263,0.136,0.491,0.34,0.623c0.29-0.443,0.53-0.922,0.717-1.426c0.023-0.063,0.043-0.124,0.065-0.188
				c0.039-0.115,0.076-0.229,0.109-0.347c0.138-0.488,0.229-0.996,0.259-1.52c0.002,0.002,0.004,0.005,0.006,0.009
				c0.719,0.917,1.212,2.018,1.41,3.215c0.002,0.005,0.004,0.007,0.007,0.011c0.061,0.376,0.094,0.762,0.094,1.155
				c0,0.134-0.005,0.266-0.012,0.398c-0.026,0.471-0.097,0.928-0.209,1.369c0.106,0.06,0.228,0.097,0.358,0.097
				c0.409,0,0.741-0.332,0.741-0.739c0-0.015-0.003-0.026-0.003-0.041c0.125,0.529,0.192,1.078,0.192,1.646
				C154.654,33.327,154.577,33.921,154.432,34.487z"/>
			<g>
				<path fill="#004C97" d="M131.147,57.422c-0.25,0.218-0.303,0.591-0.083,0.841c0.224,0.255,0.594,0.247,0.843,0.027
					c0.255-0.224,0.302-0.583,0.079-0.838C131.767,57.202,131.402,57.197,131.147,57.422z"/>
				<path fill="#004C97" d="M126.525,49.465l-2.763,1.228l0.438,0.992l2.677-1.187c0.496-0.22,0.917-0.288,1.091,0.104
					c0.173,0.391-0.161,0.658-0.657,0.878l-2.676,1.188l0.442,1l2.764-1.226c0.973-0.432,1.565-1.171,1.09-2.244
					C128.456,49.121,127.493,49.038,126.525,49.465z"/>
				<polygon fill="#004C97" points="127.576,46.82 124.75,47.564 124.745,47.544 127.306,45.747 127.024,44.62 122.371,45.796 
					122.599,46.706 125.466,45.96 125.471,45.979 122.869,47.78 123.159,48.939 127.813,47.764 				"/>
				
					<rect x="122.058" y="42.788" transform="matrix(0.9927 -0.1203 0.1203 0.9927 -4.3086 15.2839)" fill="#004C97" width="4.799" height="1.094"/>
				<polygon fill="#004C97" points="126.649,39.451 121.831,38.292 121.851,39.473 125.372,40.103 125.372,40.116 121.872,40.783 
					121.892,42.013 126.672,40.83 				"/>
				<polygon fill="#004C97" points="127.092,35.159 126.133,35.022 125.942,36.374 124.915,36.228 125.081,35.058 124.195,34.93 
					124.03,36.101 123.097,35.968 123.277,34.695 122.331,34.561 122.005,36.861 126.756,37.541 				"/>
				<path fill="#004C97" d="M127.567,33.276l-1.833-0.538l0.09-0.307l2.014-0.081l0.322-1.102l-2.285,0.187
					c-0.017-0.331-0.291-0.794-0.974-0.994c-0.917-0.27-1.538,0.114-1.797,1.009l-0.432,1.479l4.604,1.351L127.567,33.276z
					 M125.088,32.217l-0.089,0.306l-1.165-0.342l0.095-0.326c0.07-0.241,0.26-0.504,0.728-0.365
					C125.074,31.61,125.173,31.922,125.088,32.217z"/>
				<path fill="#004C97" d="M128.235,27.621c-0.757-0.349-1.313,0.03-1.694,0.341c-0.34,0.27-0.542,0.4-0.813,0.275
					c-0.32-0.148-0.352-0.418-0.25-0.64c0.097-0.21,0.292-0.374,0.532-0.442l-0.491-0.847c-0.387,0.127-0.732,0.438-0.951,0.915
					c-0.292,0.635-0.206,1.535,0.761,1.981c0.725,0.335,1.203,0.075,1.654-0.292c0.358-0.289,0.593-0.43,0.876-0.298
					c0.277,0.128,0.358,0.389,0.248,0.63c-0.117,0.254-0.368,0.459-0.649,0.553l0.505,0.848c0.383-0.139,0.821-0.488,1.063-1.014
					C129.355,28.916,129.177,28.056,128.235,27.621z"/>
				
					<rect x="125.763" y="25.289" transform="matrix(-0.8578 -0.5139 0.5139 -0.8578 224.8295 113.8649)" fill="#004C97" width="4.802" height="1.092"/>
				<path fill="#004C97" d="M131.213,21.607c-1.164-0.913-2.281-1.004-3.128,0.081l-0.832,1.064l3.78,2.964l0.831-1.065
					C132.708,23.571,132.356,22.502,131.213,21.607z M131.125,24.056l-0.163,0.209l-2.285-1.793l0.163-0.207
					c0.322-0.412,0.942-0.391,1.701,0.202C131.272,23.041,131.447,23.644,131.125,24.056z"/>
				<path fill="#004C97" d="M131.911,17.563l-0.997,0.931l2.416,4.317l0.793-0.741l-0.452-0.775l0.788-0.736l0.74,0.507l0.829-0.772
					L131.911,17.563z M133.189,20.594l-1.092-1.774l0.02-0.019l1.673,1.232L133.189,20.594z"/>
				<path fill="#004C97" d="M137.679,19.147c1.138-0.762,1.137-1.891,0.332-3.099c-0.819-1.231-1.851-1.67-2.995-0.903l-1.122,0.752
					l2.663,4L137.679,19.147z M135.554,15.93c0.434-0.29,1.017-0.076,1.55,0.728c0.516,0.772,0.493,1.4,0.059,1.692l-0.219,0.146
					l-1.609-2.418L135.554,15.93z"/>
				<polygon fill="#004C97" points="142.28,16.629 141.867,15.75 140.636,16.333 140.193,15.393 141.259,14.888 140.878,14.077 
					139.812,14.581 139.411,13.727 140.569,13.179 140.162,12.312 138.066,13.304 140.111,17.655 				"/>
				<polygon fill="#004C97" points="145.976,12.528 144.867,12.814 144.624,11.869 145.83,11.555 145.584,10.602 143.321,11.188 
					144.522,15.844 145.585,15.569 145.106,13.714 146.208,13.43 				"/>
				<polygon fill="#004C97" points="148.445,14.031 148.313,13 149.482,12.852 149.368,11.961 148.198,12.111 148.078,11.175 
					149.349,11.013 149.226,10.062 146.928,10.355 147.54,15.126 149.919,14.823 149.796,13.858 				"/>
				<path fill="#004C97" d="M152.259,9.978l-1.349-0.029l-0.103,4.809l1.348,0.028c1.369,0.03,2.012-0.895,2.043-2.347
					C154.23,10.957,153.634,10.007,152.259,9.978z M152.189,13.835l-0.264-0.005l0.062-2.907l0.265,0.006
					c0.522,0.011,0.876,0.521,0.856,1.486C153.087,13.346,152.711,13.847,152.189,13.835z"/>
				<polygon fill="#004C97" points="157.531,14.405 156.188,14.177 156.363,13.152 157.525,13.351 157.676,12.467 156.514,12.269 
					156.673,11.337 157.935,11.553 158.096,10.608 155.812,10.219 155.003,14.96 157.368,15.363 				"/>
				<path fill="#004C97" d="M159.808,14.063l0.303,0.098l0.026,2.022l1.09,0.352l-0.124-2.295c0.33-0.009,0.799-0.271,1.018-0.95
					c0.293-0.911-0.073-1.543-0.956-1.829l-1.464-0.474l-1.472,4.578l0.993,0.321L159.808,14.063z M160.415,12.177l0.322,0.104
					c0.238,0.077,0.495,0.274,0.346,0.739c-0.133,0.414-0.447,0.506-0.738,0.412l-0.303-0.099L160.415,12.177z"/>
				<path fill="#004C97" d="M162.658,17.219l0.574-0.688l0.958,0.492l-0.224,0.87l1.006,0.519l1.16-4.809l-1.211-0.624l-3.228,3.743
					L162.658,17.219z M165.017,14.202l0.024,0.015l-0.588,1.994l-0.729-0.376L165.017,14.202z"/>
				<polygon fill="#004C97" points="167.437,20.17 168.014,19.347 166.967,18.607 169.15,15.498 168.252,14.862 165.492,18.796 				
					"/>
				<path fill="#004C97" d="M173.56,19.323l-0.922-0.986l-3.503,3.287l0.922,0.986c0.937,1.002,2.046,0.817,3.105-0.175
					C174.239,21.424,174.5,20.331,173.56,19.323z M172.415,21.636c-0.678,0.637-1.3,0.717-1.657,0.334l-0.18-0.193l2.118-1.985
					l0.181,0.192C173.233,20.366,173.117,20.978,172.415,21.636z"/>
				<polygon fill="#004C97" points="174.834,25.456 175.569,24.947 174.899,23.976 175.674,23.438 176.403,24.493 177.188,23.949 
					175.87,22.039 171.922,24.773 173.287,26.75 174.084,26.198 173.31,25.076 174.163,24.485 				"/>
				<path fill="#004C97" d="M176.47,29.126l0.184,0.431c0.281,0.655,1,1.13,1.984,0.707c1.052-0.452,1.072-1.319,0.802-1.948
					l-0.588-1.373l-4.409,1.894l0.419,0.979L176.47,29.126z M178.431,28.284l0.136,0.316c0.118,0.275,0.043,0.566-0.35,0.734
					c-0.379,0.164-0.685,0.036-0.803-0.238l-0.136-0.318L178.431,28.284z"/>
				<polygon fill="#004C97" points="176.45,34.565 177.384,34.308 177.022,32.991 178.022,32.715 178.334,33.854 179.197,33.616 
					178.884,32.476 179.792,32.225 180.132,33.463 181.054,33.207 180.438,30.968 175.813,32.248 				"/>
				<polygon fill="#004C97" points="176.946,37.79 177.938,37.647 177.757,36.377 181.512,35.835 181.357,34.745 176.61,35.43 				
					"/>
				<path fill="#004C97" d="M179.447,38.303c-1.525-0.007-2.553,0.694-2.572,1.834c-0.018,1.142,0.987,1.853,2.513,1.859
					c1.518,0.007,2.526-0.694,2.544-1.836C181.95,39.007,180.965,38.31,179.447,38.303z M179.405,40.882
					c-0.834-0.002-1.474-0.25-1.466-0.739c0.008-0.495,0.656-0.73,1.49-0.728c0.834,0.004,1.461,0.245,1.453,0.741
					C180.873,40.645,180.239,40.886,179.405,40.882z"/>
				<polygon fill="#004C97" points="180.64,43.819 176.807,43.242 176.65,44.297 180.483,44.874 180.354,45.748 181.265,45.886 
					181.682,43.084 180.771,42.946 				"/>
				<path fill="#004C97" d="M176.255,46.203l0.787,0.429l-0.295,1.039l-0.895-0.05l-0.31,1.091l4.932,0.198l0.373-1.313
					l-4.296-2.439L176.255,46.203z M177.817,46.98l1.851,0.951l-0.008,0.026l-2.067-0.188L177.817,46.98z"/>
				<path fill="#004C97" d="M178.381,50.727c-0.728-0.331-1.204-0.071-1.654,0.297c-0.356,0.293-0.591,0.433-0.875,0.303
					c-0.277-0.127-0.359-0.39-0.25-0.63c0.115-0.254,0.365-0.459,0.646-0.555l-0.509-0.846c-0.383,0.14-0.819,0.492-1.058,1.017
					c-0.326,0.718-0.144,1.578,0.8,2.009c0.759,0.346,1.312-0.034,1.691-0.346c0.339-0.271,0.541-0.403,0.812-0.279
					c0.321,0.146,0.354,0.415,0.253,0.639c-0.095,0.21-0.29,0.375-0.53,0.445l0.495,0.844c0.387-0.128,0.73-0.442,0.946-0.918
					C179.439,52.069,179.349,51.171,178.381,50.727z"/>
				<path fill="#004C97" d="M171.776,57.34c-0.218,0.253-0.173,0.615,0.083,0.839c0.25,0.218,0.626,0.219,0.843-0.032
					c0.222-0.257,0.162-0.623-0.089-0.841C172.357,57.082,171.997,57.085,171.776,57.34z"/>
				<path fill="#004C97" d="M140.213,64.045c0.468-0.835,0.233-1.528-0.575-1.983l-1.34-0.757l-2.348,4.194l0.909,0.513l0.935-1.67
					l0.278,0.155l-0.374,1.988l0.997,0.562l0.334-2.274C139.354,64.831,139.865,64.667,140.213,64.045z M139.25,63.573
					c-0.212,0.378-0.538,0.405-0.804,0.255l-0.277-0.156l0.593-1.06l0.296,0.165C139.276,62.901,139.489,63.146,139.25,63.573z"/>
				<path fill="#004C97" d="M143.085,63.515c-0.652-0.25-1.542-0.102-1.921,0.894c-0.285,0.749,0.004,1.208,0.399,1.637
					c0.314,0.338,0.467,0.563,0.356,0.856c-0.109,0.285-0.364,0.383-0.611,0.289c-0.259-0.1-0.481-0.337-0.593-0.613l-0.81,0.563
					c0.162,0.374,0.541,0.788,1.08,0.994c0.734,0.282,1.579,0.044,1.948-0.926c0.298-0.781-0.118-1.311-0.452-1.671
					c-0.291-0.323-0.435-0.516-0.328-0.795c0.126-0.33,0.392-0.381,0.62-0.294c0.215,0.083,0.392,0.267,0.476,0.503l0.811-0.549
					C143.906,64.025,143.573,63.701,143.085,63.515z"/>
				
					<rect x="144.036" y="66.827" transform="matrix(-0.9671 -0.2544 0.2544 -0.9671 267.5061 169.0631)" fill="#004C97" width="1.301" height="0.808"/>
				<path fill="#004C97" d="M148.333,64.978l-1.422-0.2l-0.672,4.763l1.577,0.222c0.678,0.096,1.458-0.145,1.6-1.161
					c0.095-0.664-0.244-1.083-0.593-1.228l0.002-0.015c0.35-0.108,0.659-0.401,0.737-0.959
					C149.708,65.37,148.923,65.061,148.333,64.978z M148.41,68.357c-0.053,0.376-0.328,0.529-0.643,0.485l-0.402-0.057l0.163-1.158
					l0.389,0.055C148.191,67.722,148.47,67.933,148.41,68.357z M148.591,66.44c-0.052,0.378-0.321,0.49-0.583,0.453l-0.369-0.052
					l0.145-1.029l0.362,0.052C148.421,65.902,148.644,66.071,148.591,66.44z"/>
				<path fill="#004C97" d="M153.802,66.639c-0.013-0.958-0.562-1.438-1.489-1.422l-1.538,0.024l0.064,4.809l1.044-0.017
					l-0.026-1.917l0.318-0.005l0.669,1.904l1.145-0.018l-0.849-2.132C153.452,67.751,153.812,67.352,153.802,66.639z
					 M152.165,67.346l-0.318,0.004l-0.017-1.215l0.339-0.006c0.25-0.004,0.557,0.1,0.563,0.589
					C152.738,67.151,152.47,67.339,152.165,67.346z"/>
				<path fill="#004C97" d="M155.554,64.956l-0.31,4.938l1.067-0.189l0.042-0.896l1.061-0.188l0.346,0.828l1.115-0.196l-1.979-4.534
					L155.554,64.956z M156.327,67.956l0.044-2.082l0.027-0.006l0.737,1.946L156.327,67.956z"/>
				<path fill="#004C97" d="M160.821,65.668c-0.429-0.063-0.662-0.12-0.758-0.403c-0.113-0.335,0.061-0.543,0.292-0.622
					c0.218-0.073,0.471-0.044,0.686,0.084l0.277-0.939c-0.358-0.195-0.821-0.232-1.316-0.065c-0.662,0.224-1.255,0.906-0.916,1.916
					c0.255,0.76,0.771,0.929,1.347,1.008c0.457,0.061,0.719,0.137,0.818,0.433c0.098,0.291-0.037,0.529-0.287,0.613
					c-0.264,0.09-0.585,0.047-0.847-0.094l-0.267,0.951c0.362,0.185,0.918,0.264,1.464,0.079c0.745-0.253,1.246-0.974,0.915-1.959
					C161.964,65.877,161.308,65.733,160.821,65.668z"/>
				<polygon fill="#004C97" points="161.874,63.134 163.886,67.501 164.876,67.043 162.864,62.674 				"/>
				<polygon fill="#004C97" points="166.636,64.944 164.706,61.669 163.761,62.23 166.201,66.37 168.249,65.155 167.738,64.289 				
					"/>
			</g>
			<g>
				<path fill="#FFFFFF" d="M167.751,39.063c-0.32,0-0.634-0.023-0.942-0.065c2.02-1.51,3.737-4.055,3.737-6.317
					c0-0.432-0.031-0.852-0.088-1.257c-0.501-3.559-3.124-6.068-6.62-6.079l0,0c-0.003,0-0.007,0-0.011,0c-0.004,0-0.008,0-0.011,0
					l0,0c-3.496,0.011-6.119,2.521-6.62,6.079c-0.057,0.405-0.088,0.825-0.088,1.257c0,2.263,1.717,4.808,3.737,6.317
					c-0.308,0.042-0.622,0.065-0.942,0.065c-0.87,0-1.701-0.164-2.467-0.461h-0.118v1.602h5.869v-0.014
					c0.01,0.003,0.02,0.005,0.029,0.009c-1.417-0.94-3.091-3.145-3.425-3.74c-0.607-1.08-0.967-2.418-0.967-3.867
					c0-3.587,2.2-6.495,4.915-6.495c0.013,0,0.051,0,0.089,0c0.038,0,0.076,0,0.089,0c2.714,0,4.915,2.908,4.915,6.495
					c0,1.449-0.36,2.787-0.967,3.867c-0.335,0.596-2.008,2.8-3.425,3.74c0.01-0.004,0.02-0.006,0.029-0.009v0.014h5.87v-1.602
					h-0.118C169.452,38.898,168.622,39.063,167.751,39.063z"/>
				<path fill="#FFFFFF" d="M144.313,36.958l-4.22-12.236l-4.219,12.233c-0.586,1.348-1.574,2.48-2.817,3.239h1.295h0.405h2.401
					h0.101h1.234l-1.064-1.418l0.534-1.955h4.263l0.533,1.955l-1.07,1.418h1.34h0.255h2.146h0.741h0.96
					C145.887,39.436,144.9,38.305,144.313,36.958z M138.301,35.397l1.793-7.529l1.792,7.529H138.301z"/>
			</g>
			<path fill="#F5D200" d="M152.808,33.669c-0.007,0.018-0.013,0.035-0.019,0.049c-0.001-0.011-0.002-0.021-0.003-0.032l0,0
				c-0.037-0.25-0.057-0.506-0.057-0.767c0-0.371,0.137-1.208,0.137-1.208c0.054-0.306,0.088-0.619,0.088-0.941
				c0-1.006-0.285-1.942-0.769-2.745c-0.065,1.314-0.696,2.545-1.364,3.262c-0.129-0.188-0.248-0.383-0.353-0.585
				c-0.164,0.391-0.283,0.806-0.35,1.236c0,0.002-0.001,0.002-0.002,0.003c-0.002,0.014-0.002,0.027-0.004,0.041
				c-0.005,0.03-0.012,0.06-0.015,0.09h0.003c-0.031,0.227-0.053,0.455-0.053,0.69c0,0.604,0.105,1.185,0.291,1.726h2.814
				c0.271-0.481,0.463-1.011,0.573-1.57c0.018-0.117,0.034-0.225,0.048-0.325C153.521,33.007,153.193,33.373,152.808,33.669z"/>
			<path fill="#A2D5ED" d="M142.792,31.2l0.619,1.792l5.109-0.267c0-0.004,0-0.007,0-0.01c0-0.271,0.018-0.538,0.046-0.807
				L142.792,31.2z"/>
			<path fill="#A2D5ED" d="M141.264,19.853l8.021,9.559c0.176-0.362,0.381-0.71,0.614-1.041l-5.1-10.007
				C143.572,18.762,142.391,19.262,141.264,19.853z"/>
			<path fill="#A2D5ED" d="M159.263,32.591c0,0.117,0.005,0.234,0.01,0.35l9.074,0.477c0.028-0.271,0.044-0.548,0.044-0.826
				c0-0.804-0.117-1.571-0.328-2.273l-8.712,1.069C159.293,31.776,159.263,32.179,159.263,32.591z"/>
			<path fill="#A2D5ED" d="M170.985,32.68c0,0.29-0.026,0.581-0.073,0.871l2.796,0.147c-0.39-1.352-0.902-2.651-1.523-3.887
				l-1.593,0.195c0.132,0.432,0.233,0.883,0.3,1.355C170.954,31.798,170.985,32.241,170.985,32.68z"/>
			<path fill="#A2D5ED" d="M156.674,32.804c-0.001-0.041-0.005-0.082-0.005-0.124c0-0.322,0.022-0.646,0.056-0.97l-1.677,0.206
				c0.029,0.267,0.044,0.532,0.044,0.8c0,0.002,0,0.005,0,0.006L156.674,32.804z"/>
			<path fill="#A2D5ED" d="M158.859,18.362l-5.04,9.891c0.031,0.132,0.06,0.263,0.083,0.396l0.008,0.01l0.017,0.102
				c0.058,0.356,0.086,0.716,0.094,1.071l8.375-9.981C161.269,19.259,160.087,18.76,158.859,18.362z"/>
			<polygon fill="#A2D5ED" points="140.364,30.902 139.838,30.838 139.273,33.209 140.894,33.124 			"/>
			<path fill="#A2D5ED" d="M145.667,38.339l2.525-2.355v-0.34v-0.637l-3.238,2.267C145.157,37.653,145.398,38.008,145.667,38.339z"
				/>
			<path fill="#A2D5ED" d="M163.187,40.643h-2.718l3.21,2.993h1.476h0.461l-0.023,0.461c-0.02,0.41-0.061,0.816-0.116,1.215
				l6.233,5.813c0.642-1.145,1.187-2.352,1.625-3.609l-9.815-6.872H163.187z"/>
			<path fill="#A2D5ED" d="M158.236,36.942l-2.763-1.934v0.635v0.341l2.509,2.34c0.562,0.177,1.14,0.279,1.73,0.296
				C159.185,38.128,158.68,37.56,158.236,36.942z"/>
			<path fill="#A2D5ED" d="M141.688,40.634h-0.88l0.53-0.704l0.197-0.261l-11.204,7.846c0.438,1.258,0.983,2.465,1.625,3.609
				l6.232-5.813c-0.056-0.398-0.096-0.805-0.116-1.215l-0.023-0.461h0.462h1.476l3.219-3.002h-0.177H141.688z"/>
			<path fill="#A2D5ED" d="M137.614,30.565l-6.135-0.754c-0.621,1.235-1.133,2.535-1.523,3.887l6.699-0.352L137.614,30.565z"/>
			<g>
				<rect x="148.631" y="34.683" fill="#FFFFFF" width="6.403" height="0.961"/>
				<rect x="149.343" y="36" fill="#FFFFFF" width="4.98" height="0.818"/>
				<polygon fill="#FFFFFF" points="152.362,58.521 151.827,57.901 151.292,58.521 151.299,59.479 152.366,59.479 				"/>
				<rect x="151.548" y="61.633" fill="#FFFFFF" width="0.57" height="0.269"/>
				<rect x="150.766" y="59.838" fill="#FFFFFF" width="2.134" height="0.622"/>
				<polygon fill="#FFFFFF" points="151.3,61.048 151.551,61.278 152.115,61.278 152.366,61.048 152.366,60.815 151.3,60.815 				
					"/>
				<path fill="#FFFFFF" d="M150.809,43.636h2.048c0.159-2.168,0.458-4.388,0.894-6.461h-3.836
					C150.35,39.248,150.65,41.468,150.809,43.636z"/>
			</g>
			<g>
				<path fill="#B2D235" d="M164.922,55.796c-0.746,0.999-1.933,1.648-3.276,1.648c-1.339,0-2.524-0.646-3.27-1.642
					c-0.746,0.999-1.933,1.648-3.275,1.648c-1.342,0-2.529-0.649-3.275-1.648c-0.747,0.995-1.931,1.642-3.271,1.642
					c-1.342,0-2.529-0.649-3.275-1.648c-0.746,0.993-1.93,1.641-3.27,1.641c-1.341,0-2.529-0.649-3.275-1.648
					c-0.471,0.628-1.116,1.116-1.865,1.391c0.41,0.357,0.833,0.701,1.267,1.028c0.221-0.192,0.422-0.405,0.598-0.639
					c0.746,0.997,1.934,1.646,3.275,1.646c1.34,0,2.524-0.646,3.271-1.64c0.745,0.998,1.933,1.646,3.274,1.646
					c1.339,0,2.523-0.646,3.271-1.64c0.745,0.998,1.933,1.647,3.275,1.647c1.342,0,2.529-0.649,3.275-1.647
					c0.746,0.994,1.931,1.64,3.27,1.64c1.342,0,2.53-0.648,3.276-1.646c0.175,0.232,0.376,0.447,0.596,0.639
					c0.435-0.327,0.858-0.671,1.267-1.028C166.038,56.911,165.393,56.424,164.922,55.796z"/>
				<path fill="#B2D235" d="M164.922,52.238c-0.746,0.999-1.933,1.648-3.276,1.648c-1.339,0-2.524-0.646-3.27-1.64
					c-0.746,0.998-1.933,1.646-3.275,1.646c-1.342,0-2.529-0.648-3.275-1.646c-0.747,0.994-1.931,1.64-3.271,1.64
					c-1.342,0-2.529-0.649-3.275-1.648c-0.746,0.995-1.93,1.642-3.27,1.642c-1.341,0-2.529-0.65-3.275-1.648
					c-0.747,0.994-1.931,1.642-3.27,1.642c-0.795,0-1.535-0.23-2.163-0.624c0.603,0.842,1.261,1.641,1.97,2.392
					c0.064,0.003,0.127,0.011,0.193,0.011c1.339,0,2.523-0.646,3.27-1.641c0.746,0.998,1.934,1.647,3.275,1.647
					c1.34,0,2.524-0.646,3.27-1.641c0.746,0.998,1.934,1.646,3.275,1.646c1.339,0,2.523-0.646,3.271-1.64
					c0.746,0.998,1.933,1.648,3.275,1.648c1.342,0,2.529-0.65,3.275-1.648c0.746,0.994,1.931,1.64,3.27,1.64
					c1.343,0,2.53-0.648,3.276-1.646c0.746,0.994,1.931,1.641,3.269,1.641c0.066,0,0.13-0.007,0.195-0.011
					c0.71-0.752,1.369-1.551,1.972-2.394c-0.628,0.394-1.37,0.626-2.167,0.626C166.853,53.88,165.668,53.233,164.922,52.238z"/>
			</g>
			<path fill="#F9A51A" d="M142.921,53.323c0.793-0.204,1.499-0.669,2.008-1.348l0.352-0.469l0.351,0.469
				c0.699,0.936,1.764,1.473,2.923,1.473c1.156,0,2.221-0.535,2.919-1.465l0.352-0.47l0.352,0.47
				c0.698,0.936,1.764,1.472,2.923,1.472s2.225-0.536,2.923-1.472l0.352-0.47l0.352,0.47c0.51,0.679,1.215,1.143,2.008,1.348
				c2.565-2.303,4.236-5.583,4.419-9.256H138.51C138.692,47.744,140.36,51.021,142.921,53.323z"/>
		</g>
		<rect x="201.728" fill="#004C97" width="0.41" height="80"/>
	</g>
</g>
<g>
	<path fill="#004C97" d="M-0.295,29.986h3.276c0.656,0,1.258,0.106,1.806,0.318s1.02,0.506,1.416,0.882s0.702,0.818,0.918,1.326
		c0.216,0.508,0.324,1.058,0.324,1.65v0.023c0,0.593-0.108,1.145-0.324,1.656c-0.216,0.512-0.522,0.956-0.918,1.332
		s-0.868,0.672-1.416,0.888s-1.15,0.324-1.806,0.324h-3.276V29.986z M2.981,36.719c0.376,0,0.72-0.06,1.032-0.18
		s0.578-0.292,0.798-0.517c0.22-0.224,0.392-0.487,0.516-0.792c0.124-0.304,0.186-0.644,0.186-1.02v-0.024
		c0-0.368-0.062-0.708-0.186-1.02c-0.124-0.313-0.296-0.58-0.516-0.805c-0.22-0.224-0.486-0.397-0.798-0.521
		s-0.656-0.187-1.032-0.187H1.553v5.064H2.981z"/>
	<path fill="#004C97" d="M11.345,38.53c-0.48,0-0.926-0.08-1.338-0.239c-0.412-0.16-0.768-0.389-1.068-0.685
		s-0.534-0.646-0.702-1.05c-0.168-0.403-0.252-0.854-0.252-1.35v-0.024c0-0.456,0.078-0.888,0.234-1.296
		c0.156-0.408,0.374-0.764,0.654-1.068c0.28-0.304,0.614-0.544,1.002-0.72c0.388-0.176,0.818-0.264,1.29-0.264
		c0.536,0,1,0.096,1.392,0.288c0.392,0.191,0.718,0.449,0.978,0.773c0.26,0.324,0.452,0.696,0.576,1.116s0.186,0.858,0.186,1.314
		c0,0.071-0.002,0.147-0.006,0.228c-0.004,0.08-0.01,0.164-0.018,0.252H9.797c0.088,0.416,0.27,0.73,0.546,0.942
		c0.276,0.212,0.618,0.317,1.026,0.317c0.304,0,0.576-0.052,0.816-0.155c0.24-0.104,0.488-0.272,0.744-0.505l1.044,0.925
		c-0.304,0.376-0.672,0.67-1.104,0.882C12.438,38.425,11.929,38.53,11.345,38.53z M12.521,34.667c-0.056-0.408-0.2-0.738-0.432-0.99
		s-0.54-0.378-0.924-0.378c-0.384,0-0.694,0.124-0.93,0.372s-0.39,0.58-0.462,0.996H12.521z"/>
	<path fill="#004C97" d="M15.053,31.955h1.824v0.924c0.224-0.304,0.494-0.554,0.81-0.75c0.316-0.196,0.714-0.294,1.194-0.294
		c0.376,0,0.74,0.071,1.092,0.216c0.352,0.144,0.664,0.358,0.936,0.642c0.272,0.284,0.49,0.633,0.654,1.044
		c0.164,0.412,0.246,0.887,0.246,1.423v0.023c0,0.536-0.082,1.01-0.246,1.422c-0.164,0.412-0.38,0.761-0.648,1.044
		c-0.269,0.284-0.578,0.498-0.93,0.643c-0.352,0.144-0.72,0.216-1.104,0.216c-0.488,0-0.89-0.096-1.206-0.288
		s-0.582-0.416-0.798-0.672v2.76h-1.824V31.955z M18.413,36.959c0.216,0,0.418-0.042,0.606-0.126
		c0.188-0.084,0.354-0.204,0.498-0.36c0.144-0.156,0.258-0.342,0.342-0.558c0.084-0.217,0.126-0.46,0.126-0.732v-0.023
		c0-0.265-0.042-0.506-0.126-0.727c-0.084-0.22-0.198-0.408-0.342-0.563c-0.144-0.156-0.31-0.276-0.498-0.36
		c-0.188-0.084-0.39-0.126-0.606-0.126c-0.216,0-0.418,0.042-0.606,0.126s-0.352,0.204-0.492,0.36
		c-0.14,0.155-0.252,0.344-0.336,0.563c-0.084,0.221-0.126,0.462-0.126,0.727v0.023c0,0.264,0.042,0.506,0.126,0.727
		c0.084,0.22,0.196,0.407,0.336,0.563c0.14,0.156,0.304,0.276,0.492,0.36S18.197,36.959,18.413,36.959z"/>
	<path fill="#004C97" d="M24.377,38.507c-0.304,0-0.59-0.042-0.858-0.126c-0.269-0.084-0.502-0.21-0.702-0.378
		c-0.2-0.168-0.358-0.374-0.474-0.618c-0.116-0.244-0.174-0.526-0.174-0.846v-0.024c0-0.352,0.064-0.656,0.192-0.912
		s0.306-0.468,0.534-0.636s0.5-0.294,0.816-0.378c0.316-0.084,0.666-0.126,1.05-0.126c0.328,0,0.614,0.023,0.858,0.072
		c0.244,0.048,0.482,0.111,0.714,0.191v-0.107c0-0.385-0.116-0.677-0.348-0.876c-0.232-0.2-0.576-0.301-1.032-0.301
		c-0.352,0-0.662,0.03-0.93,0.091c-0.268,0.06-0.55,0.146-0.846,0.258l-0.456-1.393c0.352-0.151,0.72-0.275,1.104-0.372
		c0.384-0.096,0.848-0.144,1.392-0.144c0.504,0,0.934,0.062,1.29,0.186s0.65,0.303,0.882,0.534c0.24,0.24,0.416,0.534,0.528,0.882
		c0.112,0.349,0.168,0.738,0.168,1.17v3.732h-1.764V37.69c-0.224,0.248-0.492,0.446-0.804,0.595
		C25.205,38.433,24.825,38.507,24.377,38.507z M24.929,37.247c0.432,0,0.778-0.104,1.038-0.313c0.26-0.208,0.39-0.479,0.39-0.815
		v-0.324c-0.16-0.072-0.338-0.13-0.534-0.174c-0.196-0.044-0.406-0.066-0.63-0.066c-0.392,0-0.7,0.076-0.924,0.229
		c-0.224,0.151-0.336,0.371-0.336,0.659v0.024c0,0.248,0.092,0.44,0.276,0.576C24.393,37.179,24.633,37.247,24.929,37.247z"/>
	<path fill="#004C97" d="M29.057,31.955h1.824v1.296c0.184-0.44,0.436-0.792,0.756-1.057c0.32-0.264,0.752-0.384,1.296-0.359v1.908
		h-0.096c-0.608,0-1.086,0.184-1.434,0.552c-0.348,0.368-0.522,0.939-0.522,1.716v2.376h-1.824V31.955z"/>
	<path fill="#004C97" d="M35.645,38.495c-0.28,0-0.534-0.03-0.762-0.091c-0.228-0.06-0.424-0.165-0.588-0.317
		c-0.164-0.152-0.292-0.35-0.384-0.594s-0.138-0.555-0.138-0.931v-3.048h-0.768v-1.56h0.768v-1.645h1.824v1.645h1.512v1.56h-1.512
		v2.758c0,0.418,0.196,0.626,0.588,0.626c0.32,0,0.62-0.08,0.9-0.239v1.464c-0.192,0.111-0.404,0.202-0.636,0.27
		C36.217,38.461,35.949,38.495,35.645,38.495z"/>
	<path fill="#004C97" d="M39.677,38.507c-0.304,0-0.59-0.042-0.858-0.126c-0.269-0.084-0.502-0.21-0.702-0.378
		c-0.2-0.168-0.358-0.374-0.474-0.618c-0.116-0.244-0.174-0.526-0.174-0.846v-0.024c0-0.352,0.064-0.656,0.192-0.912
		s0.306-0.468,0.534-0.636s0.5-0.294,0.816-0.378c0.316-0.084,0.666-0.126,1.05-0.126c0.328,0,0.614,0.023,0.858,0.072
		c0.244,0.048,0.482,0.111,0.714,0.191v-0.107c0-0.385-0.116-0.677-0.348-0.876c-0.232-0.2-0.576-0.301-1.032-0.301
		c-0.352,0-0.662,0.03-0.93,0.091c-0.268,0.06-0.55,0.146-0.846,0.258l-0.456-1.393c0.352-0.151,0.72-0.275,1.104-0.372
		c0.384-0.096,0.848-0.144,1.392-0.144c0.504,0,0.934,0.062,1.29,0.186s0.65,0.303,0.882,0.534c0.24,0.24,0.416,0.534,0.528,0.882
		c0.112,0.349,0.168,0.738,0.168,1.17v3.732h-1.764V37.69c-0.224,0.248-0.492,0.446-0.804,0.595
		C40.504,38.433,40.125,38.507,39.677,38.507z M40.229,37.247c0.432,0,0.778-0.104,1.038-0.313c0.26-0.208,0.39-0.479,0.39-0.815
		v-0.324c-0.16-0.072-0.338-0.13-0.534-0.174c-0.196-0.044-0.406-0.066-0.63-0.066c-0.392,0-0.7,0.076-0.924,0.229
		c-0.224,0.151-0.336,0.371-0.336,0.659v0.024c0,0.248,0.092,0.44,0.276,0.576C39.692,37.179,39.933,37.247,40.229,37.247z"/>
	<path fill="#004C97" d="M44.357,31.955h1.824v0.919c0.104-0.137,0.218-0.268,0.342-0.393s0.262-0.235,0.414-0.332
		s0.322-0.174,0.51-0.229c0.188-0.057,0.398-0.085,0.63-0.085c0.424,0,0.79,0.089,1.098,0.266c0.308,0.178,0.546,0.431,0.714,0.762
		c0.28-0.339,0.592-0.595,0.936-0.768c0.344-0.174,0.736-0.26,1.176-0.26c0.68,0,1.212,0.2,1.596,0.6
		c0.384,0.4,0.576,0.988,0.576,1.764v4.188h-1.824v-3.579c0-0.431-0.092-0.756-0.276-0.976c-0.185-0.22-0.448-0.329-0.792-0.329
		c-0.344,0-0.614,0.109-0.81,0.329c-0.196,0.22-0.294,0.545-0.294,0.976v3.579h-1.824v-3.579c0-0.431-0.092-0.756-0.276-0.976
		c-0.184-0.22-0.448-0.329-0.792-0.329c-0.344,0-0.614,0.109-0.81,0.329c-0.196,0.22-0.294,0.545-0.294,0.976v3.579h-1.824V31.955z"
		/>
	<path fill="#004C97" d="M58.205,38.53c-0.48,0-0.926-0.08-1.338-0.239c-0.412-0.16-0.768-0.389-1.068-0.685
		s-0.534-0.646-0.702-1.05c-0.168-0.403-0.252-0.854-0.252-1.35v-0.024c0-0.456,0.078-0.888,0.234-1.296
		c0.156-0.408,0.374-0.764,0.654-1.068c0.28-0.304,0.614-0.544,1.002-0.72c0.388-0.176,0.818-0.264,1.29-0.264
		c0.536,0,1,0.096,1.392,0.288c0.392,0.191,0.718,0.449,0.978,0.773c0.26,0.324,0.452,0.696,0.576,1.116s0.186,0.858,0.186,1.314
		c0,0.071-0.002,0.147-0.006,0.228c-0.004,0.08-0.01,0.164-0.018,0.252h-4.476c0.088,0.416,0.27,0.73,0.546,0.942
		c0.276,0.212,0.618,0.317,1.026,0.317c0.304,0,0.576-0.052,0.816-0.155c0.24-0.104,0.488-0.272,0.744-0.505l1.044,0.925
		c-0.304,0.376-0.672,0.67-1.104,0.882C59.297,38.425,58.789,38.53,58.205,38.53z M59.381,34.667c-0.056-0.408-0.2-0.738-0.432-0.99
		s-0.54-0.378-0.924-0.378c-0.384,0-0.694,0.124-0.93,0.372s-0.39,0.58-0.462,0.996H59.381z"/>
	<path fill="#004C97" d="M61.913,31.955h1.824v0.919c0.104-0.137,0.218-0.268,0.342-0.393s0.262-0.235,0.414-0.332
		s0.32-0.174,0.504-0.229c0.184-0.057,0.392-0.085,0.624-0.085c0.696,0,1.234,0.212,1.614,0.636c0.38,0.424,0.57,1.008,0.57,1.752
		v4.164H65.98v-3.579c0-0.431-0.096-0.756-0.288-0.976c-0.192-0.22-0.464-0.329-0.816-0.329s-0.63,0.109-0.834,0.329
		c-0.204,0.22-0.306,0.545-0.306,0.976v3.579h-1.824V31.955z"/>
	<path fill="#004C97" d="M70.96,38.495c-0.28,0-0.534-0.03-0.762-0.091c-0.228-0.06-0.424-0.165-0.588-0.317
		c-0.164-0.152-0.292-0.35-0.384-0.594s-0.138-0.555-0.138-0.931v-3.048h-0.768v-1.56h0.768v-1.645h1.824v1.645h1.512v1.56h-1.512
		v2.758c0,0.418,0.196,0.626,0.588,0.626c0.32,0,0.62-0.08,0.9-0.239v1.464c-0.192,0.111-0.404,0.202-0.636,0.27
		C71.533,38.461,71.265,38.495,70.96,38.495z"/>
	<path fill="#004C97" d="M76.325,38.53c-0.496,0-0.956-0.086-1.38-0.258c-0.424-0.172-0.79-0.408-1.098-0.708
		c-0.308-0.3-0.55-0.651-0.726-1.056c-0.176-0.404-0.264-0.838-0.264-1.302v-0.024c0-0.464,0.088-0.897,0.264-1.302
		c0.176-0.404,0.42-0.758,0.732-1.063c0.312-0.304,0.68-0.544,1.104-0.72c0.424-0.176,0.888-0.264,1.392-0.264
		c0.496,0,0.956,0.086,1.38,0.258c0.424,0.172,0.79,0.408,1.098,0.708c0.308,0.3,0.55,0.652,0.726,1.056
		c0.176,0.404,0.264,0.839,0.264,1.303v0.023c0,0.464-0.088,0.898-0.264,1.302c-0.176,0.404-0.42,0.759-0.732,1.063
		s-0.68,0.544-1.104,0.72C77.292,38.442,76.829,38.53,76.325,38.53z M76.349,36.959c0.264,0,0.498-0.046,0.702-0.139
		c0.204-0.092,0.378-0.218,0.522-0.378c0.144-0.159,0.253-0.346,0.33-0.558s0.114-0.438,0.114-0.678v-0.024
		c0-0.24-0.04-0.466-0.12-0.678s-0.196-0.4-0.348-0.564s-0.332-0.294-0.54-0.39s-0.436-0.145-0.684-0.145
		c-0.264,0-0.498,0.047-0.702,0.139s-0.378,0.218-0.522,0.378s-0.254,0.346-0.33,0.558s-0.114,0.438-0.114,0.679v0.023
		c0,0.24,0.04,0.466,0.12,0.678c0.08,0.213,0.196,0.4,0.348,0.564s0.33,0.294,0.534,0.39C75.862,36.911,76.092,36.959,76.349,36.959
		z"/>
	<path fill="#004C97" d="M86.176,38.507c-0.376,0-0.74-0.072-1.092-0.216c-0.352-0.145-0.664-0.358-0.936-0.643
		c-0.272-0.283-0.49-0.632-0.654-1.044s-0.246-0.886-0.246-1.422v-0.023c0-0.536,0.082-1.011,0.246-1.423
		c0.164-0.411,0.38-0.76,0.648-1.044c0.268-0.283,0.578-0.498,0.93-0.642c0.352-0.145,0.72-0.216,1.104-0.216
		c0.488,0,0.89,0.096,1.206,0.288c0.316,0.191,0.582,0.416,0.798,0.672v-3.168h1.824v8.76H88.18v-0.924
		c-0.224,0.304-0.494,0.554-0.81,0.75C87.054,38.408,86.656,38.507,86.176,38.507z M86.644,36.959c0.216,0,0.418-0.042,0.606-0.126
		s0.352-0.204,0.492-0.36s0.252-0.344,0.336-0.563c0.084-0.221,0.126-0.463,0.126-0.727v-0.023c0-0.265-0.042-0.506-0.126-0.727
		c-0.084-0.22-0.196-0.408-0.336-0.563c-0.14-0.156-0.304-0.276-0.492-0.36s-0.39-0.126-0.606-0.126
		c-0.216,0-0.418,0.042-0.606,0.126s-0.354,0.204-0.498,0.36c-0.144,0.155-0.258,0.342-0.342,0.558s-0.126,0.46-0.126,0.732v0.023
		c0,0.264,0.042,0.506,0.126,0.727c0.084,0.22,0.198,0.407,0.342,0.563s0.31,0.276,0.498,0.36S86.428,36.959,86.644,36.959z"/>
	<path fill="#004C97" d="M94.083,38.53c-0.48,0-0.926-0.08-1.338-0.239c-0.412-0.16-0.768-0.389-1.068-0.685
		s-0.534-0.646-0.702-1.05c-0.168-0.403-0.252-0.854-0.252-1.35v-0.024c0-0.456,0.078-0.888,0.234-1.296
		c0.156-0.408,0.374-0.764,0.654-1.068c0.28-0.304,0.614-0.544,1.002-0.72c0.388-0.176,0.818-0.264,1.29-0.264
		c0.536,0,1,0.096,1.392,0.288c0.392,0.191,0.718,0.449,0.978,0.773c0.26,0.324,0.452,0.696,0.576,1.116s0.186,0.858,0.186,1.314
		c0,0.071-0.002,0.147-0.006,0.228c-0.004,0.08-0.01,0.164-0.018,0.252h-4.476c0.088,0.416,0.27,0.73,0.546,0.942
		c0.276,0.212,0.618,0.317,1.026,0.317c0.304,0,0.576-0.052,0.816-0.155c0.24-0.104,0.488-0.272,0.744-0.505l1.044,0.925
		c-0.304,0.376-0.672,0.67-1.104,0.882C95.176,38.425,94.667,38.53,94.083,38.53z M95.26,34.667c-0.056-0.408-0.2-0.738-0.432-0.99
		s-0.54-0.378-0.924-0.378c-0.384,0-0.694,0.124-0.93,0.372s-0.39,0.58-0.462,0.996H95.26z"/>
	<path fill="#004C97" d="M11.981,42.986h1.992l2.208,3.553l2.208-3.553h1.992v8.4h-1.824v-5.484l-2.364,3.588h-0.048l-2.34-3.552
		v5.448h-1.824V42.986z"/>
	<path fill="#004C97" d="M24.653,51.53c-0.48,0-0.926-0.08-1.338-0.239c-0.412-0.16-0.768-0.389-1.068-0.685
		s-0.534-0.646-0.702-1.05c-0.168-0.403-0.252-0.854-0.252-1.35v-0.024c0-0.456,0.078-0.888,0.234-1.296
		c0.156-0.408,0.374-0.764,0.654-1.068c0.28-0.304,0.614-0.544,1.002-0.72c0.388-0.176,0.818-0.264,1.29-0.264
		c0.536,0,1,0.096,1.392,0.288c0.392,0.191,0.718,0.449,0.978,0.773c0.26,0.324,0.452,0.696,0.576,1.116s0.186,0.858,0.186,1.314
		c0,0.071-0.002,0.147-0.006,0.228c-0.004,0.08-0.01,0.164-0.018,0.252h-4.476c0.088,0.416,0.27,0.73,0.546,0.942
		c0.276,0.212,0.618,0.317,1.026,0.317c0.304,0,0.576-0.052,0.816-0.155c0.24-0.104,0.488-0.272,0.744-0.505l1.044,0.925
		c-0.304,0.376-0.672,0.67-1.104,0.882C25.745,51.425,25.237,51.53,24.653,51.53z M25.829,47.667c-0.056-0.408-0.2-0.738-0.432-0.99
		s-0.54-0.378-0.924-0.378c-0.384,0-0.694,0.124-0.93,0.372s-0.39,0.58-0.462,0.996H25.829z"/>
	<path fill="#004C97" d="M31.001,51.507c-0.376,0-0.74-0.072-1.092-0.216c-0.352-0.145-0.664-0.358-0.936-0.643
		c-0.272-0.283-0.49-0.632-0.654-1.044s-0.246-0.886-0.246-1.422v-0.023c0-0.536,0.082-1.011,0.246-1.423
		c0.164-0.411,0.38-0.76,0.648-1.044c0.268-0.283,0.578-0.498,0.93-0.642c0.352-0.145,0.72-0.216,1.104-0.216
		c0.488,0,0.89,0.096,1.206,0.288c0.316,0.191,0.582,0.416,0.798,0.672v-3.168h1.824v8.76h-1.824v-0.924
		c-0.224,0.304-0.494,0.554-0.81,0.75C31.879,51.408,31.481,51.507,31.001,51.507z M31.469,49.959c0.216,0,0.418-0.042,0.606-0.126
		s0.352-0.204,0.492-0.36s0.252-0.344,0.336-0.563c0.084-0.221,0.126-0.463,0.126-0.727v-0.023c0-0.265-0.042-0.506-0.126-0.727
		c-0.084-0.22-0.196-0.408-0.336-0.563c-0.14-0.156-0.304-0.276-0.492-0.36s-0.39-0.126-0.606-0.126
		c-0.216,0-0.418,0.042-0.606,0.126s-0.354,0.204-0.498,0.36c-0.144,0.155-0.258,0.342-0.342,0.558s-0.126,0.46-0.126,0.732v0.023
		c0,0.264,0.042,0.506,0.126,0.727c0.084,0.22,0.198,0.407,0.342,0.563s0.31,0.276,0.498,0.36S31.253,49.959,31.469,49.959z"/>
	<path fill="#004C97" d="M35.897,42.627h1.92v1.62h-1.92V42.627z M35.945,44.955h1.824v6.432h-1.824V44.955z"/>
	<path fill="#004C97" d="M41.921,51.53c-0.48,0-0.926-0.088-1.338-0.264c-0.412-0.176-0.766-0.414-1.062-0.714
		c-0.296-0.3-0.528-0.652-0.696-1.056c-0.168-0.404-0.252-0.834-0.252-1.29v-0.024c0-0.456,0.084-0.888,0.252-1.296
		s0.4-0.764,0.696-1.068c0.296-0.304,0.65-0.544,1.062-0.72c0.412-0.176,0.866-0.264,1.362-0.264c0.608,0,1.112,0.096,1.512,0.288
		c0.4,0.191,0.751,0.456,1.056,0.792l-1.116,1.199c-0.208-0.216-0.422-0.388-0.642-0.516c-0.22-0.128-0.494-0.192-0.822-0.192
		c-0.232,0-0.442,0.047-0.63,0.139s-0.352,0.218-0.492,0.378c-0.14,0.16-0.248,0.346-0.324,0.558s-0.114,0.438-0.114,0.679v0.023
		c0,0.248,0.038,0.48,0.114,0.696s0.186,0.404,0.33,0.563c0.144,0.16,0.316,0.286,0.516,0.378c0.2,0.093,0.424,0.139,0.672,0.139
		c0.304,0,0.57-0.063,0.798-0.187s0.454-0.29,0.678-0.498l1.068,1.08c-0.312,0.345-0.668,0.626-1.068,0.847
		C43.081,51.421,42.561,51.53,41.921,51.53z"/>
	<path fill="#004C97" d="M45.173,42.627h1.92v1.62h-1.92V42.627z M45.221,44.955h1.824v6.432h-1.824V44.955z"/>
	<path fill="#004C97" d="M48.161,44.955h1.824v0.919c0.104-0.137,0.218-0.268,0.342-0.393s0.262-0.235,0.414-0.332
		s0.32-0.174,0.504-0.229c0.184-0.057,0.392-0.085,0.624-0.085c0.696,0,1.234,0.212,1.614,0.636c0.38,0.424,0.57,1.008,0.57,1.752
		v4.164h-1.824v-3.579c0-0.431-0.096-0.756-0.288-0.976c-0.192-0.22-0.464-0.329-0.816-0.329s-0.63,0.109-0.834,0.329
		c-0.204,0.22-0.306,0.545-0.306,0.976v3.579h-1.824V44.955z"/>
	<path fill="#004C97" d="M56.86,51.507c-0.304,0-0.59-0.042-0.858-0.126c-0.269-0.084-0.502-0.21-0.702-0.378
		c-0.2-0.168-0.358-0.374-0.474-0.618c-0.116-0.244-0.174-0.526-0.174-0.846v-0.024c0-0.352,0.064-0.656,0.192-0.912
		s0.306-0.468,0.534-0.636s0.5-0.294,0.816-0.378c0.316-0.084,0.666-0.126,1.05-0.126c0.328,0,0.614,0.023,0.858,0.072
		c0.244,0.048,0.482,0.111,0.714,0.191v-0.107c0-0.385-0.116-0.677-0.348-0.876c-0.232-0.2-0.576-0.301-1.032-0.301
		c-0.352,0-0.662,0.03-0.93,0.091c-0.268,0.06-0.55,0.146-0.846,0.258l-0.456-1.393c0.352-0.151,0.72-0.275,1.104-0.372
		c0.384-0.096,0.848-0.144,1.392-0.144c0.504,0,0.934,0.062,1.29,0.186s0.65,0.303,0.882,0.534c0.24,0.24,0.416,0.534,0.528,0.882
		c0.112,0.349,0.168,0.738,0.168,1.17v3.732h-1.764V50.69c-0.224,0.248-0.492,0.446-0.804,0.595
		C57.688,51.433,57.308,51.507,56.86,51.507z M57.412,50.247c0.432,0,0.778-0.104,1.038-0.313c0.26-0.208,0.39-0.479,0.39-0.815
		v-0.324c-0.16-0.072-0.338-0.13-0.534-0.174c-0.196-0.044-0.406-0.066-0.63-0.066c-0.392,0-0.7,0.076-0.924,0.229
		c-0.224,0.151-0.336,0.371-0.336,0.659v0.024c0,0.248,0.092,0.44,0.276,0.576C56.876,50.179,57.116,50.247,57.412,50.247z"/>
	<path fill="#004C97" d="M67.732,51.507c-0.64,0-1.268-0.11-1.884-0.33c-0.616-0.22-1.176-0.558-1.68-1.014l1.092-1.309
		c0.384,0.313,0.778,0.561,1.182,0.744c0.404,0.185,0.846,0.276,1.326,0.276c0.384,0,0.682-0.07,0.894-0.21
		c0.212-0.141,0.318-0.334,0.318-0.582v-0.024c0-0.12-0.022-0.226-0.066-0.318c-0.044-0.092-0.128-0.178-0.253-0.258
		c-0.124-0.079-0.297-0.159-0.517-0.239c-0.221-0.08-0.507-0.164-0.86-0.253c-0.425-0.104-0.81-0.22-1.155-0.348
		s-0.638-0.286-0.878-0.474c-0.241-0.188-0.427-0.422-0.559-0.702c-0.133-0.28-0.199-0.628-0.199-1.044v-0.024
		c0-0.384,0.071-0.729,0.214-1.038c0.143-0.308,0.344-0.573,0.602-0.798c0.258-0.224,0.567-0.396,0.926-0.516
		c0.358-0.12,0.754-0.18,1.186-0.18c0.616,0,1.182,0.092,1.698,0.275c0.516,0.185,0.99,0.448,1.422,0.792l-0.96,1.393
		c-0.376-0.257-0.744-0.458-1.104-0.606c-0.36-0.147-0.72-0.222-1.08-0.222c-0.36,0-0.63,0.069-0.81,0.21
		c-0.18,0.14-0.27,0.313-0.27,0.521v0.024c0,0.136,0.026,0.254,0.079,0.354c0.052,0.101,0.146,0.19,0.283,0.271
		c0.136,0.08,0.323,0.156,0.559,0.228c0.237,0.072,0.536,0.156,0.896,0.252c0.425,0.112,0.804,0.238,1.137,0.378
		c0.333,0.141,0.613,0.309,0.842,0.504c0.229,0.196,0.401,0.427,0.517,0.69s0.175,0.58,0.175,0.948v0.023
		c0,0.416-0.076,0.786-0.227,1.11c-0.151,0.324-0.362,0.596-0.632,0.816c-0.271,0.22-0.593,0.388-0.968,0.504
		C68.604,51.448,68.188,51.507,67.732,51.507z"/>
	<path fill="#004C97" d="M74.776,51.53c-0.496,0-0.956-0.086-1.38-0.258c-0.424-0.172-0.79-0.408-1.098-0.708
		c-0.308-0.3-0.55-0.651-0.726-1.056c-0.176-0.404-0.264-0.838-0.264-1.302v-0.024c0-0.464,0.088-0.897,0.264-1.302
		c0.176-0.404,0.42-0.758,0.732-1.063c0.312-0.304,0.68-0.544,1.104-0.72c0.424-0.176,0.888-0.264,1.392-0.264
		c0.496,0,0.956,0.086,1.38,0.258c0.424,0.172,0.79,0.408,1.098,0.708c0.308,0.3,0.55,0.652,0.726,1.056
		c0.176,0.404,0.264,0.839,0.264,1.303v0.023c0,0.464-0.088,0.898-0.264,1.302c-0.176,0.404-0.42,0.759-0.732,1.063
		s-0.68,0.544-1.104,0.72C75.744,51.442,75.28,51.53,74.776,51.53z M74.8,49.959c0.264,0,0.498-0.046,0.702-0.139
		c0.204-0.092,0.378-0.218,0.522-0.378c0.144-0.159,0.253-0.346,0.33-0.558s0.114-0.438,0.114-0.678v-0.024
		c0-0.24-0.04-0.466-0.12-0.678s-0.196-0.4-0.348-0.564s-0.332-0.294-0.54-0.39s-0.436-0.145-0.684-0.145
		c-0.264,0-0.498,0.047-0.702,0.139s-0.378,0.218-0.522,0.378s-0.254,0.346-0.33,0.558s-0.114,0.438-0.114,0.679v0.023
		c0,0.24,0.04,0.466,0.12,0.678c0.08,0.213,0.196,0.4,0.348,0.564s0.33,0.294,0.534,0.39C74.314,49.911,74.544,49.959,74.8,49.959z"
		/>
	<path fill="#004C97" d="M82.024,51.53c-0.48,0-0.926-0.088-1.338-0.264c-0.412-0.176-0.766-0.414-1.062-0.714
		c-0.296-0.3-0.528-0.652-0.696-1.056c-0.168-0.404-0.252-0.834-0.252-1.29v-0.024c0-0.456,0.084-0.888,0.252-1.296
		s0.4-0.764,0.696-1.068c0.296-0.304,0.65-0.544,1.062-0.72c0.412-0.176,0.866-0.264,1.362-0.264c0.608,0,1.112,0.096,1.512,0.288
		c0.4,0.191,0.751,0.456,1.056,0.792L83.5,47.114c-0.208-0.216-0.422-0.388-0.642-0.516c-0.22-0.128-0.494-0.192-0.822-0.192
		c-0.232,0-0.442,0.047-0.63,0.139s-0.352,0.218-0.492,0.378c-0.14,0.16-0.248,0.346-0.324,0.558s-0.114,0.438-0.114,0.679v0.023
		c0,0.248,0.038,0.48,0.114,0.696s0.186,0.404,0.33,0.563c0.144,0.16,0.316,0.286,0.516,0.378c0.2,0.093,0.424,0.139,0.672,0.139
		c0.304,0,0.57-0.063,0.798-0.187s0.454-0.29,0.678-0.498l1.068,1.08c-0.312,0.345-0.668,0.626-1.068,0.847
		C83.184,51.421,82.664,51.53,82.024,51.53z"/>
	<path fill="#004C97" d="M85.276,42.627h1.92v1.62h-1.92V42.627z M85.324,44.955h1.824v6.432h-1.824V44.955z"/>
	<path fill="#004C97" d="M90.088,51.507c-0.304,0-0.59-0.042-0.858-0.126c-0.269-0.084-0.502-0.21-0.702-0.378
		c-0.2-0.168-0.358-0.374-0.474-0.618c-0.116-0.244-0.174-0.526-0.174-0.846v-0.024c0-0.352,0.064-0.656,0.192-0.912
		s0.306-0.468,0.534-0.636s0.5-0.294,0.816-0.378c0.316-0.084,0.666-0.126,1.05-0.126c0.328,0,0.614,0.023,0.858,0.072
		c0.244,0.048,0.482,0.111,0.714,0.191v-0.107c0-0.385-0.116-0.677-0.348-0.876c-0.232-0.2-0.576-0.301-1.032-0.301
		c-0.352,0-0.662,0.03-0.93,0.091c-0.268,0.06-0.55,0.146-0.846,0.258l-0.456-1.393c0.352-0.151,0.72-0.275,1.104-0.372
		c0.384-0.096,0.848-0.144,1.392-0.144c0.504,0,0.934,0.062,1.29,0.186s0.65,0.303,0.882,0.534c0.24,0.24,0.416,0.534,0.528,0.882
		c0.112,0.349,0.168,0.738,0.168,1.17v3.732h-1.764V50.69c-0.224,0.248-0.492,0.446-0.804,0.595
		C90.916,51.433,90.536,51.507,90.088,51.507z M90.64,50.247c0.432,0,0.778-0.104,1.038-0.313c0.26-0.208,0.39-0.479,0.39-0.815
		v-0.324c-0.16-0.072-0.338-0.13-0.534-0.174c-0.196-0.044-0.406-0.066-0.63-0.066c-0.392,0-0.7,0.076-0.924,0.229
		c-0.224,0.151-0.336,0.371-0.336,0.659v0.024c0,0.248,0.092,0.44,0.276,0.576C90.104,50.179,90.344,50.247,90.64,50.247z"/>
	<path fill="#004C97" d="M94.852,42.627h1.824v8.76h-1.824V42.627z"/>
</g>
</svg>
