<?xml version="1.0" encoding="utf-8"?>
<!-- Generator: Adobe Illustrator 18.0.0, SVG Export Plug-In . SVG Version: 6.00 Build 0)  -->
<!DOCTYPE svg PUBLIC "-//W3C//DTD SVG 1.1//EN" "http://www.w3.org/Graphics/SVG/1.1/DTD/svg11.dtd">
<svg version="1.1" id="Camada_3" xmlns="http://www.w3.org/2000/svg" xmlns:xlink="http://www.w3.org/1999/xlink" x="0px" y="0px"
	 viewBox="0 0 171 46" enable-background="new 0 0 171 46" xml:space="preserve">
<g>
	<path fill="#FFFFFF" d="M5.3,5.3C5.3,2.4,3,0,0,0l0,0v0c0,0,0,0,0,0l0,0v17.1h5.3L5.3,5.3L5.3,5.3z"/>
	<path fill="#FFFFFF" d="M31,23.6L20.3,12.9H9.6l0,8.6c0,1.1,1,2,2.1,2.1l0,0H31z"/>
	<path fill="#FFFFFF" d="M29,2.1L29,2.1l-2.1,0h-2.4h-2.1l0,0c-1.2,0-2.1,0.9-2.1,2l0,0v7.2h4.2h2.4h4.2V4.1l0,0
		C31.1,3,30.1,2.1,29,2.1"/>
	<path fill="#FFFFFF" d="M22.4,34.3L22.4,34.3h2.1h2.4H29h0c1.2,0,2.1-0.9,2.1-2l0,0v-7.2h-4.2h-2.4h-4.2v7.2l0,0
		C20.3,33.4,21.3,34.3,22.4,34.3"/>
	<path fill="#FFFFFF" d="M41.6,14.8c0-1.1-0.8-2.3-2.8-2.3H22.4l3.9,4.1l3.6-3.6l3.8,3.8l-3.6,3.6l0.4,0.4l3.2-3.2l0.4,0.4l-3.2,3.2
		l0.3,0.3l2.8-2.7l0.4,0.4l-2.8,2.7l1.7,1.6h8.5L41.6,14.8z"/>
	<path fill="#FFFFFF" d="M46.1,19.3c0,11.2-9.2,20.4-20.4,20.4c-11.3,0-20.4-9.1-20.4-20.4H0C0,33.5,11.5,45,25.7,45
		c14.2,0,25.7-11.5,25.7-25.7H46.1z"/>
	<path fill="#FFFFFF" d="M46.1,5.3c0-2.9,2.4-5.3,5.3-5.3l0,0v0c0,0,0,0,0,0l0,0v17.1h-5.3L46.1,5.3L46.1,5.3z"/>
</g>
<g>
	<path fill="#FFFFFF" d="M121.9,20.6l-1.3-1.9c0,0-0.1-0.1-0.1-0.1l-0.1-0.1l0,0c-0.5-0.6-1.3-1-2.1-1l0,0h-2.8l1.5,2.1l0,0
		c0.5,0.6,1.3,1.1,2.2,1.1l0,0L121.9,20.6L121.9,20.6z"/>
	<path fill="#FFFFFF" d="M76,8.8L76,8.8c-1.5,0-2.8,1.3-2.8,2.8h0v9c0,2-0.2,2.8-0.6,3.4c-1.1,1.7-3.1,1.7-3.8,1.7
		c-4.1,0-4.3-2.7-4.3-4.8v-9.3h0c0-1.5-1.3-2.7-2.8-2.7l0,0h0h0h-1.4v11.8c0,1.8,0.1,3.4,1,4.9c1.8,3,5.4,3.4,7.4,3.4
		c4,0,8.6-1.9,8.6-7.7V8.8H76z"/>
	<path fill="#FFFFFF" d="M96.6,8.8h-1.1l0,0c-1.5,0.1-2.7,1.3-2.8,2.7h0v0.1V24l-6.5-13.6l0,0c-0.5-0.9-1.4-1.6-2.5-1.6l0,0h-1.4
		l0,0c-3,0-2.8,2.8-2.8,2.8v16.5h1.1l0,0c1.6,0,2.8-1.3,2.8-2.8l0,0V12.1l6.6,14.2c0.4,1,1.4,1.8,2.6,1.8l0,0h1.1l0,0
		c1.6,0,2.8-1.3,2.8-2.8L96.6,8.8z"/>
	<path fill="#FFFFFF" d="M163.2,20.9l-3.6-1.1c-2.3-0.7-3.9-3-3.9-5.4c0-3.2,2.5-5.7,5.7-5.7h7.1v2.5h-5c-1,0-1.8,0.7-1.8,1.8
		c0,0.6,0.4,1.4,1.2,1.6l3.5,1.2c2.4,0.7,3.7,3.2,3.7,5.9c0,3.5-2.8,6.3-6.3,6.3h-7.5v-2.9h6.4c0.9,0,2-0.9,2-2.2
		C164.7,22.1,164.2,21.2,163.2,20.9"/>
	<path fill="#FFFFFF" d="M146,28.1c-4.2,0-7.5-3-7.5-6.7V8.8h5.7v13.1c0,1.6,1.4,3,3.3,3c1.7,0,3.3-1.3,3.3-3V8.8h2.7v12.6
		C153.4,25.1,150.1,28.1,146,28.1"/>
	<path fill="#FFFFFF" d="M129.2,20.9l-3.6-1.1c-2.2-0.7-3.8-3-3.8-5.4c0-3.2,2.5-5.7,5.7-5.7h7.1v2.5h-5c-0.9,0-1.8,0.7-1.8,1.8
		c0,0.6,0.4,1.4,1.2,1.6l3.5,1.2c2.3,0.7,3.6,3.2,3.6,5.9c0,3.5-2.7,6.3-6.2,6.3h-7.5v-2.9h6.4c0.9,0,2-0.9,2-2.2
		C130.8,22.1,130.2,21.2,129.2,20.9"/>
	<path fill="#FFFFFF" d="M111.4,10.8c-0.3-1.1-1.4-2-2.6-2l0,0h-1l0,0c-1.1,0-2.2,0.7-2.5,1.7l-6.4,17.6h4l1.4-4.2h7.6l1.4,4.2h4.2
		L111.4,10.8z M105.3,20.8l2.9-8.2l2.7,8.2H105.3z"/>
	<path fill="#FFFFFF" d="M63.4,30.2H64V34c0,0.3,0,0.6-0.1,0.9c-0.1,0.2-0.2,0.4-0.4,0.6c-0.2,0.2-0.4,0.3-0.6,0.3
		c-0.2,0.1-0.5,0.1-0.8,0.1c-0.7,0-1.2-0.1-1.5-0.4c-0.3-0.3-0.5-0.8-0.5-1.4v-3.9h0.7v3.6c0,0.3,0,0.5,0.1,0.7
		c0.1,0.2,0.1,0.4,0.3,0.5c0.1,0.1,0.3,0.2,0.4,0.3c0.2,0.1,0.4,0.1,0.6,0.1c0.4,0,0.7-0.1,0.9-0.4c0.2-0.2,0.3-0.6,0.3-1.2V30.2z"
		/>
	<path fill="#FFFFFF" d="M68.5,35.9v-2.3c0-0.4-0.1-0.7-0.2-0.9c-0.1-0.2-0.3-0.3-0.7-0.3c-0.3,0-0.5,0.1-0.7,0.2
		c-0.2,0.2-0.3,0.3-0.4,0.6v2.7h-0.6v-4h0.4l0.1,0.5h0c0.1-0.2,0.3-0.3,0.5-0.4c0.2-0.1,0.5-0.2,0.8-0.2c0.2,0,0.4,0,0.6,0.1
		c0.2,0,0.3,0.1,0.4,0.3c0.1,0.1,0.2,0.3,0.2,0.5c0.1,0.2,0.1,0.5,0.1,0.8v2.4H68.5z"/>
	<path fill="#FFFFFF" d="M70.9,30.7c0-0.1,0-0.2,0.1-0.3c0.1-0.1,0.2-0.1,0.3-0.1c0.1,0,0.2,0,0.3,0.1c0.1,0.1,0.1,0.2,0.1,0.3
		c0,0.1,0,0.2-0.1,0.3c-0.1,0.1-0.2,0.1-0.3,0.1c-0.1,0-0.2,0-0.3-0.1C71,30.9,70.9,30.8,70.9,30.7 M71.1,31.9h0.6v4h-0.6V31.9z"/>
	<polygon fill="#FFFFFF" points="74.8,34.2 75.1,34.9 75.1,34.9 75.3,34.1 76.2,31.8 76.9,31.8 75.1,35.9 74.9,35.9 73.1,31.8 
		73.9,31.8 	"/>
	<path fill="#FFFFFF" d="M81,35.5c-0.2,0.1-0.4,0.2-0.6,0.3c-0.2,0.1-0.5,0.1-0.8,0.1c-0.3,0-0.6,0-0.8-0.1
		c-0.2-0.1-0.4-0.2-0.6-0.4c-0.1-0.2-0.3-0.4-0.3-0.7c-0.1-0.3-0.1-0.5-0.1-0.9c0-0.7,0.2-1.2,0.5-1.6c0.3-0.4,0.7-0.5,1.3-0.5
		c0.2,0,0.4,0,0.5,0.1c0.2,0,0.3,0.1,0.5,0.2c0.1,0.1,0.3,0.3,0.4,0.5c0.1,0.2,0.1,0.5,0.1,0.8c0,0.2,0,0.4,0,0.6h-2.6
		c0,0.2,0,0.4,0.1,0.6c0,0.2,0.1,0.3,0.2,0.5c0.1,0.1,0.2,0.2,0.4,0.3c0.2,0.1,0.4,0.1,0.6,0.1c0.2,0,0.4,0,0.5-0.1
		c0.2-0.1,0.3-0.1,0.4-0.2L81,35.5z M79.6,32.3c-0.3,0-0.6,0.1-0.8,0.2c-0.2,0.2-0.3,0.5-0.3,0.9h2c0-0.4-0.1-0.7-0.2-0.9
		C80.1,32.3,79.9,32.3,79.6,32.3"/>
	<path fill="#FFFFFF" d="M84.6,32.5c-0.2-0.1-0.3-0.1-0.5-0.1c-0.2,0-0.4,0.1-0.5,0.2c-0.1,0.1-0.2,0.3-0.2,0.5v2.8h-0.6v-4h0.4
		l0.1,0.5h0c0.1-0.2,0.2-0.3,0.4-0.4c0.1-0.1,0.3-0.1,0.5-0.1c0.2,0,0.3,0,0.5,0.1L84.6,32.5z"/>
	<path fill="#FFFFFF" d="M87.8,34.7c0-0.2,0-0.3-0.1-0.4c-0.1-0.1-0.2-0.2-0.4-0.2c-0.1-0.1-0.3-0.1-0.5-0.2
		c-0.2-0.1-0.3-0.1-0.5-0.2c-0.1-0.1-0.3-0.2-0.4-0.3c-0.1-0.1-0.1-0.3-0.1-0.6c0-0.4,0.1-0.7,0.3-0.8c0.2-0.2,0.5-0.3,0.9-0.3
		c0.3,0,0.5,0,0.7,0.1c0.2,0.1,0.4,0.1,0.5,0.2l-0.2,0.5c-0.1-0.1-0.3-0.1-0.4-0.2c-0.2,0-0.4-0.1-0.6-0.1c-0.2,0-0.4,0-0.5,0.1
		c-0.1,0.1-0.2,0.2-0.2,0.4c0,0.1,0,0.2,0.1,0.3c0.1,0.1,0.2,0.1,0.4,0.2c0.1,0.1,0.3,0.1,0.5,0.2c0.2,0.1,0.3,0.1,0.5,0.2
		c0.1,0.1,0.3,0.2,0.4,0.4c0.1,0.2,0.1,0.3,0.1,0.6c0,0.2,0,0.3-0.1,0.5c-0.1,0.1-0.1,0.3-0.3,0.4c-0.1,0.1-0.3,0.2-0.4,0.3
		c-0.2,0.1-0.4,0.1-0.6,0.1c-0.3,0-0.6,0-0.8-0.1c-0.2-0.1-0.4-0.1-0.5-0.2l0.2-0.5c0.1,0.1,0.3,0.1,0.5,0.2
		c0.2,0.1,0.4,0.1,0.6,0.1c0.2,0,0.4,0,0.6-0.1C87.8,35.1,87.8,35,87.8,34.7"/>
	<path fill="#FFFFFF" d="M90.1,30.7c0-0.1,0-0.2,0.1-0.3c0.1-0.1,0.2-0.1,0.3-0.1c0.1,0,0.2,0,0.3,0.1c0.1,0.1,0.1,0.2,0.1,0.3
		c0,0.1,0,0.2-0.1,0.3c-0.1,0.1-0.2,0.1-0.3,0.1s-0.2,0-0.3-0.1C90.1,30.9,90.1,30.8,90.1,30.7 M90.2,31.9h0.6v4h-0.6V31.9z"/>
	<path fill="#FFFFFF" d="M95.9,34.4c0,0.3,0,0.5,0,0.7c0,0.2,0,0.4,0.1,0.7h-0.4l-0.2-0.6h0c-0.1,0.2-0.3,0.3-0.5,0.5
		c-0.2,0.1-0.4,0.2-0.7,0.2c-0.5,0-0.9-0.2-1.2-0.5c-0.3-0.3-0.4-0.9-0.4-1.6c0-0.7,0.2-1.2,0.5-1.6c0.3-0.4,0.8-0.5,1.3-0.5
		c0.2,0,0.4,0,0.5,0c0.1,0,0.2,0.1,0.4,0.1v-1.7h0.6L95.9,34.4L95.9,34.4z M94.3,35.3c0.3,0,0.5-0.1,0.7-0.2
		c0.2-0.1,0.3-0.4,0.3-0.6v-2c-0.1-0.1-0.2-0.1-0.3-0.2c-0.1,0-0.3,0-0.5,0c-0.4,0-0.7,0.1-0.9,0.4c-0.2,0.2-0.3,0.6-0.3,1.2
		c0,0.2,0,0.4,0.1,0.6c0,0.2,0.1,0.4,0.2,0.5c0.1,0.1,0.2,0.2,0.3,0.3C93.9,35.3,94.1,35.3,94.3,35.3"/>
	<path fill="#FFFFFF" d="M97.7,32.1c0.2-0.1,0.4-0.2,0.7-0.3c0.3-0.1,0.6-0.1,0.8-0.1c0.3,0,0.5,0,0.7,0.1c0.2,0.1,0.3,0.2,0.4,0.3
		c0.1,0.1,0.1,0.3,0.2,0.4c0,0.1,0,0.3,0,0.4c0,0.3,0,0.6,0,0.9c0,0.3,0,0.6,0,0.9c0,0.2,0,0.4,0,0.6c0,0.2,0,0.3,0.1,0.5h-0.5
		l-0.2-0.6h0c0,0.1-0.1,0.1-0.2,0.2c-0.1,0.1-0.2,0.1-0.3,0.2c-0.1,0.1-0.2,0.1-0.4,0.1c-0.1,0-0.3,0.1-0.5,0.1
		c-0.2,0-0.3,0-0.5-0.1c-0.1-0.1-0.3-0.1-0.4-0.2c-0.1-0.1-0.2-0.2-0.3-0.4c-0.1-0.1-0.1-0.3-0.1-0.5c0-0.2,0-0.4,0.1-0.6
		c0.1-0.2,0.2-0.3,0.4-0.4c0.2-0.1,0.4-0.2,0.6-0.2c0.2,0,0.5-0.1,0.8-0.1h0.2c0.1,0,0.1,0,0.2,0c0-0.2,0-0.3,0-0.4
		c0-0.3-0.1-0.5-0.2-0.6c-0.1-0.1-0.3-0.2-0.6-0.2c-0.1,0-0.2,0-0.3,0c-0.1,0-0.2,0-0.3,0.1c-0.1,0-0.2,0.1-0.3,0.1
		c-0.1,0-0.2,0.1-0.3,0.1L97.7,32.1z M98.8,35.3c0.2,0,0.3,0,0.4-0.1c0.1,0,0.2-0.1,0.3-0.2c0.1-0.1,0.2-0.1,0.2-0.2
		c0.1-0.1,0.1-0.1,0.1-0.2V34c-0.1,0-0.2,0-0.2,0c-0.1,0-0.1,0-0.2,0c-0.2,0-0.3,0-0.5,0c-0.2,0-0.3,0.1-0.4,0.1
		c-0.1,0.1-0.2,0.1-0.3,0.2c-0.1,0.1-0.1,0.2-0.1,0.3c0,0.2,0.1,0.3,0.2,0.5C98.4,35.3,98.6,35.3,98.8,35.3"/>
	<path fill="#FFFFFF" d="M105.4,34.4c0,0.3,0,0.5,0,0.7c0,0.2,0,0.4,0.1,0.7h-0.4l-0.2-0.6h0c-0.1,0.2-0.3,0.3-0.5,0.5
		c-0.2,0.1-0.4,0.2-0.7,0.2c-0.5,0-0.9-0.2-1.2-0.5c-0.3-0.3-0.4-0.9-0.4-1.6c0-0.7,0.2-1.2,0.5-1.6c0.3-0.4,0.8-0.5,1.3-0.5
		c0.2,0,0.4,0,0.5,0c0.1,0,0.2,0.1,0.4,0.1v-1.7h0.6L105.4,34.4L105.4,34.4z M103.8,35.3c0.3,0,0.5-0.1,0.7-0.2
		c0.2-0.1,0.3-0.4,0.3-0.6v-2c-0.1-0.1-0.2-0.1-0.3-0.2c-0.1,0-0.3,0-0.5,0c-0.4,0-0.7,0.1-0.9,0.4c-0.2,0.2-0.3,0.6-0.3,1.2
		c0,0.2,0,0.4,0.1,0.6c0,0.2,0.1,0.4,0.2,0.5c0.1,0.1,0.2,0.2,0.3,0.3C103.5,35.3,103.6,35.3,103.8,35.3"/>
	<path fill="#FFFFFF" d="M110.2,35.5c-0.2,0.1-0.4,0.2-0.6,0.3c-0.2,0.1-0.5,0.1-0.8,0.1c-0.3,0-0.6,0-0.8-0.1
		c-0.2-0.1-0.4-0.2-0.6-0.4c-0.1-0.2-0.3-0.4-0.3-0.7c-0.1-0.3-0.1-0.5-0.1-0.9c0-0.7,0.2-1.2,0.5-1.6c0.3-0.4,0.7-0.5,1.3-0.5
		c0.2,0,0.4,0,0.5,0.1c0.2,0,0.3,0.1,0.5,0.2c0.1,0.1,0.3,0.3,0.4,0.5c0.1,0.2,0.1,0.5,0.1,0.8c0,0.2,0,0.4,0,0.6h-2.6
		c0,0.2,0,0.4,0.1,0.6c0,0.2,0.1,0.3,0.2,0.5c0.1,0.1,0.2,0.2,0.4,0.3c0.2,0.1,0.4,0.1,0.6,0.1c0.2,0,0.4,0,0.5-0.1
		c0.2-0.1,0.3-0.1,0.4-0.2L110.2,35.5z M108.8,32.3c-0.3,0-0.6,0.1-0.8,0.2c-0.2,0.2-0.3,0.5-0.3,0.9h2c0-0.4-0.1-0.7-0.2-0.9
		C109.3,32.3,109.1,32.3,108.8,32.3"/>
	<path fill="#FFFFFF" d="M117.2,34.4h-2.1l-0.6,1.6h-0.7l2.1-5.7h0.3l2.1,5.7h-0.7L117.2,34.4z M115.3,33.8h1.6l-0.6-1.7l-0.2-0.9h0
		l-0.2,0.9L115.3,33.8z"/>
	<path fill="#FFFFFF" d="M119.7,30.2h0.6v2h0c0.1-0.2,0.3-0.3,0.5-0.4c0.2-0.1,0.4-0.1,0.6-0.1c0.5,0,0.9,0.2,1.2,0.5
		c0.3,0.3,0.4,0.8,0.4,1.5c0,0.7-0.2,1.2-0.5,1.6c-0.3,0.4-0.8,0.5-1.4,0.5c-0.3,0-0.6,0-0.8-0.1c-0.2-0.1-0.4-0.1-0.6-0.2
		L119.7,30.2L119.7,30.2z M121.4,32.3c-0.3,0-0.5,0.1-0.7,0.2c-0.2,0.2-0.3,0.4-0.4,0.6v2c0.1,0.1,0.2,0.1,0.4,0.1
		c0.1,0,0.3,0,0.4,0c0.4,0,0.7-0.1,0.9-0.4c0.2-0.3,0.3-0.7,0.3-1.2c0-0.2,0-0.4-0.1-0.6c0-0.2-0.1-0.3-0.2-0.5s-0.2-0.2-0.3-0.3
		C121.7,32.3,121.6,32.3,121.4,32.3"/>
	<path fill="#FFFFFF" d="M127.6,35.5c-0.2,0.1-0.4,0.2-0.6,0.3c-0.2,0.1-0.5,0.1-0.8,0.1c-0.3,0-0.6,0-0.8-0.1
		c-0.2-0.1-0.4-0.2-0.6-0.4c-0.1-0.2-0.2-0.4-0.3-0.7c-0.1-0.3-0.1-0.5-0.1-0.9c0-0.7,0.2-1.2,0.5-1.6c0.3-0.4,0.7-0.5,1.3-0.5
		c0.2,0,0.4,0,0.5,0.1c0.2,0,0.3,0.1,0.5,0.2s0.3,0.3,0.4,0.5c0.1,0.2,0.1,0.5,0.1,0.8c0,0.2,0,0.4,0,0.6h-2.6c0,0.2,0,0.4,0.1,0.6
		c0,0.2,0.1,0.3,0.2,0.5c0.1,0.1,0.2,0.2,0.4,0.3c0.2,0.1,0.4,0.1,0.6,0.1c0.2,0,0.4,0,0.5-0.1c0.2-0.1,0.3-0.1,0.4-0.2L127.6,35.5z
		 M126.2,32.3c-0.3,0-0.6,0.1-0.8,0.2c-0.2,0.2-0.3,0.5-0.3,0.9h2c0-0.4-0.1-0.7-0.2-0.9C126.7,32.3,126.5,32.3,126.2,32.3"/>
	<path fill="#FFFFFF" d="M131.3,32.5c-0.2-0.1-0.3-0.1-0.5-0.1c-0.2,0-0.4,0.1-0.5,0.2c-0.1,0.1-0.2,0.3-0.3,0.5v2.8h-0.6v-4h0.5
		l0.1,0.5h0c0.1-0.2,0.2-0.3,0.4-0.4c0.1-0.1,0.3-0.1,0.5-0.1c0.2,0,0.3,0,0.5,0.1L131.3,32.5z"/>
	<path fill="#FFFFFF" d="M132.4,31.8h0.6V31l0.6-0.2v1h1.1v0.6h-1.1v2.2c0,0.3,0,0.5,0.1,0.6c0.1,0.1,0.2,0.2,0.4,0.2
		c0.1,0,0.3,0,0.4,0c0.1,0,0.2-0.1,0.3-0.1l0.1,0.5c-0.1,0.1-0.3,0.1-0.5,0.2c-0.2,0-0.4,0.1-0.6,0.1c-0.3,0-0.6-0.1-0.7-0.3
		c-0.1-0.2-0.2-0.5-0.2-0.9v-2.3h-0.6C132.4,32.4,132.4,31.8,132.4,31.8z"/>
	<path fill="#FFFFFF" d="M136.2,32.1c0.2-0.1,0.4-0.2,0.7-0.3c0.3-0.1,0.6-0.1,0.8-0.1c0.3,0,0.5,0,0.7,0.1c0.2,0.1,0.3,0.2,0.4,0.3
		c0.1,0.1,0.1,0.3,0.2,0.4c0,0.1,0,0.3,0,0.4c0,0.3,0,0.6,0,0.9c0,0.3,0,0.6,0,0.9c0,0.2,0,0.4,0,0.6c0,0.2,0,0.3,0.1,0.5h-0.5
		l-0.2-0.6h0c-0.1,0.1-0.1,0.1-0.2,0.2c-0.1,0.1-0.2,0.1-0.3,0.2c-0.1,0.1-0.2,0.1-0.4,0.1c-0.1,0-0.3,0.1-0.5,0.1
		c-0.2,0-0.3,0-0.5-0.1c-0.1-0.1-0.3-0.1-0.4-0.2c-0.1-0.1-0.2-0.2-0.3-0.4c-0.1-0.1-0.1-0.3-0.1-0.5c0-0.2,0-0.4,0.1-0.6
		c0.1-0.2,0.2-0.3,0.4-0.4c0.2-0.1,0.4-0.2,0.6-0.2c0.2,0,0.5-0.1,0.8-0.1h0.2c0.1,0,0.1,0,0.2,0c0-0.2,0-0.3,0-0.4
		c0-0.3-0.1-0.5-0.2-0.6c-0.1-0.1-0.3-0.2-0.6-0.2c-0.1,0-0.2,0-0.3,0c-0.1,0-0.2,0-0.3,0.1c-0.1,0-0.2,0.1-0.3,0.1
		c-0.1,0-0.2,0.1-0.3,0.1L136.2,32.1z M137.4,35.3c0.1,0,0.3,0,0.4-0.1c0.1,0,0.2-0.1,0.3-0.2c0.1-0.1,0.2-0.1,0.2-0.2
		c0.1-0.1,0.1-0.1,0.1-0.2V34c-0.1,0-0.2,0-0.2,0c-0.1,0-0.2,0-0.2,0c-0.2,0-0.3,0-0.5,0c-0.2,0-0.3,0.1-0.4,0.1
		c-0.1,0.1-0.2,0.1-0.3,0.2c-0.1,0.1-0.1,0.2-0.1,0.3c0,0.2,0.1,0.3,0.2,0.5C137,35.3,137.1,35.3,137.4,35.3"/>
	<path fill="#FFFFFF" d="M146.7,34.4c0,0.3,0,0.5,0,0.7c0,0.2,0,0.4,0.1,0.7h-0.4l-0.2-0.6h0c-0.1,0.2-0.3,0.3-0.5,0.5
		c-0.2,0.1-0.4,0.2-0.7,0.2c-0.5,0-0.9-0.2-1.2-0.5c-0.3-0.3-0.4-0.9-0.4-1.6c0-0.7,0.2-1.2,0.5-1.6c0.3-0.4,0.8-0.5,1.3-0.5
		c0.2,0,0.4,0,0.5,0c0.1,0,0.2,0.1,0.4,0.1v-1.7h0.6L146.7,34.4L146.7,34.4z M145.1,35.3c0.3,0,0.5-0.1,0.7-0.2
		c0.2-0.1,0.3-0.4,0.3-0.6v-2c-0.1-0.1-0.2-0.1-0.3-0.2c-0.1,0-0.3,0-0.5,0c-0.4,0-0.7,0.1-0.9,0.4c-0.2,0.2-0.3,0.6-0.3,1.2
		c0,0.2,0,0.4,0.1,0.6c0,0.2,0.1,0.4,0.2,0.5c0.1,0.1,0.2,0.2,0.3,0.3C144.7,35.3,144.9,35.3,145.1,35.3"/>
	<path fill="#FFFFFF" d="M148.3,33.8c0-0.7,0.2-1.2,0.5-1.6c0.3-0.4,0.7-0.5,1.3-0.5c0.3,0,0.6,0.1,0.8,0.1c0.2,0.1,0.4,0.2,0.6,0.4
		s0.3,0.4,0.3,0.7c0.1,0.3,0.1,0.5,0.1,0.9c0,0.7-0.1,1.2-0.5,1.6c-0.3,0.4-0.7,0.5-1.3,0.5c-0.3,0-0.6,0-0.8-0.1s-0.4-0.2-0.6-0.4
		c-0.1-0.2-0.3-0.4-0.3-0.7C148.3,34.4,148.3,34.1,148.3,33.8 M149,33.8c0,0.2,0,0.4,0.1,0.6c0,0.2,0.1,0.4,0.2,0.5
		c0.1,0.1,0.2,0.2,0.3,0.3c0.1,0.1,0.3,0.1,0.5,0.1c0.7,0,1.1-0.5,1.1-1.5c0-0.2,0-0.4-0.1-0.6c0-0.2-0.1-0.4-0.2-0.5
		c-0.1-0.1-0.2-0.2-0.3-0.3c-0.1-0.1-0.3-0.1-0.5-0.1C149.3,32.3,149,32.8,149,33.8"/>
	<path fill="#FFFFFF" d="M158.8,34.4c0-0.2-0.1-0.4-0.2-0.6c-0.1-0.1-0.3-0.3-0.5-0.4c-0.2-0.1-0.4-0.2-0.7-0.3
		c-0.2-0.1-0.5-0.2-0.7-0.3c-0.2-0.1-0.4-0.3-0.5-0.5c-0.1-0.2-0.2-0.5-0.2-0.8c0-0.4,0.2-0.8,0.5-1c0.3-0.3,0.7-0.4,1.3-0.4
		c0.3,0,0.6,0,0.9,0.1c0.3,0,0.5,0.1,0.6,0.2l-0.2,0.6c-0.1-0.1-0.3-0.1-0.5-0.2c-0.2-0.1-0.5-0.1-0.8-0.1c-0.4,0-0.6,0.1-0.8,0.2
		c-0.2,0.2-0.3,0.3-0.3,0.6c0,0.2,0.1,0.4,0.2,0.5c0.1,0.1,0.3,0.3,0.5,0.4s0.4,0.2,0.7,0.3c0.2,0.1,0.5,0.2,0.7,0.4
		c0.2,0.1,0.4,0.3,0.5,0.5c0.1,0.2,0.2,0.4,0.2,0.7c0,0.2,0,0.5-0.1,0.7c-0.1,0.2-0.2,0.4-0.4,0.5c-0.2,0.1-0.4,0.2-0.6,0.3
		c-0.2,0.1-0.5,0.1-0.8,0.1c-0.4,0-0.7,0-1-0.1c-0.3-0.1-0.5-0.1-0.6-0.2l0.2-0.6c0.1,0.1,0.3,0.1,0.5,0.2c0.2,0.1,0.5,0.1,0.8,0.1
		c0.2,0,0.3,0,0.5-0.1c0.2,0,0.3-0.1,0.4-0.2c0.1-0.1,0.2-0.2,0.3-0.3C158.8,34.7,158.8,34.5,158.8,34.4"/>
	<path fill="#FFFFFF" d="M164.4,30.2h0.6V34c0,0.3,0,0.6-0.1,0.9c-0.1,0.2-0.2,0.4-0.4,0.6c-0.2,0.2-0.4,0.3-0.6,0.3
		c-0.2,0.1-0.5,0.1-0.8,0.1c-0.7,0-1.2-0.1-1.5-0.4c-0.3-0.3-0.5-0.8-0.5-1.4v-3.9h0.7v3.6c0,0.3,0,0.5,0.1,0.7
		c0.1,0.2,0.1,0.4,0.3,0.5c0.1,0.1,0.3,0.2,0.4,0.3c0.2,0.1,0.4,0.1,0.6,0.1c0.4,0,0.7-0.1,0.9-0.4c0.2-0.2,0.3-0.6,0.3-1.2
		L164.4,30.2L164.4,30.2z"/>
	<path fill="#FFFFFF" d="M169.5,34.4c0-0.2-0.1-0.4-0.2-0.6c-0.1-0.1-0.3-0.3-0.5-0.4c-0.2-0.1-0.4-0.2-0.7-0.3
		c-0.2-0.1-0.5-0.2-0.7-0.3c-0.2-0.1-0.4-0.3-0.5-0.5c-0.1-0.2-0.2-0.5-0.2-0.8c0-0.4,0.2-0.8,0.5-1c0.3-0.3,0.7-0.4,1.3-0.4
		c0.3,0,0.6,0,0.9,0.1c0.3,0,0.5,0.1,0.6,0.2l-0.2,0.6c-0.1-0.1-0.3-0.1-0.5-0.2c-0.2-0.1-0.5-0.1-0.8-0.1c-0.4,0-0.6,0.1-0.8,0.2
		c-0.2,0.2-0.3,0.3-0.3,0.6c0,0.2,0.1,0.4,0.2,0.5c0.1,0.1,0.3,0.3,0.5,0.4c0.2,0.1,0.4,0.2,0.7,0.3c0.2,0.1,0.5,0.2,0.7,0.4
		c0.2,0.1,0.4,0.3,0.5,0.5c0.1,0.2,0.2,0.4,0.2,0.7c0,0.2,0,0.5-0.1,0.7c-0.1,0.2-0.2,0.4-0.4,0.5c-0.2,0.1-0.4,0.2-0.6,0.3
		c-0.2,0.1-0.5,0.1-0.8,0.1c-0.4,0-0.7,0-1-0.1c-0.3-0.1-0.5-0.1-0.6-0.2l0.2-0.6c0.1,0.1,0.3,0.1,0.5,0.2c0.2,0.1,0.5,0.1,0.8,0.1
		c0.2,0,0.3,0,0.5-0.1c0.2,0,0.3-0.1,0.4-0.2c0.1-0.1,0.2-0.2,0.3-0.3C169.5,34.7,169.5,34.5,169.5,34.4"/>
</g>
</svg>
