<svg id="Camada_1" data-name="Camada 1" xmlns="http://www.w3.org/2000/svg" viewBox="0 0 141.39 62.85"><defs><style>.cls-1{fill:#fff;}</style></defs><path class="cls-1" d="M8.2,44.89a.46.46,0,0,0-.06.65.45.45,0,0,0,.65,0,.44.44,0,0,0,.06-.64A.45.45,0,0,0,8.2,44.89Z"/><path class="cls-1" d="M4.63,38.74l-2.14.95.34.77,2.07-.92c.38-.17.71-.22.84.08s-.12.51-.5.68l-2.07.92.34.77,2.14-1c.75-.33,1.21-.9.84-1.73A1.26,1.26,0,0,0,4.63,38.74Z"/><polygon class="cls-1" points="5.44 36.7 3.26 37.27 3.25 37.26 5.23 35.87 5.01 35 1.42 35.91 1.59 36.61 3.81 36.03 3.81 36.05 1.8 37.44 2.03 38.34 5.62 37.43 5.44 36.7"/><polygon class="cls-1" points="4.82 33.36 1.14 33.81 1.24 34.65 4.92 34.2 4.82 33.36"/><polygon class="cls-1" points="4.72 31 1 30.1 1.01 31.02 3.74 31.5 3.74 31.51 1.03 32.03 1.05 32.98 4.74 32.07 4.72 31"/><polygon class="cls-1" points="5.07 27.68 4.33 27.58 4.18 28.62 3.38 28.51 3.51 27.6 2.83 27.51 2.7 28.41 1.98 28.31 2.12 27.32 1.39 27.22 1.14 29 4.81 29.52 5.07 27.68"/><path class="cls-1" d="M5.43,26.23,4,25.81l.07-.24,1.55-.06.25-.85-1.77.14A.93.93,0,0,0,3.37,24,1,1,0,0,0,2,24.81L1.65,26l3.56,1Zm-1.91-.82-.07.23-.9-.26.07-.25a.4.4,0,0,1,.56-.29A.44.44,0,0,1,3.52,25.41Z"/><path class="cls-1" d="M3.7,23.08A1.08,1.08,0,0,0,5,22.85c.28-.22.46-.33.68-.23a.35.35,0,0,1,.19.49.86.86,0,0,1-.5.43l.39.65a1.47,1.47,0,0,0,.82-.78A1.11,1.11,0,0,0,6,21.86a1.17,1.17,0,0,0-1.31.26c-.26.21-.42.31-.63.21a.35.35,0,0,1-.19-.49.63.63,0,0,1,.41-.35l-.38-.65a1.24,1.24,0,0,0-.73.71A1.11,1.11,0,0,0,3.7,23.08Z"/><polygon class="cls-1" points="7.71 21.07 4.52 19.16 4.09 19.88 7.27 21.79 7.71 21.07"/><path class="cls-1" d="M8.76,19.56c.65-.84.38-1.66-.51-2.36s-1.76-.77-2.42.07l-.64.82,2.92,2.29ZM6.29,17.88l.13-.17c.25-.32.73-.3,1.31.16s.7.91.46,1.23l-.13.16Z"/><path class="cls-1" d="M10.5,17.56l-.35-.6.61-.57.58.4.64-.6L8.79,14.08,8,14.8l1.87,3.34ZM8.94,15.05H9l1.29,1-.46.43Z"/><path class="cls-1" d="M13.25,15.3c.88-.59.88-1.46.26-2.39s-1.43-1.29-2.32-.7l-.86.58,2.05,3.09Zm-1.64-2.48c.33-.23.78-.06,1.2.56s.38,1.08,0,1.31l-.17.11-1.24-1.87Z"/><polygon class="cls-1" points="16.81 13.36 16.49 12.68 15.54 13.13 15.2 12.4 16.02 12.01 15.72 11.38 14.9 11.77 14.59 11.11 15.49 10.69 15.17 10.02 13.55 10.79 15.13 14.15 16.81 13.36"/><polygon class="cls-1" points="19.36 12.54 18.99 11.1 19.85 10.88 19.67 10.19 18.81 10.41 18.62 9.68 19.55 9.44 19.36 8.7 17.61 9.15 18.54 12.75 19.36 12.54"/><polygon class="cls-1" points="22.71 11.96 22.62 11.21 21.57 11.35 21.47 10.55 22.38 10.44 22.29 9.75 21.38 9.86 21.29 9.14 22.27 9.02 22.18 8.28 20.4 8.51 20.88 12.2 22.71 11.96"/><path class="cls-1" d="M26,10.12c0-1.15-.43-1.88-1.5-1.91l-1,0-.08,3.72,1,0C25.5,12,26,11.24,26,10.12ZM24.31,9h.21c.4,0,.68.4.66,1.15s-.31,1.11-.71,1.1h-.2Z"/><polygon class="cls-1" points="28.6 11.64 27.56 11.46 27.7 10.67 28.59 10.82 28.71 10.14 27.81 9.99 27.94 9.27 28.91 9.43 29.04 8.7 27.27 8.4 26.64 12.06 28.47 12.38 28.6 11.64"/><path class="cls-1" d="M30.36,11.37l.23.08,0,1.56.85.27-.1-1.77a.94.94,0,0,0,.79-.73,1,1,0,0,0-.74-1.42L30.28,9l-1.14,3.54.76.24Zm.47-1.46.25.08a.41.41,0,0,1,.26.58.41.41,0,0,1-.56.31l-.24-.07Z"/><path class="cls-1" d="M32.56,13.81l.45-.53.74.38-.18.67.78.41.9-3.72-.94-.49-2.49,2.9Zm1.83-2.33h0L34,13l-.56-.3Z"/><polygon class="cls-1" points="36.26 16.09 36.7 15.46 35.9 14.89 37.58 12.48 36.89 11.99 34.75 15.03 36.26 16.09"/><path class="cls-1" d="M38.28,18c.73.78,1.58.63,2.4-.13s1-1.63.31-2.41l-.71-.76-2.71,2.54Zm2-2.18.14.15c.28.3.19.77-.35,1.28s-1,.55-1.28.26l-.14-.15Z"/><polygon class="cls-1" points="40.78 21.18 41.4 20.75 40.8 19.89 41.46 19.43 41.98 20.18 42.54 19.79 42.03 19.04 42.63 18.62 43.19 19.44 43.8 19.02 42.78 17.54 39.73 19.65 40.78 21.18"/><path class="cls-1" d="M42,23.55,43.24,23l.14.33a1.1,1.1,0,0,0,1.54.55,1.07,1.07,0,0,0,.62-1.51l-.46-1.06-3.41,1.46Zm2.76-1.18.1.24a.41.41,0,0,1-.27.57A.43.43,0,0,1,44,23l-.1-.25Z"/><polygon class="cls-1" points="43.23 27.23 43.95 27.02 43.67 26.01 44.44 25.79 44.68 26.67 45.35 26.49 45.11 25.61 45.81 25.41 46.07 26.37 46.78 26.17 46.31 24.44 42.73 25.43 43.23 27.23"/><polygon class="cls-1" points="43.61 29.72 44.38 29.61 44.24 28.62 47.14 28.2 47.02 27.36 43.35 27.89 43.61 29.72"/><path class="cls-1" d="M45.54,30.11c-1.18,0-2,.54-2,1.42s.77,1.43,2,1.44,2-.54,2-1.42S46.72,30.12,45.54,30.11Zm0,2c-.64,0-1.14-.2-1.13-.58s.5-.56,1.15-.56,1.13.19,1.12.57S46.15,32.11,45.51,32.11Z"/><polygon class="cls-1" points="46.47 34.38 43.5 33.93 43.38 34.75 46.34 35.19 46.24 35.87 46.95 35.98 47.27 33.81 46.56 33.7 46.47 34.38"/><path class="cls-1" d="M43.07,36.22l.61.33-.22.81-.69,0-.25.84,3.82.15.29-1-3.32-1.89Zm1.21.6,1.43.74v0l-1.6-.15Z"/><path class="cls-1" d="M44.72,39.72a1.08,1.08,0,0,0-1.28.23c-.28.22-.46.33-.68.23a.36.36,0,0,1-.19-.49.84.84,0,0,1,.5-.42l-.39-.66a1.49,1.49,0,0,0-.82.79A1.12,1.12,0,0,0,42.48,41a1.15,1.15,0,0,0,1.3-.27c.27-.21.42-.31.63-.21a.34.34,0,0,1,.2.49.68.68,0,0,1-.41.35l.38.65a1.26,1.26,0,0,0,.73-.71A1.1,1.1,0,0,0,44.72,39.72Z"/><path class="cls-1" d="M39.61,44.83a.48.48,0,0,0,.72.62.46.46,0,0,0-.07-.65A.45.45,0,0,0,39.61,44.83Z"/><path class="cls-1" d="M15.21,50a1,1,0,0,0-.44-1.53l-1-.58-1.81,3.24.7.39.72-1.29.22.12-.29,1.54.77.43.25-1.75A.93.93,0,0,0,15.21,50Zm-.74-.36a.43.43,0,0,1-.62.2l-.22-.12.46-.82.23.13A.4.4,0,0,1,14.47,49.65Z"/><path class="cls-1" d="M17.43,49.6a1.16,1.16,0,0,0-1.17,2c.24.26.36.44.27.66a.35.35,0,0,1-.47.23A.87.87,0,0,1,15.6,52l-.63.44a1.53,1.53,0,0,0,.84.77,1.12,1.12,0,0,0,1.5-.72A1.17,1.17,0,0,0,17,51.17c-.22-.25-.33-.4-.25-.62a.35.35,0,0,1,.48-.22.63.63,0,0,1,.37.38l.63-.42A1.31,1.31,0,0,0,17.43,49.6Z"/><rect class="cls-1" x="18.36" y="51.97" width="0.63" height="1.01" transform="translate(-36.83 57.18) rotate(-75.25)"/><path class="cls-1" d="M21.49,50.74l-1.1-.16-.52,3.68,1.22.17a1,1,0,0,0,1.24-.89.84.84,0,0,0-.46-.95h0a.85.85,0,0,0,.57-.75C22.55,51,21.94,50.8,21.49,50.74Zm.06,2.61a.41.41,0,0,1-.5.37l-.31,0,.13-.9.3,0A.43.43,0,0,1,21.55,53.35Zm.14-1.48a.37.37,0,0,1-.45.35l-.29,0,.11-.8.28,0A.36.36,0,0,1,21.69,51.87Z"/><path class="cls-1" d="M25.72,52a1,1,0,0,0-1.16-1.1l-1.18,0,.05,3.72.8,0,0-1.48h.25L25,54.63h.88L25.21,53A1,1,0,0,0,25.72,52Zm-1.27.55H24.2v-.94h.26c.2,0,.43.08.44.46A.43.43,0,0,1,24.45,52.57Z"/><path class="cls-1" d="M27.07,50.72l-.24,3.82.83-.15,0-.69.82-.15.27.64.86-.15-1.53-3.5Zm.6,2.32,0-1.61h0l.57,1.51Z"/><path class="cls-1" d="M31.14,51.27c-.33-.05-.51-.09-.58-.31a.34.34,0,0,1,.22-.48.62.62,0,0,1,.53.06l.22-.73a1.27,1.27,0,0,0-1,0A1.16,1.16,0,0,0,30.84,52c.36,0,.56.11.64.34a.35.35,0,0,1-.23.47.83.83,0,0,1-.65-.07l-.21.74a1.53,1.53,0,0,0,1.13.06A1.12,1.12,0,0,0,32.23,52,1.15,1.15,0,0,0,31.14,51.27Z"/><polygon class="cls-1" points="31.96 49.31 33.51 52.69 34.28 52.33 32.72 48.95 31.96 49.31"/><polygon class="cls-1" points="35.64 50.71 34.15 48.18 33.42 48.61 35.3 51.81 36.88 50.87 36.49 50.2 35.64 50.71"/><path class="cls-1" d="M41.1,26.55,39,26.44a5.19,5.19,0,0,0,0-.68,7,7,0,0,0-.07-1,7.26,7.26,0,0,0-.23-1l1.22-.15a17.63,17.63,0,0,0-7.57-7.69l-6.47,7.71a5.83,5.83,0,0,0-.08-.83v-.08h0c0-.1,0-.2-.06-.3l3.89-7.64a17.57,17.57,0,0,0-10.86,0l3.94,7.73a5.84,5.84,0,0,0-.48.8L16,15.85a17.68,17.68,0,0,0-7.57,7.69l4.73.58-.74,2.16-5.17.27a17.63,17.63,0,0,0,.29,10.68l8.66-6.06-.16.2-.41.55h1.86L15,34.24h-1.5l0,.36a7.14,7.14,0,0,0,.09.93L8.82,40a18.74,18.74,0,0,0,1.06,1.66,3.11,3.11,0,0,0,1.65.47,3.16,3.16,0,0,0,2.53-1.26,3.17,3.17,0,0,0,5.07,0,3.15,3.15,0,0,0,5.06,0,3.14,3.14,0,0,0,2.53,1.27,3.17,3.17,0,0,0,2.54-1.27,3.14,3.14,0,0,0,2.53,1.27,3.18,3.18,0,0,0,2.53-1.28,3.15,3.15,0,0,0,4.18.8A16.21,16.21,0,0,0,39.56,40l-4.81-4.49c0-.3.08-.62.09-.93l0-.36h-1.5l-2.48-2.32h2.36l7.58,5.31a17.72,17.72,0,0,0,.28-10.68ZM28,25a6.28,6.28,0,0,0,0,.75v.1l-1.22-.07h0c0-.21,0-.41,0-.62Zm1.17,4a8.43,8.43,0,0,0,1.14,1.3A5.53,5.53,0,0,1,29,30.13L27,28.32v-.76Zm-7-4.67h0a5.37,5.37,0,0,1,1.15-2.19.61.61,0,0,0-.08.3.56.56,0,0,0,.26.48,5.39,5.39,0,0,0,.55-1.1.88.88,0,0,0,.05-.15l.09-.26a6.46,6.46,0,0,0,.2-1.18h0a5.41,5.41,0,0,1,1.09,2.48h0a6.54,6.54,0,0,1,.07.89c0,.11,0,.21,0,.31a5.32,5.32,0,0,1-.16,1.06.53.53,0,0,0,.28.07.57.57,0,0,0,.57-.57v0a5.79,5.79,0,0,1,.15,1.26,5.53,5.53,0,0,1-.18,1.37h-1A4.19,4.19,0,0,0,25.66,26l0-.25a2.93,2.93,0,0,1-.74.83l0,0v0a3.81,3.81,0,0,1,0-.59A8.91,8.91,0,0,1,25,25a4.4,4.4,0,0,0,.07-.73,4.12,4.12,0,0,0-.59-2.12,4.17,4.17,0,0,1-1.06,2.52q-.15-.23-.27-.45a3.83,3.83,0,0,0-.27,1h0v0s0,0,0,.07h0a4.55,4.55,0,0,0,0,.53A4.17,4.17,0,0,0,23,27.16h-.9A5.53,5.53,0,0,1,22,25.79,5.43,5.43,0,0,1,22.15,24.39Zm-.43,2.92h5v.75h-5ZM22.27,29v-.63h3.85V29Zm3.41.28a37.14,37.14,0,0,0-.69,5H23.4a37.14,37.14,0,0,0-.69-5Zm-4-4.07a4.21,4.21,0,0,0,0,.62h0l-3.95.2-.48-1.38Zm-.29,2.39v.76l-2,1.82a5.59,5.59,0,0,1-.55-.82Zm-4,4h-1l.83-1.1L16.77,29h-3.3l-.41,1.51.82,1.1H9.68a5.6,5.6,0,0,0,2.18-2.51l3.26-9.46,3.26,9.46a5.54,5.54,0,0,0,2.18,2.51H17.39Zm17.1,3a10.3,10.3,0,0,1-3.41,7.16,2.86,2.86,0,0,1-1.56-1l-.27-.36-.27.36a2.81,2.81,0,0,1-4.52,0l-.27-.36-.27.36a2.81,2.81,0,0,1-2.26,1.13,2.78,2.78,0,0,1-2.26-1.14l-.27-.36-.27.36a2.82,2.82,0,0,1-1.56,1,10.34,10.34,0,0,1-3.41-7.16Zm2-3.87a5.27,5.27,0,0,0,1.91-.36h.09v1.24H33.94a11.77,11.77,0,0,0,2.65-2.89,6.13,6.13,0,0,0,.75-3c0-2.78-1.71-5-3.8-5H33.4c-2.1,0-3.8,2.24-3.8,5a6.13,6.13,0,0,0,.75,3A11.49,11.49,0,0,0,33,31.58H28.43V30.34h.1a5.22,5.22,0,0,0,1.9.36,5.84,5.84,0,0,0,.73-.05,6.84,6.84,0,0,1-2.89-4.88,7.79,7.79,0,0,1,.07-1,5.17,5.17,0,0,1,5.12-4.7h0a5.15,5.15,0,0,1,5.11,4.7,6.28,6.28,0,0,1,.07,1,6.84,6.84,0,0,1-2.89,4.88A5.84,5.84,0,0,0,36.5,30.7ZM30,26c0-.09,0-.18,0-.27a7,7,0,0,1,.07-.93l6.74-.83A5.94,5.94,0,0,1,37,25.69c0,.22,0,.43,0,.64Z"/><path class="cls-1" d="M34.77,45.51a3,3,0,0,1-.45-.49,3.16,3.16,0,0,1-5.06,0,3.15,3.15,0,0,1-2.54,1.28A3.12,3.12,0,0,1,24.19,45a3.16,3.16,0,0,1-5.06,0,3.16,3.16,0,0,1-5.07,0,3,3,0,0,1-.45.49,17.6,17.6,0,0,0,21.16,0Zm-10.58-.25.41.48v.74h-.83v-.74Zm-.82,1.5H25v.48H23.37Zm.41.76h.83v.18l-.2.17H24l-.2-.17Zm.19.63h.44v.21H24Z"/><path class="cls-1" d="M34.32,42.27a3.16,3.16,0,0,1-5.06,0,3.18,3.18,0,0,1-2.54,1.28,3.15,3.15,0,0,1-2.53-1.28,3.16,3.16,0,0,1-5.06,0,3.16,3.16,0,0,1-5.07,0,3.14,3.14,0,0,1-2.53,1.27H11.4c.39.42.8.81,1.23,1.19a3.19,3.19,0,0,0,1.43-1.07,3.17,3.17,0,0,0,5.07,0,3.15,3.15,0,0,0,5.06,0,3.14,3.14,0,0,0,2.53,1.27,3.17,3.17,0,0,0,2.54-1.27,3.14,3.14,0,0,0,2.53,1.27,3.18,3.18,0,0,0,2.53-1.28,3.12,3.12,0,0,0,1.43,1.07c.43-.37.84-.77,1.23-1.18h-.13A3.14,3.14,0,0,1,34.32,42.27Z"/><path class="cls-1" d="M13.73,27.87h2.78l-1.39-5.82Zm2-1.76-1.25.06.43-1.83.41.05Z"/><path class="cls-1" d="M78.39,32.36V24.14h3.16v8.14c0,2.34,1.17,3.55,3.11,3.55s3.1-1.17,3.1-3.45V24.14h3.16v8.12c0,4.36-2.44,6.49-6.31,6.49S78.39,36.6,78.39,32.36Z"/><path class="cls-1" d="M92.38,24.14h11V27H95.55v3.06h6.86V33H95.55v5.57H92.38Z"/><path class="cls-1" d="M104.8,24.14h5.87c3.44,0,5.51,2,5.51,5v.05c0,3.32-2.59,5.05-5.81,5.05H108v4.32H104.8Zm5.67,7.26A2.23,2.23,0,0,0,113,29.22v0c0-1.42-1-2.18-2.57-2.18H108v4.4Z"/><path class="cls-1" d="M117.64,24.14h10.85V27h-7.71v2.91h6.78v2.82h-6.78v3h7.81v2.82h-11Z"/><path class="cls-1" d="M130.06,24.14h3.16V35.65h7.17v2.88H130.06Z"/><rect class="cls-1" x="62.77" y="0.5" width="0.32" height="61.85"/></svg>