<svg id="Camada_1" data-name="Camada 1" xmlns="http://www.w3.org/2000/svg" viewBox="0 0 136.04 69.22"><defs><style>.cls-1{fill:#fff;}</style></defs><path class="cls-1" d="M61.43,18.13H51.54V8.24a6.61,6.61,0,0,0-6.6-6.59H25.17a6.6,6.6,0,0,0-6.59,6.59v9.89H8.69A6.6,6.6,0,0,0,2.1,24.72V44.5a6.61,6.61,0,0,0,6.59,6.59h9.89V61a6.61,6.61,0,0,0,6.59,6.59H44.94A6.62,6.62,0,0,0,51.54,61V51.09h9.89A6.62,6.62,0,0,0,68,44.5V24.72A6.61,6.61,0,0,0,61.43,18.13ZM51.54,44.5a6.62,6.62,0,0,1-6.6,6.59H25.17a6.61,6.61,0,0,1-6.59-6.59V24.72a6.6,6.6,0,0,1,6.59-6.59H44.94a6.61,6.61,0,0,1,6.6,6.59Z"/><rect class="cls-1" x="74.9" y="2.36" width="1.05" height="11.97"/><path class="cls-1" d="M79.68,8.79a2.93,2.93,0,0,1,.72-2,2.39,2.39,0,0,1,1.87-.8A2.11,2.11,0,0,1,84,6.69a3.26,3.26,0,0,1,.61,2.12v5.51h1V8.67A4,4,0,0,0,84.78,6a2.86,2.86,0,0,0-2.29-1,3.36,3.36,0,0,0-1.67.41,3.18,3.18,0,0,0-1.18,1.18l-.07-1.36h-.91v9.07h1Z"/><path class="cls-1" d="M92.62,13.84A2.25,2.25,0,0,0,93.51,12a2.24,2.24,0,0,0-.61-1.67,5.12,5.12,0,0,0-2.12-1.06,4.27,4.27,0,0,1-1.58-.71,1.28,1.28,0,0,1-.44-1,1.35,1.35,0,0,1,.59-1.15,2.49,2.49,0,0,1,1.56-.45A4,4,0,0,1,93,6.47V5.53a3.38,3.38,0,0,0-1-.38A4.8,4.8,0,0,0,90.89,5a3.41,3.41,0,0,0-2.23.72,2.19,2.19,0,0,0-.89,1.8,2.19,2.19,0,0,0,.59,1.58,4.22,4.22,0,0,0,1.88,1,5.5,5.5,0,0,1,1.75.78A1.28,1.28,0,0,1,92.5,12a1.51,1.51,0,0,1-.62,1.25,2.73,2.73,0,0,1-1.67.47,4.83,4.83,0,0,1-2.53-.75v1a5,5,0,0,0,2.6.66A3.59,3.59,0,0,0,92.62,13.84Z"/><path class="cls-1" d="M96,11.84a3,3,0,0,0,.59,2,2.22,2.22,0,0,0,1.75.68,2.69,2.69,0,0,0,1.33-.32V13.3a2.89,2.89,0,0,1-1.19.32,1.35,1.35,0,0,1-1.1-.44A2.15,2.15,0,0,1,97,11.8V6.09h2.34V5.25H97V2.71H96V5.25H94.48V6.1H96Z"/><path class="cls-1" d="M102.21,3.17a.76.76,0,0,0,0-1.51.76.76,0,0,0-.75.76.75.75,0,0,0,.22.53A.7.7,0,0,0,102.21,3.17Z"/><rect class="cls-1" x="101.7" y="5.25" width="1.03" height="9.08"/><path class="cls-1" d="M105.78,11.84a2.93,2.93,0,0,0,.59,2,2.22,2.22,0,0,0,1.75.68,2.69,2.69,0,0,0,1.33-.32V13.3a2.93,2.93,0,0,1-1.19.32,1.34,1.34,0,0,1-1.1-.44,2.21,2.21,0,0,1-.36-1.38V6.09h2.34V5.25H106.8V2.71h-1V5.25h-1.53V6.1h1.53Z"/><path class="cls-1" d="M114.46,14.55a3.34,3.34,0,0,0,1.64-.39,3.07,3.07,0,0,0,1.18-1.11l.07,1.28h.91V5.25h-1V10.8a3,3,0,0,1-.71,2,2.32,2.32,0,0,1-1.81.8,2,2,0,0,1-1.68-.76,3.37,3.37,0,0,1-.61-2.13V5.25h-1V10.9a4,4,0,0,0,.83,2.67A2.79,2.79,0,0,0,114.46,14.55Z"/><path class="cls-1" d="M122.69,13.18a2.15,2.15,0,0,1-.35-1.38V6.09h2.34V5.25h-2.34V2.71h-1V5.25h-1.53V6.1h1.53v5.74a3,3,0,0,0,.59,2,2.22,2.22,0,0,0,1.75.68,2.69,2.69,0,0,0,1.33-.32V13.3a2.93,2.93,0,0,1-1.19.32A1.37,1.37,0,0,1,122.69,13.18Z"/><path class="cls-1" d="M133.46,7.32a3.89,3.89,0,0,0-1.39-1.69,4,4,0,0,0-4.18,0,4,4,0,0,0-1.42,1.66,5.71,5.71,0,0,0-.53,2.54,5.85,5.85,0,0,0,.49,2.44,4,4,0,0,0,1.39,1.69,3.6,3.6,0,0,0,2.11.62,3.7,3.7,0,0,0,2-.58,4,4,0,0,0,1.43-1.68,5.67,5.67,0,0,0,.53-2.53A6.05,6.05,0,0,0,133.46,7.32Zm-1.37,5.27a2.73,2.73,0,0,1-4.3,0,4.51,4.51,0,0,1-.8-2.79A4.51,4.51,0,0,1,127.78,7a2.74,2.74,0,0,1,3.84-.45,2.93,2.93,0,0,1,.46.47,4.45,4.45,0,0,1,.8,2.79A4.56,4.56,0,0,1,132.09,12.59Z"/><path class="cls-1" d="M78.16,60.74a5.19,5.19,0,0,1-2-1,1.92,1.92,0,0,1-.6-1.49,2,2,0,0,1,.75-1.6,3.06,3.06,0,0,1,2-.6,4.48,4.48,0,0,1,2.57.76v-1a4.93,4.93,0,0,0-4.48-.3A3.33,3.33,0,0,0,75,56.65a2.78,2.78,0,0,0-.5,1.66,2.93,2.93,0,0,0,.68,2,5.16,5.16,0,0,0,2.28,1.28,7.06,7.06,0,0,1,2.35,1.1,1.89,1.89,0,0,1,.66,1.51A2.1,2.1,0,0,1,79.66,66a3.45,3.45,0,0,1-2.2.65,6.09,6.09,0,0,1-3.19-1v1.08a6.61,6.61,0,0,0,3.34.84,4.65,4.65,0,0,0,2-.42A3.3,3.3,0,0,0,81,66a3.06,3.06,0,0,0,.51-1.79,2.88,2.88,0,0,0-.8-2.09A6.19,6.19,0,0,0,78.16,60.74Z"/><path class="cls-1" d="M86.65,58a4.9,4.9,0,0,0-2.71.79v1A4.55,4.55,0,0,1,86.56,59a2.19,2.19,0,0,1,1.79.7,3.29,3.29,0,0,1,.59,2.15v.07l-.38,0h-.39a7,7,0,0,0-3.68.8A2.59,2.59,0,0,0,83.22,65,2.42,2.42,0,0,0,84,66.86a3,3,0,0,0,2.08.71,3.61,3.61,0,0,0,1.71-.42A2.81,2.81,0,0,0,89,66l.07,1.33H90V61.7A3.93,3.93,0,0,0,89.11,59,3.18,3.18,0,0,0,86.65,58Zm2.29,6a2.52,2.52,0,0,1-.35,1.29,2.82,2.82,0,0,1-1,1,2.49,2.49,0,0,1-1.38.39,2.08,2.08,0,0,1-1.45-.5,1.78,1.78,0,0,1-.54-1.34,1.74,1.74,0,0,1,1-1.61A5.73,5.73,0,0,1,88,62.72h.9Z"/><path class="cls-1" d="M98.16,63.81a3,3,0,0,1-.71,2.06,2.37,2.37,0,0,1-1.81.8A2,2,0,0,1,94,65.9a3.32,3.32,0,0,1-.6-2.12V58.26h-1v5.66a4,4,0,0,0,.83,2.66,2.75,2.75,0,0,0,2.24,1,3.37,3.37,0,0,0,1.64-.4,3.14,3.14,0,0,0,1.18-1.11l.07,1.28h.9V58.26h-1Z"/><polygon class="cls-1" points="98.17 54.13 96.95 54.13 95.12 56.77 96.1 56.77 98.17 54.13"/><path class="cls-1" d="M107.87,59.77a3.41,3.41,0,0,0-1.2-1.3A3.19,3.19,0,0,0,105,58a3.33,3.33,0,0,0-2.76,1.32,5.47,5.47,0,0,0-1,3.51,6.6,6.6,0,0,0,.44,2.45A3.88,3.88,0,0,0,102.94,67a3.25,3.25,0,0,0,2,.61,3.44,3.44,0,0,0,1.8-.5,3.15,3.15,0,0,0,1.22-1.36l.08,1.63h.91V54.13h-1Zm-.73,5.84a2.37,2.37,0,0,1-2,1,2.45,2.45,0,0,1-2.08-1A5.55,5.55,0,0,1,103,60a2.46,2.46,0,0,1,2.08-1.06,2.36,2.36,0,0,1,1.43.47,3.18,3.18,0,0,1,1,1.36,5.45,5.45,0,0,1,.37,2.07A4.62,4.62,0,0,1,107.14,65.61Z"/><path class="cls-1" d="M114.78,58a3.63,3.63,0,0,0-2,.57,3.76,3.76,0,0,0-1.36,1.64,6.08,6.08,0,0,0-.48,2.52,5.25,5.25,0,0,0,1.1,3.51,3.75,3.75,0,0,0,3,1.3,4.65,4.65,0,0,0,2.69-.78v-1a4.32,4.32,0,0,1-2.6.82,2.86,2.86,0,0,1-2.27-.95A4.19,4.19,0,0,1,112,63h6.32v-.61a5.07,5.07,0,0,0-.93-3.23A3.09,3.09,0,0,0,114.78,58ZM112,62.2a4.12,4.12,0,0,1,.83-2.41,2.39,2.39,0,0,1,1.94-.85,2.22,2.22,0,0,1,1.86.86,3.92,3.92,0,0,1,.71,2.4Z"/><polygon class="cls-1" points="77.89 31.63 78.94 31.63 78.94 20.57 82.82 20.57 82.82 19.67 74.01 19.67 74.01 20.57 77.89 20.57 77.89 31.63"/><path class="cls-1" d="M84.2,31.24a3.92,3.92,0,0,0,4.17,0,4.07,4.07,0,0,0,1.43-1.67,5.8,5.8,0,0,0,.52-2.53,5.93,5.93,0,0,0-.48-2.46,3.85,3.85,0,0,0-1.39-1.68,3.92,3.92,0,0,0-4.17,0,4,4,0,0,0-1.43,1.67,6.31,6.31,0,0,0,0,5A4,4,0,0,0,84.2,31.24Zm0-6.95A2.72,2.72,0,0,1,88,23.84a3.33,3.33,0,0,1,.46.46,4.5,4.5,0,0,1,.8,2.8,4.56,4.56,0,0,1-.79,2.8,2.74,2.74,0,0,1-3.83.47,3.05,3.05,0,0,1-.47-.48,4.45,4.45,0,0,1-.81-2.79,4.51,4.51,0,0,1,.8-2.81Z"/><path class="cls-1" d="M93.53,31.26a3.17,3.17,0,0,0,2,.6,3.36,3.36,0,0,0,1.8-.49A3.1,3.1,0,0,0,98.49,30l.09,1.64h.9V18.43h-1v5.63a3.31,3.31,0,0,0-1.2-1.29,3.21,3.21,0,0,0-1.66-.45,3.32,3.32,0,0,0-2.75,1.32,5.42,5.42,0,0,0-1,3.51,6.22,6.22,0,0,0,.44,2.45A3.74,3.74,0,0,0,93.53,31.26Zm.1-7a2.46,2.46,0,0,1,2.08-1.06,2.35,2.35,0,0,1,1.42.47,3.08,3.08,0,0,1,1,1.36,5.41,5.41,0,0,1,.36,2.07,4.61,4.61,0,0,1-.76,2.77,2.4,2.4,0,0,1-2,1.06,2.46,2.46,0,0,1-2.08-1,4.57,4.57,0,0,1-.78-2.81A4.62,4.62,0,0,1,93.63,24.29Z"/><path class="cls-1" d="M107.65,22.94a3.81,3.81,0,0,0-5.6,1.64,5.67,5.67,0,0,0-.53,2.53,5.85,5.85,0,0,0,.49,2.44,4.11,4.11,0,0,0,1.39,1.7,3.75,3.75,0,0,0,2.11.62,3.71,3.71,0,0,0,2-.59A3.93,3.93,0,0,0,109,29.61a5.67,5.67,0,0,0,.53-2.53,6.13,6.13,0,0,0-.48-2.46A3.92,3.92,0,0,0,107.65,22.94Zm0,7a2.73,2.73,0,0,1-4.3,0,4.56,4.56,0,0,1-.8-2.8,4.48,4.48,0,0,1,.79-2.8,2.73,2.73,0,0,1,3.84-.45,2.86,2.86,0,0,1,.46.46,4.5,4.5,0,0,1,.81,2.8,4.58,4.58,0,0,1-.8,2.8Z"/><path class="cls-1" d="M116,31.16a2.49,2.49,0,0,0,.28-3.54,5.12,5.12,0,0,0-2.12-1.06,4.47,4.47,0,0,1-1.58-.7,1.32,1.32,0,0,1-.44-1.05,1.35,1.35,0,0,1,.59-1.15,2.49,2.49,0,0,1,1.56-.45,4.05,4.05,0,0,1,2.09.57v-.94a3.38,3.38,0,0,0-1-.38,4.86,4.86,0,0,0-1.14-.13,3.41,3.41,0,0,0-2.23.72,2.34,2.34,0,0,0-.31,3.38,4.28,4.28,0,0,0,1.88,1,5.81,5.81,0,0,1,1.77.77,1.3,1.3,0,0,1,.5,1.08,1.48,1.48,0,0,1-.62,1.25,2.7,2.7,0,0,1-1.66.47,4.86,4.86,0,0,1-2.54-.75v1a5,5,0,0,0,2.61.66A3.64,3.64,0,0,0,116,31.16Z"/><path class="cls-1" d="M80.73,40.2a3.18,3.18,0,0,0-2-.61,3.35,3.35,0,0,0-1.8.5,3.21,3.21,0,0,0-1.21,1.37l-.09-1.64h-.91V52.26h1V47.41a3.1,3.1,0,0,0,2.85,1.71,3.37,3.37,0,0,0,2.76-1.31,5.47,5.47,0,0,0,1-3.51A6.12,6.12,0,0,0,82,41.87,3.87,3.87,0,0,0,80.73,40.2Zm-.1,7a2.46,2.46,0,0,1-2.08,1,2.3,2.3,0,0,1-1.43-.47,3.06,3.06,0,0,1-1-1.36,5.23,5.23,0,0,1-.36-2.07,4.61,4.61,0,0,1,.76-2.77,2.37,2.37,0,0,1,2-1,2.44,2.44,0,0,1,2.08,1,4.59,4.59,0,0,1,.77,2.81A4.63,4.63,0,0,1,80.63,47.17Z"/><path class="cls-1" d="M87.78,39.59a3.57,3.57,0,0,0-2,.56,3.78,3.78,0,0,0-1.35,1.64,6,6,0,0,0-.49,2.53,5.2,5.2,0,0,0,1.11,3.51,3.75,3.75,0,0,0,3,1.29,4.7,4.7,0,0,0,2.7-.78v-1a4.36,4.36,0,0,1-2.61.81,2.87,2.87,0,0,1-2.27-.94A4.21,4.21,0,0,1,85,44.6h6.33V44a5,5,0,0,0-.94-3.23A3.08,3.08,0,0,0,87.78,39.59ZM85,43.75a4.07,4.07,0,0,1,.82-2.41,2.42,2.42,0,0,1,1.94-.85,2.24,2.24,0,0,1,1.86.86,4,4,0,0,1,.71,2.4Z"/><rect class="cls-1" x="93.3" y="35.69" width="1.03" height="13.21"/><path class="cls-1" d="M102.27,47.56l.07,1.33h.9V43.26a3.88,3.88,0,0,0-.86-2.72,3.12,3.12,0,0,0-2.46-.95,4.84,4.84,0,0,0-2.71.79v1a4.66,4.66,0,0,1,2.62-.84,2.23,2.23,0,0,1,1.8.7,3.34,3.34,0,0,1,.58,2.16v.07l-.37,0h-.4a6.85,6.85,0,0,0-3.67.8,2.53,2.53,0,0,0-1.27,2.3,2.46,2.46,0,0,0,.78,1.9,3,3,0,0,0,2.07.71,3.67,3.67,0,0,0,1.72-.42A2.87,2.87,0,0,0,102.27,47.56Zm-1.37.32a2.5,2.5,0,0,1-1.38.4,2,2,0,0,1-1.45-.51,1.71,1.71,0,0,1-.54-1.33,1.77,1.77,0,0,1,1-1.62,5.87,5.87,0,0,1,2.81-.55l.91,0V45.6a2.59,2.59,0,0,1-.35,1.3A2.73,2.73,0,0,1,100.9,47.88Z"/></svg>