<svg id="Camada_1" data-name="Camada 1" xmlns="http://www.w3.org/2000/svg" viewBox="0 0 133.23 35.43"><defs><style>.cls-1{fill:#fff;}</style></defs><path class="cls-1" d="M5.57,4.58A4.07,4.07,0,0,0,1.52.51h0v13.1H5.57v-9Z"/><path class="cls-1" d="M25.25,18.52,17,10.35H8.85v6.59a1.62,1.62,0,0,0,1.6,1.58H25.25Z"/><path class="cls-1" d="M33.43,18.52H26.9l-1.28-1.28,2.12-2.13-.29-.28L25.32,17l-.25-.25,2.52-2.52-.29-.28-2.52,2.51-.27-.27,2.83-2.84-2.9-2.91-2.85,2.84-2.93-2.91H31.82a1.63,1.63,0,0,1,1.61,1.57Z"/><path class="cls-1" d="M23.67,2.12h-5A1.58,1.58,0,0,0,17,3.66h0v5.5h8.21V3.66h0a1.58,1.58,0,0,0-1.6-1.54"/><path class="cls-1" d="M18.64,26.72h5a1.59,1.59,0,0,0,1.6-1.54h0V19.69H17.05v5.49h0a1.59,1.59,0,0,0,1.6,1.54"/><path class="cls-1" d="M36.78,15.3a15.61,15.61,0,0,1-31.22,0H1.5a19.66,19.66,0,0,0,39.32,0Z"/><path class="cls-1" d="M36.76,4.58A4.07,4.07,0,0,1,40.81.51h0v13.1H36.76v-9Z"/><path class="cls-1" d="M94.76,16l-1-1.45-.07-.11-.06-.08h0a2.18,2.18,0,0,0-1.63-.8H89.84L91,15.21h0a2.15,2.15,0,0,0,1.68.81h2.05Z"/><path class="cls-1" d="M59.69,7h0a2.16,2.16,0,0,0-2.15,2.13h0V16a4.31,4.31,0,0,1-.48,2.57,3.34,3.34,0,0,1-2.91,1.31c-3.14,0-3.26-2.06-3.26-3.71V9.08h0A2.15,2.15,0,0,0,48.75,7H47.67v9a6.38,6.38,0,0,0,.77,3.71c1.41,2.27,4.15,2.61,5.64,2.61,3,0,6.59-1.44,6.59-5.92V7Z"/><path class="cls-1" d="M75.44,7h-.83a2.18,2.18,0,0,0-2.11,2.1h0v9.52l-5-10.41h0A2.16,2.16,0,0,0,65.61,7H64.52a2,2,0,0,0-2.13,2.15V21.75h.81a2.19,2.19,0,0,0,2.17-2.17h0V9.5l5.08,10.88a2.19,2.19,0,0,0,2,1.37h.83a2.19,2.19,0,0,0,2.18-2.15Z"/><path class="cls-1" d="M126.41,16.25l-2.74-.8A4.34,4.34,0,0,1,125,7h5.41V8.91h-3.79a1.35,1.35,0,0,0-1.37,1.37,1.27,1.27,0,0,0,.88,1.21l2.67.89c1.85.56,2.82,2.42,2.82,4.52a4.86,4.86,0,0,1-4.84,4.84h-5.73V19.56H126a1.68,1.68,0,0,0,1.54-1.69,1.65,1.65,0,0,0-1.14-1.62"/><path class="cls-1" d="M113.21,21.74c-3.22,0-5.74-2.27-5.74-5.1V7h4.33V17a2.37,2.37,0,0,0,2.51,2.27A2.43,2.43,0,0,0,116.82,17V7h2.05v9.65a5.38,5.38,0,0,1-5.66,5.1"/><path class="cls-1" d="M100.4,16.25l-2.74-.8a4.39,4.39,0,0,1-2.9-4.12A4.33,4.33,0,0,1,99.12,7h5.4V8.91h-3.79a1.35,1.35,0,0,0-1.37,1.37,1.27,1.27,0,0,0,.89,1.21l2.66.89c1.78.56,2.74,2.42,2.74,4.52a4.79,4.79,0,0,1-4.76,4.84H95.17V19.56h4.92a1.68,1.68,0,0,0,1.53-1.69,1.73,1.73,0,0,0-1.22-1.62"/><path class="cls-1" d="M86.74,8.51a2.17,2.17,0,0,0-2-1.53h-.79A2.06,2.06,0,0,0,82,8.29L77.12,21.75h3l1.11-3.19h5.84l1.06,3.19h3.19Zm-4.68,7.66,2.19-6.29,2,6.29Z"/><path class="cls-1" d="M50,23.38h.49v2.87a2.2,2.2,0,0,1-.1.67,1.25,1.25,0,0,1-.29.46,1.12,1.12,0,0,1-.46.27,1.76,1.76,0,0,1-.58.09,1.68,1.68,0,0,1-1.15-.35,1.31,1.31,0,0,1-.39-1v-3h.51v2.73a2.11,2.11,0,0,0,.07.55.88.88,0,0,0,.19.36.79.79,0,0,0,.33.2,1.44,1.44,0,0,0,.45.06A.85.85,0,0,0,49.8,27a1.48,1.48,0,0,0,.22-.9Z"/><path class="cls-1" d="M53.94,27.74V26a1.57,1.57,0,0,0-.14-.73.53.53,0,0,0-.51-.24.82.82,0,0,0-.54.18.84.84,0,0,0-.29.44v2.1H52V24.66h.35l.09.38h0a1,1,0,0,1,.39-.32,1.26,1.26,0,0,1,.6-.13,1.51,1.51,0,0,1,.44.06.67.67,0,0,1,.31.2.93.93,0,0,1,.19.4,2.28,2.28,0,0,1,.07.63v1.86Z"/><path class="cls-1" d="M55.79,23.73a.34.34,0,0,1,.34-.35.36.36,0,0,1,.25.11.31.31,0,0,1,.1.24.29.29,0,0,1-.1.23.34.34,0,0,1-.25.09.32.32,0,0,1-.25-.09.32.32,0,0,1-.09-.23m.1.93h.49v3.08h-.49Z"/><polygon class="cls-1" points="58.78 26.4 58.95 26.98 58.96 26.98 59.11 26.39 59.8 24.6 60.33 24.6 59.02 27.74 58.81 27.74 57.48 24.6 58.05 24.6 58.78 26.4"/><path class="cls-1" d="M63.5,27.42a1.38,1.38,0,0,1-.47.23,1.87,1.87,0,0,1-.59.09,1.62,1.62,0,0,1-.61-.11,1.14,1.14,0,0,1-.42-.33,1.35,1.35,0,0,1-.25-.51,2.71,2.71,0,0,1-.08-.66,1.81,1.81,0,0,1,.35-1.2,1.24,1.24,0,0,1,1-.41,2,2,0,0,1,.42,0,.89.89,0,0,1,.38.18.92.92,0,0,1,.27.36,1.6,1.6,0,0,1,.1.63,3.91,3.91,0,0,1,0,.45h-2a1.75,1.75,0,0,0,.06.48.82.82,0,0,0,.17.35.73.73,0,0,0,.3.22,1.26,1.26,0,0,0,.46.08,1.25,1.25,0,0,0,.42-.08.7.7,0,0,0,.31-.17ZM62.44,25a.83.83,0,0,0-.58.19.94.94,0,0,0-.26.65h1.52a1,1,0,0,0-.18-.66.67.67,0,0,0-.5-.18"/><path class="cls-1" d="M66.29,25.14a1.12,1.12,0,0,0-.35-.06.56.56,0,0,0-.42.14.63.63,0,0,0-.19.37v2.15h-.49V24.66h.34l.09.38h0a.89.89,0,0,1,.28-.32A.69.69,0,0,1,66,24.6a1.49,1.49,0,0,1,.4.06Z"/><path class="cls-1" d="M68.74,26.83a.4.4,0,0,0-.11-.29.91.91,0,0,0-.27-.18L68,26.23a1.49,1.49,0,0,1-.36-.17.83.83,0,0,1-.27-.26.76.76,0,0,1-.11-.43.8.8,0,0,1,.25-.65,1.12,1.12,0,0,1,.7-.2,2.23,2.23,0,0,1,.56.06,1.78,1.78,0,0,1,.39.13l-.12.41A1.22,1.22,0,0,0,68.7,25a1.45,1.45,0,0,0-.43-.05.66.66,0,0,0-.39.09.36.36,0,0,0-.13.32.31.31,0,0,0,.11.25,1.47,1.47,0,0,0,.28.16l.35.14a1.49,1.49,0,0,1,.36.17,1,1,0,0,1,.27.28.79.79,0,0,1,.11.45,1.15,1.15,0,0,1-.06.37.72.72,0,0,1-.2.29.88.88,0,0,1-.34.2,1.61,1.61,0,0,1-.47.07,2,2,0,0,1-.59-.07,1.59,1.59,0,0,1-.41-.16l.14-.42a1.42,1.42,0,0,0,.37.15,1.47,1.47,0,0,0,.46.07.82.82,0,0,0,.44-.11.4.4,0,0,0,.17-.37"/><path class="cls-1" d="M70.44,23.73a.34.34,0,0,1,.59-.24.31.31,0,0,1,.1.24A.29.29,0,0,1,71,24a.39.39,0,0,1-.5,0,.32.32,0,0,1-.09-.23m.1.93H71v3.08h-.49Z"/><path class="cls-1" d="M74.91,26.61v.57a4.26,4.26,0,0,0,.06.5h-.33l-.13-.44h0a1,1,0,0,1-.9.5,1.09,1.09,0,0,1-.92-.39,2,2,0,0,1-.29-1.21,1.74,1.74,0,0,1,.37-1.2,1.3,1.3,0,0,1,1-.4,1.84,1.84,0,0,1,.36,0l.29.08V23.36h.49Zm-1.24.7a.74.74,0,0,0,.49-.16.89.89,0,0,0,.26-.5V25.13a.79.79,0,0,0-.26-.13,1.83,1.83,0,0,0-.37,0,.81.81,0,0,0-.66.28,1.33,1.33,0,0,0-.24.89,2.35,2.35,0,0,0,0,.47,1.08,1.08,0,0,0,.13.37.69.69,0,0,0,.24.24.7.7,0,0,0,.37.09"/><path class="cls-1" d="M76.27,24.84a1.9,1.9,0,0,1,.54-.21,3.42,3.42,0,0,1,.65-.06,1.43,1.43,0,0,1,.51.08.71.71,0,0,1,.3.23.67.67,0,0,1,.13.3,1.24,1.24,0,0,1,0,.33c0,.25,0,.49,0,.72s0,.46,0,.67,0,.29,0,.43a1.43,1.43,0,0,0,.07.37h-.37L78,27.27h0a.7.7,0,0,1-.14.17,1,1,0,0,1-.19.15,1,1,0,0,1-.28.1,1.18,1.18,0,0,1-.35,0,1,1,0,0,1-.36-.06.79.79,0,0,1-.29-.18.9.9,0,0,1-.2-.27,1,1,0,0,1-.07-.36.89.89,0,0,1,.11-.46.84.84,0,0,1,.31-.28A1.43,1.43,0,0,1,77,26a4,4,0,0,1,.62,0h.17l.17,0c0-.13,0-.24,0-.33a.67.67,0,0,0-.14-.48.69.69,0,0,0-.49-.13h-.22l-.25,0-.24.07a.61.61,0,0,0-.2.09Zm.87,2.47a1,1,0,0,0,.31,0,1.23,1.23,0,0,0,.23-.11.61.61,0,0,0,.16-.16.5.5,0,0,0,.1-.17v-.51h-.35l-.37,0a1.36,1.36,0,0,0-.32.08.52.52,0,0,0-.22.16.37.37,0,0,0-.09.26.43.43,0,0,0,.16.35.56.56,0,0,0,.39.14"/><path class="cls-1" d="M82.19,26.61v.57a4.26,4.26,0,0,0,.06.5h-.33l-.13-.44h0a1,1,0,0,1-.36.36,1.06,1.06,0,0,1-.54.14,1.09,1.09,0,0,1-.92-.39,2,2,0,0,1-.3-1.21,1.74,1.74,0,0,1,.38-1.2,1.29,1.29,0,0,1,1-.4,1.84,1.84,0,0,1,.36,0,1.72,1.72,0,0,1,.28.08V23.36h.5Zm-1.24.7a.76.76,0,0,0,.49-.16.82.82,0,0,0,.25-.5V25.13a.66.66,0,0,0-.25-.13,1.83,1.83,0,0,0-.37,0,.82.82,0,0,0-.67.28,1.33,1.33,0,0,0-.24.89,3.43,3.43,0,0,0,0,.47,1.35,1.35,0,0,0,.14.37.69.69,0,0,0,.24.24.7.7,0,0,0,.37.09"/><path class="cls-1" d="M85.84,27.42a1.38,1.38,0,0,1-.47.23,1.87,1.87,0,0,1-.59.09,1.66,1.66,0,0,1-.61-.11,1.14,1.14,0,0,1-.42-.33,1.52,1.52,0,0,1-.25-.51,2.71,2.71,0,0,1-.08-.66,1.81,1.81,0,0,1,.35-1.2,1.24,1.24,0,0,1,1-.41,1.9,1.9,0,0,1,.41,0,.89.89,0,0,1,.38.18.92.92,0,0,1,.27.36,1.6,1.6,0,0,1,.1.63,3.91,3.91,0,0,1,0,.45h-2a1.75,1.75,0,0,0,.06.48,1,1,0,0,0,.17.35.73.73,0,0,0,.3.22,1.26,1.26,0,0,0,.46.08,1.25,1.25,0,0,0,.42-.08.7.7,0,0,0,.31-.17ZM84.78,25a.85.85,0,0,0-.58.19.94.94,0,0,0-.26.65h1.52a1,1,0,0,0-.17-.66.69.69,0,0,0-.51-.18"/><path class="cls-1" d="M91.18,26.55H89.6l-.43,1.19h-.51l1.63-4.37h.23l1.64,4.37h-.54Zm-1.42-.45H91l-.47-1.31-.16-.65h0l-.15.66Z"/><path class="cls-1" d="M93.14,23.38h.49v1.53h0a.92.92,0,0,1,.36-.28,1.19,1.19,0,0,1,.47-.09,1.06,1.06,0,0,1,.9.38,1.88,1.88,0,0,1,.3,1.18,1.69,1.69,0,0,1-.4,1.22,1.43,1.43,0,0,1-1.1.42,2.47,2.47,0,0,1-.63-.08,1.81,1.81,0,0,1-.42-.15ZM94.41,25a.69.69,0,0,0-.5.17,1,1,0,0,0-.28.48v1.55a.83.83,0,0,0,.29.1,1.27,1.27,0,0,0,.34,0,.83.83,0,0,0,.67-.3,1.42,1.42,0,0,0,.25-.92,2.14,2.14,0,0,0-.05-.45.85.85,0,0,0-.13-.35.69.69,0,0,0-.24-.24.63.63,0,0,0-.35-.08"/><path class="cls-1" d="M99.17,27.42a1.47,1.47,0,0,1-.47.23,1.87,1.87,0,0,1-.59.09,1.62,1.62,0,0,1-.61-.11,1.14,1.14,0,0,1-.42-.33,1.35,1.35,0,0,1-.25-.51,2.71,2.71,0,0,1-.08-.66,1.81,1.81,0,0,1,.35-1.2,1.22,1.22,0,0,1,1-.41,2,2,0,0,1,.42,0,.89.89,0,0,1,.38.18.92.92,0,0,1,.27.36,1.6,1.6,0,0,1,.1.63,3.91,3.91,0,0,1,0,.45h-2a1.75,1.75,0,0,0,.06.48.82.82,0,0,0,.17.35.73.73,0,0,0,.3.22,1.26,1.26,0,0,0,.46.08,1.25,1.25,0,0,0,.42-.08.7.7,0,0,0,.31-.17ZM98.11,25a.83.83,0,0,0-.58.19.94.94,0,0,0-.26.65h1.52a1,1,0,0,0-.18-.66.65.65,0,0,0-.5-.18"/><path class="cls-1" d="M102,25.14a1.12,1.12,0,0,0-.35-.06.56.56,0,0,0-.42.14.63.63,0,0,0-.19.37v2.15h-.49V24.66h.34l.09.38h0a.89.89,0,0,1,.28-.32.69.69,0,0,1,.41-.12,1.49,1.49,0,0,1,.4.06Z"/><path class="cls-1" d="M102.84,24.59h.48V24l.49-.14v.75h.83V25h-.83v1.7a1,1,0,0,0,.08.46.3.3,0,0,0,.27.13.7.7,0,0,0,.27,0l.25-.09.11.38a2,2,0,0,1-.37.13,1.86,1.86,0,0,1-.42,0,.61.61,0,0,1-.53-.21,1.27,1.27,0,0,1-.15-.71V25h-.48Z"/><path class="cls-1" d="M105.74,24.84a2.17,2.17,0,0,1,.54-.21,3.49,3.49,0,0,1,.65-.06,1.45,1.45,0,0,1,.52.08.74.74,0,0,1,.29.23.83.83,0,0,1,.14.3,1.84,1.84,0,0,1,0,.33c0,.25,0,.49,0,.72s0,.46,0,.67,0,.29,0,.43a2,2,0,0,0,.07.37h-.36l-.13-.43h0a2.09,2.09,0,0,1-.14.17,1,1,0,0,1-.2.15,1.08,1.08,0,0,1-.27.1,1.29,1.29,0,0,1-.35,0,1.1,1.1,0,0,1-.37-.06.79.79,0,0,1-.29-.18.74.74,0,0,1-.19-.27.86.86,0,0,1-.07-.36.81.81,0,0,1,.11-.46.71.71,0,0,1,.31-.28,1.29,1.29,0,0,1,.48-.16,3.76,3.76,0,0,1,.61,0h.17l.17,0c0-.13,0-.24,0-.33a.5.5,0,0,0-.63-.61h-.22l-.25,0-.24.07a.72.72,0,0,0-.2.09Zm.87,2.47a1,1,0,0,0,.31,0,1,1,0,0,0,.23-.11.87.87,0,0,0,.17-.16.7.7,0,0,0,.09-.17v-.51h-.35l-.37,0a1.36,1.36,0,0,0-.32.08.52.52,0,0,0-.22.16.37.37,0,0,0-.09.26.46.46,0,0,0,.16.35.56.56,0,0,0,.39.14"/><path class="cls-1" d="M113.76,26.61c0,.21,0,.4,0,.57a2.83,2.83,0,0,0,0,.5h-.33l-.12-.44h0a1,1,0,0,1-.9.5,1.07,1.07,0,0,1-.91-.39,2,2,0,0,1-.3-1.21,1.74,1.74,0,0,1,.37-1.2,1.32,1.32,0,0,1,1-.4,1.73,1.73,0,0,1,.36,0,1.82,1.82,0,0,1,.29.08V23.36h.49Zm-1.24.7a.79.79,0,0,0,.5-.16.88.88,0,0,0,.25-.5V25.13A.75.75,0,0,0,113,25a1.94,1.94,0,0,0-.38,0,.81.81,0,0,0-.66.28,1.33,1.33,0,0,0-.24.89,2.35,2.35,0,0,0,0,.47,1.35,1.35,0,0,0,.13.37.69.69,0,0,0,.24.24.72.72,0,0,0,.37.09"/><path class="cls-1" d="M115,26.13a1.79,1.79,0,0,1,.35-1.2,1.23,1.23,0,0,1,1-.41,1.57,1.57,0,0,1,.6.11,1.14,1.14,0,0,1,.42.33,1.22,1.22,0,0,1,.25.51,2.71,2.71,0,0,1,.08.66,1.74,1.74,0,0,1-.35,1.19,1.22,1.22,0,0,1-1,.42,1.55,1.55,0,0,1-.59-.11,1.18,1.18,0,0,1-.43-.33,1.34,1.34,0,0,1-.24-.51,2.71,2.71,0,0,1-.08-.66m.51,0a2.28,2.28,0,0,0,0,.45,1.11,1.11,0,0,0,.15.37.72.72,0,0,0,.26.26.74.74,0,0,0,.38.1c.56,0,.84-.39.84-1.18a1.75,1.75,0,0,0-.05-.46,1,1,0,0,0-.14-.37.81.81,0,0,0-.26-.26.78.78,0,0,0-.39-.09c-.55,0-.83.39-.83,1.18"/><path class="cls-1" d="M123,26.57a.6.6,0,0,0-.15-.42,1.47,1.47,0,0,0-.39-.29l-.5-.24a3,3,0,0,1-.5-.26,1.56,1.56,0,0,1-.38-.39,1,1,0,0,1-.16-.59,1,1,0,0,1,.35-.8,1.57,1.57,0,0,1,1-.29,4.61,4.61,0,0,1,.68.05,2.18,2.18,0,0,1,.48.14l-.15.46a1.92,1.92,0,0,0-.42-.13,2.32,2.32,0,0,0-.61-.07.87.87,0,0,0-.61.18.56.56,0,0,0-.21.43.54.54,0,0,0,.16.4A1.65,1.65,0,0,0,122,25l.5.25a2.69,2.69,0,0,1,.5.28,1.45,1.45,0,0,1,.39.39,1,1,0,0,1,.15.57,1.18,1.18,0,0,1-.1.5,1,1,0,0,1-.29.38,1.43,1.43,0,0,1-.46.24,1.91,1.91,0,0,1-.61.09,3.86,3.86,0,0,1-.76-.07,2.11,2.11,0,0,1-.47-.16l.17-.45a2.15,2.15,0,0,0,.42.15,2.35,2.35,0,0,0,.62.07,1.58,1.58,0,0,0,.38,0,.79.79,0,0,0,.31-.13.7.7,0,0,0,.2-.22.66.66,0,0,0,.08-.32"/><path class="cls-1" d="M127.28,23.38h.49v2.87a2.2,2.2,0,0,1-.1.67,1.25,1.25,0,0,1-.29.46,1.12,1.12,0,0,1-.46.27,1.76,1.76,0,0,1-.58.09,1.68,1.68,0,0,1-1.15-.35,1.31,1.31,0,0,1-.39-1v-3h.51v2.73a2.11,2.11,0,0,0,.07.55.88.88,0,0,0,.19.36.79.79,0,0,0,.33.2,1.44,1.44,0,0,0,.45.06.85.85,0,0,0,.71-.27,1.48,1.48,0,0,0,.22-.9Z"/><path class="cls-1" d="M131.22,26.57a.61.61,0,0,0-.16-.42,1.41,1.41,0,0,0-.38-.29l-.5-.24a2.62,2.62,0,0,1-.5-.26,1.45,1.45,0,0,1-.39-.39,1.05,1.05,0,0,1-.15-.59,1,1,0,0,1,.35-.8,1.52,1.52,0,0,1,1-.29,4.86,4.86,0,0,1,.69.05,2.58,2.58,0,0,1,.48.14l-.16.46a1.65,1.65,0,0,0-.41-.13,2.35,2.35,0,0,0-.62-.07.91.91,0,0,0-.61.18.58.58,0,0,0-.2.43.57.57,0,0,0,.15.4,1.72,1.72,0,0,0,.39.29l.5.25a3.05,3.05,0,0,1,.5.28,1.56,1.56,0,0,1,.38.39.94.94,0,0,1,.16.57,1.35,1.35,0,0,1-.1.5,1.17,1.17,0,0,1-.29.38,1.54,1.54,0,0,1-.46.24,2,2,0,0,1-.62.09,3.94,3.94,0,0,1-.76-.07,2.11,2.11,0,0,1-.47-.16l.18-.45a2,2,0,0,0,.41.15,2.4,2.4,0,0,0,.62.07,1.61,1.61,0,0,0,.39,0,.69.69,0,0,0,.3-.13.63.63,0,0,0,.21-.22.66.66,0,0,0,.08-.32"/></svg>