<?xml version="1.0" encoding="utf-8"?>
<!-- Generator: Adobe Illustrator 18.0.0, SVG Export Plug-In . SVG Version: 6.00 Build 0)  -->
<!DOCTYPE svg PUBLIC "-//W3C//DTD SVG 1.1//EN" "http://www.w3.org/Graphics/SVG/1.1/DTD/svg11.dtd">
<svg version="1.1" id="Layer_1" xmlns="http://www.w3.org/2000/svg" xmlns:xlink="http://www.w3.org/1999/xlink" x="0px" y="0px"
	 viewBox="0 0 302.1 80" enable-background="new 0 0 302.1 80" xml:space="preserve">
<g>
	<g>
		<path fill="#FFFFFF" d="M220.9,41.2V30.6h4.1v10.5c0,3,1.5,4.6,4,4.6c2.5,0,4-1.5,4-4.5V30.6h4.1v10.5c0,5.6-3.2,8.4-8.2,8.4
			C224,49.5,220.9,46.7,220.9,41.2z"/>
		<path fill="#FFFFFF" d="M239,30.6h14.2v3.7h-10.1v4h8.9V42h-8.9v7.2H239L239,30.6L239,30.6z"/>
		<path fill="#FFFFFF" d="M255.1,30.6h7.6c4.4,0,7.1,2.6,7.1,6.4v0.1c0,4.3-3.3,6.5-7.5,6.5h-3.1v5.6h-4.1V30.6z M262.4,40
			c2,0,3.2-1.2,3.2-2.8v-0.1c0-1.8-1.3-2.8-3.3-2.8h-3.2V40H262.4z"/>
		<path fill="#FFFFFF" d="M271.7,30.6h14v3.6h-10V38h8.8v3.6h-8.8v3.9h10.1v3.6h-14.2L271.7,30.6L271.7,30.6z"/>
		<path fill="#FFFFFF" d="M287.8,30.6h4.1v14.9h9.3v3.7h-13.4L287.8,30.6L287.8,30.6z"/>
	</g>
	<g>
		<rect x="201.7" fill="#FFFFFF" width="0.4" height="80"/>
		<g>
			<path fill="#FFFFFF" d="M131.1,57.4c-0.2,0.2-0.3,0.6-0.1,0.8c0.2,0.3,0.6,0.2,0.8,0c0.3-0.2,0.3-0.6,0.1-0.8
				C131.8,57.2,131.4,57.2,131.1,57.4z"/>
			<path fill="#FFFFFF" d="M126.5,49.5l-2.8,1.2l0.4,1l2.7-1.2c0.5-0.2,0.9-0.3,1.1,0.1c0.2,0.4-0.2,0.7-0.7,0.9l-2.7,1.2l0.4,1
				l2.8-1.2c1-0.4,1.6-1.2,1.1-2.2C128.5,49.1,127.5,49,126.5,49.5z"/>
			<polygon fill="#FFFFFF" points="127.6,46.8 124.8,47.6 124.7,47.5 127.3,45.7 127,44.6 122.4,45.8 122.6,46.7 125.5,46 125.5,46 
				122.9,47.8 123.2,48.9 127.8,47.8 			"/>
			<polygon fill="#FFFFFF" points="126.8,42.5 122,43.1 122.1,44.2 126.9,43.6 			"/>
			<polygon fill="#FFFFFF" points="126.6,39.5 121.8,38.3 121.9,39.5 125.4,40.1 125.4,40.1 121.9,40.8 121.9,42 126.7,40.8 			"/>
			<polygon fill="#FFFFFF" points="127.1,35.2 126.1,35 125.9,36.4 124.9,36.2 125.1,35.1 124.2,34.9 124,36.1 123.1,36 123.3,34.7 
				122.3,34.6 122,36.9 126.8,37.5 			"/>
			<path fill="#FFFFFF" d="M127.6,33.3l-1.8-0.5l0.1-0.3l2-0.1l0.3-1.1l-2.3,0.2c0-0.3-0.3-0.8-1-1c-0.9-0.3-1.5,0.1-1.8,1l-0.4,1.5
				l4.6,1.3L127.6,33.3z M125.1,32.2l-0.1,0.3l-1.2-0.3l0.1-0.3c0.1-0.2,0.3-0.5,0.7-0.4C125.1,31.6,125.2,31.9,125.1,32.2z"/>
			<path fill="#FFFFFF" d="M125.3,29.2c0.7,0.3,1.2,0.1,1.7-0.3c0.4-0.3,0.6-0.4,0.9-0.3c0.3,0.1,0.4,0.4,0.2,0.6
				c-0.1,0.3-0.4,0.5-0.7,0.6l0.5,0.8c0.4-0.1,0.8-0.5,1.1-1c0.3-0.7,0.1-1.6-0.8-2c-0.8-0.3-1.3,0-1.7,0.3
				c-0.3,0.3-0.5,0.4-0.8,0.3c-0.3-0.1-0.3-0.4-0.3-0.6c0.1-0.2,0.3-0.4,0.5-0.4l-0.5-0.9c-0.4,0.1-0.7,0.4-1,0.9
				C124.3,27.9,124.4,28.8,125.3,29.2z"/>
			
				<rect x="125.8" y="25.3" transform="matrix(-0.8578 -0.514 0.514 -0.8578 224.8275 113.8726)" fill="#FFFFFF" width="4.8" height="1.1"/>
			<path fill="#FFFFFF" d="M131.9,24.6c0.8-1.1,0.5-2.1-0.7-3c-1.2-0.9-2.3-1-3.1,0.1l-0.8,1.1l3.8,3L131.9,24.6z M128.7,22.5
				l0.2-0.2c0.3-0.4,0.9-0.4,1.7,0.2c0.7,0.6,0.9,1.2,0.6,1.6l-0.2,0.2L128.7,22.5z"/>
			<path fill="#FFFFFF" d="M134.1,22.1l-0.5-0.8l0.8-0.7l0.7,0.5l0.8-0.8l-4.1-2.7l-1,0.9l2.4,4.3L134.1,22.1z M132.1,18.8
				L132.1,18.8l1.7,1.2l-0.6,0.6L132.1,18.8z"/>
			<path fill="#FFFFFF" d="M137.7,19.1c1.1-0.8,1.1-1.9,0.3-3.1c-0.8-1.2-1.8-1.7-3-0.9l-1.1,0.8l2.7,4L137.7,19.1z M135.6,15.9
				c0.4-0.3,1-0.1,1.6,0.7c0.5,0.8,0.5,1.4,0.1,1.7l-0.2,0.1l-1.6-2.4L135.6,15.9z"/>
			<polygon fill="#FFFFFF" points="142.3,16.6 141.9,15.7 140.6,16.3 140.2,15.4 141.3,14.9 140.9,14.1 139.8,14.6 139.4,13.7 
				140.6,13.2 140.2,12.3 138.1,13.3 140.1,17.7 			"/>
			<polygon fill="#FFFFFF" points="145.6,15.6 145.1,13.7 146.2,13.4 146,12.5 144.9,12.8 144.6,11.9 145.8,11.6 145.6,10.6 
				143.3,11.2 144.5,15.8 			"/>
			<polygon fill="#FFFFFF" points="149.9,14.8 149.8,13.9 148.4,14 148.3,13 149.5,12.8 149.4,12 148.2,12.1 148.1,11.2 149.3,11 
				149.2,10.1 146.9,10.4 147.5,15.1 			"/>
			<path fill="#FFFFFF" d="M154.2,12.4c0-1.5-0.6-2.4-1.9-2.5l-1.3,0l-0.1,4.8l1.4,0C153.5,14.8,154.2,13.9,154.2,12.4z M152,10.9
				l0.3,0c0.5,0,0.9,0.5,0.9,1.5c0,0.9-0.4,1.4-0.9,1.4l-0.3,0L152,10.9z"/>
			<polygon fill="#FFFFFF" points="157.5,14.4 156.2,14.2 156.4,13.1 157.5,13.3 157.7,12.5 156.5,12.3 156.7,11.3 157.9,11.6 
				158.1,10.6 155.8,10.2 155,15 157.4,15.4 			"/>
			<path fill="#FFFFFF" d="M159.8,14.1l0.3,0.1l0,2l1.1,0.4l-0.1-2.3c0.3,0,0.8-0.3,1-0.9c0.3-0.9-0.1-1.5-1-1.8l-1.5-0.5l-1.5,4.6
				l1,0.3L159.8,14.1z M160.4,12.2l0.3,0.1c0.2,0.1,0.5,0.3,0.3,0.7c-0.1,0.4-0.5,0.5-0.7,0.4l-0.3-0.1L160.4,12.2z"/>
			<path fill="#FFFFFF" d="M162.7,17.2l0.6-0.7l1,0.5l-0.2,0.9l1,0.5l1.2-4.8l-1.2-0.6l-3.2,3.7L162.7,17.2z M165,14.2L165,14.2
				l-0.6,2l-0.7-0.4L165,14.2z"/>
			<polygon fill="#FFFFFF" points="167.4,20.2 168,19.3 167,18.6 169.1,15.5 168.3,14.9 165.5,18.8 			"/>
			<path fill="#FFFFFF" d="M170.1,22.6c0.9,1,2,0.8,3.1-0.2c1.1-1,1.3-2.1,0.4-3.1l-0.9-1l-3.5,3.3L170.1,22.6z M172.7,19.8l0.2,0.2
				c0.4,0.4,0.2,1-0.5,1.7c-0.7,0.6-1.3,0.7-1.7,0.3l-0.2-0.2L172.7,19.8z"/>
			<polygon fill="#FFFFFF" points="173.3,26.8 174.1,26.2 173.3,25.1 174.2,24.5 174.8,25.5 175.6,24.9 174.9,24 175.7,23.4 
				176.4,24.5 177.2,23.9 175.9,22 171.9,24.8 			"/>
			<path fill="#FFFFFF" d="M174.9,29.8l1.6-0.7l0.2,0.4c0.3,0.7,1,1.1,2,0.7c1-0.5,1.1-1.3,0.8-1.9l-0.6-1.4l-4.4,1.9L174.9,29.8z
				 M178.4,28.3l0.1,0.3c0.1,0.3,0,0.6-0.4,0.7c-0.4,0.2-0.7,0-0.8-0.2l-0.1-0.3L178.4,28.3z"/>
			<polygon fill="#FFFFFF" points="176.5,34.6 177.4,34.3 177,33 178,32.7 178.3,33.9 179.2,33.6 178.9,32.5 179.8,32.2 180.1,33.5 
				181.1,33.2 180.4,31 175.8,32.2 			"/>
			<polygon fill="#FFFFFF" points="176.9,37.8 177.9,37.6 177.8,36.4 181.5,35.8 181.4,34.7 176.6,35.4 			"/>
			<path fill="#FFFFFF" d="M179.4,38.3c-1.5,0-2.6,0.7-2.6,1.8c0,1.1,1,1.9,2.5,1.9c1.5,0,2.5-0.7,2.5-1.8
				C182,39,181,38.3,179.4,38.3z M179.4,40.9c-0.8,0-1.5-0.2-1.5-0.7c0-0.5,0.7-0.7,1.5-0.7c0.8,0,1.5,0.2,1.5,0.7
				C180.9,40.6,180.2,40.9,179.4,40.9z"/>
			<polygon fill="#FFFFFF" points="180.6,43.8 176.8,43.2 176.7,44.3 180.5,44.9 180.4,45.7 181.3,45.9 181.7,43.1 180.8,42.9 			
				"/>
			<path fill="#FFFFFF" d="M176.3,46.2l0.8,0.4l-0.3,1l-0.9-0.1l-0.3,1.1l4.9,0.2l0.4-1.3l-4.3-2.4L176.3,46.2z M177.8,47l1.9,1l0,0
				l-2.1-0.2L177.8,47z"/>
			<path fill="#FFFFFF" d="M178.4,50.7c-0.7-0.3-1.2-0.1-1.7,0.3c-0.4,0.3-0.6,0.4-0.9,0.3c-0.3-0.1-0.4-0.4-0.2-0.6
				c0.1-0.3,0.4-0.5,0.6-0.6l-0.5-0.8c-0.4,0.1-0.8,0.5-1.1,1c-0.3,0.7-0.1,1.6,0.8,2c0.8,0.3,1.3,0,1.7-0.4
				c0.3-0.3,0.5-0.4,0.8-0.3c0.3,0.1,0.4,0.4,0.3,0.6c-0.1,0.2-0.3,0.4-0.5,0.4l0.5,0.8c0.4-0.1,0.7-0.4,0.9-0.9
				C179.4,52.1,179.4,51.2,178.4,50.7z"/>
			<path fill="#FFFFFF" d="M171.8,57.3c-0.2,0.3-0.2,0.6,0.1,0.8c0.2,0.2,0.6,0.2,0.8,0c0.2-0.3,0.2-0.6-0.1-0.8
				C172.4,57.1,172,57.1,171.8,57.3z"/>
			<path fill="#FFFFFF" d="M140.2,64c0.5-0.8,0.2-1.5-0.6-2l-1.3-0.8l-2.3,4.2l0.9,0.5l0.9-1.7l0.3,0.2l-0.4,2l1,0.6l0.3-2.3
				C139.4,64.8,139.9,64.7,140.2,64z M139.2,63.6c-0.2,0.4-0.5,0.4-0.8,0.3l-0.3-0.2l0.6-1.1l0.3,0.2
				C139.3,62.9,139.5,63.1,139.2,63.6z"/>
			<path fill="#FFFFFF" d="M143.1,63.5c-0.7-0.2-1.5-0.1-1.9,0.9c-0.3,0.8,0,1.2,0.4,1.6c0.3,0.3,0.5,0.6,0.4,0.9
				c-0.1,0.3-0.4,0.4-0.6,0.3c-0.3-0.1-0.5-0.3-0.6-0.6l-0.8,0.6c0.2,0.4,0.5,0.8,1.1,1c0.7,0.3,1.6,0,2-0.9
				c0.3-0.8-0.1-1.3-0.5-1.7c-0.3-0.3-0.4-0.5-0.3-0.8c0.1-0.3,0.4-0.4,0.6-0.3c0.2,0.1,0.4,0.3,0.5,0.5l0.8-0.5
				C143.9,64,143.6,63.7,143.1,63.5z"/>
			<polygon fill="#FFFFFF" points="144,67.5 145.2,67.8 145.4,67 144.2,66.7 			"/>
			<path fill="#FFFFFF" d="M148.3,65l-1.4-0.2l-0.7,4.8l1.6,0.2c0.7,0.1,1.5-0.1,1.6-1.2c0.1-0.7-0.2-1.1-0.6-1.2v0
				c0.4-0.1,0.7-0.4,0.7-1C149.7,65.4,148.9,65.1,148.3,65z M148.4,68.4c-0.1,0.4-0.3,0.5-0.6,0.5l-0.4-0.1l0.2-1.2l0.4,0.1
				C148.2,67.7,148.5,67.9,148.4,68.4z M148.6,66.4c-0.1,0.4-0.3,0.5-0.6,0.5l-0.4-0.1l0.1-1l0.4,0
				C148.4,65.9,148.6,66.1,148.6,66.4z"/>
			<path fill="#FFFFFF" d="M153.8,66.6c0-1-0.6-1.4-1.5-1.4l-1.5,0l0.1,4.8l1,0l0-1.9l0.3,0l0.7,1.9l1.1,0l-0.8-2.1
				C153.5,67.8,153.8,67.3,153.8,66.6z M152.2,67.3l-0.3,0l0-1.2l0.3,0c0.2,0,0.6,0.1,0.6,0.6C152.7,67.2,152.5,67.3,152.2,67.3z"/>
			<path fill="#FFFFFF" d="M155.6,65l-0.3,4.9l1.1-0.2l0-0.9l1.1-0.2l0.3,0.8l1.1-0.2l-2-4.5L155.6,65z M156.3,68l0-2.1l0,0l0.7,1.9
				L156.3,68z"/>
			<path fill="#FFFFFF" d="M160.8,65.7c-0.4-0.1-0.7-0.1-0.8-0.4c-0.1-0.3,0.1-0.5,0.3-0.6c0.2-0.1,0.5,0,0.7,0.1l0.3-0.9
				c-0.4-0.2-0.8-0.2-1.3-0.1c-0.7,0.2-1.3,0.9-0.9,1.9c0.3,0.8,0.8,0.9,1.3,1c0.5,0.1,0.7,0.1,0.8,0.4c0.1,0.3,0,0.5-0.3,0.6
				c-0.3,0.1-0.6,0-0.8-0.1l-0.3,1c0.4,0.2,0.9,0.3,1.5,0.1c0.7-0.2,1.2-1,0.9-2C162,65.9,161.3,65.7,160.8,65.7z"/>
			
				<rect x="161" y="64.5" transform="matrix(0.4181 0.9084 -0.9084 0.4181 154.1964 -110.5378)" fill="#FFFFFF" width="4.8" height="1.1"/>
			<polygon fill="#FFFFFF" points="166.6,64.9 164.7,61.7 163.8,62.2 166.2,66.4 168.2,65.2 167.7,64.3 			"/>
			<path fill="#FFFFFF" d="M173.7,33.7l-2.8-0.1c0-0.3,0.1-0.6,0.1-0.9c0-0.4,0-0.9-0.1-1.3c-0.1-0.5-0.2-0.9-0.3-1.4l1.6-0.2
				c-2.1-4.3-5.6-7.7-9.8-10l-8.4,10c0-0.4,0-0.7-0.1-1.1l0-0.1l0,0c0-0.1-0.1-0.3-0.1-0.4l5-9.9c-2.2-0.7-4.6-1.1-7-1.1
				c-2.5,0-4.8,0.4-7,1.1l5.1,10c-0.2,0.3-0.4,0.7-0.6,1l-8-9.6c-4.2,2.2-7.6,5.7-9.8,10l6.1,0.8l-1,2.8l-6.7,0.4
				c-0.6,2-0.9,4.1-0.9,6.3c0,2.6,0.4,5.1,1.3,7.5l11.2-7.8l-0.2,0.3l-0.5,0.7h0.9h1.3h0.2l-3.2,3h-1.5H138l0,0.5
				c0,0.4,0.1,0.8,0.1,1.2l-6.2,5.8c0.4,0.7,0.9,1.5,1.4,2.2c0.6,0.4,1.4,0.6,2.1,0.6c1.3,0,2.5-0.6,3.3-1.6c0.7,1,1.9,1.6,3.3,1.6
				c1.3,0,2.5-0.6,3.3-1.6c0.7,1,1.9,1.6,3.3,1.6c1.3,0,2.5-0.6,3.3-1.6c0.7,1,1.9,1.6,3.3,1.6c1.3,0,2.5-0.6,3.3-1.6
				c0.8,1,1.9,1.6,3.3,1.6c1.3,0,2.5-0.6,3.3-1.6c0.7,1,1.9,1.6,3.3,1.6c0.8,0,1.5-0.2,2.1-0.6c0.5-0.7,1-1.4,1.4-2.2l-6.2-5.8
				c0.1-0.4,0.1-0.8,0.1-1.2l0-0.5h-0.5h-1.5l-3.2-3h2.7h0.3l9.8,6.9c0.8-2.3,1.3-4.9,1.3-7.5C174.6,37.8,174.3,35.7,173.7,33.7z
				 M156.7,31.7c0,0.3-0.1,0.7-0.1,1c0,0,0,0.1,0,0.1l-1.6-0.1c0,0,0,0,0,0c0-0.3,0-0.5,0-0.8L156.7,31.7z M158.2,36.9
				c0.4,0.6,0.9,1.2,1.5,1.7c-0.6,0-1.2-0.1-1.7-0.3l-2.5-2.3v-0.3V35L158.2,36.9z M149.2,30.9C149.2,30.9,149.2,30.9,149.2,30.9
				c0.3-1.1,0.8-2,1.5-2.8c-0.1,0.1-0.1,0.2-0.1,0.4c0,0.3,0.1,0.5,0.3,0.6c0.3-0.4,0.5-0.9,0.7-1.4c0-0.1,0-0.1,0.1-0.2
				c0-0.1,0.1-0.2,0.1-0.3c0.1-0.5,0.2-1,0.3-1.5c0,0,0,0,0,0c0.7,0.9,1.2,2,1.4,3.2c0,0,0,0,0,0c0.1,0.4,0.1,0.8,0.1,1.2
				c0,0.1,0,0.3,0,0.4c0,0.5-0.1,0.9-0.2,1.4c0.1,0.1,0.2,0.1,0.4,0.1c0.4,0,0.7-0.3,0.7-0.7c0,0,0,0,0,0c0.1,0.5,0.2,1.1,0.2,1.6
				c0,0.6-0.1,1.2-0.2,1.8h-1.3c0.3-0.5,0.5-1,0.6-1.6c0-0.1,0-0.2,0-0.3c-0.3,0.4-0.6,0.8-1,1.1c0,0,0,0,0,0.1c0,0,0,0,0,0
				c0-0.3-0.1-0.5-0.1-0.8c0-0.4,0.1-1.2,0.1-1.2c0-0.3,0.1-0.6,0.1-0.9c0-1-0.3-1.9-0.8-2.7c-0.1,1.3-0.7,2.5-1.4,3.3
				c-0.1-0.2-0.2-0.4-0.4-0.6c-0.2,0.4-0.3,0.8-0.4,1.2h0c0,0,0,0,0,0c0,0,0,0.1,0,0.1h0c0,0.2-0.1,0.5-0.1,0.7
				c0,0.6,0.1,1.2,0.3,1.7h-1.2c-0.1-0.6-0.2-1.2-0.2-1.8C149,32.1,149,31.5,149.2,30.9z M148.6,34.7h6.4v1h-6.4
				C148.6,35.6,148.6,34.7,148.6,34.7z M149.3,36.8V36h5v0.8H149.3z M153.8,37.2c-0.4,2.1-0.7,4.3-0.9,6.5h-2.1
				c-0.2-2.2-0.5-4.4-0.9-6.5C149.9,37.2,153.8,37.2,153.8,37.2z M148.6,31.9c0,0.3,0,0.5,0,0.8c0,0,0,0,0,0l-5.1,0.3l-0.6-1.8
				L148.6,31.9z M148.2,35v0.6V36l-2.5,2.4c-0.3-0.3-0.5-0.7-0.7-1.1L148.2,35z M143,40.2h-1.3l1.1-1.4l-0.5-2H138l-0.5,2l1.1,1.4
				h-1.2h-0.1h-2.4h-0.4h-1.3c1.2-0.8,2.2-1.9,2.8-3.2l4.2-12.2l4.2,12.2c0.6,1.3,1.6,2.5,2.8,3.2h-1h-0.7h-2.1H143z M165.2,44.1
				c-0.2,3.7-1.9,7-4.4,9.3c-0.8-0.2-1.5-0.7-2-1.3l-0.4-0.5L158,52c-0.7,0.9-1.8,1.5-2.9,1.5c-1.2,0-2.2-0.5-2.9-1.5l-0.4-0.5
				l-0.4,0.5c-0.7,0.9-1.8,1.5-2.9,1.5c-1.2,0-2.2-0.5-2.9-1.5l-0.3-0.5l-0.4,0.5c-0.5,0.7-1.2,1.1-2,1.4c-2.6-2.3-4.2-5.6-4.4-9.2
				H165.2z M167.7,39.1c0.9,0,1.7-0.2,2.5-0.5h0.1v1.6h-5.9v0c0,0,0,0,0,0c1.4-0.9,3.1-3.1,3.4-3.7c0.6-1.1,1-2.4,1-3.9
				c0-3.6-2.2-6.5-4.9-6.5c0,0-0.1,0-0.1,0c0,0-0.1,0-0.1,0c-2.7,0-4.9,2.9-4.9,6.5c0,1.4,0.4,2.8,1,3.9c0.3,0.6,2,2.8,3.4,3.7
				c0,0,0,0,0,0v0h-5.9v-1.6h0.1c0.8,0.3,1.6,0.5,2.5,0.5c0.3,0,0.6,0,0.9-0.1c-2-1.5-3.7-4.1-3.7-6.3c0-0.4,0-0.8,0.1-1.3
				c0.5-3.6,3.1-6.1,6.6-6.1l0,0c0,0,0,0,0,0c0,0,0,0,0,0l0,0c3.5,0,6.1,2.5,6.6,6.1c0.1,0.4,0.1,0.8,0.1,1.3c0,2.3-1.7,4.8-3.7,6.3
				C167.1,39,167.4,39.1,167.7,39.1z M159.3,32.9c0-0.1,0-0.2,0-0.4c0-0.4,0-0.8,0.1-1.2l8.7-1.1c0.2,0.7,0.3,1.5,0.3,2.3
				c0,0.3,0,0.6,0,0.8L159.3,32.9z"/>
			<path fill="#FFFFFF" d="M165.5,58.2c-0.2-0.2-0.4-0.4-0.6-0.6c-0.7,1-1.9,1.6-3.3,1.6c-1.3,0-2.5-0.6-3.3-1.6
				c-0.7,1-1.9,1.6-3.3,1.6c-1.3,0-2.5-0.6-3.3-1.6c-0.7,1-1.9,1.6-3.3,1.6c-1.3,0-2.5-0.6-3.3-1.6c-0.8,1-1.9,1.6-3.3,1.6
				c-1.3,0-2.5-0.7-3.3-1.7c-0.2,0.2-0.4,0.4-0.6,0.6c3.8,2.9,8.6,4.6,13.7,4.6C157,62.8,161.7,61.1,165.5,58.2z M151.8,57.9
				l0.5,0.6l0,1h-1.1l0-1L151.8,57.9z M150.8,59.8h2.1v0.6h-2.1V59.8z M151.3,60.8h1.1V61l-0.2,0.2h-0.6l-0.3-0.2
				C151.3,61,151.3,60.8,151.3,60.8z M151.6,61.6h0.6v0.3h-0.6V61.6z"/>
			<path fill="#FFFFFF" d="M164.9,54c-0.7,1-1.9,1.7-3.3,1.7c-1.3,0-2.5-0.6-3.3-1.6c-0.7,1-1.9,1.6-3.3,1.6c-1.3,0-2.5-0.7-3.3-1.6
				c-0.7,1-1.9,1.6-3.3,1.6c-1.3,0-2.5-0.7-3.3-1.7c-0.8,1-1.9,1.6-3.3,1.6c-1.3,0-2.5-0.6-3.3-1.6c-0.8,1-1.9,1.6-3.3,1.6
				c-0.1,0-0.1,0-0.2,0c0.5,0.5,1,1,1.6,1.5c0.7-0.3,1.4-0.8,1.9-1.4c0.7,1,1.9,1.6,3.3,1.6c1.3,0,2.5-0.6,3.3-1.6
				c0.7,1,1.9,1.7,3.3,1.7c1.3,0,2.5-0.6,3.3-1.6c0.7,1,1.9,1.6,3.3,1.6c1.3,0,2.5-0.6,3.3-1.6c0.8,1,1.9,1.6,3.3,1.6
				c1.3,0,2.5-0.6,3.3-1.7c0.5,0.6,1.1,1.1,1.9,1.4c0.6-0.5,1.1-1,1.6-1.5c-0.1,0-0.1,0-0.2,0C166.9,55.7,165.7,55,164.9,54z"/>
			<path fill="#FFFFFF" d="M138.3,35.4h3.6l-1.8-7.5L138.3,35.4z M140.9,33.1l-1.6,0.1l0.6-2.4l0.5,0.1L140.9,33.1z"/>
		</g>
	</g>
</g>
<g>
	<path fill="#FFFFFF" d="M0.7,30H4c0.7,0,1.3,0.1,1.8,0.3s1,0.5,1.4,0.9s0.7,0.8,0.9,1.3c0.2,0.5,0.3,1.1,0.3,1.7v0
		c0,0.6-0.1,1.1-0.3,1.7c-0.2,0.5-0.5,1-0.9,1.3s-0.9,0.7-1.4,0.9S4.6,38.4,4,38.4H0.7C0.7,38.4,0.7,30,0.7,30z M4,36.7
		c0.4,0,0.7-0.1,1-0.2s0.6-0.3,0.8-0.5c0.2-0.2,0.4-0.5,0.5-0.8c0.1-0.3,0.2-0.6,0.2-1v0c0-0.4-0.1-0.7-0.2-1
		c-0.1-0.3-0.3-0.6-0.5-0.8C5.6,32.1,5.3,32,5,31.8s-0.7-0.2-1-0.2H2.6v5.1L4,36.7L4,36.7z"/>
	<path fill="#FFFFFF" d="M12.3,38.5c-0.5,0-0.9-0.1-1.3-0.2c-0.4-0.2-0.8-0.4-1.1-0.7s-0.5-0.6-0.7-1C9.1,36.2,9,35.7,9,35.2v0
		c0-0.5,0.1-0.9,0.2-1.3s0.4-0.8,0.7-1.1c0.3-0.3,0.6-0.5,1-0.7c0.4-0.2,0.8-0.3,1.3-0.3c0.5,0,1,0.1,1.4,0.3c0.4,0.2,0.7,0.4,1,0.8
		c0.3,0.3,0.5,0.7,0.6,1.1s0.2,0.9,0.2,1.3c0,0.1,0,0.1,0,0.2c0,0.1,0,0.2,0,0.3h-4.5c0.1,0.4,0.3,0.7,0.5,0.9s0.6,0.3,1,0.3
		c0.3,0,0.6-0.1,0.8-0.2c0.2-0.1,0.5-0.3,0.7-0.5l1,0.9c-0.3,0.4-0.7,0.7-1.1,0.9C13.4,38.4,12.9,38.5,12.3,38.5z M13.5,34.7
		c-0.1-0.4-0.2-0.7-0.4-1s-0.5-0.4-0.9-0.4s-0.7,0.1-0.9,0.4s-0.4,0.6-0.5,1H13.5z"/>
	<path fill="#FFFFFF" d="M16.1,32h1.8v0.9c0.2-0.3,0.5-0.6,0.8-0.8s0.7-0.3,1.2-0.3c0.4,0,0.7,0.1,1.1,0.2c0.4,0.1,0.7,0.4,0.9,0.6
		c0.3,0.3,0.5,0.6,0.7,1c0.2,0.4,0.2,0.9,0.2,1.4v0c0,0.5-0.1,1-0.2,1.4c-0.2,0.4-0.4,0.8-0.6,1c-0.3,0.3-0.6,0.5-0.9,0.6
		c-0.4,0.1-0.7,0.2-1.1,0.2c-0.5,0-0.9-0.1-1.2-0.3s-0.6-0.4-0.8-0.7v2.8h-1.8C16.1,40.3,16.1,32,16.1,32z M19.4,37
		c0.2,0,0.4,0,0.6-0.1c0.2-0.1,0.4-0.2,0.5-0.4c0.1-0.2,0.3-0.3,0.3-0.6c0.1-0.2,0.1-0.5,0.1-0.7v0c0-0.3,0-0.5-0.1-0.7
		c-0.1-0.2-0.2-0.4-0.3-0.6c-0.1-0.2-0.3-0.3-0.5-0.4s-0.4-0.1-0.6-0.1c-0.2,0-0.4,0-0.6,0.1s-0.4,0.2-0.5,0.4
		c-0.1,0.2-0.3,0.3-0.3,0.6c-0.1,0.2-0.1,0.5-0.1,0.7v0c0,0.3,0,0.5,0.1,0.7c0.1,0.2,0.2,0.4,0.3,0.6c0.1,0.2,0.3,0.3,0.5,0.4
		S19.2,37,19.4,37z"/>
	<path fill="#FFFFFF" d="M25.4,38.5c-0.3,0-0.6,0-0.9-0.1c-0.3-0.1-0.5-0.2-0.7-0.4c-0.2-0.2-0.4-0.4-0.5-0.6
		c-0.1-0.2-0.2-0.5-0.2-0.8v0c0-0.4,0.1-0.7,0.2-0.9s0.3-0.5,0.5-0.6s0.5-0.3,0.8-0.4s0.7-0.1,1-0.1c0.3,0,0.6,0,0.9,0.1
		c0.2,0,0.5,0.1,0.7,0.2v-0.1c0-0.4-0.1-0.7-0.3-0.9c-0.2-0.2-0.6-0.3-1-0.3c-0.4,0-0.7,0-0.9,0.1c-0.3,0.1-0.5,0.1-0.8,0.3
		l-0.5-1.4c0.4-0.2,0.7-0.3,1.1-0.4c0.4-0.1,0.8-0.1,1.4-0.1c0.5,0,0.9,0.1,1.3,0.2c0.4,0.1,0.6,0.3,0.9,0.5
		c0.2,0.2,0.4,0.5,0.5,0.9c0.1,0.3,0.2,0.7,0.2,1.2v3.7h-1.8v-0.7c-0.2,0.2-0.5,0.4-0.8,0.6C26.2,38.4,25.8,38.5,25.4,38.5z
		 M25.9,37.2c0.4,0,0.8-0.1,1-0.3c0.3-0.2,0.4-0.5,0.4-0.8v-0.3c-0.2-0.1-0.3-0.1-0.5-0.2c-0.2,0-0.4-0.1-0.6-0.1
		c-0.4,0-0.7,0.1-0.9,0.2c-0.2,0.2-0.3,0.4-0.3,0.7v0c0,0.2,0.1,0.4,0.3,0.6S25.6,37.2,25.9,37.2z"/>
	<path fill="#FFFFFF" d="M30.1,32h1.8v1.3c0.2-0.4,0.4-0.8,0.8-1.1c0.3-0.3,0.8-0.4,1.3-0.4v1.9h-0.1c-0.6,0-1.1,0.2-1.4,0.6
		s-0.5,0.9-0.5,1.7v2.4h-1.8V32z"/>
	<path fill="#FFFFFF" d="M36.6,38.5c-0.3,0-0.5,0-0.8-0.1c-0.2-0.1-0.4-0.2-0.6-0.3s-0.3-0.3-0.4-0.6s-0.1-0.6-0.1-0.9v-3H34V32h0.8
		v-1.6h1.8V32h1.5v1.6h-1.5v2.8c0,0.4,0.2,0.6,0.6,0.6c0.3,0,0.6-0.1,0.9-0.2v1.5c-0.2,0.1-0.4,0.2-0.6,0.3S36.9,38.5,36.6,38.5z"/>
	<path fill="#FFFFFF" d="M40.7,38.5c-0.3,0-0.6,0-0.9-0.1c-0.3-0.1-0.5-0.2-0.7-0.4s-0.4-0.4-0.5-0.6c-0.1-0.2-0.2-0.5-0.2-0.8v0
		c0-0.4,0.1-0.7,0.2-0.9s0.3-0.5,0.5-0.6s0.5-0.3,0.8-0.4s0.7-0.1,1-0.1c0.3,0,0.6,0,0.9,0.1c0.2,0,0.5,0.1,0.7,0.2v-0.1
		c0-0.4-0.1-0.7-0.3-0.9c-0.2-0.2-0.6-0.3-1-0.3c-0.4,0-0.7,0-0.9,0.1c-0.3,0.1-0.5,0.1-0.8,0.3L39,32.4c0.4-0.2,0.7-0.3,1.1-0.4
		c0.4-0.1,0.8-0.1,1.4-0.1c0.5,0,0.9,0.1,1.3,0.2c0.4,0.1,0.7,0.3,0.9,0.5c0.2,0.2,0.4,0.5,0.5,0.9c0.1,0.3,0.2,0.7,0.2,1.2v3.7
		h-1.8v-0.7c-0.2,0.2-0.5,0.4-0.8,0.6C41.5,38.4,41.1,38.5,40.7,38.5z M41.2,37.2c0.4,0,0.8-0.1,1-0.3c0.3-0.2,0.4-0.5,0.4-0.8v-0.3
		c-0.2-0.1-0.3-0.1-0.5-0.2s-0.4-0.1-0.6-0.1c-0.4,0-0.7,0.1-0.9,0.2c-0.2,0.2-0.3,0.4-0.3,0.7v0c0,0.2,0.1,0.4,0.3,0.6
		C40.7,37.2,40.9,37.2,41.2,37.2z"/>
	<path fill="#FFFFFF" d="M45.4,32h1.8v0.9c0.1-0.1,0.2-0.3,0.3-0.4s0.3-0.2,0.4-0.3s0.3-0.2,0.5-0.2c0.2-0.1,0.4-0.1,0.6-0.1
		c0.4,0,0.8,0.1,1.1,0.3c0.3,0.2,0.5,0.4,0.7,0.8c0.3-0.3,0.6-0.6,0.9-0.8c0.3-0.2,0.7-0.3,1.2-0.3c0.7,0,1.2,0.2,1.6,0.6
		s0.6,1,0.6,1.8v4.2h-1.8v-3.6c0-0.4-0.1-0.8-0.3-1c-0.2-0.2-0.4-0.3-0.8-0.3c-0.3,0-0.6,0.1-0.8,0.3c-0.2,0.2-0.3,0.5-0.3,1v3.6
		h-1.8v-3.6c0-0.4-0.1-0.8-0.3-1c-0.2-0.2-0.4-0.3-0.8-0.3c-0.3,0-0.6,0.1-0.8,0.3c-0.2,0.2-0.3,0.5-0.3,1v3.6h-1.8
		C45.4,38.4,45.4,32,45.4,32z"/>
	<path fill="#FFFFFF" d="M59.2,38.5c-0.5,0-0.9-0.1-1.3-0.2c-0.4-0.2-0.8-0.4-1.1-0.7s-0.5-0.6-0.7-1c-0.2-0.4-0.3-0.9-0.3-1.3v0
		c0-0.5,0.1-0.9,0.2-1.3c0.2-0.4,0.4-0.8,0.7-1.1s0.6-0.5,1-0.7c0.4-0.2,0.8-0.3,1.3-0.3c0.5,0,1,0.1,1.4,0.3c0.4,0.2,0.7,0.4,1,0.8
		c0.3,0.3,0.5,0.7,0.6,1.1s0.2,0.9,0.2,1.3c0,0.1,0,0.1,0,0.2c0,0.1,0,0.2,0,0.3h-4.5c0.1,0.4,0.3,0.7,0.5,0.9s0.6,0.3,1,0.3
		c0.3,0,0.6-0.1,0.8-0.2c0.2-0.1,0.5-0.3,0.7-0.5l1,0.9c-0.3,0.4-0.7,0.7-1.1,0.9C60.3,38.4,59.8,38.5,59.2,38.5z M60.4,34.7
		c-0.1-0.4-0.2-0.7-0.4-1s-0.5-0.4-0.9-0.4s-0.7,0.1-0.9,0.4s-0.4,0.6-0.5,1H60.4z"/>
	<path fill="#FFFFFF" d="M62.9,32h1.8v0.9c0.1-0.1,0.2-0.3,0.3-0.4s0.3-0.2,0.4-0.3s0.3-0.2,0.5-0.2c0.2-0.1,0.4-0.1,0.6-0.1
		c0.7,0,1.2,0.2,1.6,0.6s0.6,1,0.6,1.8v4.2H67v-3.6c0-0.4-0.1-0.8-0.3-1s-0.5-0.3-0.8-0.3s-0.6,0.1-0.8,0.3c-0.2,0.2-0.3,0.5-0.3,1
		v3.6h-1.8L62.9,32L62.9,32z"/>
	<path fill="#FFFFFF" d="M72,38.5c-0.3,0-0.5,0-0.8-0.1c-0.2-0.1-0.4-0.2-0.6-0.3c-0.2-0.2-0.3-0.3-0.4-0.6s-0.1-0.6-0.1-0.9v-3
		h-0.8V32h0.8v-1.6h1.8V32h1.5v1.6h-1.5v2.8c0,0.4,0.2,0.6,0.6,0.6c0.3,0,0.6-0.1,0.9-0.2v1.5c-0.2,0.1-0.4,0.2-0.6,0.3
		C72.5,38.5,72.3,38.5,72,38.5z"/>
	<path fill="#FFFFFF" d="M77.3,38.5c-0.5,0-1-0.1-1.4-0.3c-0.4-0.2-0.8-0.4-1.1-0.7s-0.6-0.7-0.7-1.1c-0.2-0.4-0.3-0.8-0.3-1.3v0
		c0-0.5,0.1-0.9,0.3-1.3c0.2-0.4,0.4-0.8,0.7-1.1c0.3-0.3,0.7-0.5,1.1-0.7c0.4-0.2,0.9-0.3,1.4-0.3c0.5,0,1,0.1,1.4,0.3
		c0.4,0.2,0.8,0.4,1.1,0.7s0.6,0.7,0.7,1.1c0.2,0.4,0.3,0.8,0.3,1.3v0c0,0.5-0.1,0.9-0.3,1.3s-0.4,0.8-0.7,1.1s-0.7,0.5-1.1,0.7
		C78.3,38.4,77.8,38.5,77.3,38.5z M77.3,37c0.3,0,0.5,0,0.7-0.1c0.2-0.1,0.4-0.2,0.5-0.4c0.1-0.2,0.3-0.3,0.3-0.6s0.1-0.4,0.1-0.7v0
		c0-0.2,0-0.5-0.1-0.7s-0.2-0.4-0.3-0.6s-0.3-0.3-0.5-0.4s-0.4-0.1-0.7-0.1c-0.3,0-0.5,0-0.7,0.1s-0.4,0.2-0.5,0.4s-0.3,0.3-0.3,0.6
		s-0.1,0.4-0.1,0.7v0c0,0.2,0,0.5,0.1,0.7c0.1,0.2,0.2,0.4,0.3,0.6s0.3,0.3,0.5,0.4C76.9,36.9,77.1,37,77.3,37z"/>
	<path fill="#FFFFFF" d="M87.2,38.5c-0.4,0-0.7-0.1-1.1-0.2c-0.4-0.1-0.7-0.4-0.9-0.6c-0.3-0.3-0.5-0.6-0.7-1s-0.2-0.9-0.2-1.4v0
		c0-0.5,0.1-1,0.2-1.4c0.2-0.4,0.4-0.8,0.6-1c0.3-0.3,0.6-0.5,0.9-0.6c0.4-0.1,0.7-0.2,1.1-0.2c0.5,0,0.9,0.1,1.2,0.3
		c0.3,0.2,0.6,0.4,0.8,0.7v-3.2H91v8.8h-1.8v-0.9c-0.2,0.3-0.5,0.6-0.8,0.8C88.1,38.4,87.7,38.5,87.2,38.5z M87.6,37
		c0.2,0,0.4,0,0.6-0.1s0.4-0.2,0.5-0.4s0.3-0.3,0.3-0.6c0.1-0.2,0.1-0.5,0.1-0.7v0c0-0.3,0-0.5-0.1-0.7c-0.1-0.2-0.2-0.4-0.3-0.6
		c-0.1-0.2-0.3-0.3-0.5-0.4s-0.4-0.1-0.6-0.1s-0.4,0-0.6,0.1s-0.4,0.2-0.5,0.4c-0.1,0.2-0.3,0.3-0.3,0.6s-0.1,0.5-0.1,0.7v0
		c0,0.3,0,0.5,0.1,0.7c0.1,0.2,0.2,0.4,0.3,0.6s0.3,0.3,0.5,0.4S87.4,37,87.6,37z"/>
	<path fill="#FFFFFF" d="M95.1,38.5c-0.5,0-0.9-0.1-1.3-0.2c-0.4-0.2-0.8-0.4-1.1-0.7s-0.5-0.6-0.7-1c-0.2-0.4-0.3-0.9-0.3-1.3v0
		c0-0.5,0.1-0.9,0.2-1.3s0.4-0.8,0.7-1.1s0.6-0.5,1-0.7c0.4-0.2,0.8-0.3,1.3-0.3c0.5,0,1,0.1,1.4,0.3c0.4,0.2,0.7,0.4,1,0.8
		c0.3,0.3,0.5,0.7,0.6,1.1s0.2,0.9,0.2,1.3c0,0.1,0,0.1,0,0.2c0,0.1,0,0.2,0,0.3h-4.5c0.1,0.4,0.3,0.7,0.5,0.9s0.6,0.3,1,0.3
		c0.3,0,0.6-0.1,0.8-0.2c0.2-0.1,0.5-0.3,0.7-0.5l1,0.9c-0.3,0.4-0.7,0.7-1.1,0.9C96.2,38.4,95.7,38.5,95.1,38.5z M96.3,34.7
		c-0.1-0.4-0.2-0.7-0.4-1s-0.5-0.4-0.9-0.4s-0.7,0.1-0.9,0.4s-0.4,0.6-0.5,1H96.3z"/>
	<path fill="#FFFFFF" d="M13,43h2l2.2,3.6l2.2-3.6h2v8.4h-1.8v-5.5l-2.4,3.6h0l-2.3-3.6v5.4H13V43z"/>
	<path fill="#FFFFFF" d="M25.7,51.5c-0.5,0-0.9-0.1-1.3-0.2c-0.4-0.2-0.8-0.4-1.1-0.7s-0.5-0.6-0.7-1c-0.2-0.4-0.3-0.9-0.3-1.3v0
		c0-0.5,0.1-0.9,0.2-1.3s0.4-0.8,0.7-1.1c0.3-0.3,0.6-0.5,1-0.7c0.4-0.2,0.8-0.3,1.3-0.3c0.5,0,1,0.1,1.4,0.3c0.4,0.2,0.7,0.4,1,0.8
		c0.3,0.3,0.5,0.7,0.6,1.1s0.2,0.9,0.2,1.3c0,0.1,0,0.1,0,0.2c0,0.1,0,0.2,0,0.3h-4.5c0.1,0.4,0.3,0.7,0.5,0.9s0.6,0.3,1,0.3
		c0.3,0,0.6-0.1,0.8-0.2c0.2-0.1,0.5-0.3,0.7-0.5l1,0.9c-0.3,0.4-0.7,0.7-1.1,0.9C26.7,51.4,26.2,51.5,25.7,51.5z M26.8,47.7
		c-0.1-0.4-0.2-0.7-0.4-1s-0.5-0.4-0.9-0.4c-0.4,0-0.7,0.1-0.9,0.4s-0.4,0.6-0.5,1H26.8z"/>
	<path fill="#FFFFFF" d="M32,51.5c-0.4,0-0.7-0.1-1.1-0.2c-0.4-0.1-0.7-0.4-0.9-0.6c-0.3-0.3-0.5-0.6-0.7-1s-0.2-0.9-0.2-1.4v0
		c0-0.5,0.1-1,0.2-1.4c0.2-0.4,0.4-0.8,0.6-1c0.3-0.3,0.6-0.5,0.9-0.6c0.4-0.1,0.7-0.2,1.1-0.2c0.5,0,0.9,0.1,1.2,0.3
		c0.3,0.2,0.6,0.4,0.8,0.7v-3.2h1.8v8.8H34v-0.9c-0.2,0.3-0.5,0.6-0.8,0.8S32.5,51.5,32,51.5z M32.5,50c0.2,0,0.4,0,0.6-0.1
		s0.4-0.2,0.5-0.4s0.3-0.3,0.3-0.6c0.1-0.2,0.1-0.5,0.1-0.7v0c0-0.3,0-0.5-0.1-0.7c-0.1-0.2-0.2-0.4-0.3-0.6
		c-0.1-0.2-0.3-0.3-0.5-0.4s-0.4-0.1-0.6-0.1c-0.2,0-0.4,0-0.6,0.1c-0.2,0.1-0.4,0.2-0.5,0.4c-0.1,0.2-0.3,0.3-0.3,0.6
		s-0.1,0.5-0.1,0.7v0c0,0.3,0,0.5,0.1,0.7c0.1,0.2,0.2,0.4,0.3,0.6s0.3,0.3,0.5,0.4C32.1,49.9,32.3,50,32.5,50z"/>
	<path fill="#FFFFFF" d="M36.9,42.6h1.9v1.6h-1.9V42.6z M36.9,45h1.8v6.4h-1.8V45z"/>
	<path fill="#FFFFFF" d="M42.9,51.5c-0.5,0-0.9-0.1-1.3-0.3c-0.4-0.2-0.8-0.4-1.1-0.7s-0.5-0.7-0.7-1.1s-0.3-0.8-0.3-1.3v0
		c0-0.5,0.1-0.9,0.3-1.3s0.4-0.8,0.7-1.1c0.3-0.3,0.7-0.5,1.1-0.7c0.4-0.2,0.9-0.3,1.4-0.3c0.6,0,1.1,0.1,1.5,0.3
		c0.4,0.2,0.8,0.5,1.1,0.8l-1.1,1.2c-0.2-0.2-0.4-0.4-0.6-0.5c-0.2-0.1-0.5-0.2-0.8-0.2c-0.2,0-0.4,0-0.6,0.1s-0.4,0.2-0.5,0.4
		s-0.2,0.3-0.3,0.6s-0.1,0.4-0.1,0.7v0c0,0.2,0,0.5,0.1,0.7s0.2,0.4,0.3,0.6c0.1,0.2,0.3,0.3,0.5,0.4c0.2,0.1,0.4,0.1,0.7,0.1
		c0.3,0,0.6-0.1,0.8-0.2s0.5-0.3,0.7-0.5l1.1,1.1c-0.3,0.3-0.7,0.6-1.1,0.8C44.1,51.4,43.6,51.5,42.9,51.5z"/>
	<path fill="#FFFFFF" d="M46.2,42.6h1.9v1.6h-1.9V42.6z M46.2,45H48v6.4h-1.8V45z"/>
	<path fill="#FFFFFF" d="M49.2,45H51v0.9c0.1-0.1,0.2-0.3,0.3-0.4s0.3-0.2,0.4-0.3s0.3-0.2,0.5-0.2c0.2-0.1,0.4-0.1,0.6-0.1
		c0.7,0,1.2,0.2,1.6,0.6c0.4,0.4,0.6,1,0.6,1.8v4.2h-1.8v-3.6c0-0.4-0.1-0.8-0.3-1c-0.2-0.2-0.5-0.3-0.8-0.3s-0.6,0.1-0.8,0.3
		c-0.2,0.2-0.3,0.5-0.3,1v3.6h-1.8V45z"/>
	<path fill="#FFFFFF" d="M57.9,51.5c-0.3,0-0.6,0-0.9-0.1c-0.3-0.1-0.5-0.2-0.7-0.4s-0.4-0.4-0.5-0.6c-0.1-0.2-0.2-0.5-0.2-0.8v0
		c0-0.4,0.1-0.7,0.2-0.9s0.3-0.5,0.5-0.6s0.5-0.3,0.8-0.4c0.3-0.1,0.7-0.1,1-0.1c0.3,0,0.6,0,0.9,0.1c0.2,0,0.5,0.1,0.7,0.2v-0.1
		c0-0.4-0.1-0.7-0.3-0.9c-0.2-0.2-0.6-0.3-1-0.3c-0.4,0-0.7,0-0.9,0.1c-0.3,0.1-0.5,0.1-0.8,0.3l-0.5-1.4c0.4-0.2,0.7-0.3,1.1-0.4
		c0.4-0.1,0.8-0.1,1.4-0.1c0.5,0,0.9,0.1,1.3,0.2s0.7,0.3,0.9,0.5c0.2,0.2,0.4,0.5,0.5,0.9c0.1,0.3,0.2,0.7,0.2,1.2v3.7h-1.8v-0.7
		c-0.2,0.2-0.5,0.4-0.8,0.6C58.7,51.4,58.3,51.5,57.9,51.5z M58.4,50.2c0.4,0,0.8-0.1,1-0.3c0.3-0.2,0.4-0.5,0.4-0.8v-0.3
		c-0.2-0.1-0.3-0.1-0.5-0.2s-0.4-0.1-0.6-0.1c-0.4,0-0.7,0.1-0.9,0.2c-0.2,0.2-0.3,0.4-0.3,0.7v0c0,0.2,0.1,0.4,0.3,0.6
		S58.1,50.2,58.4,50.2z"/>
	<path fill="#FFFFFF" d="M68.7,51.5c-0.6,0-1.3-0.1-1.9-0.3c-0.6-0.2-1.2-0.6-1.7-1l1.1-1.3c0.4,0.3,0.8,0.6,1.2,0.7
		c0.4,0.2,0.8,0.3,1.3,0.3c0.4,0,0.7-0.1,0.9-0.2c0.2-0.1,0.3-0.3,0.3-0.6v0c0-0.1,0-0.2-0.1-0.3s-0.1-0.2-0.3-0.3
		c-0.1-0.1-0.3-0.2-0.5-0.2c-0.2-0.1-0.5-0.2-0.9-0.3c-0.4-0.1-0.8-0.2-1.2-0.3s-0.6-0.3-0.9-0.5c-0.2-0.2-0.4-0.4-0.6-0.7
		c-0.1-0.3-0.2-0.6-0.2-1v0c0-0.4,0.1-0.7,0.2-1c0.1-0.3,0.3-0.6,0.6-0.8c0.3-0.2,0.6-0.4,0.9-0.5c0.4-0.1,0.8-0.2,1.2-0.2
		c0.6,0,1.2,0.1,1.7,0.3c0.5,0.2,1,0.4,1.4,0.8l-1,1.4c-0.4-0.3-0.7-0.5-1.1-0.6c-0.4-0.1-0.7-0.2-1.1-0.2s-0.6,0.1-0.8,0.2
		c-0.2,0.1-0.3,0.3-0.3,0.5v0c0,0.1,0,0.3,0.1,0.4c0.1,0.1,0.1,0.2,0.3,0.3c0.1,0.1,0.3,0.2,0.6,0.2c0.2,0.1,0.5,0.2,0.9,0.3
		c0.4,0.1,0.8,0.2,1.1,0.4c0.3,0.1,0.6,0.3,0.8,0.5c0.2,0.2,0.4,0.4,0.5,0.7s0.2,0.6,0.2,0.9v0c0,0.4-0.1,0.8-0.2,1.1
		s-0.4,0.6-0.6,0.8c-0.3,0.2-0.6,0.4-1,0.5C69.6,51.4,69.2,51.5,68.7,51.5z"/>
	<path fill="#FFFFFF" d="M75.8,51.5c-0.5,0-1-0.1-1.4-0.3c-0.4-0.2-0.8-0.4-1.1-0.7s-0.6-0.7-0.7-1.1c-0.2-0.4-0.3-0.8-0.3-1.3v0
		c0-0.5,0.1-0.9,0.3-1.3c0.2-0.4,0.4-0.8,0.7-1.1c0.3-0.3,0.7-0.5,1.1-0.7c0.4-0.2,0.9-0.3,1.4-0.3c0.5,0,1,0.1,1.4,0.3
		c0.4,0.2,0.8,0.4,1.1,0.7s0.6,0.7,0.7,1.1c0.2,0.4,0.3,0.8,0.3,1.3v0c0,0.5-0.1,0.9-0.3,1.3s-0.4,0.8-0.7,1.1s-0.7,0.5-1.1,0.7
		C76.7,51.4,76.3,51.5,75.8,51.5z M75.8,50c0.3,0,0.5,0,0.7-0.1c0.2-0.1,0.4-0.2,0.5-0.4c0.1-0.2,0.3-0.3,0.3-0.6s0.1-0.4,0.1-0.7v0
		c0-0.2,0-0.5-0.1-0.7s-0.2-0.4-0.3-0.6s-0.3-0.3-0.5-0.4s-0.4-0.1-0.7-0.1c-0.3,0-0.5,0-0.7,0.1s-0.4,0.2-0.5,0.4s-0.3,0.3-0.3,0.6
		s-0.1,0.4-0.1,0.7v0c0,0.2,0,0.5,0.1,0.7c0.1,0.2,0.2,0.4,0.3,0.6s0.3,0.3,0.5,0.4C75.3,49.9,75.5,50,75.8,50z"/>
	<path fill="#FFFFFF" d="M83,51.5c-0.5,0-0.9-0.1-1.3-0.3c-0.4-0.2-0.8-0.4-1.1-0.7s-0.5-0.7-0.7-1.1s-0.3-0.8-0.3-1.3v0
		c0-0.5,0.1-0.9,0.3-1.3s0.4-0.8,0.7-1.1s0.7-0.5,1.1-0.7c0.4-0.2,0.9-0.3,1.4-0.3c0.6,0,1.1,0.1,1.5,0.3c0.4,0.2,0.8,0.5,1.1,0.8
		l-1.1,1.2c-0.2-0.2-0.4-0.4-0.6-0.5s-0.5-0.2-0.8-0.2c-0.2,0-0.4,0-0.6,0.1s-0.4,0.2-0.5,0.4s-0.2,0.3-0.3,0.6s-0.1,0.4-0.1,0.7v0
		c0,0.2,0,0.5,0.1,0.7s0.2,0.4,0.3,0.6c0.1,0.2,0.3,0.3,0.5,0.4c0.2,0.1,0.4,0.1,0.7,0.1c0.3,0,0.6-0.1,0.8-0.2s0.5-0.3,0.7-0.5
		l1.1,1.1c-0.3,0.3-0.7,0.6-1.1,0.8C84.2,51.4,83.7,51.5,83,51.5z"/>
	<path fill="#FFFFFF" d="M86.3,42.6h1.9v1.6h-1.9V42.6z M86.3,45h1.8v6.4h-1.8V45z"/>
	<path fill="#FFFFFF" d="M91.1,51.5c-0.3,0-0.6,0-0.9-0.1c-0.3-0.1-0.5-0.2-0.7-0.4c-0.2-0.2-0.4-0.4-0.5-0.6s-0.2-0.5-0.2-0.8v0
		c0-0.4,0.1-0.7,0.2-0.9s0.3-0.5,0.5-0.6s0.5-0.3,0.8-0.4s0.7-0.1,1.1-0.1c0.3,0,0.6,0,0.9,0.1c0.2,0,0.5,0.1,0.7,0.2v-0.1
		c0-0.4-0.1-0.7-0.3-0.9c-0.2-0.2-0.6-0.3-1-0.3c-0.4,0-0.7,0-0.9,0.1c-0.3,0.1-0.6,0.1-0.8,0.3l-0.5-1.4c0.4-0.2,0.7-0.3,1.1-0.4
		c0.4-0.1,0.8-0.1,1.4-0.1c0.5,0,0.9,0.1,1.3,0.2s0.7,0.3,0.9,0.5c0.2,0.2,0.4,0.5,0.5,0.9c0.1,0.3,0.2,0.7,0.2,1.2v3.7H93v-0.7
		c-0.2,0.2-0.5,0.4-0.8,0.6C91.9,51.4,91.5,51.5,91.1,51.5z M91.6,50.2c0.4,0,0.8-0.1,1-0.3c0.3-0.2,0.4-0.5,0.4-0.8v-0.3
		c-0.2-0.1-0.3-0.1-0.5-0.2s-0.4-0.1-0.6-0.1c-0.4,0-0.7,0.1-0.9,0.2c-0.2,0.2-0.3,0.4-0.3,0.7v0c0,0.2,0.1,0.4,0.3,0.6
		C91.1,50.2,91.3,50.2,91.6,50.2z"/>
	<path fill="#FFFFFF" d="M95.9,42.6h1.8v8.8h-1.8V42.6z"/>
</g>
</svg>
