<?xml version="1.0" encoding="utf-8"?>
<!-- Generator: Adobe Illustrator 17.0.0, SVG Export Plug-In . SVG Version: 6.00 Build 0)  -->
<!DOCTYPE svg PUBLIC "-//W3C//DTD SVG 1.1//EN" "http://www.w3.org/Graphics/SVG/1.1/DTD/svg11.dtd">
<svg version="1.1" id="Layer_1" xmlns="http://www.w3.org/2000/svg" xmlns:xlink="http://www.w3.org/1999/xlink" x="0px" y="0px"
	 width="41.848px" height="56.527px" viewBox="0 0 41.848 56.527" enable-background="new 0 0 41.848 56.527" xml:space="preserve">
<g>
	<path fill="#FFFFFF" d="M28.192,12.289l0.898-0.164L28.192,12.289z M28.192,12.281H13.891l-1.022-0.148l0.066,0.148h-1.021v-1.294
		h18.164v1.294h-1.063l0.066-0.14"/>
	<polygon fill="#FFFFFF" points="12.962,12.273 13.191,12.793 13.191,20.355 11.899,20.355 11.899,12.273 	"/>
	<polygon fill="#FFFFFF" points="29.056,12.273 28.827,12.793 28.827,20.355 30.119,20.355 30.119,12.273 	"/>
	<rect x="0" y="19.062" fill="#FFFFFF" width="2.588" height="1.294"/>
	<rect x="0.909" y="20.364" fill="#FFFFFF" width="1.294" height="21.541"/>
	<rect x="0" y="19.062" fill="#FFFFFF" width="2.588" height="1.294"/>
	<rect x="9.295" y="19.062" fill="#FFFFFF" width="2.588" height="1.294"/>
	<rect x="8.245" y="19.062" fill="#FFFFFF" width="4.947" height="1.294"/>
	<rect x="0" y="44.591" fill="#FFFFFF" width="41.824" height="1.294"/>
	<rect x="39.26" y="19.005" fill="#FFFFFF" width="2.588" height="1.294"/>
	<rect x="39.644" y="20.308" fill="#FFFFFF" width="1.294" height="21.54"/>
	<rect x="2.217" y="10.46" fill="#FFFFFF" width="1.293" height="9.896"/>
	<rect x="8.202" y="10.46" fill="#FFFFFF" width="1.293" height="9.896"/>
	<rect x="38.45" y="10.438" fill="#FFFFFF" width="1.294" height="9.918"/>
	<rect x="30.021" y="19.062" fill="#FFFFFF" width="2.734" height="1.294"/>
	<rect x="32.352" y="10.46" fill="#FFFFFF" width="1.294" height="9.896"/>
	<polygon fill="#FFFFFF" points="0.05,29.592 0.05,28.362 0.925,28.362 0.925,30.362 	"/>
	<polygon fill="#FFFFFF" points="0.05,36.585 0.05,35.356 0.925,35.356 0.925,37.356 	"/>
	<polygon fill="#FFFFFF" points="0.05,20.323 0.05,19.095 0.925,19.095 0.925,21.095 	"/>
	<polygon fill="#FFFFFF" points="19.442,10.28 18.442,10.28 17.775,10.989 20.109,10.989 	"/>
	<polygon fill="#FFFFFF" points="23.422,10.28 22.422,10.28 21.755,10.989 24.089,10.989 	"/>
	<polygon fill="#FFFFFF" points="41.797,29.534 41.797,28.306 40.923,28.306 40.923,30.306 	"/>
	<polygon fill="#FFFFFF" points="41.797,36.528 41.797,35.3 40.923,35.3 40.923,37.299 	"/>
	<polygon fill="#FFFFFF" points="41.797,20.267 41.797,19.038 40.923,19.038 40.923,21.038 	"/>
	<path fill="#FFFFFF" d="M2.217,41.905l-0.896,1.562 M2.217,41.905H0.926l-0.875,0.749v2.771h1.27v-1.959L2.217,41.905z"/>
	<path fill="#FFFFFF" d="M39.63,41.905l0.896,1.562 M39.63,41.905h1.292l0.875,0.749v2.771h-1.271v-1.959L39.63,41.905z"/>
	<rect x="2.217" y="10.419" fill="#FFFFFF" width="2.055" height="1.294"/>
	<rect x="7.44" y="10.419" fill="#FFFFFF" width="2.055" height="1.294"/>
	<path fill="#FFFFFF" d="M7.473,9.169c0.396-0.333,0.584-0.875,0.584-1.416c0-1.167-1.001-2.146-2.209-2.146
		c-1.188,0-2.208,0.979-2.208,2.146c0,0.541,0.188,0.98,0.604,1.458l0.022,2.52H2.931V9.836C2.639,9.253,2.347,8.524,2.347,7.794
		c0-1.916,1.604-3.521,3.5-3.521c1.896,0,3.5,1.604,3.5,3.521c0,0.73-0.292,1.459-0.584,2.042l-0.021,1.895H7.431L7.473,9.169z"/>
	<polygon fill="#FFFFFF" points="5.238,4.549 5.613,0.319 6.134,0.319 6.488,4.549 	"/>
	<polygon fill="#FFFFFF" points="35.373,4.549 35.748,0.319 36.269,0.319 36.623,4.549 	"/>
	<path fill="#FFFFFF" d="M37.664,9.169c0.396-0.333,0.583-0.875,0.583-1.416c0-1.167-1-2.146-2.208-2.146
		c-1.188,0-2.208,0.979-2.208,2.146c0,0.541,0.188,0.98,0.604,1.458l0.021,2.52h-1.333V9.836c-0.292-0.583-0.583-1.313-0.583-2.042
		c0-1.916,1.604-3.521,3.5-3.521c1.896,0,3.5,1.604,3.5,3.521c0,0.73-0.291,1.459-0.583,2.042l-0.021,1.895h-1.271V9.169z"/>
	<polygon fill="#FFFFFF" points="13.301,10.224 12.301,10.224 11.926,10.932 13.968,10.932 	"/>
	<polygon fill="#FFFFFF" points="11.19,12.335 11.19,11.335 11.898,10.96 11.898,13.001 	"/>
	<polygon fill="#FFFFFF" points="28.717,10.224 29.717,10.224 30.092,10.932 28.05,10.932 	"/>
	<polygon fill="#FFFFFF" points="30.828,12.335 30.828,11.335 30.12,10.96 30.12,13.001 	"/>
	<path fill="#FFFFFF" d="M5.864,2.615c0.443,0,0.805,0.361,0.805,0.805c0,0.443-0.361,0.805-0.805,0.805
		c-0.442,0-0.804-0.361-0.804-0.805C5.06,2.977,5.422,2.615,5.864,2.615L5.864,2.615z"/>
	<path fill="#FFFFFF" d="M35.999,2.615c0.443,0,0.805,0.361,0.805,0.805c0,0.443-0.361,0.805-0.805,0.805
		c-0.443,0-0.804-0.361-0.804-0.805C35.195,2.977,35.557,2.615,35.999,2.615L35.999,2.615z"/>
	<path fill="#FFFFFF" d="M5.843,0c0.149,0,0.271,0.121,0.271,0.271c0,0.149-0.122,0.271-0.271,0.271
		c-0.149,0-0.271-0.121-0.271-0.271C5.572,0.121,5.693,0,5.843,0L5.843,0z"/>
	<path fill="#FFFFFF" d="M36.035,0c0.149,0,0.271,0.121,0.271,0.271c0,0.149-0.121,0.271-0.271,0.271s-0.271-0.121-0.271-0.271
		C35.764,0.121,35.885,0,36.035,0L36.035,0z"/>
	<path fill="#FFFFFF" d="M0.387,50.24h4.606v1.328H2.257v1.078h2.335v1.247H2.257v2.524h-1.87V50.24z M6.068,50.24h1.866v6.178
		H6.068V50.24z M9.036,53.333c0-1.009,0.275-1.794,0.822-2.355c0.549-0.563,1.312-0.843,2.29-0.843c1.003,0,1.777,0.276,2.32,0.829
		c0.542,0.551,0.814,1.324,0.814,2.318c0,0.722-0.119,1.314-0.356,1.776c-0.237,0.462-0.58,0.821-1.027,1.079
		c-0.449,0.258-1.006,0.386-1.675,0.386c-0.679,0-1.242-0.111-1.688-0.333c-0.445-0.223-0.806-0.573-1.084-1.054
		C9.176,54.656,9.036,54.055,9.036,53.333L9.036,53.333z M10.9,53.341c0,0.625,0.112,1.072,0.338,1.346
		c0.226,0.271,0.535,0.408,0.923,0.408c0.4,0,0.711-0.134,0.929-0.4c0.219-0.267,0.33-0.746,0.33-1.437
		c0-0.582-0.116-1.007-0.344-1.275c-0.229-0.268-0.539-0.401-0.932-0.401c-0.375,0-0.677,0.135-0.904,0.408
		C11.013,52.261,10.9,52.713,10.9,53.341L10.9,53.341z M20.297,53.894l1.632,0.507c-0.11,0.469-0.282,0.86-0.518,1.175
		c-0.235,0.316-0.529,0.553-0.878,0.712c-0.35,0.161-0.795,0.24-1.333,0.24c-0.655,0-1.191-0.098-1.605-0.292
		c-0.416-0.195-0.774-0.539-1.077-1.031c-0.3-0.492-0.452-1.12-0.452-1.887c0-1.023,0.266-1.81,0.796-2.358
		c0.53-0.55,1.281-0.824,2.251-0.824c0.759,0,1.355,0.157,1.79,0.473c0.435,0.314,0.758,0.798,0.968,1.449l-1.644,0.376
		c-0.058-0.188-0.118-0.327-0.181-0.415c-0.104-0.146-0.232-0.257-0.382-0.336c-0.152-0.079-0.32-0.118-0.507-0.118
		c-0.421,0-0.745,0.174-0.97,0.522c-0.169,0.259-0.255,0.664-0.255,1.218c0,0.687,0.103,1.155,0.305,1.41
		c0.203,0.255,0.488,0.381,0.854,0.381c0.356,0,0.626-0.103,0.809-0.308C20.082,54.582,20.214,54.285,20.297,53.894L20.297,53.894z
		 M22.858,56.418V50.24h3.104c0.575,0,1.015,0.05,1.319,0.152c0.305,0.101,0.55,0.287,0.737,0.563c0.186,0.273,0.279,0.607,0.279,1
		c0,0.344-0.072,0.639-0.214,0.888c-0.143,0.248-0.339,0.449-0.587,0.605c-0.16,0.098-0.377,0.179-0.654,0.242
		c0.222,0.076,0.383,0.152,0.486,0.229c0.067,0.05,0.167,0.158,0.297,0.323c0.13,0.167,0.218,0.294,0.261,0.384l0.901,1.791h-2.105
		l-0.995-1.889c-0.126-0.243-0.239-0.402-0.338-0.477c-0.133-0.095-0.286-0.142-0.457-0.142h-0.164v2.507H22.858z M24.729,52.743
		h0.785c0.084,0,0.248-0.027,0.493-0.084c0.124-0.025,0.225-0.091,0.303-0.193c0.077-0.104,0.116-0.224,0.116-0.358
		c0-0.2-0.062-0.353-0.185-0.459c-0.123-0.107-0.355-0.161-0.694-0.161h-0.818V52.743z M33.159,50.24h1.859v3.684
		c0,0.365-0.055,0.709-0.167,1.034c-0.111,0.324-0.285,0.608-0.522,0.852c-0.236,0.243-0.485,0.413-0.746,0.512
		c-0.362,0.138-0.796,0.206-1.304,0.206c-0.293,0-0.613-0.02-0.959-0.063c-0.347-0.042-0.636-0.125-0.869-0.25
		c-0.233-0.125-0.446-0.304-0.64-0.533c-0.193-0.23-0.326-0.468-0.397-0.712c-0.115-0.394-0.173-0.741-0.173-1.045V50.24h1.859
		v3.771c0,0.338,0.091,0.602,0.272,0.79c0.183,0.189,0.435,0.284,0.759,0.284c0.32,0,0.573-0.094,0.755-0.28
		c0.182-0.185,0.272-0.451,0.272-0.794V50.24z M36.099,50.24h5.271v1.234l-3.379,3.616h3.503v1.327h-5.718v-1.281l3.341-3.578
		h-3.018V50.24z"/>
</g>
</svg>
