<?xml version="1.0" encoding="utf-8"?>
<!-- Generator: Adobe Illustrator 18.0.0, SVG Export Plug-In . SVG Version: 6.00 Build 0)  -->
<!DOCTYPE svg PUBLIC "-//W3C//DTD SVG 1.1//EN" "http://www.w3.org/Graphics/SVG/1.1/DTD/svg11.dtd">
<svg version="1.1" id="Camada_1" xmlns="http://www.w3.org/2000/svg" xmlns:xlink="http://www.w3.org/1999/xlink" x="0px" y="0px"
	 viewBox="-6 359 492 136" enable-background="new -6 359 492 136" xml:space="preserve">
<g>
	<path fill="#0C5FA9" d="M14.9,377.3c0-8.1-6.5-14.9-14.9-14.9l0,0l0,0l0,0l0,0v48h14.9V377.3L14.9,377.3z"/>
	<path fill="#0C5FA9" d="M87.3,428.7l-30.3-30h-30v24.1c0,3.1,2.8,5.6,5.9,5.9l0,0H87.3z"/>
	<path fill="#0C5FA9" d="M62.9,398.4l30.3,30h23.9V404c0-3.1-2.8-5.6-5.9-5.9l0,0C111.2,398.4,62.9,398.4,62.9,398.4z"/>
	<path fill="#0C5FA9" d="M81.4,368.3L81.4,368.3h-5.9h-6.7h-5.9l0,0c-3.4,0-5.9,2.5-5.9,5.6l0,0v20.2h11.8h6.7h11.8v-20.2l0,0
		C87.3,370.9,84.5,368.3,81.4,368.3"/>
	<path fill="#0C5FA9" d="M62.9,458.7L62.9,458.7h5.9h6.7h5.9l0,0c3.4,0,5.9-2.5,5.9-5.6l0,0v-20.2H75.5h-6.7H57v20.2l0,0
		C57,456.2,59.8,458.7,62.9,458.7"/>
	
		<rect x="76.6" y="401.9" transform="matrix(0.7072 0.7071 -0.7071 0.7072 314.1654 60.4277)" fill="#FFFFFF" width="15.2" height="15.2"/>
	
		<rect x="83.9" y="416.2" transform="matrix(0.7071 -0.7072 0.7072 0.7071 -268.3017 186.1005)" fill="#FFFFFF" width="13.2" height="1.4"/>
	
		<rect x="86.5" y="418.9" transform="matrix(0.7071 -0.7071 0.7071 0.7071 -269.7661 187.9389)" fill="#FFFFFF" width="10.9" height="1.4"/>
	<path fill="#27ADE4" d="M129.4,416.9c0,31.7-25.8,57.3-57.3,57.3c-31.7,0-57.3-25.5-57.3-57.3H0c0,39.6,32.3,71.9,72.1,71.9
		s72.1-32.3,72.1-72.1C144.3,416.9,129.4,416.9,129.4,416.9z"/>
	<path fill="#0C5FA9" d="M129.4,377.3c0-8.1,6.7-14.9,14.9-14.9l0,0l0,0l0,0l0,0v48h-14.9V377.3L129.4,377.3z"/>
	<path fill="#27ADE4" d="M342.2,419.4l-3.6-5.3c0-0.3-0.3-0.3-0.3-0.3l-0.3-0.3l0,0c-1.4-1.7-3.6-2.8-5.9-2.8l0,0h-7.9l4.2,5.9l0,0
		c1.4,1.7,3.6,3.1,6.2,3.1l0,0C334.9,419.4,342.2,419.4,342.2,419.4z"/>
	<path fill="#27ADE4" d="M213.6,386.3L213.6,386.3c-4.2,0-7.9,3.6-7.9,7.9l0,0v25.3c0,5.6-0.6,7.9-1.7,9.5
		c-3.1,4.8-8.7,4.8-10.7,4.8c-11.5,0-12.1-7.6-12.1-13.8v-26.1l0,0c0-4.2-3.6-7.6-7.9-7.6l0,0l0,0l0,0h-3.9v33.1
		c0,5.1,0.3,9.5,2.8,13.8c5.1,8.4,15.2,9.5,20.8,9.5c11.2,0,24.1-5.3,24.1-21.6v-34.8H213.6z"/>
	<path fill="#27ADE4" d="M271.4,386.3h-3.1l0,0c-4.2,0.3-7.6,3.6-7.9,7.6l0,0v0.3v34.5l-18.2-38.2l0,0c-1.4-2.5-3.9-4.5-7-4.5l0,0
		h-3.9l0,0c-8.4,0-7.9,7.9-7.9,7.9v46.3h3.1l0,0c4.5,0,7.9-3.6,7.9-7.9l0,0v-36.8l18.8,39.9c1.1,2.8,3.9,5.1,7.3,5.1l0,0h3.1l0,0
		c4.5,0,7.9-3.6,7.9-7.9V386.3z"/>
	<path fill="#0C5FA9" d="M458.4,420.3l-10.1-3.1c-6.5-2-10.9-8.4-10.9-15.2c0-9,7-16,16-16h19.9v7.3h-14c-2.8,0-5.1,2-5.1,5.1
		c0,1.7,1.1,3.9,3.4,4.5l9.8,3.4c6.7,2,10.4,9,10.4,16.6c0,9.8-7.9,17.7-17.7,17.7H439v-8.1h18c2.5,0,5.6-2.5,5.6-6.2
		C462.6,423.6,461.2,421.1,458.4,420.3"/>
	<path fill="#0C5FA9" d="M410.1,440.5c-11.8,0-21.1-8.4-21.1-18.8v-35.4h16v36.8c0,4.5,3.9,8.4,9.3,8.4c4.8,0,9.3-3.6,9.3-8.4v-36.8
		h7.6v35.4C430.9,432.1,421.6,440.5,410.1,440.5"/>
	<path fill="#0C5FA9" d="M362.9,420.3l-10.1-3.1c-6.2-2-10.7-8.4-10.7-15.2c0-9,7-16,16-16h19.9v7.3h-14c-2.5,0-5.1,2-5.1,5.1
		c0,1.7,1.1,3.9,3.4,4.5l9.8,3.4c6.5,2,10.1,9,10.1,16.6c0,9.8-7.6,17.7-17.4,17.7h-21.1v-8.1h18c2.5,0,5.6-2.5,5.6-6.2
		C367.4,423.6,365.8,421.1,362.9,420.3"/>
	<path fill="#27ADE4" d="M313,391.9c-0.8-3.1-3.9-5.6-7.3-5.6l0,0h-2.8l0,0c-3.1,0-6.2,2-7,4.8l-18,49.4h11.2l3.9-11.8h21.3
		l3.9,11.8h11.8L313,391.9z M295.6,420l8.1-23l7.6,23H295.6z"/>
</g>
<g id="Camada_2">
</g>
<path fill="#636567" d="M178.8,447.1h1.8v10.3c0,0.9-0.1,1.7-0.4,2.4c-0.2,0.7-0.6,1.2-1.1,1.7c-0.5,0.4-1,0.8-1.6,1
	c-0.6,0.2-1.3,0.3-2.1,0.3c-1.9,0-3.2-0.4-4.2-1.2c-0.9-0.8-1.4-2.1-1.4-3.7v-10.7h1.9v9.8c0,0.8,0.1,1.4,0.2,2
	c0.2,0.5,0.4,1,0.7,1.3c0.3,0.3,0.7,0.6,1.2,0.7c0.5,0.1,1,0.2,1.7,0.2c1.2,0,2.1-0.3,2.6-1c0.5-0.7,0.8-1.7,0.8-3.2L178.8,447.1
	L178.8,447.1z"/>
<path fill="#636567" d="M193.1,462.7v-6.3c0-1.2-0.2-2-0.5-2.6c-0.3-0.6-1-0.9-1.8-0.9c-0.8,0-1.4,0.2-2,0.6
	c-0.5,0.4-0.9,0.9-1.1,1.6v7.5h-1.8v-11h1.3l0.3,1.4h0.1c0.4-0.5,0.8-0.9,1.4-1.2c0.6-0.3,1.3-0.5,2.2-0.5c0.6,0,1.1,0.1,1.6,0.2
	c0.5,0.1,0.9,0.4,1.2,0.7c0.3,0.4,0.5,0.8,0.7,1.4c0.2,0.6,0.2,1.4,0.2,2.3v6.7L193.1,462.7L193.1,462.7z"/>
<path fill="#636567" d="M199.8,448.3c0-0.3,0.1-0.6,0.3-0.9c0.2-0.2,0.5-0.4,0.9-0.4c0.4,0,0.7,0.1,0.9,0.4c0.3,0.2,0.4,0.5,0.4,0.9
	s-0.1,0.6-0.4,0.8c-0.3,0.2-0.6,0.3-0.9,0.3c-0.4,0-0.7-0.1-0.9-0.3C199.9,448.9,199.8,448.6,199.8,448.3 M200.2,451.7h1.8v11h-1.8
	V451.7z"/>
<polygon fill="#636567" points="210.7,457.9 211.4,460 211.4,460 211.9,457.8 214.5,451.4 216.4,451.4 211.6,462.7 210.8,462.7 
	206,451.4 208,451.4 "/>
<path fill="#636567" d="M227.9,461.5c-0.4,0.4-1,0.6-1.7,0.8c-0.7,0.2-1.4,0.3-2.2,0.3c-0.9,0-1.6-0.1-2.2-0.4
	c-0.6-0.3-1.1-0.7-1.5-1.2c-0.4-0.5-0.7-1.1-0.9-1.8c-0.2-0.7-0.3-1.5-0.3-2.4c0-1.9,0.4-3.3,1.3-4.3c0.9-1,2.1-1.5,3.7-1.5
	c0.5,0,1,0.1,1.5,0.2c0.5,0.1,1,0.3,1.4,0.6c0.4,0.3,0.7,0.7,1,1.3c0.3,0.6,0.4,1.3,0.4,2.2c0,0.5,0,1-0.1,1.6H221
	c0,0.6,0.1,1.2,0.2,1.7c0.1,0.5,0.3,0.9,0.6,1.3c0.3,0.3,0.7,0.6,1.1,0.8c0.5,0.2,1,0.3,1.7,0.3c0.5,0,1-0.1,1.5-0.3
	c0.5-0.2,0.9-0.4,1.1-0.6L227.9,461.5z M224.1,452.7c-0.9,0-1.6,0.2-2.1,0.7c-0.5,0.5-0.9,1.2-1,2.3h5.6c0-1.1-0.2-1.9-0.6-2.3
	C225.5,452.9,224.9,452.7,224.1,452.7"/>
<path fill="#636567" d="M238.1,453.4c-0.4-0.2-0.9-0.2-1.3-0.2c-0.6,0-1.1,0.2-1.5,0.5c-0.4,0.4-0.6,0.8-0.7,1.3v7.7h-1.8v-11h1.3
	l0.3,1.3h0.1c0.3-0.5,0.6-0.9,1-1.2c0.4-0.3,0.9-0.4,1.5-0.4c0.4,0,0.9,0.1,1.5,0.2L238.1,453.4z"/>
<path fill="#636567" d="M247.1,459.4c0-0.4-0.1-0.8-0.4-1c-0.3-0.3-0.6-0.5-1-0.6c-0.4-0.2-0.8-0.3-1.3-0.5
	c-0.5-0.2-0.9-0.4-1.3-0.6c-0.4-0.2-0.7-0.5-1-0.9c-0.3-0.4-0.4-0.9-0.4-1.5c0-1.1,0.3-1.8,0.9-2.3c0.6-0.5,1.5-0.7,2.6-0.7
	c0.8,0,1.5,0.1,2,0.2c0.5,0.1,1,0.3,1.4,0.5l-0.4,1.5c-0.3-0.2-0.8-0.3-1.2-0.4c-0.5-0.1-1-0.2-1.6-0.2c-0.7,0-1.1,0.1-1.4,0.3
	c-0.3,0.2-0.5,0.6-0.5,1.1c0,0.4,0.1,0.7,0.4,0.9c0.3,0.2,0.6,0.4,1,0.6c0.4,0.2,0.8,0.3,1.3,0.5c0.5,0.2,0.9,0.4,1.3,0.6
	c0.4,0.3,0.7,0.6,1,1c0.3,0.4,0.4,0.9,0.4,1.6c0,0.5-0.1,0.9-0.2,1.3c-0.2,0.4-0.4,0.8-0.7,1.1c-0.3,0.3-0.7,0.5-1.2,0.7
	c-0.5,0.2-1.1,0.3-1.7,0.3c-0.9,0-1.6-0.1-2.2-0.2c-0.6-0.2-1.1-0.4-1.5-0.6l0.5-1.5c0.3,0.2,0.8,0.4,1.3,0.5
	c0.5,0.2,1.1,0.2,1.7,0.2c0.6,0,1.2-0.1,1.6-0.4S247.1,460.1,247.1,459.4"/>
<path fill="#636567" d="M253.2,448.3c0-0.3,0.1-0.6,0.3-0.9c0.2-0.2,0.5-0.4,0.9-0.4c0.4,0,0.7,0.1,0.9,0.4c0.3,0.2,0.4,0.5,0.4,0.9
	s-0.1,0.6-0.4,0.8c-0.3,0.2-0.6,0.3-0.9,0.3s-0.7-0.1-0.9-0.3C253.4,448.9,253.2,448.6,253.2,448.3 M253.6,451.7h1.8v11h-1.8V451.7z
	"/>
<path fill="#636567" d="M269.5,458.6c0,0.7,0,1.4,0,2c0,0.6,0.1,1.2,0.2,1.8h-1.2l-0.4-1.6H268c-0.3,0.5-0.7,0.9-1.3,1.3
	c-0.6,0.3-1.2,0.5-2,0.5c-1.5,0-2.6-0.5-3.3-1.4c-0.7-0.9-1.1-2.4-1.1-4.3c0-1.9,0.5-3.3,1.4-4.3c0.9-1,2.2-1.5,3.7-1.5
	c0.5,0,1,0,1.3,0.1c0.3,0.1,0.7,0.2,1,0.3V447h1.8C269.5,447,269.5,458.6,269.5,458.6z M265,461.2c0.8,0,1.4-0.2,1.8-0.6
	c0.4-0.4,0.8-1,0.9-1.8v-5.5c-0.3-0.2-0.6-0.4-0.9-0.4c-0.3-0.1-0.8-0.1-1.4-0.1c-1,0-1.8,0.3-2.4,1c-0.6,0.7-0.9,1.7-0.9,3.2
	c0,0.6,0.1,1.2,0.1,1.7c0.1,0.5,0.3,1,0.5,1.3c0.2,0.4,0.5,0.7,0.9,0.9C264,461.1,264.5,461.2,265,461.2"/>
<path fill="#636567" d="M274.5,452.3c0.6-0.3,1.2-0.6,2-0.8c0.8-0.2,1.5-0.2,2.4-0.2c0.8,0,1.4,0.1,1.9,0.3s0.8,0.5,1.1,0.8
	c0.2,0.3,0.4,0.7,0.5,1.1c0.1,0.4,0.1,0.8,0.1,1.2c0,0.9,0,1.7-0.1,2.6c0,0.8-0.1,1.6-0.1,2.4c0,0.5,0,1.1,0.1,1.5
	c0.1,0.5,0.1,0.9,0.3,1.3h-1.3l-0.5-1.5h-0.1c-0.1,0.2-0.3,0.4-0.5,0.6c-0.2,0.2-0.4,0.4-0.7,0.5c-0.3,0.2-0.6,0.3-1,0.4
	c-0.4,0.1-0.8,0.2-1.3,0.2c-0.5,0-0.9-0.1-1.3-0.2c-0.4-0.2-0.8-0.4-1.1-0.6c-0.3-0.3-0.5-0.6-0.7-1c-0.2-0.4-0.3-0.8-0.3-1.3
	c0-0.6,0.1-1.2,0.4-1.6c0.3-0.4,0.6-0.8,1.1-1c0.5-0.3,1.1-0.4,1.7-0.6c0.7-0.1,1.4-0.2,2.3-0.2h0.6c0.2,0,0.4,0,0.6,0
	c0.1-0.4,0.1-0.8,0.1-1.2c0-0.8-0.2-1.4-0.5-1.7c-0.3-0.3-0.9-0.5-1.8-0.5c-0.3,0-0.5,0-0.8,0.1c-0.3,0-0.6,0.1-0.9,0.2
	c-0.3,0.1-0.6,0.1-0.9,0.2c-0.3,0.1-0.5,0.2-0.7,0.3L274.5,452.3z M277.7,461.2c0.4,0,0.8-0.1,1.1-0.2c0.3-0.1,0.6-0.2,0.9-0.4
	c0.2-0.2,0.4-0.4,0.6-0.6c0.2-0.2,0.3-0.4,0.3-0.6v-1.8c-0.2,0-0.4,0-0.6,0c-0.2,0-0.4,0-0.6,0c-0.5,0-0.9,0-1.4,0.1
	c-0.4,0.1-0.8,0.2-1.2,0.3c-0.3,0.1-0.6,0.3-0.8,0.6c-0.2,0.2-0.3,0.5-0.3,0.9c0,0.5,0.2,0.9,0.6,1.3
	C276.6,461,277.1,461.2,277.7,461.2"/>
<path fill="#636567" d="M296.1,458.6c0,0.7,0,1.4,0,2c0,0.6,0.1,1.2,0.2,1.8h-1.2l-0.4-1.6h-0.1c-0.3,0.5-0.7,0.9-1.3,1.3
	c-0.6,0.3-1.2,0.5-2,0.5c-1.5,0-2.6-0.5-3.3-1.4c-0.7-0.9-1.1-2.4-1.1-4.3c0-1.9,0.4-3.3,1.4-4.3c0.9-1,2.2-1.5,3.7-1.5
	c0.5,0,1,0,1.3,0.1c0.3,0.1,0.7,0.2,1,0.3V447h1.8C296.1,447,296.1,458.6,296.1,458.6z M291.6,461.2c0.8,0,1.4-0.2,1.8-0.6
	c0.5-0.4,0.8-1,0.9-1.8v-5.5c-0.3-0.2-0.6-0.4-0.9-0.4c-0.3-0.1-0.8-0.1-1.4-0.1c-1,0-1.8,0.3-2.4,1c-0.6,0.7-0.9,1.7-0.9,3.2
	c0,0.6,0.1,1.2,0.1,1.7c0.1,0.5,0.3,1,0.5,1.3c0.2,0.4,0.5,0.7,0.9,0.9C290.6,461,291,461.2,291.6,461.2"/>
<path fill="#636567" d="M309.4,461.5c-0.4,0.4-1,0.6-1.7,0.8c-0.7,0.2-1.4,0.3-2.2,0.3c-0.9,0-1.6-0.1-2.2-0.4
	c-0.6-0.3-1.1-0.7-1.6-1.2c-0.4-0.5-0.7-1.1-0.9-1.8c-0.2-0.7-0.3-1.5-0.3-2.4c0-1.9,0.4-3.3,1.3-4.3c0.9-1,2.1-1.5,3.7-1.5
	c0.5,0,1,0.1,1.5,0.2c0.5,0.1,1,0.3,1.4,0.6c0.4,0.3,0.7,0.7,1,1.3c0.3,0.6,0.4,1.3,0.4,2.2c0,0.5,0,1-0.1,1.6h-7.2
	c0,0.6,0.1,1.2,0.2,1.7c0.1,0.5,0.3,0.9,0.6,1.3c0.3,0.3,0.7,0.6,1.1,0.8c0.5,0.2,1,0.3,1.7,0.3c0.5,0,1-0.1,1.5-0.3
	c0.5-0.2,0.9-0.4,1.1-0.6L309.4,461.5z M305.5,452.7c-0.9,0-1.6,0.2-2.1,0.7c-0.5,0.5-0.9,1.2-1,2.3h5.6c0-1.1-0.2-1.9-0.6-2.3
	C307,452.9,306.3,452.7,305.5,452.7"/>
<path fill="#636567" d="M328.9,458.4h-5.8l-1.6,4.3h-1.9l5.9-15.7h0.9l6,15.7h-2L328.9,458.4z M323.7,456.8h4.6l-1.7-4.7l-0.6-2.3h0
	l-0.6,2.4L323.7,456.8z"/>
<path fill="#636567" d="M336,447.1h1.8v5.5h0.1c0.3-0.4,0.8-0.8,1.3-1c0.5-0.2,1.1-0.4,1.7-0.4c1.4,0,2.5,0.5,3.3,1.4
	c0.7,0.9,1.1,2.3,1.1,4.2c0,1.9-0.5,3.4-1.4,4.4c-1,1-2.3,1.5-4,1.5c-0.8,0-1.6-0.1-2.3-0.3c-0.7-0.2-1.2-0.4-1.5-0.6L336,447.1
	C336,447.1,336,447.1,336,447.1z M340.7,452.7c-0.8,0-1.3,0.2-1.8,0.6c-0.5,0.4-0.8,1-1,1.7v5.6c0.3,0.2,0.6,0.3,1,0.4
	c0.4,0.1,0.8,0.1,1.3,0.1c1,0,1.8-0.4,2.4-1.1c0.6-0.7,0.9-1.8,0.9-3.3c0-0.6-0.1-1.1-0.2-1.6c-0.1-0.5-0.3-0.9-0.5-1.3
	c-0.2-0.4-0.5-0.6-0.9-0.8C341.6,452.8,341.2,452.7,340.7,452.7"/>
<path fill="#636567" d="M358,461.5c-0.4,0.4-1,0.6-1.7,0.8c-0.7,0.2-1.4,0.3-2.2,0.3c-0.9,0-1.6-0.1-2.2-0.4
	c-0.6-0.3-1.1-0.7-1.6-1.2c-0.4-0.5-0.7-1.1-0.9-1.8c-0.2-0.7-0.3-1.5-0.3-2.4c0-1.9,0.4-3.3,1.3-4.3c0.9-1,2.1-1.5,3.7-1.5
	c0.5,0,1,0.1,1.5,0.2c0.5,0.1,1,0.3,1.4,0.6c0.4,0.3,0.7,0.7,1,1.3c0.3,0.6,0.4,1.3,0.4,2.2c0,0.5,0,1-0.1,1.6h-7.2
	c0,0.6,0.1,1.2,0.2,1.7c0.1,0.5,0.3,0.9,0.6,1.3c0.3,0.3,0.7,0.6,1.1,0.8c0.5,0.2,1,0.3,1.7,0.3c0.5,0,1-0.1,1.5-0.3
	c0.5-0.2,0.9-0.4,1.1-0.6L358,461.5z M354.2,452.7c-0.9,0-1.6,0.2-2.1,0.7c-0.5,0.5-0.9,1.2-1,2.3h5.6c0-1.1-0.2-1.9-0.6-2.3
	C355.6,452.9,354.9,452.7,354.2,452.7"/>
<path fill="#636567" d="M368.2,453.4c-0.4-0.2-0.9-0.2-1.3-0.2c-0.6,0-1.1,0.2-1.5,0.5c-0.4,0.4-0.6,0.8-0.7,1.3v7.7h-1.8v-11h1.3
	l0.3,1.3h0.1c0.3-0.5,0.6-0.9,1-1.2c0.4-0.3,0.9-0.4,1.5-0.4c0.4,0,0.9,0.1,1.5,0.2L368.2,453.4z"/>
<path fill="#636567" d="M371.4,451.4h1.8v-2.2l1.8-0.5v2.7h3v1.5h-3v6.1c0,0.8,0.1,1.3,0.3,1.6c0.2,0.3,0.5,0.5,1,0.5
	c0.4,0,0.7,0,1-0.1c0.3-0.1,0.6-0.2,0.9-0.3l0.4,1.3c-0.4,0.2-0.8,0.4-1.3,0.5c-0.5,0.1-1,0.2-1.6,0.2c-0.9,0-1.6-0.3-1.9-0.8
	c-0.4-0.5-0.6-1.4-0.6-2.6v-6.4h-1.8L371.4,451.4L371.4,451.4z"/>
<path fill="#636567" d="M382,452.3c0.6-0.3,1.2-0.6,2-0.8s1.5-0.2,2.4-0.2c0.8,0,1.4,0.1,1.9,0.3s0.8,0.5,1.1,0.8
	c0.3,0.3,0.4,0.7,0.5,1.1c0.1,0.4,0.1,0.8,0.1,1.2c0,0.9,0,1.7-0.1,2.6c0,0.8-0.1,1.6-0.1,2.4c0,0.5,0,1.1,0.1,1.5
	c0.1,0.5,0.1,0.9,0.2,1.3h-1.3l-0.5-1.5h-0.1c-0.1,0.2-0.3,0.4-0.5,0.6c-0.2,0.2-0.4,0.4-0.7,0.5c-0.3,0.2-0.6,0.3-1,0.4
	c-0.4,0.1-0.8,0.2-1.3,0.2c-0.5,0-0.9-0.1-1.3-0.2c-0.4-0.2-0.8-0.4-1.1-0.6c-0.3-0.3-0.5-0.6-0.7-1c-0.2-0.4-0.3-0.8-0.3-1.3
	c0-0.6,0.1-1.2,0.4-1.6c0.3-0.4,0.6-0.8,1.1-1c0.5-0.3,1.1-0.4,1.7-0.6c0.7-0.1,1.4-0.2,2.3-0.2h0.6c0.2,0,0.4,0,0.6,0
	c0-0.4,0.1-0.8,0.1-1.2c0-0.8-0.2-1.4-0.5-1.7c-0.3-0.3-0.9-0.5-1.8-0.5c-0.3,0-0.5,0-0.8,0.1c-0.3,0-0.6,0.1-0.9,0.2
	c-0.3,0.1-0.6,0.1-0.9,0.2c-0.3,0.1-0.5,0.2-0.7,0.3L382,452.3z M385.2,461.2c0.4,0,0.8-0.1,1.1-0.2c0.3-0.1,0.6-0.2,0.9-0.4
	c0.2-0.2,0.4-0.4,0.6-0.6c0.2-0.2,0.3-0.4,0.3-0.6v-1.8c-0.2,0-0.4,0-0.6,0c-0.2,0-0.4,0-0.6,0c-0.5,0-0.9,0-1.4,0.1
	c-0.4,0.1-0.8,0.2-1.2,0.3c-0.3,0.1-0.6,0.3-0.8,0.6c-0.2,0.2-0.3,0.5-0.3,0.9c0,0.5,0.2,0.9,0.6,1.3
	C384.1,461,384.6,461.2,385.2,461.2"/>
<path fill="#636567" d="M411.2,458.6c0,0.7,0,1.4,0,2c0,0.6,0.1,1.2,0.2,1.8h-1.2l-0.4-1.6h-0.1c-0.3,0.5-0.7,0.9-1.3,1.3
	c-0.6,0.3-1.2,0.5-2,0.5c-1.5,0-2.6-0.5-3.3-1.4c-0.7-0.9-1.1-2.4-1.1-4.3c0-1.9,0.4-3.3,1.4-4.3c0.9-1,2.2-1.5,3.7-1.5
	c0.6,0,1,0,1.3,0.1c0.3,0.1,0.7,0.2,1,0.3V447h1.8L411.2,458.6L411.2,458.6z M406.7,461.2c0.8,0,1.4-0.2,1.8-0.6
	c0.4-0.4,0.8-1,0.9-1.8v-5.5c-0.3-0.2-0.6-0.4-0.9-0.4c-0.3-0.1-0.8-0.1-1.4-0.1c-1,0-1.8,0.3-2.4,1c-0.6,0.7-0.9,1.7-0.9,3.2
	c0,0.6,0,1.2,0.1,1.7c0.1,0.5,0.3,1,0.5,1.3c0.2,0.4,0.5,0.7,0.9,0.9C405.7,461.1,406.2,461.2,406.7,461.2"/>
<path fill="#636567" d="M415.7,456.9c0-1.9,0.4-3.3,1.3-4.3c0.9-1,2.1-1.5,3.6-1.5c0.8,0,1.6,0.1,2.2,0.4c0.6,0.3,1.1,0.7,1.5,1.2
	c0.4,0.5,0.7,1.1,0.9,1.8c0.2,0.7,0.3,1.5,0.3,2.4c0,1.9-0.4,3.3-1.3,4.3c-0.8,1-2.1,1.5-3.6,1.5c-0.8,0-1.6-0.1-2.2-0.4
	c-0.6-0.3-1.1-0.7-1.5-1.2c-0.4-0.5-0.7-1.1-0.9-1.8C415.8,458.6,415.7,457.8,415.7,456.9 M417.6,456.9c0,0.6,0.1,1.1,0.2,1.6
	c0.1,0.5,0.3,1,0.5,1.3c0.2,0.4,0.6,0.7,0.9,0.9c0.4,0.2,0.9,0.4,1.4,0.4c2,0,3.1-1.4,3.1-4.2c0-0.6-0.1-1.1-0.2-1.6
	c-0.1-0.5-0.3-1-0.5-1.4c-0.2-0.4-0.6-0.7-0.9-0.9c-0.4-0.2-0.9-0.3-1.4-0.3C418.6,452.7,417.6,454.1,417.6,456.9"/>
<path fill="#636567" d="M445,458.5c0-0.6-0.2-1.1-0.6-1.5c-0.4-0.4-0.8-0.7-1.4-1c-0.6-0.3-1.2-0.6-1.8-0.8c-0.7-0.3-1.3-0.6-1.8-1
	c-0.6-0.4-1-0.8-1.4-1.4c-0.4-0.6-0.6-1.3-0.6-2.1c0-1.2,0.4-2.2,1.3-2.9c0.9-0.7,2.1-1.1,3.6-1.1c0.9,0,1.7,0.1,2.5,0.2
	c0.8,0.1,1.3,0.3,1.8,0.5l-0.6,1.6c-0.3-0.2-0.9-0.3-1.5-0.5c-0.7-0.2-1.4-0.2-2.3-0.2c-1,0-1.7,0.2-2.2,0.6c-0.5,0.4-0.7,1-0.7,1.5
	c0,0.6,0.2,1.1,0.6,1.4c0.4,0.4,0.8,0.7,1.4,1c0.6,0.3,1.2,0.6,1.8,0.9c0.7,0.3,1.3,0.6,1.8,1c0.6,0.4,1,0.9,1.4,1.4
	c0.4,0.5,0.6,1.2,0.6,2c0,0.7-0.1,1.3-0.4,1.8c-0.2,0.5-0.6,1-1.1,1.4s-1,0.7-1.7,0.9c-0.7,0.2-1.4,0.3-2.2,0.3
	c-1.1,0-2-0.1-2.8-0.3c-0.7-0.2-1.3-0.4-1.7-0.6l0.6-1.6c0.3,0.2,0.9,0.4,1.5,0.5c0.7,0.2,1.4,0.3,2.3,0.3c0.5,0,1-0.1,1.4-0.1
	c0.4-0.1,0.8-0.3,1.1-0.5c0.3-0.2,0.6-0.5,0.8-0.8C444.9,459.3,445,458.9,445,458.5"/>
<path fill="#636567" d="M460.5,447.1h1.8v10.3c0,0.9-0.1,1.7-0.4,2.4c-0.2,0.7-0.6,1.2-1.1,1.7c-0.5,0.4-1,0.8-1.6,1
	c-0.6,0.2-1.3,0.3-2.1,0.3c-1.9,0-3.2-0.4-4.2-1.2c-0.9-0.8-1.4-2.1-1.4-3.7v-10.7h1.9v9.8c0,0.8,0.1,1.4,0.2,2
	c0.2,0.5,0.4,1,0.7,1.3c0.3,0.3,0.7,0.6,1.2,0.7c0.5,0.1,1,0.2,1.6,0.2c1.2,0,2.1-0.3,2.6-1c0.5-0.7,0.8-1.7,0.8-3.2L460.5,447.1
	L460.5,447.1z"/>
<path fill="#636567" d="M474.9,458.5c0-0.6-0.2-1.1-0.6-1.5c-0.4-0.4-0.8-0.7-1.4-1c-0.6-0.3-1.2-0.6-1.8-0.8
	c-0.7-0.3-1.3-0.6-1.8-1c-0.6-0.4-1-0.8-1.4-1.4c-0.4-0.6-0.6-1.3-0.6-2.1c0-1.2,0.4-2.2,1.3-2.9c0.9-0.7,2.1-1.1,3.6-1.1
	c0.9,0,1.7,0.1,2.5,0.2c0.8,0.1,1.3,0.3,1.7,0.5l-0.6,1.6c-0.3-0.2-0.8-0.3-1.5-0.5c-0.7-0.2-1.4-0.2-2.3-0.2c-1,0-1.7,0.2-2.2,0.6
	c-0.5,0.4-0.7,1-0.7,1.5c0,0.6,0.2,1.1,0.6,1.4c0.4,0.4,0.8,0.7,1.4,1c0.6,0.3,1.2,0.6,1.8,0.9c0.7,0.3,1.3,0.6,1.8,1
	c0.6,0.4,1,0.9,1.4,1.4c0.4,0.5,0.6,1.2,0.6,2c0,0.7-0.1,1.3-0.4,1.8c-0.2,0.5-0.6,1-1.1,1.4c-0.5,0.4-1,0.7-1.7,0.9
	c-0.7,0.2-1.4,0.3-2.2,0.3c-1.1,0-2-0.1-2.8-0.3c-0.7-0.2-1.3-0.4-1.7-0.6l0.6-1.6c0.3,0.2,0.9,0.4,1.5,0.5c0.7,0.2,1.4,0.3,2.3,0.3
	c0.5,0,1-0.1,1.4-0.1c0.4-0.1,0.8-0.3,1.1-0.5c0.3-0.2,0.6-0.5,0.8-0.8C474.8,459.3,474.9,458.9,474.9,458.5"/>
</svg>
