<?xml version="1.0" encoding="utf-8"?>
<!-- Generator: Adobe Illustrator 16.0.0, SVG Export Plug-In . SVG Version: 6.00 Build 0)  -->
<!DOCTYPE svg PUBLIC "-//W3C//DTD SVG 1.1//EN" "http://www.w3.org/Graphics/SVG/1.1/DTD/svg11.dtd">
<svg version="1.1" id="Layer_1" xmlns="http://www.w3.org/2000/svg" xmlns:xlink="http://www.w3.org/1999/xlink" x="0px" y="0px"
	 width="140px" height="180.468px" viewBox="0 0 140 180.468" enable-background="new 0 0 140 180.468" xml:space="preserve">
<path fill="#2B8FB2" d="M68.945,179.615l2.496-11.813c0.211-1.055,0.316-1.822,0.316-2.303c0-1.535-0.756-2.303-2.268-2.303
	c-0.844,0-1.676,0.334-2.496,1.002s-1.559,1.632-2.215,2.892s-1.148,2.687-1.477,4.28l-1.723,8.244h-4.148l4.148-19.441h3.234
	l-0.369,3.604h0.158c0.973-1.383,1.975-2.388,3.006-3.015s2.15-0.94,3.357-0.94c1.57,0,2.786,0.445,3.647,1.336
	s1.292,2.156,1.292,3.797c0,0.809-0.135,1.869-0.404,3.182l-2.408,11.479H68.945z"/>
<path fill="#2B8FB2" d="M84.854,179.967c-1.652,0-2.959-0.595-3.92-1.784s-1.441-2.862-1.441-5.019c0-2.367,0.407-4.582,1.222-6.645
	s1.937-3.694,3.366-4.896s3-1.802,4.711-1.802c1.137,0,2.115,0.267,2.936,0.8s1.459,1.31,1.916,2.329h0.176l1.09-2.777h3.164
	l-4.148,19.441h-3.199l0.369-3.094h-0.105C89.137,178.818,87.092,179.967,84.854,179.967z M86.365,176.627
	c0.961,0,1.904-0.454,2.83-1.362s1.688-2.124,2.285-3.647s0.896-3.188,0.896-4.992c0-1.031-0.275-1.86-0.826-2.487
	s-1.271-0.94-2.162-0.94c-0.996,0-1.934,0.451-2.813,1.354s-1.582,2.13-2.109,3.683s-0.791,3.161-0.791,4.825
	c0,1.195,0.237,2.089,0.712,2.681S85.521,176.627,86.365,176.627z"/>
<path fill="#2B8FB2" d="M103.627,179.615h-4.113l5.801-27.352h4.131L103.627,179.615z"/>
<g>
	<g>
		<path fill="#6FCBDC" d="M140.453,71.883c0,38.66-31.336,70-70,70c-38.657,0-69.999-31.34-69.999-70s31.342-70,69.999-70
			C109.117,1.883,140.453,33.223,140.453,71.883z"/>
		<path opacity="0.4" fill="#29A9E1" d="M124.155,72.765c0,29.66-24.047,53.699-53.702,53.699s-53.697-24.039-53.697-53.699
			c0-29.659,24.042-53.695,53.697-53.695S124.155,43.105,124.155,72.765z"/>
	</g>
	<path fill="#F4D122" d="M105.723,43.877l-16.66-16.76c0,0-19.297,27.965-41.514,29.498c-0.859,0.063-2.836,1.146-2.821,2.007
		c0.433,17.538-19.62,59.387-19.62,59.387l33.684-38.211c-0.581-1.107-0.955-2.354-1.027-3.688
		c-0.265-4.973,3.557-9.211,8.529-9.475c2.324-0.118,4.435,0.707,6.099,2.071c0,0,1.175,1.445,1.683,2.219
		c0.915,1.399,1.459,3.063,1.459,4.869c0,4.972-4.036,9.011-9.016,9.011c-1.336,0-2.598-0.308-3.732-0.831l-36.391,35.644
		c0,0,40.74-22.22,58.276-22.717c0.861-0.023,1.839-2.063,1.849-2.921c0.367-22.262,27.282-43.003,27.282-43.003L105.723,43.877z"/>
	<polygon fill="#F4D122" points="116.476,49.239 90.217,23.715 99.084,14.595 125.347,40.122 	"/>
	<path opacity="0.6" fill="#FFFFFF" d="M99.359,39.305l-9.696-8.946c0,0-20.242,26.721-40.431,28.099
		c-0.779,0.056-2.576,1.033-2.562,1.807c0.392,15.793-17.829,53.476-17.829,53.476l30.605-34.408
		c-0.528-0.998-0.867-2.118-0.932-3.322c-0.242-4.479,3.23-8.292,7.749-8.529c2.115-0.107,4.029,0.633,5.545,1.866L99.359,39.305z"
		/>
	<g>
		<g>
			<path fill="#FFFFFF" d="M51.939,65.569c6.463-4.372,14.268-5.347,20.639-10.142c6.159-4.635,12.233-9.832,16.971-15.944
				c1.17-1.509-0.937-3.648-2.121-2.121c-4.597,5.93-10.447,10.91-16.364,15.476c-6.305,4.864-14.177,5.77-20.638,10.142
				C48.833,64.057,50.333,66.657,51.939,65.569L51.939,65.569z"/>
		</g>
	</g>
	<polygon opacity="0.6" fill="#FFFFFF" points="94.468,24.324 101.226,18.268 108.567,25.204 104.162,33.136 	"/>
	<g>
		<g>
			<path fill="#FFFFFF" d="M97.68,26.438c1.983-1.446,3.581-3.233,5.145-5.109c0.615-0.737-0.44-1.805-1.061-1.061
				c-1.474,1.767-2.972,3.511-4.841,4.875C96.15,25.707,96.897,27.01,97.68,26.438L97.68,26.438z"/>
		</g>
	</g>
</g>
<g>
	<path fill="#2B8FB2" d="M53.09,156.834c0.41,0.305,0.926,0.457,1.547,0.457c0.762,0,1.377-0.24,1.846-0.721
		s0.703-1.137,0.703-1.969c0-0.633-0.193-1.104-0.58-1.415s-0.891-0.466-1.512-0.466c-0.832,0-1.477,0.246-1.934,0.738
		s-0.686,1.137-0.686,1.934C52.475,156.049,52.68,156.529,53.09,156.834z"/>
	<path fill="#2B8FB2" d="M35.962,179.893h4.105l3.513-17h4.025l0.65-3H44.23l0.316-1.371c0.258-1.148,0.63-1.904,1.116-2.408
		s1.134-0.721,1.942-0.721c0.727,0,1.523,0.182,2.391,0.51l1.072-3.085c-1.125-0.504-2.361-0.751-3.709-0.751
		c-1.945,0-3.448,0.491-4.509,1.47s-1.849,2.629-2.364,4.949l-0.369,1.618l-3.41,1.131l-0.369,1.658h3.146L35.962,179.893z"/>
	<polygon fill="#2B8FB2" points="51.648,179.893 55.779,159.893 51.648,159.893 47.5,179.893 	"/>
</g>
</svg>
