<?xml version="1.0" encoding="utf-8"?>
<!-- Generator: Adobe Illustrator 16.0.0, SVG Export Plug-In . SVG Version: 6.00 Build 0)  -->
<!DOCTYPE svg PUBLIC "-//W3C//DTD SVG 1.1//EN" "http://www.w3.org/Graphics/SVG/1.1/DTD/svg11.dtd">
<svg version="1.1" id="Layer_1" xmlns="http://www.w3.org/2000/svg" xmlns:xlink="http://www.w3.org/1999/xlink" x="0px" y="0px"
	 width="140px" height="180.468px" viewBox="0 0 140 180.468" enable-background="new 0 0 140 180.468" xml:space="preserve">
<g>
	<path fill="#FAAF3B" d="M140,70.946c0,38.661-31.339,70-70,70c-38.656,0-70-31.339-70-70c0-38.656,31.344-70,70-70
		C108.661,0.946,140,32.29,140,70.946z"/>
	<circle fill="#F69220" cx="69.097" cy="70.552" r="53.7"/>
	<g>
		<polygon fill="#ECB31E" points="55.699,118.614 21.288,84.013 78.963,25.171 113.988,60.19 		"/>
		<path fill="#C6B198" d="M21.079,83.96c-0.342,0.593-0.087,1.213-0.087,1.945l0.534,29.947c0,2.188-0.238,3.191,1.951,3.191h29.717
			c0.735,0,1.912,0.09,2.505-0.258L21.079,83.96z"/>
		<path d="M20.546,108.62v7.062c0,2.191,0.742,3.362,2.931,3.362h7.061L20.546,108.62z"/>
		<path fill="#EB2027" d="M118.188,55.992c-3.865,3.869-10.136,3.869-14.008,0L83.169,34.979c-3.869-3.869-3.869-10.143,0-14.012
			l5.603-5.603c3.867-3.87,10.142-3.87,14.007,0l21.016,21.012c3.869,3.871,3.869,10.145,0,14.014L118.188,55.992z"/>
		
			<rect x="68.21" y="37.271" transform="matrix(0.7071 0.7071 -0.7071 0.7071 59.8865 -52.2144)" fill="#F2F2F2" width="49.529" height="17.828"/>
		<path opacity="0.4" fill="#FFFFFF" d="M111.186,29.376l-8.696-8.698c-3.71-3.711-9.359-4.069-13.067-0.356l-5.372,5.368
			c-0.459,0.46-0.837,0.926-0.75,1.015l-0.131-0.135l-3.146,3.146l-9.4,9.402L22.926,86.813l-0.052-0.05
			c0.12,0.115-0.182,0.865-0.182,1.57l-0.177,27.957c0,0.706,0.479,1.278,0.358,1.391L111.186,29.376z"/>
		<g>
			<g>
				<path fill="#FFFFFF" d="M99.627,21.016c-5.278-4.042-11.341,4.709-14.789,8.2c-6.526,6.606-13.039,13.227-19.555,19.843
					C52.417,62.124,39.617,75.257,26.66,88.231c-0.684,0.685,0.376,1.746,1.061,1.061C39.142,77.854,50.429,66.281,61.77,54.765
					c6.624-6.727,13.246-13.453,19.873-20.175c3.08-3.124,12.923-15.575,17.228-12.279C99.639,22.899,100.384,21.595,99.627,21.016
					L99.627,21.016z"/>
			</g>
		</g>
		<polyline opacity="0.4" fill="#E5E5E4" points="35.363,117.495 52.474,116.105 123.794,44.781 120.993,41.981 50.595,112.381 
			35.619,116.94 		"/>
	</g>
</g>
<g>
	<path fill="#F05B26" d="M25.326,180.116h-4.148l4.148-19.441h4.131L25.326,180.116z M26.152,155.894
		c0-0.797,0.229-1.441,0.686-1.934s1.102-0.738,1.934-0.738c0.621,0,1.125,0.155,1.512,0.466s0.58,0.782,0.58,1.415
		c0,0.832-0.234,1.488-0.703,1.969s-1.084,0.721-1.846,0.721c-0.621,0-1.137-0.152-1.547-0.457S26.152,156.55,26.152,155.894z"/>
	<path fill="#F05B26" d="M42.587,180.116l2.496-11.813c0.211-1.055,0.316-1.822,0.316-2.303c0-1.535-0.756-2.303-2.268-2.303
		c-0.844,0-1.676,0.334-2.496,1.002s-1.559,1.632-2.215,2.892s-1.148,2.687-1.477,4.28l-1.723,8.244h-4.148l4.148-19.441h3.234
		l-0.369,3.604h0.158c0.973-1.383,1.975-2.388,3.006-3.015s2.15-0.94,3.357-0.94c1.57,0,2.786,0.445,3.647,1.336
		s1.292,2.156,1.292,3.797c0,0.809-0.135,1.869-0.404,3.182l-2.408,11.479H42.587z"/>
	<path fill="#F05B26" d="M56.457,180.116h-4.148l4.148-19.441h4.131L56.457,180.116z M57.283,155.894
		c0-0.797,0.229-1.441,0.686-1.934s1.102-0.738,1.934-0.738c0.621,0,1.125,0.155,1.512,0.466s0.58,0.782,0.58,1.415
		c0,0.832-0.234,1.488-0.703,1.969s-1.084,0.721-1.846,0.721c-0.621,0-1.137-0.152-1.547-0.457S57.283,156.55,57.283,155.894z"/>
	<path fill="#F05B26" d="M70.273,180.468c-2.297,0-4.078-0.621-5.344-1.863s-1.898-3.018-1.898-5.326
		c0-2.426,0.431-4.632,1.292-6.618s2.071-3.539,3.63-4.658s3.328-1.679,5.309-1.679c1.922,0,3.662,0.357,5.221,1.072l-1.23,3.234
		c-1.43-0.621-2.725-0.932-3.885-0.932c-1.758,0-3.223,0.899-4.395,2.698s-1.758,4.022-1.758,6.671c0,1.301,0.328,2.303,0.984,3.006
		s1.564,1.055,2.725,1.055c0.867,0,1.679-0.129,2.435-0.387s1.515-0.574,2.276-0.949v3.428
		C73.994,180.052,72.207,180.468,70.273,180.468z"/>
	<path fill="#F05B26" d="M83.123,180.116h-4.148l4.148-19.441h4.131L83.123,180.116z M83.949,155.894
		c0-0.797,0.229-1.441,0.686-1.934s1.102-0.738,1.934-0.738c0.621,0,1.125,0.155,1.512,0.466s0.58,0.782,0.58,1.415
		c0,0.832-0.234,1.488-0.703,1.969s-1.084,0.721-1.846,0.721c-0.621,0-1.137-0.152-1.547-0.457S83.949,156.55,83.949,155.894z"/>
	<path fill="#F05B26" d="M95.058,180.468c-1.652,0-2.959-0.595-3.92-1.784s-1.441-2.862-1.441-5.019
		c0-2.367,0.407-4.582,1.222-6.645s1.937-3.694,3.366-4.896s3-1.802,4.711-1.802c1.137,0,2.115,0.267,2.936,0.8
		s1.459,1.31,1.916,2.329h0.176l1.09-2.777h3.164l-4.148,19.441h-3.199l0.369-3.094h-0.105
		C99.341,179.319,97.296,180.468,95.058,180.468z M96.57,177.128c0.961,0,1.904-0.454,2.83-1.362s1.688-2.124,2.285-3.647
		s0.896-3.188,0.896-4.992c0-1.031-0.275-1.86-0.826-2.487s-1.271-0.94-2.162-0.94c-0.996,0-1.934,0.451-2.813,1.354
		s-1.582,2.13-2.109,3.683s-0.791,3.161-0.791,4.825c0,1.195,0.237,2.089,0.712,2.681S95.726,177.128,96.57,177.128z"/>
	<path fill="#F05B26" d="M113.832,180.116h-4.113l5.801-27.352h4.131L113.832,180.116z"/>
</g>
</svg>
