<svg id="Camada_1" data-name="Camada 1" xmlns="http://www.w3.org/2000/svg" viewBox="0 0 50.32 66.09"><defs><style>.cls-1{fill:#fff;}</style></defs><path class="cls-1" d="M46.34,22.43V12.77h-.88v-.68a5.23,5.23,0,0,0,.66-2.3A4,4,0,0,0,42.8,5.87l0-.37a.92.92,0,0,0-.11-1.38l-.22-2.69a.5.5,0,0,0,0-.12A.31.31,0,0,0,42.15,1a.3.3,0,0,0-.3.31v0h0l-.25,2.76a1,1,0,0,0-.39.75,1,1,0,0,0,.27.64l0,.38A4,4,0,0,0,38.2,9.79a5.36,5.36,0,0,0,.66,2.3v.7H38v9.7H35.49V15.67l.8-.75V13.79l-.82-.44,0,0L35,12.52H33.89l-.62.67h0l0,.05-.09.1h0l0,0H28.68l-.75-.79H26.79l-.74.79H24.19l-.75-.79H22.3l-.75.79H17.34l-.07-.05-.76-.81H15.38l-.22.43-.22.4-.31.16-.51.28v1.13l.8.75v6.82H12.23V12.74H11.4v-.65a5.23,5.23,0,0,0,.66-2.3A4,4,0,0,0,8.81,5.88l0-.38a.94.94,0,0,0-.11-1.38L8.43,1.35h0v0A.3.3,0,0,0,8.1,1a.31.31,0,0,0-.31.31.17.17,0,0,0,0,.12L7.58,4.11A.92.92,0,0,0,7.46,5.5l0,.37A4,4,0,0,0,4.15,9.79a5.26,5.26,0,0,0,.66,2.32v.63H4v9.75H1.5V24h.1l.93.81V33h-1v1.4l1,.86v5.63h-1v1.41l1,.85v5.15l-1,.83v2.18H1.5v1.48H48.7V51.29h0V49.11l-1-.83v-.07h0V43.06l1-.85v-1.4h-1V35.18l1-.86v-1.4h-1v-8.2l.92-.81h.1V22.43H46.34m-.11,25.83h0v0l1,1.75v1.26H3V50l1-1.75,0,0H4V24H5.48V14.24h.85v0h0V12.74h0V11.39a2.38,2.38,0,0,1-.68-1.64,2.49,2.49,0,0,1,5,0,2.07,2.07,0,0,1-.66,1.59h0l0,1.4h0v.86l0,.64h.88V24h5.64V15.43l-.26-.6h0L16,14.69l1.14.17H33.31l.71-.13.28-.05-.07.17h0l-.25.57V24h5.45V14.24h.91l0-2.85a2.38,2.38,0,0,1-.68-1.64,2.48,2.48,0,0,1,5,0A2.07,2.07,0,0,1,44,11.34v2.9h.88V24h1.35V48.21h0Z"/><path class="cls-1" d="M1.57,58H6.86v1.49H3.72v1.21H6.4v1.4H3.72V65H1.57Z"/><path class="cls-1" d="M8.1,58h2.14V65H8.1Z"/><path class="cls-1" d="M11.51,61.51a3.57,3.57,0,0,1,1-2.64,3.55,3.55,0,0,1,2.63-.95,3.6,3.6,0,0,1,2.66.93,3.49,3.49,0,0,1,.94,2.6,4.29,4.29,0,0,1-.41,2,2.93,2.93,0,0,1-1.18,1.21,3.91,3.91,0,0,1-1.93.44,4.44,4.44,0,0,1-1.94-.38A2.93,2.93,0,0,1,12,63.53,3.9,3.9,0,0,1,11.51,61.51Zm2.14,0A2.34,2.34,0,0,0,14,63a1.49,1.49,0,0,0,2.13,0,2.56,2.56,0,0,0,.38-1.61,2.11,2.11,0,0,0-.4-1.43A1.45,1.45,0,0,0,14,60,2.35,2.35,0,0,0,13.65,61.52Z"/><path class="cls-1" d="M24.45,62.13l1.88.57a3.42,3.42,0,0,1-.6,1.32,2.6,2.6,0,0,1-1,.8,3.83,3.83,0,0,1-1.54.27,4.39,4.39,0,0,1-1.84-.33,3,3,0,0,1-1.24-1.16,3.86,3.86,0,0,1-.52-2.11,3.58,3.58,0,0,1,.92-2.64,3.46,3.46,0,0,1,2.58-.93,3.53,3.53,0,0,1,2.06.53,3.09,3.09,0,0,1,1.11,1.63l-1.89.42a1.64,1.64,0,0,0-.2-.47,1.2,1.2,0,0,0-.44-.37,1.28,1.28,0,0,0-.59-.14,1.26,1.26,0,0,0-1.11.59,2.43,2.43,0,0,0-.29,1.36,2.53,2.53,0,0,0,.35,1.58,1.18,1.18,0,0,0,1,.43,1.2,1.2,0,0,0,.93-.35A2.07,2.07,0,0,0,24.45,62.13Z"/><path class="cls-1" d="M27.4,65V58H31a5.26,5.26,0,0,1,1.51.17,1.61,1.61,0,0,1,.85.63A1.94,1.94,0,0,1,33.65,60a1.88,1.88,0,0,1-.25,1,2,2,0,0,1-.67.68,2.7,2.7,0,0,1-.75.27,2.43,2.43,0,0,1,.55.25,2.16,2.16,0,0,1,.35.37c.14.19.24.33.3.43l1,2H31.79l-1.14-2.12a1.74,1.74,0,0,0-.39-.53.87.87,0,0,0-.52-.16h-.19V65Zm2.15-4.12h.9a3.76,3.76,0,0,0,.57-.1.55.55,0,0,0,.34-.22.63.63,0,0,0,.14-.4.64.64,0,0,0-.21-.51,1.31,1.31,0,0,0-.8-.18h-.94Z"/><path class="cls-1" d="M39.24,58h2.14v4.13a3.45,3.45,0,0,1-.2,1.16,2.33,2.33,0,0,1-.6,1,2.36,2.36,0,0,1-.85.57,4.21,4.21,0,0,1-1.5.24A9.05,9.05,0,0,1,37.12,65a2.69,2.69,0,0,1-1-.28,2.57,2.57,0,0,1-.74-.59,2.43,2.43,0,0,1-.46-.8,4.17,4.17,0,0,1-.19-1.17V58h2.13v4.23a1.2,1.2,0,0,0,.32.88,1.18,1.18,0,0,0,.87.32,1.21,1.21,0,0,0,.87-.31,1.25,1.25,0,0,0,.31-.89Z"/><path class="cls-1" d="M42.62,58h6.06v1.38l-3.89,4.06h4V65H42.24V63.53l3.85-4H42.62Z"/></svg>