<svg id="Camada_1" data-name="Camada 1" xmlns="http://www.w3.org/2000/svg" viewBox="0 0 51.37 69.22"><defs><style>.cls-1,.cls-10{fill:#fff;}.cls-1,.cls-3,.cls-6,.cls-7{fill-rule:evenodd;}.cls-11,.cls-2,.cls-4,.cls-8{fill:none;stroke-miterlimit:22.93;}.cls-2,.cls-4,.cls-8{stroke:#231f20;}.cls-2{stroke-width:0.16px;}.cls-3,.cls-9{fill:#231f20;}.cls-4{stroke-width:0.02px;}.cls-5{fill:#005caa;}.cls-6{fill:#ec1c24;}.cls-7{fill:#ffe200;}.cls-8{stroke-width:0.01px;}.cls-11{stroke:#fff;stroke-width:0.22px;}</style></defs><path class="cls-1" d="M13.46,63.22a4.93,4.93,0,0,1-9.85,0V55.84H6.07v7.38a2.47,2.47,0,0,0,4.93,0V55.84h2.46ZM43,58.31h4.89V55.84H43a4.92,4.92,0,0,0-4.92,4.92h0v2.44h0A4.92,4.92,0,0,0,43,68.14h4.89V65.67H43a2.46,2.46,0,0,1-2.46-2.46V60.77A2.46,2.46,0,0,1,43,58.31ZM27,68.14V65.68s.05,0,.07,0h6.1a1.24,1.24,0,0,0,0-2.47l-2.47,0a3.7,3.7,0,0,1,0-7.4h6.14v2.46H30.68a1.23,1.23,0,1,0,0,2.46l2.47,0a3.71,3.71,0,0,1,0,7.41Zm-1.22-9.82-7.38,0v2.47l4.92,0v2.43H18.39v4.92H15.92V55.85h9.84Z"/><path class="cls-1" d="M15.82,39.13a7.79,7.79,0,0,0-2,2.35c-.72.31.37,1,.76,1.37a45.1,45.1,0,0,1,8.39-.4A45.93,45.93,0,0,1,15.82,39.13Zm11.85,3.51c-.25.16,5.58-.35,8.71.17a14.28,14.28,0,0,0,1.24-1.46c-1-.24-1.51-1.1-2-2.42C33.38,40.72,30.16,41.22,27.67,42.64ZM41.18,44l1.29.43c1.23.42,3.16.74,3.16,2.41l4.52,2.4-3.59,1L48,53.46l-9-3.43c-.43-.34-.84-1.32-1.25-1.51-1.79-.86-2.89-1-6.08-1.07-.73,1.43.66,3.77.91,5.39-1.16,0-2,.4-3.18.4-.28-1.73-.53-3.73-2.06-4.86a9.88,9.88,0,0,0-.14,1.85,2.14,2.14,0,1,1-3.2,0L24,48.59c-1.19,1.16-1.42,3-1.71,4.54-1.23,0-2-.5-3.25-.5a11.9,11.9,0,0,1,1.09-4,4.33,4.33,0,0,0-.49-1.22,23.76,23.76,0,0,0-6.71,1.12,1.43,1.43,0,0,1-.51,1.33l-9,3.57,1.46-3.18-3.59-1L5.73,47a1.86,1.86,0,0,1,.68-1.58,21.67,21.67,0,0,1,5.1-1.83c-.64-.88-1-.48-2.09-.3-.8-.72-1.92-.56-3.14-1.46-.57-.42-1.3-1.3-1-2.1.18-.43,1.14,0,1.34-.39s-1.21-1.45-1.35-1.9-.16-.71-.29-1-.3-.48-.4-.74a8.72,8.72,0,0,1-.27-.91,3.62,3.62,0,0,0-.13-.35.28.28,0,0,0-.09-.16c-.12,0-.32.05-.39-.07s0-.31.08-.47h0c0-.16.05-.32.08-.47.06-.44.1-.88.2-1.3.25-1.21-.9-1.35-.22-3.2.05-.13.36.19.42.06s-.07-.45-.11-.68,0-.25-.08-.37A.4.4,0,0,0,4,27.52c-.1-.07-.3,0-.34-.11s.08-.28.12-.42h0c0-.15.1-.31.14-.46a3.75,3.75,0,0,1,.36-1.26c.09-.13,1.19-.05.26-.7-.63-.45-.18-1.55.26-2.24.12-.18.42.19.64.17s-.21-.1-.25-.2a5.45,5.45,0,0,1-.15-.9c0-.11,0-.23-.07-.34a.94.94,0,0,0-.14-.34c-.06-.06-.25,0-.25-.1a4.48,4.48,0,0,1,.27-.93,5.58,5.58,0,0,1,.31-1.08c0-.07.16.07.23.1s.29.19.37.1,0-.29-.07-.43a1.63,1.63,0,0,0-.07-.3.79.79,0,0,0-.12-.3c-.06-.06-.2,0-.23-.1s0-.18.07-.27h0l.18-.61.3-1.06h0l0-.07.45.2,1.16.3.65,0,.14.06.12-.8.19-.7L8.88,14l.46-.64.59-.32,1.22-1.21,1.56,1.51-.23.31,0,.15.1.31.32.83-.39,1-.1.09.87-.5v-3h8.82c-1.27-.61-1.67-2.48-.47-3.21a6.68,6.68,0,0,0,.52-3.86l1.28.25A3.66,3.66,0,0,1,24.2,3.4c1.34.45,2.53-1.26,3.48-2.33a9.26,9.26,0,0,1,1.15,3.5c.8,1.57,1.3,2.55.75,4.34,0,1.05,2.08,2.24-.1,3.54l-.11.05H38v4.17c.54.41.64.34,1.31.37a3.11,3.11,0,0,1,1.17-4.53c1.39,1.2,3.16,2.52,2,4.55a25.32,25.32,0,0,0,2.83-.87,6.49,6.49,0,0,1-.09,3l1.31-.05c-.33,1-.38,1.85-.78,2.84.75-.4.57.13,1.31-.26-.39,1.26-.44,2.43-.92,3.67.68-.25.62-.06,1.31-.31-.71,2.55-2.21,5.43.11,3.29-.6,1.75-.66,2-1.35,3.72,1-.21.61.51,1.63.3l-1.73,2.44c.45.33.41,1.1.86,1.44A30.52,30.52,0,0,1,44.43,39c.81.2,1.12.78,1.93,1-1.83.88-2.9,2.92-4.64,2.67l-1.66-.09C39.15,43.92,39.73,43.54,41.18,44Z"/><path class="cls-2" d="M15.82,39.13a7.79,7.79,0,0,0-2,2.35c-.72.31.37,1,.76,1.37a45.1,45.1,0,0,1,8.39-.4A45.93,45.93,0,0,1,15.82,39.13Zm11.85,3.51c-.25.16,5.58-.35,8.71.17a14.28,14.28,0,0,0,1.24-1.46c-1-.24-1.51-1.1-2-2.42C33.38,40.72,30.16,41.22,27.67,42.64ZM41.18,44l1.29.43c1.23.42,3.16.74,3.16,2.41l4.52,2.4-3.59,1L48,53.46l-9-3.43c-.43-.34-.84-1.32-1.25-1.51-1.79-.86-2.89-1-6.08-1.07-.73,1.43.66,3.77.91,5.39-1.16,0-2,.4-3.18.4-.28-1.73-.53-3.73-2.06-4.86a9.88,9.88,0,0,0-.14,1.85,2.14,2.14,0,1,1-3.2,0L24,48.59c-1.19,1.16-1.42,3-1.71,4.54-1.23,0-2-.5-3.25-.5a11.9,11.9,0,0,1,1.09-4,4.33,4.33,0,0,0-.49-1.22,23.76,23.76,0,0,0-6.71,1.12,1.43,1.43,0,0,1-.51,1.33l-9,3.57,1.46-3.18-3.59-1L5.73,47a1.86,1.86,0,0,1,.68-1.58,21.67,21.67,0,0,1,5.1-1.83c-.64-.88-1-.48-2.09-.3-.8-.72-1.92-.56-3.14-1.46-.57-.42-1.3-1.3-1-2.1.18-.43,1.14,0,1.34-.39s-1.21-1.45-1.35-1.9-.16-.71-.29-1-.3-.48-.4-.74a8.72,8.72,0,0,1-.27-.91,3.62,3.62,0,0,0-.13-.35.28.28,0,0,0-.09-.16c-.12,0-.32.05-.39-.07s0-.31.08-.47h0c0-.16.05-.32.08-.47.06-.44.1-.88.2-1.3.25-1.21-.9-1.35-.22-3.2.05-.13.36.19.42.06s-.07-.45-.11-.68,0-.25-.08-.37A.4.4,0,0,0,4,27.52c-.1-.07-.3,0-.34-.11s.08-.28.12-.42h0c0-.15.1-.31.14-.46a3.75,3.75,0,0,1,.36-1.26c.09-.13,1.19-.05.26-.7-.63-.45-.18-1.55.26-2.24.12-.18.42.19.64.17s-.21-.1-.25-.2a5.45,5.45,0,0,1-.15-.9c0-.11,0-.23-.07-.34a.94.94,0,0,0-.14-.34c-.06-.06-.25,0-.25-.1a4.48,4.48,0,0,1,.27-.93,5.58,5.58,0,0,1,.31-1.08c0-.07.16.07.23.1s.29.19.37.1,0-.29-.07-.43a1.63,1.63,0,0,0-.07-.3.79.79,0,0,0-.12-.3c-.06-.06-.2,0-.23-.1s0-.18.07-.27h0l.18-.61.3-1.06h0l0-.07.45.2,1.16.3.65,0,.14.06.12-.8.19-.7L8.88,14l.46-.64.59-.32,1.22-1.21,1.56,1.51-.23.31,0,.15.1.31.32.83-.39,1-.1.09.87-.5v-3h8.82c-1.27-.61-1.67-2.48-.47-3.21a6.68,6.68,0,0,0,.52-3.86l1.28.25A3.66,3.66,0,0,1,24.2,3.4c1.34.45,2.53-1.26,3.48-2.33a9.26,9.26,0,0,1,1.15,3.5c.8,1.57,1.3,2.55.75,4.34,0,1.05,2.08,2.24-.1,3.54l-.11.05H38v4.17c.54.41.64.34,1.31.37a3.11,3.11,0,0,1,1.17-4.53c1.39,1.2,3.16,2.52,2,4.55a25.32,25.32,0,0,0,2.83-.87,6.49,6.49,0,0,1-.09,3l1.31-.05c-.33,1-.38,1.85-.78,2.84.75-.4.57.13,1.31-.26-.39,1.26-.44,2.43-.92,3.67.68-.25.62-.06,1.31-.31-.71,2.55-2.21,5.43.11,3.29-.6,1.75-.66,2-1.35,3.72,1-.21.61.51,1.63.3l-1.73,2.44c.45.33.41,1.1.86,1.44A30.52,30.52,0,0,1,44.43,39c.81.2,1.12.78,1.93,1-1.83.88-2.9,2.92-4.64,2.67l-1.66-.09C39.15,43.92,39.73,43.54,41.18,44Z"/><path class="cls-1" d="M15.82,39.13a7.79,7.79,0,0,0-2,2.35c-.72.31.37,1,.76,1.37a45.1,45.1,0,0,1,8.39-.4,45.93,45.93,0,0,1-7.17-3.32m11.85,3.51c-.25.16,5.58-.35,8.71.17a14.28,14.28,0,0,0,1.24-1.46c-1-.24-1.51-1.1-2-2.42C33.38,40.72,30.16,41.22,27.67,42.64ZM41.18,44l1.29.43c1.23.42,3.16.74,3.16,2.41l4.52,2.4-3.59,1L48,53.46l-9-3.43c-.43-.34-.84-1.32-1.25-1.51-1.79-.86-2.89-1-6.08-1.07-.73,1.43.66,3.77.91,5.39-1.16,0-2,.4-3.18.4-.28-1.73-.53-3.73-2.06-4.86a9.88,9.88,0,0,0-.14,1.85,2.14,2.14,0,1,1-3.2,0L24,48.59c-1.19,1.16-1.42,3-1.71,4.54-1.23,0-2-.5-3.25-.5a11.9,11.9,0,0,1,1.09-4,4.33,4.33,0,0,0-.49-1.22,23.76,23.76,0,0,0-6.71,1.12,1.43,1.43,0,0,1-.51,1.33l-9,3.57,1.46-3.18-3.59-1L5.73,47a1.86,1.86,0,0,1,.68-1.58,21.67,21.67,0,0,1,5.1-1.83c-.64-.88-1-.48-2.09-.3-.8-.72-1.92-.56-3.14-1.46-.57-.42-1.3-1.3-1-2.1.18-.43,1.14,0,1.34-.39s-1.21-1.45-1.35-1.9-.16-.71-.29-1-.3-.48-.4-.74a8.72,8.72,0,0,1-.27-.91,3.62,3.62,0,0,0-.13-.35.28.28,0,0,0-.09-.16c-.12,0-.32.05-.39-.07s0-.31.08-.47h0c0-.16.05-.32.08-.47.06-.44.1-.88.2-1.3.25-1.21-.9-1.35-.22-3.2.05-.13.36.19.42.06s-.07-.45-.11-.68,0-.25-.08-.37A.4.4,0,0,0,4,27.52c-.1-.07-.3,0-.34-.11s.08-.28.12-.42h0c0-.15.1-.31.14-.46a3.75,3.75,0,0,1,.36-1.26c.09-.13,1.19-.05.26-.7-.63-.45-.18-1.55.26-2.24.12-.18.42.19.64.17s-.21-.1-.25-.2a5.45,5.45,0,0,1-.15-.9c0-.11,0-.23-.07-.34a.94.94,0,0,0-.14-.34c-.06-.06-.25,0-.25-.1a4.48,4.48,0,0,1,.27-.93,5.58,5.58,0,0,1,.31-1.08c0-.07.16.07.23.1s.29.19.37.1,0-.29-.07-.43a1.63,1.63,0,0,0-.07-.3.79.79,0,0,0-.12-.3c-.06-.06-.2,0-.23-.1s0-.18.07-.27h0l.18-.61.3-1.06h0l0-.07.45.2,1.16.3.65,0,.14.06.12-.8.19-.7L8.88,14l.46-.64.59-.32,1.22-1.21,1.56,1.51-.23.31,0,.15.1.31.32.83-.39,1-.1.09.87-.5v-3h8.82c-1.27-.61-1.67-2.48-.47-3.21a6.68,6.68,0,0,0,.52-3.86l1.28.25A3.66,3.66,0,0,1,24.2,3.4c1.34.45,2.53-1.26,3.48-2.33a9.26,9.26,0,0,1,1.15,3.5c.8,1.57,1.3,2.55.75,4.34,0,1.05,2.08,2.24-.1,3.54l-.11.05H38v4.17c.54.41.64.34,1.31.37a3.11,3.11,0,0,1,1.17-4.53c1.39,1.2,3.16,2.52,2,4.55a25.32,25.32,0,0,0,2.83-.87,6.49,6.49,0,0,1-.09,3l1.31-.05c-.33,1-.38,1.85-.78,2.84.75-.4.57.13,1.31-.26-.39,1.26-.44,2.43-.92,3.67.68-.25.62-.06,1.31-.31-.71,2.55-2.21,5.43.11,3.29-.6,1.75-.66,2-1.35,3.72,1-.21.61.51,1.63.3l-1.73,2.44c.45.33.41,1.1.86,1.44A30.52,30.52,0,0,1,44.43,39c.81.2,1.12.78,1.93,1-1.83.88-2.9,2.92-4.64,2.67l-1.66-.09C39.15,43.92,39.73,43.54,41.18,44Z"/><path class="cls-3" d="M27,12.32l-.24.29-.2.25h.84l-.17-.25Zm-1.31,0-.24.3-.19.23h.86l-.19-.23Zm.48,38.39a1,1,0,0,1,.57.93,1.06,1.06,0,0,1-2.12,0,1,1,0,0,1,.55-.92l-.35-8.56c-1.38-1.1-4-1.82-6.53-3S14.43,36.61,14.41,35c0-7.17,0-14.27,0-21.45h9.25V12.21h-.3l-.07,0-.06,0-.05-.05,0-.06,0-.07,0-.07v-.16l0-.08,0-.07h-.49l-.06,0-.05,0-.05,0,0,0,0,0,0,0,0,0,0-.05,0,0,0-.05v-.6l0-.05,0,0,0-.05,0,0,0,0,0,0,0,0,.05,0,.05,0,.06,0h.43V9.72h5.23v.44h.57l.06,0,0,0,0,0,0,0,0,0,0,0,0,0,0,.05,0,0v.05l0,.06v.49l0,.05v.05l0,0,0,.05,0,0,0,0,0,0,0,0,0,0,0,0-.06,0h-.61l0,.07,0,.08v.16l0,.07,0,.07,0,.06-.05.05-.06,0-.07,0h-.22v1.37H37v9.81h0V35c0,1.54-1.78,3.33-4.14,4.3-2.62,1.07-5.05,1.8-6.28,2.72ZM24.41,12.35l-.22.28-.19.23h.84l-.19-.23Z"/><path class="cls-4" d="M27,12.32l-.24.29-.2.25h.84l-.17-.25Zm-1.31,0-.24.3-.19.23h.86l-.19-.23Zm.48,38.39a1,1,0,0,1,.57.93,1.06,1.06,0,0,1-2.12,0,1,1,0,0,1,.55-.92l-.35-8.56c-1.38-1.1-4-1.82-6.53-3S14.43,36.61,14.41,35c0-7.17,0-14.27,0-21.45h9.25V12.21h-.3l-.07,0-.06,0-.05-.05,0-.06,0-.07,0-.07v-.16l0-.08,0-.07h-.49l-.06,0-.05,0-.05,0,0,0,0,0,0,0,0,0,0-.05,0,0,0-.05v-.6l0-.05,0,0,0-.05,0,0,0,0,0,0,0,0,.05,0,.05,0,.06,0h.43V9.72h5.23v.44h.57l.06,0,0,0,0,0,0,0,0,0,0,0,0,0,0,.05,0,0v.05l0,.06v.49l0,.05v.05l0,0,0,.05,0,0,0,0,0,0,0,0,0,0,0,0-.06,0h-.61l0,.07,0,.08v.16l0,.07,0,.07,0,.06-.05.05-.06,0-.07,0h-.22v1.37H37v9.81h0V35c0,1.54-1.78,3.33-4.14,4.3-2.62,1.07-5.05,1.8-6.28,2.72ZM24.41,12.35l-.22.28-.19.23h.84l-.19-.23Z"/><rect class="cls-5" x="14.56" y="13.76" width="22.22" height="9.8"/><path class="cls-6" d="M27,7.78c.32.46,0,.8,0,1.27a.76.76,0,0,0,.46-.36,1,1,0,0,1-.25.16,1.48,1.48,0,0,0-.21-1.53,2.45,2.45,0,0,1,0,.46m.19,2-3.07,0c-.21-.61-.2-.91.11-1.26,0,.54.17.63.25.53.16-1.15,1-1.79,1-2l.14.85a1.4,1.4,0,0,0,.73-1.28,1.94,1.94,0,0,0,.06-.68c0,.82.63,2-.12,2.78A1.15,1.15,0,0,0,27,8a1.22,1.22,0,0,1-1,.94c.7-.71.41-1.55.39-2.32a1.2,1.2,0,0,1-.61.85l-.14-.87c0,.24-.94,1-1.1,2.16-.08.11-.14,0-.14-.57A1.48,1.48,0,0,0,24,9.78h-.33c-1-1.49.23-2.15-.2-3l.51.27c.23,0,1,0,.67-2l.78.45C25.73,4.09,27,3.65,27.56,3c-.73.89.34,2.32-.34,3.13.25.12.41.15.6-.41a1.33,1.33,0,0,1,0,1.77c.26.06.56-.3.72-.6-.14,1,0,1.76-1,2.86h-.15a1.72,1.72,0,0,0,.34-1.47,1.13,1.13,0,0,1-.21.35A1.42,1.42,0,0,1,27.2,9.76Z"/><path class="cls-1" d="M20.34,17.77l-.33.75.58.56-.8-.07-.35.73-.18-.8-.82-.13.71-.4L19,17.62l.59.53Zm-3.76.42-.14.91.78.44-.89.13-.19.89-.4-.8-.91.09.64-.64-.35-.82.79.4Zm1-3.8-.4.89.71.68-1-.09-.44.89-.2-1-1-.13.84-.49-.15-1,.73.64Zm3.69.18-.39.89.7.68-1-.09-.44.89-.2-1-1-.14.84-.48-.16-1,.73.64Zm0,2.79h3.86c.07,0,.24,0,.22.27h0a.2.2,0,0,1-.19.18H23.66a.22.22,0,0,0-.22.3h0a.22.22,0,0,0,.14.11h.05c.3,0,1.61,0,1.65,0h11.5V21H23.61a.21.21,0,0,1-.17-.23v-.93H20.85L22,18.7Zm.49,3.49-.29.93.77.6-1,0-.33.91-.33-.91-1,0,.77-.57-.27-1,.8.57Z"/><path class="cls-7" d="M27,12.19l.3.37.27.39H26.36l.31-.39Zm-1.31,0,.31.39.31.37H25.05l.31-.37Zm.77,30-.38,8.56a1,1,0,0,1-.4,1.85,1,1,0,0,1-.42-1.84l-.35-8.57a3.51,3.51,0,0,1,.8,1.2,3.91,3.91,0,0,1,.61-1.07Zm-3-30.66H28a.29.29,0,0,1,.26.3h0a.28.28,0,0,1-.26.3h-.24v1.44h-4V12.15h-.3a.28.28,0,0,1-.27-.3h0A.29.29,0,0,1,23.42,11.55Zm-.61-1.31H28.7a.49.49,0,0,1,.49.49V11a.49.49,0,0,1-.49.48H22.81a.49.49,0,0,1-.49-.48v-.26A.49.49,0,0,1,22.81,10.24Zm.34-.4H28.2v.33H23.15Zm1.26,2.36.31.38L25,13H23.81l.31-.37ZM14.57,23.75H36.76c0,3.81,0,7.44,0,11.25-.53,4.74-10.09,5-11.09,8-1.18-3-10.83-3.47-11.1-8Z"/><path class="cls-3" d="M39.67,49.06c-.24-.36.08-.65.35-.55l3,1a.09.09,0,0,0,.07,0,.3.3,0,0,0,.06-.6l-3.23-1-.32.65C39.52,48.81,39.55,49,39.67,49.06Z"/><path class="cls-8" d="M39.67,49.06c-.24-.36.08-.65.35-.55l3,1a.09.09,0,0,0,.07,0,.3.3,0,0,0,.06-.6l-3.23-1-.32.65C39.52,48.81,39.55,49,39.67,49.06Z"/><path class="cls-3" d="M24.31,31.81a2.23,2.23,0,0,1,.94-.15c.56,0,1,.1,1,.23s-.46.24-1,.24-1-.11-1-.24,0-.05.07-.08"/><path class="cls-3" d="M30.15,47.71a.37.37,0,0,0,.32-.36.28.28,0,0,0-.28-.3l-2.35-.24a.33.33,0,0,1-.32-.33.3.3,0,0,1,.31-.31h.08l3.09.18-.48,1.2c-.11.2-.24.15-.37.16"/><path class="cls-3" d="M21.2,47.71a.37.37,0,0,1-.32-.36.29.29,0,0,1,.28-.3l2.35-.24a.33.33,0,0,0,.32-.33.3.3,0,0,0-.31-.31h-.07l-3.1.18.48,1.2c.11.2.24.15.37.16"/><path class="cls-3" d="M11.73,49a.34.34,0,0,0-.36-.55l-3,1a.08.08,0,0,1-.06,0,.3.3,0,0,1-.07-.6l3.24-1,.32.65A.45.45,0,0,1,11.73,49Z"/><path class="cls-8" d="M11.73,49a.34.34,0,0,0-.36-.55l-3,1a.08.08,0,0,1-.06,0,.3.3,0,0,1-.07-.6l3.24-1,.32.65A.45.45,0,0,1,11.73,49Z"/><path class="cls-3" d="M25.09,17.82H23.66c-.3,0-.32.41,0,.41s1.66,0,1.66,0V17.6a.23.23,0,0,1-.2.22"/><path class="cls-6" d="M35.91,19.75h.35l-.1-.4c0-.12-.06-.22-.08-.3a1.18,1.18,0,0,1-.06.27Zm-.29.6L36,18.91h.15l.42,1.44h-.16l-.12-.43h-.42l-.12.43Zm-.28,0V18.91h.14v1.44Zm-.67,0V19.08h-.34v-.17h.82v.17h-.34v1.27Zm-1.31,0V18.91h.13L34,20V18.91h.12v1.44H34l-.54-1.13v1.13Zm-1,0V18.91h.74v.17h-.61v.44h.57v.17h-.57v.49h.64v.17Zm-.4,0V18.91h.13v1.44Zm-.35-.51.14.06a.67.67,0,0,1-.16.35.34.34,0,0,1-.26.12.38.38,0,0,1-.28-.09.7.7,0,0,1-.15-.27,1.27,1.27,0,0,1-.06-.39,1.14,1.14,0,0,1,.06-.39.56.56,0,0,1,.17-.26.43.43,0,0,1,.26-.09.33.33,0,0,1,.25.11.6.6,0,0,1,.15.31l-.13.05a.49.49,0,0,0-.1-.23.27.27,0,0,0-.37,0,.36.36,0,0,0-.11.21.88.88,0,0,0,0,.27,1.06,1.06,0,0,0,0,.33.43.43,0,0,0,.12.21.27.27,0,0,0,.17.06.23.23,0,0,0,.19-.09A.48.48,0,0,0,31.63,19.84Zm-1.75.05.12,0a.39.39,0,0,0,.05.18.26.26,0,0,0,.1.11.27.27,0,0,0,.15.05.26.26,0,0,0,.14,0,.2.2,0,0,0,.09-.09.26.26,0,0,0,0-.24s-.05-.06-.09-.09l-.18-.06a.9.9,0,0,1-.2-.1.28.28,0,0,1-.11-.13.48.48,0,0,1,0-.18.54.54,0,0,1,.05-.21.35.35,0,0,1,.13-.14.53.53,0,0,1,.18-.05.59.59,0,0,1,.21.05.42.42,0,0,1,.13.16.77.77,0,0,1,.06.23h-.14a.28.28,0,0,0-.07-.2.19.19,0,0,0-.18-.08.21.21,0,0,0-.18.07.25.25,0,0,0-.05.15.28.28,0,0,0,0,.13.5.5,0,0,0,.21.1.91.91,0,0,1,.23.09.37.37,0,0,1,.13.15.46.46,0,0,1,.05.2.43.43,0,0,1-.06.22.34.34,0,0,1-.13.16.42.42,0,0,1-.2.05.52.52,0,0,1-.23-.05.41.41,0,0,1-.15-.17A.75.75,0,0,1,29.88,19.89Zm-1.17.46V19.08h-.34v-.17h.81v.17h-.34v1.27Zm-1.24,0V18.91h.74v.17h-.6v.44h.57v.17h-.57v.49h.62v.17Zm-1.61-.46.13,0a.6.6,0,0,0,0,.18.38.38,0,0,0,.11.11.28.28,0,0,0,.16.05.25.25,0,0,0,.13,0,.16.16,0,0,0,.09-.09.25.25,0,0,0,0-.24.19.19,0,0,0-.09-.09l-.18-.06a.71.71,0,0,1-.2-.1.28.28,0,0,1-.11-.13.34.34,0,0,1,0-.18.52.52,0,0,1,0-.21.38.38,0,0,1,.14-.14.53.53,0,0,1,.18-.05.65.65,0,0,1,.21.05.34.34,0,0,1,.13.16.56.56,0,0,1,0,.23h-.13a.34.34,0,0,0-.07-.2.19.19,0,0,0-.18-.08.21.21,0,0,0-.18.07.25.25,0,0,0-.06.15.21.21,0,0,0,0,.13.39.39,0,0,0,.2.1.77.77,0,0,1,.23.09.47.47,0,0,1,.13.15.45.45,0,0,1,0,.2.42.42,0,0,1-.05.22.34.34,0,0,1-.13.16.46.46,0,0,1-.2.05.52.52,0,0,1-.23-.05.41.41,0,0,1-.15-.17A.76.76,0,0,1,25.86,19.89ZM25,19.55h.29a.49.49,0,0,0,.15,0,.24.24,0,0,0,.08-.09.28.28,0,0,0,0-.13.34.34,0,0,0-.05-.17.24.24,0,0,0-.17-.06H25Zm-.14.8V18.91h.46a.41.41,0,0,1,.21,0,.24.24,0,0,1,.11.13.54.54,0,0,1,.05.22.37.37,0,0,1-.08.26.33.33,0,0,1-.21.14.27.27,0,0,1,.08.07.61.61,0,0,1,.11.18l.18.4h-.17l-.13-.3-.11-.2-.06-.1-.06,0H25v.64Zm-.79-.6h.35l-.11-.4-.08-.3a2.16,2.16,0,0,1,0,.27Zm-.3.6.4-1.44h.14l.42,1.44h-.15l-.12-.43H24l-.12.43Z"/><path class="cls-1" d="M15.82,39.13a7.79,7.79,0,0,0-2,2.35c-.72.31.37,1,.76,1.37a45.1,45.1,0,0,1,8.39-.4,45.93,45.93,0,0,1-7.17-3.32m11.85,3.51c-.25.16,5.58-.35,8.71.17a14.28,14.28,0,0,0,1.24-1.46c-1-.24-1.51-1.1-2-2.42C33.38,40.72,30.16,41.22,27.67,42.64ZM41.18,44l1.29.43c1.23.42,3.16.74,3.16,2.41l4.52,2.4-3.59,1L48,53.46l-9-3.43c-.43-.34-.84-1.32-1.25-1.51-1.79-.86-2.89-1-6.08-1.07-.73,1.43.66,3.77.91,5.39-1.16,0-2,.4-3.18.4-.28-1.73-.53-3.73-2.06-4.86a9.88,9.88,0,0,0-.14,1.85,2.14,2.14,0,1,1-3.2,0L24,48.59c-1.19,1.16-1.42,3-1.71,4.54-1.23,0-2-.5-3.25-.5a11.9,11.9,0,0,1,1.09-4,4.33,4.33,0,0,0-.49-1.22,23.76,23.76,0,0,0-6.71,1.12,1.43,1.43,0,0,1-.51,1.33l-9,3.57,1.46-3.18-3.59-1L5.73,47a1.86,1.86,0,0,1,.68-1.58,21.67,21.67,0,0,1,5.1-1.83c-.64-.88-1-.48-2.09-.3-.8-.72-1.92-.56-3.14-1.46-.57-.42-1.3-1.3-1-2.1.18-.43,1.14,0,1.34-.39s-1.21-1.45-1.35-1.9-.16-.71-.29-1-.3-.48-.4-.74a8.72,8.72,0,0,1-.27-.91,3.62,3.62,0,0,0-.13-.35.28.28,0,0,0-.09-.16c-.12,0-.32.05-.39-.07s0-.31.08-.47h0c0-.16.05-.32.08-.47.06-.44.1-.88.2-1.3.25-1.21-.9-1.35-.22-3.2.05-.13.36.19.42.06s-.07-.45-.11-.68,0-.25-.08-.37A.4.4,0,0,0,4,27.52c-.1-.07-.3,0-.34-.11s.08-.28.12-.42h0c0-.15.1-.31.14-.46a3.75,3.75,0,0,1,.36-1.26c.09-.13,1.19-.05.26-.7-.63-.45-.18-1.55.26-2.24.12-.18.42.19.64.17s-.21-.1-.25-.2a5.45,5.45,0,0,1-.15-.9c0-.11,0-.23-.07-.34a.94.94,0,0,0-.14-.34c-.06-.06-.25,0-.25-.1a4.48,4.48,0,0,1,.27-.93,5.58,5.58,0,0,1,.31-1.08c0-.07.16.07.23.1s.29.19.37.1,0-.29-.07-.43a1.63,1.63,0,0,0-.07-.3.79.79,0,0,0-.12-.3c-.06-.06-.2,0-.23-.1s0-.18.07-.27h0l.18-.61.3-1.06h0l0-.07.45.2,1.16.3.65,0,.14.06.12-.8.19-.7L8.88,14l.46-.64.59-.32,1.22-1.21,1.56,1.51-.23.31,0,.15.1.31.32.83-.39,1-.1.09.87-.5v-3h8.82c-1.27-.61-1.67-2.48-.47-3.21a6.68,6.68,0,0,0,.52-3.86l1.28.25A3.66,3.66,0,0,1,24.2,3.4c1.34.45,2.53-1.26,3.48-2.33a9.26,9.26,0,0,1,1.15,3.5c.8,1.57,1.3,2.55.75,4.34,0,1.05,2.08,2.24-.1,3.54l-.11.05H38v4.17c.54.41.64.34,1.31.37a3.11,3.11,0,0,1,1.17-4.53c1.39,1.2,3.16,2.52,2,4.55a25.32,25.32,0,0,0,2.83-.87,6.49,6.49,0,0,1-.09,3l1.31-.05c-.33,1-.38,1.85-.78,2.84.75-.4.57.13,1.31-.26-.39,1.26-.44,2.43-.92,3.67.68-.25.62-.06,1.31-.31-.71,2.55-2.21,5.43.11,3.29-.6,1.75-.66,2-1.35,3.72,1-.21.61.51,1.63.3l-1.73,2.44c.45.33.41,1.1.86,1.44A30.52,30.52,0,0,1,44.43,39c.81.2,1.12.78,1.93,1-1.83.88-2.9,2.92-4.64,2.67l-1.66-.09C39.15,43.92,39.73,43.54,41.18,44Z"/><path class="cls-3" d="M27,7.78c.32.46,0,.8,0,1.27a.76.76,0,0,0,.46-.36,1,1,0,0,1-.25.16,1.48,1.48,0,0,0-.21-1.53,2.45,2.45,0,0,1,0,.46m.19,2-3.07,0c-.21-.61-.2-.91.11-1.26,0,.54.17.63.25.53.16-1.15,1-1.79,1-2l.14.85a1.4,1.4,0,0,0,.73-1.28,1.94,1.94,0,0,0,.06-.68c0,.82.63,2-.12,2.78A1.15,1.15,0,0,0,27,8a1.22,1.22,0,0,1-1,.94c.7-.71.41-1.55.39-2.32a1.2,1.2,0,0,1-.61.85l-.14-.87c0,.24-.94,1-1.1,2.16-.08.11-.14,0-.14-.57A1.48,1.48,0,0,0,24,9.78h-.33c-1-1.49.23-2.15-.2-3l.51.27c.23,0,1,0,.67-2l.78.45C25.73,4.09,27,3.65,27.56,3c-.73.89.34,2.32-.34,3.13.25.12.41.15.6-.41a1.33,1.33,0,0,1,0,1.77c.26.06.56-.3.72-.6-.14,1,0,1.76-1,2.86h-.15a1.72,1.72,0,0,0,.34-1.47,1.13,1.13,0,0,1-.21.35A1.42,1.42,0,0,1,27.2,9.76Z"/><path class="cls-3" d="M27,12.32l-.24.29-.2.25h.84l-.17-.25Zm-1.31,0-.24.3-.19.23h.86l-.19-.23Zm.48,38.39a1,1,0,0,1,.57.93,1.06,1.06,0,0,1-2.12,0,1,1,0,0,1,.55-.92l-.35-8.56c-1.38-1.1-4-1.82-6.53-3S14.43,36.61,14.41,35c0-7.17,0-14.27,0-21.45h9.25V12.21h-.3l-.07,0-.06,0-.05-.05,0-.06,0-.07,0-.07v-.16l0-.08,0-.07h-.49l-.06,0-.05,0-.05,0,0,0,0,0,0,0,0,0,0-.05,0,0,0-.05v-.6l0-.05,0,0,0-.05,0,0,0,0,0,0,0,0,.05,0,.05,0,.06,0h.43V9.72h5.23v.44h.57l.06,0,0,0,0,0,0,0,0,0,0,0,0,0,0,.05,0,0v.05l0,.06v.49l0,.05v.05l0,0,0,.05,0,0,0,0,0,0,0,0,0,0,0,0-.06,0h-.61l0,.07,0,.08v.16l0,.07,0,.07,0,.06-.05.05-.06,0-.07,0h-.22v1.37H37v9.81h0V35c0,1.54-1.78,3.33-4.14,4.3-2.62,1.07-5.05,1.8-6.28,2.72ZM24.41,12.35l-.22.28-.19.23h.84l-.19-.23Z"/><path class="cls-4" d="M27,12.32l-.24.29-.2.25h.84l-.17-.25Zm-1.31,0-.24.3-.19.23h.86l-.19-.23Zm.48,38.39a1,1,0,0,1,.57.93,1.06,1.06,0,0,1-2.12,0,1,1,0,0,1,.55-.92l-.35-8.56c-1.38-1.1-4-1.82-6.53-3S14.43,36.61,14.41,35c0-7.17,0-14.27,0-21.45h9.25V12.21h-.3l-.07,0-.06,0-.05-.05,0-.06,0-.07,0-.07v-.16l0-.08,0-.07h-.49l-.06,0-.05,0-.05,0,0,0,0,0,0,0,0,0,0-.05,0,0,0-.05v-.6l0-.05,0,0,0-.05,0,0,0,0,0,0,0,0,.05,0,.05,0,.06,0h.43V9.72h5.23v.44h.57l.06,0,0,0,0,0,0,0,0,0,0,0,0,0,0,.05,0,0v.05l0,.06v.49l0,.05v.05l0,0,0,.05,0,0,0,0,0,0,0,0,0,0,0,0-.06,0h-.61l0,.07,0,.08v.16l0,.07,0,.07,0,.06-.05.05-.06,0-.07,0h-.22v1.37H37v9.81h0V35c0,1.54-1.78,3.33-4.14,4.3-2.62,1.07-5.05,1.8-6.28,2.72ZM24.41,12.35l-.22.28-.19.23h.84l-.19-.23Z"/><rect class="cls-9" x="14.56" y="13.76" width="22.22" height="9.8"/><path class="cls-1" d="M20.34,17.77l-.33.75.58.56-.8-.07-.35.73-.18-.8-.82-.13.71-.4L19,17.62l.59.53Zm-3.76.42-.14.91.78.44-.89.13-.19.89-.4-.8-.91.09.64-.64-.35-.82.79.4Zm1-3.8-.4.89.71.68-1-.09-.44.89-.2-1-1-.13.84-.49-.15-1,.73.64Zm3.69.18-.39.89.7.68-1-.09-.44.89-.2-1-1-.14.84-.48-.16-1,.73.64Zm0,2.79h3.86c.07,0,.24,0,.22.27h0a.2.2,0,0,1-.19.18H23.66a.22.22,0,0,0-.22.3h0a.22.22,0,0,0,.14.11h.05c.3,0,1.61,0,1.65,0h11.5V21H23.61a.21.21,0,0,1-.17-.23v-.93H20.85L22,18.7Zm.49,3.49-.29.93.77.6-1,0-.33.91-.33-.91-1,0,.77-.57-.27-1,.8.57Z"/><path class="cls-1" d="M27,12.19l.3.37.27.39H26.36l.31-.39Zm-1.31,0,.31.39.31.37H25.05l.31-.37Zm.77,30-.38,8.56a1,1,0,0,1-.4,1.85,1,1,0,0,1-.42-1.84l-.35-8.57a3.51,3.51,0,0,1,.8,1.2,3.91,3.91,0,0,1,.61-1.07Zm-3-30.66H28a.29.29,0,0,1,.26.3h0a.28.28,0,0,1-.26.3h-.24v1.44h-4V12.15h-.3a.28.28,0,0,1-.27-.3h0A.29.29,0,0,1,23.42,11.55Zm-.61-1.31H28.7a.49.49,0,0,1,.49.49V11a.49.49,0,0,1-.49.48H22.81a.49.49,0,0,1-.49-.48v-.26A.49.49,0,0,1,22.81,10.24Zm.34-.4H28.2v.33H23.15Zm1.26,2.36.31.38L25,13H23.81l.31-.37ZM14.57,23.75H36.76c0,3.81,0,7.44,0,11.25-.53,4.74-10.09,5-11.09,8-1.18-3-10.83-3.47-11.1-8Z"/><path class="cls-3" d="M32.08,31.78A2.08,2.08,0,0,1,32.92,33a3.3,3.3,0,0,0-.24-1.15A2.22,2.22,0,0,0,32.1,31l0,.72Z"/><polygon class="cls-3" points="28.34 32.92 32.03 31.78 32.02 31.78 32.02 31.77 32.02 31.77 32.02 31.75 32.04 31.03 27.26 32.49 28.29 32.9 28.29 32.9 28.34 32.92"/><path class="cls-3" d="M34.45,31.3v1.35l-.32.37s0-.05,0-.08,0-.09,0-.14a4.29,4.29,0,0,0-.16-.71Z"/><path class="cls-3" d="M33.8,34.44v1.2h0a3.37,3.37,0,0,1-1.06,1.22l-.21-1.07a5.12,5.12,0,0,0,.73-.66,4.1,4.1,0,0,0,.53-.71"/><polygon class="cls-3" points="35 34.07 35 35.22 33.86 35.55 33.85 34.37 35 34.07"/><polygon class="cls-3" points="35 34.04 35 34.04 35 34.05 35 34.04"/><polygon class="cls-3" points="30.52 38.32 29.59 37.62 29.52 36.29 30.5 36.94 30.52 38.29 30.52 38.29 30.52 38.32"/><polygon class="cls-3" points="31.51 37.75 31.52 36.47 32.71 36.92 32.71 36.92 32.71 38.22 31.51 37.76 31.51 37.75"/><polygon class="cls-3" points="30.55 36.94 31.47 36.49 31.46 37.72 31.46 37.72 31.46 37.76 30.57 38.33 30.57 38.3 30.57 38.29 30.57 38.29 30.55 36.94"/><path class="cls-3" d="M26.88,33.85a3.9,3.9,0,0,1-3,.23h0l0-.84v0h0l-.38-.3,0-.79c.3.46,1.27.53,1.73.55a2.46,2.46,0,0,0,1.82-.49v.62l-.23.16h0v.86Z"/><path class="cls-3" d="M30.8,35.7l-3.86-1.85v-.78l4.59,2.11a3.13,3.13,0,0,1-.73.52"/><path class="cls-3" d="M30.28,30.85C28,29.66,25.37,29.38,22,30.61l-1.07-.45a9.8,9.8,0,0,1,1.44-.57,10.59,10.59,0,0,1,1.53-.36,10.93,10.93,0,0,1,7.32,1.34l-.93.28"/><path class="cls-3" d="M20.16,31.46a2.57,2.57,0,0,0-1,2.38h0a2.19,2.19,0,0,1-.25-1.75,3.15,3.15,0,0,1,1.23-1.55Z"/><path class="cls-3" d="M23.51,31.9a.2.2,0,0,0,0,.07l0,.67-.14,0-3.13-1.24h0v-.9l3.3,1.36Z"/><path class="cls-3" d="M23.85,34.06h0l-3.46,1.11,0,0L20,34.88l-.34-.3,4.2-1.31v.79Z"/><path class="cls-3" d="M17.28,33.69v0a7.93,7.93,0,0,0,.57,1,4.64,4.64,0,0,0,.74.84l-.42.7a3.28,3.28,0,0,1-.9-1.37h0Zm-.88.5V33.05l.83.56v1.17Z"/><polygon class="cls-3" points="19.46 37.67 18.23 37.7 18.2 36.27 19.47 36.26 19.46 37.57 19.46 37.57 19.46 37.67"/><polygon class="cls-3" points="20.61 36.93 20.59 38.31 19.51 37.69 19.51 37.58 19.52 36.28 20.61 36.93"/><polygon class="cls-3" points="21.7 35.97 21.6 37.31 20.64 38.3 20.64 38.19 20.67 36.94 21.7 35.97"/><polygon class="cls-3" points="21.7 35.92 21.71 35.92 21.71 35.92 21.7 35.92"/><path class="cls-3" d="M24,31.49a1.15,1.15,0,0,0-.31.18,1.36,1.36,0,0,0-.17.17L20.2,30.47h0a3.17,3.17,0,0,0-1.29,1.61,2.24,2.24,0,0,0,.27,1.8h0l0,0s0,0,0,0l4.11-1.18.19-.05v.25h0l.34.27L19.6,34.54h0l0,0c.12.12.25.23.38.34a3,3,0,0,0,.35.27,6.88,6.88,0,0,0,1.37.72l-1,1-1.14-.68H18.25l.41-.68v0h0a5.18,5.18,0,0,1-.75-.85,6.56,6.56,0,0,1-.6-1l0,0h0L16.42,33l1-.22A6.39,6.39,0,0,1,19,30.47v-.71L20,30c3-1.78,6.47-2.13,10.66-.57l.78-.1v.51a5.29,5.29,0,0,1,1.88,1.43h1.12l-.52.82h0a4.45,4.45,0,0,1,.21,1.41L35,34l-1.15.31h0a4.93,4.93,0,0,1-.58.78,4.52,4.52,0,0,1-.73.65h0v0l.2,1.06-1.17-.45h0l-1,.47-1-.65,1.28-.5a3.07,3.07,0,0,0,.77-.55l0,0,0,0L26.93,33h0l.24-.17h0v-.31h0l1.09.44c1.37.53,2.74,1.07,4.1,1.62A2.75,2.75,0,0,0,33,33.12,2.8,2.8,0,0,0,32.1,31l-.05,0-4.88,1.51h0c0-.2,0-.41,0-.62h0l3.09-.93,1-.31,0,0,0,0a11,11,0,0,0-7.4-1.37,10.29,10.29,0,0,0-1.53.36,10.61,10.61,0,0,0-1.5.59h0l-.05,0,.05,0c1.05.45,2.11.87,3.17,1.31"/><path class="cls-3" d="M23.45,44.35c0-.52-.22-.8-.51-.82C15.88,43.22,13,44,7.14,46.2a.53.53,0,0,0-.33.63l.29.75L3.69,49.07l3,.31L4.92,52.07l6.69-3a.4.4,0,0,0,.14-.58l-.28-.61a24.72,24.72,0,0,1,8.9-1.58l.47,1.18c.11.17.13.17.32.18a21.36,21.36,0,0,1,9,0c.18,0,.21,0,.32-.18L31,46.35a24.94,24.94,0,0,1,8.9,1.58l-.28.61a.41.41,0,0,0,.14.58l6.69,3L44.67,49.4l3-.31L44.26,47.6l.28-.75a.53.53,0,0,0-.33-.63c-5.85-2.17-8.72-3-15.79-2.66-.24,0-.54.3-.51.82a31.64,31.64,0,0,0-4.46,0"/><path class="cls-3" d="M25.38,32.62c1,0,1.77-.29,1.74-.65s-.82-.64-1.81-.64-1.73.3-1.75.64.78.62,1.82.65"/><path class="cls-1" d="M24.31,31.81a2.23,2.23,0,0,1,.94-.15c.56,0,1,.1,1,.23s-.46.24-1,.24-1-.11-1-.24,0-.05.07-.08"/><path class="cls-10" d="M29.49,44.38h.33l.17,0a.2.2,0,0,1,.13.09.26.26,0,0,1,.07.15.57.57,0,0,1,0,.23.65.65,0,0,1,0,.21.71.71,0,0,1-.11.17.33.33,0,0,1-.13.07.44.44,0,0,1-.17,0h-.34Zm.17.16-.05.64h.24l.08,0A.19.19,0,0,0,30,45a.6.6,0,0,0,0-.18.81.81,0,0,0,0-.17.19.19,0,0,0,0-.09.14.14,0,0,0-.08-.05h-.23Zm.66.79.08-1h.66v.16h-.49v.22H31l0,.17h-.45l0,.26H31v.16Zm1.53-.3H32a.2.2,0,0,0,0,.14.17.17,0,0,0,.13,0,.25.25,0,0,0,.13,0,.24.24,0,0,0,.06-.09.13.13,0,0,0,0-.06s0,0-.06,0l-.14-.05a.41.41,0,0,1-.19-.1.25.25,0,0,1-.06-.2A.35.35,0,0,1,32,44.5a.27.27,0,0,1,.12-.09.37.37,0,0,1,.18,0,.3.3,0,0,1,.25.09.28.28,0,0,1,.06.22h-.18a.23.23,0,0,0,0-.11.12.12,0,0,0-.11,0,.19.19,0,0,0-.13,0,.05.05,0,0,0,0,.05,0,0,0,0,0,0,.06s.07.05.15.08a.71.71,0,0,1,.19.08.2.2,0,0,1,.08.1.27.27,0,0,1,0,.16.34.34,0,0,1-.07.15.22.22,0,0,1-.13.1.56.56,0,0,1-.2,0,.38.38,0,0,1-.25-.1A.4.4,0,0,1,31.85,45Zm1.62.43-.19,0-.05-.22-.35,0-.11.22-.19,0,.49-.94.19,0Zm-.27-.41-.07-.36L33,45Zm.37.41.16-1,.18,0,.25.67.11-.64.16,0-.15,1-.18,0-.26-.66-.1.63Zm1.09.12.16-.8-.26,0,0-.17.7.1,0,.16-.26,0-.15.8Zm1.25.17-.19,0,0-.23-.35-.05-.12.2-.19,0,.55-.91.19,0Zm-.24-.43L35.62,45l-.19.34Zm1.61.32.15.1a.46.46,0,0,1-.19.2A.35.35,0,0,1,37,46a.36.36,0,0,1-.24-.19.49.49,0,0,1,0-.38.56.56,0,0,1,.21-.34.36.36,0,0,1,.32-.07.29.29,0,0,1,.23.16.33.33,0,0,1,0,.19h-.19a.18.18,0,0,0,0-.13.16.16,0,0,0-.11-.07.21.21,0,0,0-.17,0,.39.39,0,0,0-.13.23.5.5,0,0,0,0,.27.18.18,0,0,0,.14.11.2.2,0,0,0,.13,0A.33.33,0,0,0,37.28,45.64Zm1,.62-.18,0V46l-.35-.08-.13.19-.18,0,.61-.86.18,0Zm-.2-.46,0-.38-.22.32Zm.41.49.24-.77-.25-.07.05-.16.68.18-.05.16-.26-.07-.24.78Zm1.2.34-.19-.05v-.23l-.34-.1-.14.19-.18-.06.64-.83.18.05Zm-.2-.46v-.38l-.23.32Zm.29.49.34-.92.35.12a.67.67,0,0,1,.19.09.23.23,0,0,1,.06.12.31.31,0,0,1,0,.16.23.23,0,0,1-.12.15.29.29,0,0,1-.19,0,.3.3,0,0,1,.06.11,1,1,0,0,1,0,.18l0,.21-.2-.06,0-.24a1.47,1.47,0,0,0,0-.17l0-.06-.08,0,0,0-.14.39Zm.36-.47.13,0,.15,0,.06,0a.1.1,0,0,0,.05-.06.11.11,0,0,0,0-.08s0-.05-.05-.06l-.12,0-.13,0Zm.48.74L41,46l.16.06-.34.92Zm.32.12.36-.91.16,0,.1.74.24-.61.15,0-.35.92-.17-.06-.1-.72-.23.6Zm1.57.59-.18-.07,0-.24L42,47.21l-.15.18-.18-.07.69-.79.17.07Zm-.15-.48,0-.38-.25.29Z"/><path class="cls-11" d="M29.49,44.38h.33l.17,0a.2.2,0,0,1,.13.09.26.26,0,0,1,.07.15.57.57,0,0,1,0,.23.65.65,0,0,1,0,.21.71.71,0,0,1-.11.17.33.33,0,0,1-.13.07.44.44,0,0,1-.17,0h-.34Zm.17.16-.05.64h.24l.08,0A.19.19,0,0,0,30,45a.6.6,0,0,0,0-.18.81.81,0,0,0,0-.17.19.19,0,0,0,0-.09.14.14,0,0,0-.08-.05h-.23Zm.66.79.08-1h.66v.16h-.49v.22H31l0,.17h-.45l0,.26H31v.16Zm1.53-.3H32a.2.2,0,0,0,0,.14.17.17,0,0,0,.13,0,.25.25,0,0,0,.13,0,.24.24,0,0,0,.06-.09.13.13,0,0,0,0-.06s0,0-.06,0l-.14-.05a.41.41,0,0,1-.19-.1.25.25,0,0,1-.06-.2A.35.35,0,0,1,32,44.5a.27.27,0,0,1,.12-.09.37.37,0,0,1,.18,0,.3.3,0,0,1,.25.09.28.28,0,0,1,.06.22h-.18a.23.23,0,0,0,0-.11.12.12,0,0,0-.11,0,.19.19,0,0,0-.13,0,.05.05,0,0,0,0,.05,0,0,0,0,0,0,.06s.07.05.15.08a.71.71,0,0,1,.19.08.2.2,0,0,1,.08.1.27.27,0,0,1,0,.16.34.34,0,0,1-.07.15.22.22,0,0,1-.13.1.56.56,0,0,1-.2,0,.38.38,0,0,1-.25-.1A.4.4,0,0,1,31.85,45Zm1.62.43-.19,0-.05-.22-.35,0-.11.22-.19,0,.49-.94.19,0Zm-.27-.41-.07-.36L33,45Zm.37.41.16-1,.18,0,.25.67.11-.64.16,0-.15,1-.18,0-.26-.66-.1.63Zm1.09.12.16-.8-.26,0,0-.17.7.1,0,.16-.26,0-.15.8Zm1.25.17-.19,0,0-.23-.35-.05-.12.2-.19,0,.55-.91.19,0Zm-.24-.43L35.62,45l-.19.34Zm1.61.32.15.1a.46.46,0,0,1-.19.2A.35.35,0,0,1,37,46a.36.36,0,0,1-.24-.19.49.49,0,0,1,0-.38.56.56,0,0,1,.21-.34.36.36,0,0,1,.32-.07.29.29,0,0,1,.23.16.33.33,0,0,1,0,.19h-.19a.18.18,0,0,0,0-.13.16.16,0,0,0-.11-.07.21.21,0,0,0-.17,0,.39.39,0,0,0-.13.23.5.5,0,0,0,0,.27.18.18,0,0,0,.14.11.2.2,0,0,0,.13,0A.33.33,0,0,0,37.28,45.64Zm1,.62-.18,0V46l-.35-.08-.13.19-.18,0,.61-.86.18,0Zm-.2-.46,0-.38-.22.32Zm.41.49.24-.77-.25-.07.05-.16.68.18-.05.16-.26-.07-.24.78Zm1.2.34-.19-.05v-.23l-.34-.1-.14.19-.18-.06.64-.83.18.05Zm-.2-.46v-.38l-.23.32Zm.29.49.34-.92.35.12a.67.67,0,0,1,.19.09.23.23,0,0,1,.06.12.31.31,0,0,1,0,.16.23.23,0,0,1-.12.15.29.29,0,0,1-.19,0,.3.3,0,0,1,.06.11,1,1,0,0,1,0,.18l0,.21-.2-.06,0-.24a1.47,1.47,0,0,0,0-.17l0-.06-.08,0,0,0-.14.39Zm.36-.47.13,0,.15,0,.06,0a.1.1,0,0,0,.05-.06.11.11,0,0,0,0-.08s0-.05-.05-.06l-.12,0-.13,0Zm.48.74L41,46l.16.06-.34.92Zm.32.12.36-.91.16,0,.1.74.24-.61.15,0-.35.92-.17-.06-.1-.72-.23.6Zm1.57.59-.18-.07,0-.24L42,47.21l-.15.18-.18-.07.69-.79.17.07Zm-.15-.48,0-.38-.25.29Z"/><path class="cls-10" d="M17.4,45.4l-.07-1,.6,0,0,.17-.43,0,0,.23.36,0,0,.17-.37,0,0,.41Zm.75,0-.06-1,.65,0v.16l-.48,0,0,.22.44,0v.16l-.44,0v.27l.5,0v.16Zm.79-1h.33l.17,0a.2.2,0,0,1,.13.09.38.38,0,0,1,.09.15.53.53,0,0,1,0,.23.68.68,0,0,1,0,.21.51.51,0,0,1-.09.18.36.36,0,0,1-.12.08l-.16,0H19Zm.19.16,0,.65h.24a.18.18,0,0,0,.07,0,.19.19,0,0,0,0-.09.9.9,0,0,0,0-.18,1.64,1.64,0,0,0,0-.18.19.19,0,0,0,0-.09.13.13,0,0,0-.09,0h-.22Zm.74.8,0-1h.66v.16H20v.22h.44v.16H20v.27h.5v.16Zm.82,0v-1h.38a.79.79,0,0,1,.21,0,.19.19,0,0,1,.1.1.26.26,0,0,1,0,.15.24.24,0,0,1-.06.18.26.26,0,0,1-.17.09l.09.09a.64.64,0,0,1,.1.16l.11.19h-.21l-.13-.22-.1-.15a.1.1,0,0,0-.05,0h-.13v.41Zm.18-.57h.3a.1.1,0,0,0,0,0,.19.19,0,0,0,0-.08.11.11,0,0,0,0-.08s0,0-.07,0h-.27Zm1.52.61h-.2l-.07-.23h-.35l-.08.22H21.5l.36-1h.19Zm-.32-.4L22,44.54l-.13.35Zm.42.42v-1h.18v.81l.45,0v.16ZM7.71,46.91l.17-.07.16.5.06.16a.27.27,0,0,0,.08.07.17.17,0,0,0,.12,0,.16.16,0,0,0,.1-.08.15.15,0,0,0,0-.09.9.9,0,0,0-.05-.16l-.17-.51.17-.07.16.49a1.67,1.67,0,0,1,.07.24.27.27,0,0,1,0,.13.25.25,0,0,1-.07.12.49.49,0,0,1-.15.09.54.54,0,0,1-.19,0,.29.29,0,0,1-.13,0L8,47.63a2.23,2.23,0,0,1-.09-.23Zm1.14.6-.29-.93.16-.06.54.49-.19-.62.15-.06.29.94-.17.06-.52-.49.19.61Zm.84-.31-.29-.94.17-.06.29.93Zm.54-.21-.58-.83.19-.06.41.62V46l.18-.06,0,1Zm.57-.19-.24-.95.63-.19,0,.16-.46.14.05.21.43-.13,0,.16-.42.13.06.25.48-.14,0,.16Zm.79-.25-.23-.95.37-.1.2,0a.23.23,0,0,1,.12.06.39.39,0,0,1,.08.14.33.33,0,0,1,0,.2A.25.25,0,0,1,12,46a.33.33,0,0,1,.12,0l.13.13.15.16-.2.06L12,46.22l-.12-.11-.07,0-.09,0h0l.09.39Zm0-.59.13,0,.15-.05,0-.06a.09.09,0,0,0,0-.07.15.15,0,0,0,0-.08.08.08,0,0,0-.07,0l-.13,0-.14,0Zm.72,0,.16-.06a.25.25,0,0,0,.1.12.14.14,0,0,0,.13,0,.15.15,0,0,0,.12-.07.12.12,0,0,0,0-.1.05.05,0,0,0,0,0,.09.09,0,0,0-.07,0h-.15a.43.43,0,0,1-.22,0,.3.3,0,0,1-.12-.17.26.26,0,0,1,0-.15.2.2,0,0,1,.08-.12l.16-.08a.35.35,0,0,1,.27,0,.3.3,0,0,1,.13.19l-.17.05c0-.05,0-.08-.07-.09a.16.16,0,0,0-.12,0,.23.23,0,0,0-.11.07.07.07,0,0,0,0,.06.07.07,0,0,0,0,.05.36.36,0,0,0,.18,0,.56.56,0,0,1,.2,0,.29.29,0,0,1,.12.07.3.3,0,0,1,.06.14.33.33,0,0,1,0,.17.3.3,0,0,1-.09.13.51.51,0,0,1-.18.09.4.4,0,0,1-.27,0A.38.38,0,0,1,12.35,46Zm.91.1-.2-1,.17,0,.2,1Zm.15-1,.32-.07a.52.52,0,0,1,.17,0,.24.24,0,0,1,.15.06.47.47,0,0,1,.11.13.9.9,0,0,1,.07.23.5.5,0,0,1,0,.21.33.33,0,0,1-.06.19.47.47,0,0,1-.1.1.5.5,0,0,1-.16.05L13.6,46Zm.21.13.12.63.13,0,.1,0a.18.18,0,0,0,.07-.05.62.62,0,0,0,0-.1,1.41,1.41,0,0,0,0-.18.91.91,0,0,0-.05-.17s0-.07-.07-.08a.12.12,0,0,0-.09,0,.49.49,0,0,0-.14,0Zm1.63.5-.19,0L15,45.52l-.35.06,0,.24-.18,0,.18-1,.19,0Zm-.38-.33L14.69,45l-.06.38Zm.35-.67.33,0h.17a.27.27,0,0,1,.14.07.4.4,0,0,1,.11.14,1.14,1.14,0,0,1,0,.23.74.74,0,0,1,0,.21.37.37,0,0,1-.18.28l-.16,0-.33,0Zm.2.14.08.65.14,0,.1,0,.07-.05a.17.17,0,0,0,0-.1.54.54,0,0,0,0-.18.6.6,0,0,0,0-.18l-.06-.08-.09,0h-.23Zm.81.69-.09-1,.65-.07,0,.17-.48,0,0,.22.45,0V45l-.44,0,0,.27.5-.05v.17Z"/><path class="cls-11" d="M17.4,45.4l-.07-1,.6,0,0,.17-.43,0,0,.23.36,0,0,.17-.37,0,0,.41Zm.75,0-.06-1,.65,0v.16l-.48,0,0,.22.44,0v.16l-.44,0v.27l.5,0v.16Zm.79-1h.33l.17,0a.2.2,0,0,1,.13.09.38.38,0,0,1,.09.15.53.53,0,0,1,0,.23.68.68,0,0,1,0,.21.51.51,0,0,1-.09.18.36.36,0,0,1-.12.08l-.16,0H19Zm.19.16,0,.65h.24a.18.18,0,0,0,.07,0,.19.19,0,0,0,0-.09.9.9,0,0,0,0-.18,1.64,1.64,0,0,0,0-.18.19.19,0,0,0,0-.09.13.13,0,0,0-.09,0h-.22Zm.74.8,0-1h.66v.16H20v.22h.44v.16H20v.27h.5v.16Zm.82,0v-1h.38a.79.79,0,0,1,.21,0,.19.19,0,0,1,.1.1.26.26,0,0,1,0,.15.24.24,0,0,1-.06.18.26.26,0,0,1-.17.09l.09.09a.64.64,0,0,1,.1.16l.11.19h-.21l-.13-.22-.1-.15a.1.1,0,0,0-.05,0h-.13v.41Zm.18-.57h.3a.1.1,0,0,0,0,0,.19.19,0,0,0,0-.08.11.11,0,0,0,0-.08s0,0-.07,0h-.27Zm1.52.61h-.2l-.07-.23h-.35l-.08.22H21.5l.36-1h.19Zm-.32-.4L22,44.54l-.13.35Zm.42.42v-1h.18v.81l.45,0v.16ZM7.71,46.91l.17-.07.16.5.06.16a.27.27,0,0,0,.08.07.17.17,0,0,0,.12,0,.16.16,0,0,0,.1-.08.15.15,0,0,0,0-.09.9.9,0,0,0-.05-.16l-.17-.51.17-.07.16.49a1.67,1.67,0,0,1,.07.24.27.27,0,0,1,0,.13.25.25,0,0,1-.07.12.49.49,0,0,1-.15.09.54.54,0,0,1-.19,0,.29.29,0,0,1-.13,0L8,47.63a2.23,2.23,0,0,1-.09-.23Zm1.14.6-.29-.93.16-.06.54.49-.19-.62.15-.06.29.94-.17.06-.52-.49.19.61Zm.84-.31-.29-.94.17-.06.29.93Zm.54-.21-.58-.83.19-.06.41.62V46l.18-.06,0,1Zm.57-.19-.24-.95.63-.19,0,.16-.46.14.05.21.43-.13,0,.16-.42.13.06.25.48-.14,0,.16Zm.79-.25-.23-.95.37-.1.2,0a.23.23,0,0,1,.12.06.39.39,0,0,1,.08.14.33.33,0,0,1,0,.2A.25.25,0,0,1,12,46a.33.33,0,0,1,.12,0l.13.13.15.16-.2.06L12,46.22l-.12-.11-.07,0-.09,0h0l.09.39Zm0-.59.13,0,.15-.05,0-.06a.09.09,0,0,0,0-.07.15.15,0,0,0,0-.08.08.08,0,0,0-.07,0l-.13,0-.14,0Zm.72,0,.16-.06a.25.25,0,0,0,.1.12.14.14,0,0,0,.13,0,.15.15,0,0,0,.12-.07.12.12,0,0,0,0-.1.05.05,0,0,0,0,0,.09.09,0,0,0-.07,0h-.15a.43.43,0,0,1-.22,0,.3.3,0,0,1-.12-.17.26.26,0,0,1,0-.15.2.2,0,0,1,.08-.12l.16-.08a.35.35,0,0,1,.27,0,.3.3,0,0,1,.13.19l-.17.05c0-.05,0-.08-.07-.09a.16.16,0,0,0-.12,0,.23.23,0,0,0-.11.07.07.07,0,0,0,0,.06.07.07,0,0,0,0,.05.36.36,0,0,0,.18,0,.56.56,0,0,1,.2,0,.29.29,0,0,1,.12.07.3.3,0,0,1,.06.14.33.33,0,0,1,0,.17.3.3,0,0,1-.09.13.51.51,0,0,1-.18.09.4.4,0,0,1-.27,0A.38.38,0,0,1,12.35,46Zm.91.1-.2-1,.17,0,.2,1Zm.15-1,.32-.07a.52.52,0,0,1,.17,0,.24.24,0,0,1,.15.06.47.47,0,0,1,.11.13.9.9,0,0,1,.07.23.5.5,0,0,1,0,.21.33.33,0,0,1-.06.19.47.47,0,0,1-.1.1.5.5,0,0,1-.16.05L13.6,46Zm.21.13.12.63.13,0,.1,0a.18.18,0,0,0,.07-.05.62.62,0,0,0,0-.1,1.41,1.41,0,0,0,0-.18.91.91,0,0,0-.05-.17s0-.07-.07-.08a.12.12,0,0,0-.09,0,.49.49,0,0,0-.14,0Zm1.63.5-.19,0L15,45.52l-.35.06,0,.24-.18,0,.18-1,.19,0Zm-.38-.33L14.69,45l-.06.38Zm.35-.67.33,0h.17a.27.27,0,0,1,.14.07.4.4,0,0,1,.11.14,1.14,1.14,0,0,1,0,.23.74.74,0,0,1,0,.21.37.37,0,0,1-.18.28l-.16,0-.33,0Zm.2.14.08.65.14,0,.1,0,.07-.05a.17.17,0,0,0,0-.1.54.54,0,0,0,0-.18.6.6,0,0,0,0-.18l-.06-.08-.09,0h-.23Zm.81.69-.09-1,.65-.07,0,.17-.48,0,0,.22.45,0V45l-.44,0,0,.27.5-.05v.17Z"/><path class="cls-3" d="M9.16,19.54a.28.28,0,0,0-.15.21c0,.07,0,.19-.16.19s-.31-.07-.46-.12a1.05,1.05,0,0,1-.26-.13.44.44,0,0,1-.12-.4A.31.31,0,0,0,7.77,19a3.85,3.85,0,0,1-.66-.13.5.5,0,0,1-.29-.24,1.1,1.1,0,0,1-.08-.47,3.29,3.29,0,0,0-.09-.43,3.79,3.79,0,0,0-.18-.42c0-.14,0-.22.06-.18a5,5,0,0,1,2,1.72c.17.19.46.55.59.68m-.39,3.13h0a.29.29,0,0,0-.17.23c0,.17-.06.22-.18.21a1.13,1.13,0,0,0-.5-.13.5.5,0,0,1-.27-.14c-.08-.11-.08-.32-.13-.44a.57.57,0,0,0-.27-.3A3.11,3.11,0,0,0,6.5,22a.38.38,0,0,1-.33-.25c0-.09-.06-.32-.08-.52a2.31,2.31,0,0,0-.29-.92c-.07-.15,0-.22.06-.2A5.34,5.34,0,0,1,8.17,22c.19.24.38.48.59.7Zm19,24.65c1.29.85,2.17,2.11,2.58,4.66.31,0,.7-.41,1-.41a5.64,5.64,0,0,0-2.42-4.1C28.53,47.41,28.14,47.36,27.76,47.32ZM41.64,19.71c1-2.51,1.94-1.35,2.77-2a3.16,3.16,0,0,1-1.77,1.47A2.68,2.68,0,0,0,41.64,19.71Zm2.79-1.93c-.52,1.74-.69,2.55-2.67,2.11l-.14,0a2.62,2.62,0,0,1,1.05-.62A3.09,3.09,0,0,0,44.43,17.78Zm.06-.19,0,.13v-.07Zm-3.4,2.18c-1.23-2.38-2.11-1.39-3-1.76l-.15-.07a16.35,16.35,0,0,0,2,1.18A11.83,11.83,0,0,1,41.09,19.77Zm-3.3-1.93c.83,1.93,1,2.84,3.31,2.07l0,0,0-.06A11.25,11.25,0,0,0,40,19.2a15.74,15.74,0,0,1-2.15-1.28h0l0-.06Zm3.75,4.88c-1.3-2.55-2.22-1.31-3.16-1.86a5.19,5.19,0,0,0,2.43,1.55A5,5,0,0,1,41.54,22.72Zm-3.31-2c.83,1.94,1,2.85,3.36,2v0a6.68,6.68,0,0,0-.73-.31,5.2,5.2,0,0,1-2.53-1.65Zm.4,6.26c.83,1.94,1,2.85,3.34,2.06a3.71,3.71,0,0,0-.89-.39,4.9,4.9,0,0,1-2.41-1.61v0A4.75,4.75,0,0,0,41,28.61,4.1,4.1,0,0,1,42,29C40.59,26.28,39.64,27.83,38.63,27ZM41.76,32c-1.29-2.51-2.2-1.31-3.13-1.83a3.72,3.72,0,0,0,2.09,1.3A2.18,2.18,0,0,1,41.76,32ZM38.45,30c.83,1.94,1,2.85,3.35,2.06a1.84,1.84,0,0,0-1-.56,3.85,3.85,0,0,1-2.16-1.38h0Zm3,4.83h0c-1.26-2.53-2.16-1.51-3.06-1.88a3.93,3.93,0,0,0,1.92,1.16C40.83,34.28,41.25,34.42,41.46,34.83Zm-3.35-2.06c.82,1.93,1,2.84,3.31,2.07-.19-.37-.57-.49-1.05-.65a4.07,4.07,0,0,1-2-1.26A1.17,1.17,0,0,1,38.11,32.77ZM22.67,47.42a5.79,5.79,0,0,0-2.39,4.06c.3,0,.78.5,1.09.5.48-2.64,1.33-4,2.52-4.7C23.48,47.32,23.08,47.36,22.67,47.42Zm18-9.67h0a16.2,16.2,0,0,1-4,6.21l.71.14c5.9-6.4,5.28-13.83,4-24.5,0-.19-.24-1.6-.31-1.91s-.1-.37-.13-.47c1.38-1.68.69-2.18-.72-3.44a3.15,3.15,0,0,1,.73,2.54c0,.23,0,.5-.05.82l0-.05c0-.31,0-.55.05-.77a3.23,3.23,0,0,0-.81-2.63l0,0c.41,1.15-1.34,1.5.74,3.6v.1c.39,2.93.79,5.87,1,8.74-1.33-2.64-2.26-1.28-3.24-1.93A4.94,4.94,0,0,0,41,25.67a3.38,3.38,0,0,1,1,.48,28.65,28.65,0,0,1-1.17,11.58c-1.3-2.6-2.2-1.26-3.13-1.9A4.77,4.77,0,0,0,40,37.4,2.26,2.26,0,0,1,40.71,37.75Zm-3.16-2c.79,1.84,1,2.71,3.13,2a2.52,2.52,0,0,0-.65-.29,4.81,4.81,0,0,1-2.46-1.67h0ZM39.42,40c-1.07-2.53-2.05-1.31-2.93-2a3.41,3.41,0,0,0,1.92,1.4A2,2,0,0,1,39.42,40Zm-3-2.07c.65,1.91.78,2.79,3,2.2l0,0a1.91,1.91,0,0,0-1-.61,3.51,3.51,0,0,1-2-1.51h0Zm5.51-15.18c1.16-2.8,2.19-1.49,3.12-2.2A4.73,4.73,0,0,1,43,22.14,3.81,3.81,0,0,0,41.93,22.76Zm3.21-2.28v0c-.64,1.86-.81,2.77-2.82,2.34L42,22.77a4.24,4.24,0,0,1,1-.55,4.76,4.76,0,0,0,2.18-1.7h0v0ZM42.25,26c1.17-2.84,2.22-1.43,3.16-2.23a4.53,4.53,0,0,1-2.17,1.67A3.93,3.93,0,0,0,42.25,26Zm3.2-2.27c-.69,2-.83,2.91-3.17,2.29a4.41,4.41,0,0,1,.92-.5,4.67,4.67,0,0,0,2.22-1.72v0Zm-3,5.44c1.23-2.95,2.32-1.53,3.31-2.32a5.83,5.83,0,0,1-2.64,2C42.89,28.94,42.66,29,42.47,29.15Zm3.38-2.38c-.73,2.1-.88,3.08-3.35,2.42l.6-.29a6,6,0,0,0,2.72-2.09h0Zm.08,3C45.16,32,45,33,42.43,32.34c.17-.09.36-.17.56-.26a6.17,6.17,0,0,0,2.91-2.24v0A6,6,0,0,1,43,32c-.25.11-.48.22-.68.33h0C43.68,29.08,44.86,30.75,45.93,29.77ZM42,35.18h0c1.63-2.8,2.52-1.2,3.61-1.89a5.84,5.84,0,0,1-3,1.71Zm3.66-1.93,0,0v0c-1,1.91-1.26,2.83-3.55,1.89l.45-.13a5.9,5.9,0,0,0,3.09-1.76v0h0ZM41.25,38c1.84-2.6,2.57-.93,3.71-1.53a5.27,5.27,0,0,1-3,1.38C41.7,37.87,41.46,37.91,41.25,38ZM45,36.42c-1.15,1.83-1.5,2.73-3.7,1.59.18,0,.38-.08.58-.12A5.32,5.32,0,0,0,45,36.47v0Zm-4.73,4.12,0,0c2.58-2,2.8-.15,4.08-.38a5,5,0,0,1-3,.45A3.77,3.77,0,0,0,40.27,40.54Zm4.11-.43c-1.67,1.44-2.29,2.21-4.07.46a4.54,4.54,0,0,1,.88,0,5.12,5.12,0,0,0,3.12-.47v0Zm-5.78-16c.83,1.93,1,2.84,3.32,2.07a4.15,4.15,0,0,0-.92-.44,4.93,4.93,0,0,1-2.36-1.6h0ZM26.64,34l1.79,3.46-.16.28-1.83-3.66Zm-8.93-8.61,0-.16h.18a1.57,1.57,0,0,1,.08.29l.13.06A1.23,1.23,0,0,1,18,25.2h.11a1.7,1.7,0,0,1,.18.46l.1.06a1.29,1.29,0,0,1-.06-.37h.11a1.76,1.76,0,0,1,.18.47l0,0a1.17,1.17,0,0,1-.06-.35h.12a1.84,1.84,0,0,1,.18.47l0,0a1.29,1.29,0,0,1-.06-.37H19a2.17,2.17,0,0,1,.19.49l0,0,0-.44s0-.06.07-.06a1.43,1.43,0,0,1,.21.62l.07,0-.12-.5h.13a1.26,1.26,0,0,1,.2.6l0,0-.13-.59h.15a1.83,1.83,0,0,1,.22.72h0L19.94,26h.13a1.8,1.8,0,0,1,.19.66l0,0-.11-.63h.12a2.09,2.09,0,0,1,.2.73l-.2-.1.26.15-.11-.61h.13a2,2,0,0,1,.2.73l0,0-.14-.69h.15a2.19,2.19,0,0,1,.23.84l.07,0L21,26.43h.15a2.57,2.57,0,0,1,.25.9h0v-.81l.16,0a2.54,2.54,0,0,1,.09.95h0l.12-.84.16.06a2.45,2.45,0,0,1-.06.93l0,0,.13-.83.15.06a2.45,2.45,0,0,1-.06.93l0,0,.12-.79.15.05a2.29,2.29,0,0,1-.05.9l.06.05.11-.76.15.05a2.18,2.18,0,0,1-.05.88l.05.05.12-.77.15.05a2.34,2.34,0,0,1-.05.91l0,0,.12-.74.15,0a2.25,2.25,0,0,1-.05.89l0,0,.09-.62.14,0a2,2,0,0,1,0,.77h0l.1-.62.14.05a2.25,2.25,0,0,1,0,.77l0,0,.1-.62.14.05a2.14,2.14,0,0,1,0,.79v0l.1-.59.14.05a2.25,2.25,0,0,1,0,.77l0,0,.08-.55.14.05a2,2,0,0,1,0,.73l0,.05.09-.56.14.05a1.89,1.89,0,0,1-.05.74h0l.08-.5.14,0a1.7,1.7,0,0,1,0,.7l0,0,.08-.51s.11.13.15.15a1.33,1.33,0,0,1-.05.62l0,0,.16-.49c.05,0,.06.07.1.09a1.57,1.57,0,0,1-.1.63l0,.05.08-.47c.09.06.13.22.18.24v0s0,0,0,0,.09-.18.18-.24l.07.47,0-.05a1.58,1.58,0,0,1-.11-.63c.05,0,.06-.07.11-.09l.16.49,0,0a1.34,1.34,0,0,1-.06-.62s.11-.13.16-.15l.08.51,0,0a1.7,1.7,0,0,1,0-.7l.14,0,.08.5h0a1.72,1.72,0,0,1,0-.74l.14-.05.09.56,0-.05a2,2,0,0,1,0-.73l.14-.05.08.55,0,0a2,2,0,0,1,0-.77l.14-.05.1.59v0a2.14,2.14,0,0,1,0-.79l.14-.05.1.62,0,0a1.84,1.84,0,0,1,0-.77l.14-.05.1.62h0a1.85,1.85,0,0,1,0-.77l.14,0,.1.62,0,0a2.45,2.45,0,0,1,0-.89l.15,0,.11.74,0,0a2.34,2.34,0,0,1,0-.91l.15-.05.12.77,0-.05a2.18,2.18,0,0,1,0-.88l.15-.05.11.76.06-.05a2.29,2.29,0,0,1-.05-.9l.15-.05.12.79,0,0a2.45,2.45,0,0,1-.06-.93l.15-.06.12.83,0,0a2.45,2.45,0,0,1-.06-.93l.15-.06.13.84h0a2.77,2.77,0,0,1,.1-.95l.16,0v.81h0a2.38,2.38,0,0,1,.25-.9h.15l-.14.74.06,0a2.38,2.38,0,0,1,.23-.84H30L29.9,27l0,0a2,2,0,0,1,.2-.73h.13l-.12.61.07-.05a1.9,1.9,0,0,1,.2-.73h.12l-.12.63.05,0a1.8,1.8,0,0,1,.19-.66h.12l-.1.55h0a1.83,1.83,0,0,1,.22-.72h.14l-.12.59,0,0a1.4,1.4,0,0,1,.21-.6h.13l-.12.5.13-.07c.05-.2.1-.4.14-.59,0,0,0,.06.08.06l0,.44,0,0a2.36,2.36,0,0,1,.2-.51h.13a1.62,1.62,0,0,1-.09.4l.09,0a1.69,1.69,0,0,1,.14-.48h.12a1.46,1.46,0,0,1-.09.39.2.2,0,0,0,.1-.07c0-.08,0-.17.14-.44h.12a1.33,1.33,0,0,1-.07.37l.11-.06a1.7,1.7,0,0,1,.18-.46h.11a1.69,1.69,0,0,1-.06.36l.12-.06a1.61,1.61,0,0,1,.09-.29H33a.69.69,0,0,1,0,.13.93.93,0,0,1,.1-.05l0,0-.06,0,.21.16-.05.06L33,25.42l-.06,0a.57.57,0,0,1,.18.16l-.05.05-.24-.15-.06,0a.83.83,0,0,1,.19.16l0,.06-.25-.15-.06,0a.57.57,0,0,1,.18.16l0,.05-.26-.16,0,0a.94.94,0,0,1,.23.2l-.06.07-.32-.19,0,0a1.18,1.18,0,0,1,.26.21l-.07.07-.34-.2-.05,0,.32.26-.08.08L31.87,26l-.08,0a1.7,1.7,0,0,1,.43.31l-.1.1-.5-.32-.05,0a1.59,1.59,0,0,1,.38.32l-.1.1-.49-.3,0,0c.23.14.28.26.5.42l-.15,0-.58-.32h0c.21.13.26.25.47.4l-.15,0L31,26.67a3.39,3.39,0,0,0,.33.3l-.15,0-.55-.3-.05,0a4.49,4.49,0,0,1,.52.37l-.13.07-.6-.31h0a4.15,4.15,0,0,1,.61.45l-.16.09L30.13,27l-.06,0a7.09,7.09,0,0,1,.61.44l-.16.09-.68-.39,0,0a8.06,8.06,0,0,1,.67.46l-.17.1-.76-.38h0a5.73,5.73,0,0,1,.63.45L30,28l-.72-.37h0a7.27,7.27,0,0,1,.79.53l-.19.11-.66-.34c.18.12.31.24.54.39l-.19.1-.41-.21c.11.07.21.14.36.22l-.18.11L29,28.36l.35.22-.18.11-.83-.35h0a7.43,7.43,0,0,1,.76.44l-.18.11-.81-.34h0a7.43,7.43,0,0,1,.76.44l-.18.11-.81-.34,0,0a6.08,6.08,0,0,1,.77.38l-.18.12L27.58,29l0,0a4.41,4.41,0,0,1,.83.26l-.17.13-.64-.14c.14.05.25.11.45.2l-.14.15-.72-.2-.05.05a4.72,4.72,0,0,1,.87.3l-.17.13L27,29.78a3.46,3.46,0,0,1,.65.27l-.14.14L26.71,30a2.86,2.86,0,0,1,.69.28l-.14.14-.77-.19,0,0a2.93,2.93,0,0,1,.7.28L27,30.7l-.74-.18h0a2.06,2.06,0,0,1,.64.26l-.15.13-.36-.09a1.06,1.06,0,0,1,.28.16l-.13.12L26,31l0,0L26,31a1.59,1.59,0,0,1,.55.25l-.13.12-.57-.15v0a1.64,1.64,0,0,1,.56.25l-.13.12-.58-.15c0,.08-.09.15-.14.23l.26.42-.29,0-.11-.2-.12.2a1.51,1.51,0,0,1-.3,0l.27-.44c0-.08-.09-.15-.14-.23l-.58.15-.12-.12a1.56,1.56,0,0,1,.56-.25v0l-.58.15-.12-.12a1.59,1.59,0,0,1,.55-.25l0-.05v0l-.59.15L24,31a1.22,1.22,0,0,1,.27-.16l-.36.09-.15-.13a2.21,2.21,0,0,1,.65-.26h0l-.74.18-.14-.14a2.77,2.77,0,0,1,.7-.28l0,0-.77.19-.14-.14A3,3,0,0,1,24,30l-.75.18-.14-.14a3.46,3.46,0,0,1,.65-.27l-.84.18-.16-.13a4.62,4.62,0,0,1,.86-.3l0-.05-.72.2-.14-.15c.19-.09.31-.15.45-.2l-.65.14-.16-.13a4.2,4.2,0,0,1,.83-.26l-.05,0-.83.27-.18-.12a5.49,5.49,0,0,1,.77-.38l0,0-.8.34L21.89,29a8.56,8.56,0,0,1,.75-.44h0l-.82.34-.17-.11a8.56,8.56,0,0,1,.75-.44h0l-.84.35-.17-.11.35-.22-.36.15-.18-.11.37-.22-.41.21-.19-.1c.23-.15.36-.27.54-.39l-.66.34-.19-.11a5.74,5.74,0,0,1,.79-.53h0l-.72.37-.17-.1a5.73,5.73,0,0,1,.63-.45h0l-.76.38-.17-.1a6.58,6.58,0,0,1,.66-.46l0,0-.68.39L20,27.5a5.91,5.91,0,0,1,.62-.44l-.06,0-.7.39-.16-.09a4.84,4.84,0,0,1,.62-.45h0l-.6.31-.14-.07a4.6,4.6,0,0,1,.53-.37l-.05,0-.56.3-.14,0a3.39,3.39,0,0,0,.33-.3l-.4.22-.14,0c.21-.15.26-.27.47-.4h0l-.59.32-.14,0a4.11,4.11,0,0,1,.5-.42l0,0-.49.3-.1-.1a1.52,1.52,0,0,1,.37-.32l0,0-.49.29-.09-.1a1,1,0,0,1,.36-.3l-.05,0-.41.25-.08-.08a1.21,1.21,0,0,1,.31-.26l-.07,0-.34.2L18.18,26a.92.92,0,0,1,.25-.21l0,0-.31.19L18,25.9a1.18,1.18,0,0,1,.23-.2h0l-.25.16,0-.05a.62.62,0,0,1,.19-.16l-.07,0-.25.15,0-.06a1,1,0,0,1,.19-.15l-.05,0-.24.15-.05-.06a1,1,0,0,1,.15-.13l-.14-.12ZM24,34.09l-2.33,4.52.17.26,2.41-4.71Zm-14.13,4s0,.08.05.13c-.23.12-.09.05,0-.13Zm.2-20.28c-.13.53-.32,1.29-.39,1.75l-.05,0c-.06-.07,0-.17-.16-.15a1.09,1.09,0,0,0,0-.85,1.53,1.53,0,0,0-.35-.43,3.41,3.41,0,0,1-.38-.38.9.9,0,0,0-.45-.29,1,1,0,0,1-.39-.18.56.56,0,0,0-.56,0c-.17.05-.5-.13-.76-.2,0,0,0,0,0,0a5.07,5.07,0,0,1,2.09,1.75c.07.12.56.65.59.72h.09l0,0c-.07.06-.21.05-.2.14s.16.08.22.14,0,.27.13.27.12-.18.18-.25c-.1.83-.2,1.65-.29,2.44H9.28c-.14,0-.12.22-.23.28-.13-.1.2-.83,0-1a1.37,1.37,0,0,0-.38-.48,3.19,3.19,0,0,1-.42-.4,1.39,1.39,0,0,0-.48-.32,3.26,3.26,0,0,1-.43-.2.77.77,0,0,0-.61,0c-.15.07-.52-.1-.82-.21,0,0,0,0,0,0A5.5,5.5,0,0,1,8.24,21.9a8.11,8.11,0,0,0,.58.69s0,.05,0,.07h0a.05.05,0,0,0,0,0c0,.1.19.1.26.18s.05.27.13.3c-.11,1-.2,2-.27,2.9l-.06,0c-.08-.08.05-.2-.2-.18h0c.14-.33.1-.52,0-.65a3.89,3.89,0,0,1-.39-.47.86.86,0,0,0-.41-.41A1.66,1.66,0,0,1,7.4,24a.58.58,0,0,0-.43-.2,1.8,1.8,0,0,1-.61,0,5,5,0,0,1-.82-.22c-.1,0-.11.05,0,.11A5.43,5.43,0,0,1,8,25.5c.2.21.38.42.59.61,0,.06,0,.08-.08.05-.2-.19-.38-.39-.57-.6a5.33,5.33,0,0,0-2.41-1.73q-.11,0,0,.12a3.71,3.71,0,0,1,.19.46,1.8,1.8,0,0,1,.1.46,3,3,0,0,1,.08.51.62.62,0,0,0,.32.26l.72.15a.38.38,0,0,1,.27.3c0,.19,0,.38.13.44a1,1,0,0,1,.27.13,1.15,1.15,0,0,0,.5.14.37.37,0,0,0,.18-.21.65.65,0,0,1,.16-.23c.08-.06.16-.06.19.09s0,.31.16.31.14-.23.21-.3l0,0c-.07,1-.12,1.92-.15,2.84-.16-.09,0-.25-.25-.23h0c-.11,0-.18-.3-.16-.79a.43.43,0,0,0-.4-.51.77.77,0,0,1-.44-.43A.72.72,0,0,0,7,27a1,1,0,0,1-.46-.21.75.75,0,0,0-.64,0A1.92,1.92,0,0,1,5,26.58c-.08,0-.09.06,0,.13a5.83,5.83,0,0,1,2.69,1.91c.23.25.45.47.69.69.06.11,0,.09-.11.05-.22-.2-.43-.43-.65-.67A5.74,5.74,0,0,0,5,26.8c-.06,0-.07,0,0,.11s.14.32.2.49a1.45,1.45,0,0,1,.11.49,1.71,1.71,0,0,0,.09.55.6.6,0,0,0,.34.28,7,7,0,0,0,.77.16.34.34,0,0,1,.28.32.42.42,0,0,0,.14.46.43.43,0,0,1,.29.15.57.57,0,0,0,.54.14.66.66,0,0,0,.19-.22A.45.45,0,0,1,8,29.48c.14,0,.34.09.35.16s0,.31.16.31.14-.22.21-.3l0,0c0,.87,0,1.71,0,2.53l-.08-.06c-.07-.08.05-.2-.2-.18s-.1.17-.18.25c.11-.51,0-.76-.11-.88a1,1,0,0,1-.46-.46.94.94,0,0,0-.49-.39,1.37,1.37,0,0,1-.55-.28A.64.64,0,0,0,6.28,30a2.3,2.3,0,0,1-.64.09,7,7,0,0,1-.9-.13c-.1,0-.1.14,0,.17a5.83,5.83,0,0,1,2.9,1.49c.25.2.49.4.74.57.05.08,0,.09-.1,0a8.73,8.73,0,0,1-.7-.54A5.8,5.8,0,0,0,4.7,30.21c-.06,0,0,0,0,.08a3.42,3.42,0,0,0,.26.46,1.51,1.51,0,0,1,.16.48,1.54,1.54,0,0,0,.14.54.65.65,0,0,0,.37.24,4.13,4.13,0,0,0,.78.08c.22,0,.32.1.32.29s0,.41.19.44a1.17,1.17,0,0,1,.3.12,1,1,0,0,0,.55.08c.1,0,.15-.1.16-.24a.58.58,0,0,1,.15-.26.23.23,0,0,1,.29-.06l.05,0c.07.07,0,.31.15.31s.14-.23.22-.3a.24.24,0,0,1,.08-.06,23.57,23.57,0,0,0,.33,2.86c-.06,0-.07,0-.1-.07s0-.17-.17-.15-.09.14-.15.21l-.09,0a1.32,1.32,0,0,0-.15-1,2,2,0,0,1-.47-.46.91.91,0,0,0-.49-.37A1.69,1.69,0,0,1,7,33.29a.63.63,0,0,0-.48-.15,2.31,2.31,0,0,1-.64.1,6.94,6.94,0,0,1-.9-.12c-.1,0-.09.15,0,.16a5.94,5.94,0,0,1,2.93,1.5c.25.21.47.43.72.6.07.06,0,.12-.07.07a7.79,7.79,0,0,1-.71-.6,5.82,5.82,0,0,0-2.89-1.47c-.05,0-.07,0,0,.09a2.35,2.35,0,0,1,.26.46,4.61,4.61,0,0,1,.17.47c.07.21.09.39.15.54a.43.43,0,0,0,.38.22,3.71,3.71,0,0,1,.78.07c.21.06.32.15.33.28s0,.4.19.45a.71.71,0,0,1,.31.1.91.91,0,0,0,.55.08.51.51,0,0,0,.16-.25.93.93,0,0,1,.15-.26.57.57,0,0,1,.35-.09.12.12,0,0,1,.07.05c.06.06,0,.26.13.26s.13-.19.19-.26a.19.19,0,0,1,.12-.07,19.74,19.74,0,0,0,.49,2h0l-.06,0a1.29,1.29,0,0,1-.47-.46,1.11,1.11,0,0,0-.49-.37,1.19,1.19,0,0,1-.55-.27.7.7,0,0,0-.49-.15,2.31,2.31,0,0,1-.64.1,4.63,4.63,0,0,1-.9-.12c-.11,0-.12.2,0,.21a5.4,5.4,0,0,1,3,1.51,3.16,3.16,0,0,0,.65.4c0,.06,0,.14-.08.1A3.36,3.36,0,0,1,9,38a5.5,5.5,0,0,0-2.92-1.48s0,0,0,0a1.84,1.84,0,0,1,.26.46l.17.47a2.21,2.21,0,0,1,.16.54A.7.7,0,0,0,7,38.3c.27.12.52,0,.78.06s.29.16.27.33.08.37.24.4a.41.41,0,0,1,.31.1.83.83,0,0,0,.55.08c.11,0,.12-.15.16-.25a1.61,1.61,0,0,1,.15-.26c.07-.08.27-.21.32-.07s0,.25.12.25.11-.13.16-.21a17.19,17.19,0,0,0,.83,1.87c-.07.06,0,.18-.14.24a.76.76,0,0,0-.42-.65A3.11,3.11,0,0,1,9.76,40a1.13,1.13,0,0,0-.6-.14,1.62,1.62,0,0,1-.62,0,.63.63,0,0,0-.5.06,1.39,1.39,0,0,1-.54.36l-.88.25a.08.08,0,0,0,0,.14,5.91,5.91,0,0,1,3.29.11l.73.18c.06,0,0,.09-.09.07l-.66-.15a5.82,5.82,0,0,0-3.24-.12c-.06,0,0,.06,0,.11l.42.31a1.37,1.37,0,0,1,.35.37,1.53,1.53,0,0,0,.36.43.9.9,0,0,0,.43.05A3.23,3.23,0,0,0,9,41.71a.35.35,0,0,1,.41.12q.12.31.36.33a.62.62,0,0,1,.33,0,.77.77,0,0,0,.53-.15.31.31,0,0,0,0-.29.33.33,0,0,1,0-.3l.17-.13c0,.1,0,.21.11.21s.15-.26.23-.32a16,16,0,0,0,2.15,3l.86-.18a11.45,11.45,0,0,1-2.42-2.91c.06-.07.09-.22.15-.28s.18-.07.19-.15c.05.07.15.08.16.2s.29,0,.42-.09a.67.67,0,0,1,.23-.1.46.46,0,0,0,.18-.32.27.27,0,0,1,.18-.28,4.94,4.94,0,0,0,.61-.09.6.6,0,0,0,.27-.2.78.78,0,0,0,.1-.43.75.75,0,0,1,.1-.38,2.07,2.07,0,0,0,.18-.37c0-.05.05-.09,0-.09A4.7,4.7,0,0,0,12.52,40l-.45.47c-.06.06-.11,0-.07,0s.3-.31.45-.48a4.77,4.77,0,0,1,2.1-1.52c.06,0,0-.13,0-.09a2,2,0,0,1-.7.14,1.43,1.43,0,0,0-.5,0,2.61,2.61,0,0,1-.37.14,1,1,0,0,0-.41.24,1.22,1.22,0,0,1-.36.32.9.9,0,0,0-.34.38,1.85,1.85,0,0,0-.06.69h0c-.13,0-.11.17-.18.24a.2.2,0,0,1-.09,0,16.69,16.69,0,0,1-.94-2h0c.11,0,.14-.23.21-.3s.17-.07.19-.14c0,.18.11.3.23.32a.8.8,0,0,0,.42-.09.68.68,0,0,1,.23-.11.33.33,0,0,0,.13-.35q0-.15.24-.24c.18-.07.39,0,.6-.1a.4.4,0,0,0,.28-.19,5.6,5.6,0,0,1,.19-.81,1.41,1.41,0,0,1,.18-.37s0,0,0,0a4.77,4.77,0,0,0-2.13,1.24c-.19.16-.36.32-.55.46s-.07-.06,0-.08l.53-.44A4.89,4.89,0,0,1,13.46,36c.07,0,.06-.12,0-.15s-.49.15-.69.15a2.21,2.21,0,0,1-.51,0,.41.41,0,0,0-.36.15,1.22,1.22,0,0,1-.42.24.79.79,0,0,0-.36.32,1.57,1.57,0,0,1-.34.38.62.62,0,0,0,0,.57c-.24-.06-.21.14-.3.24a.2.2,0,0,1-.08,0,18.55,18.55,0,0,1-.66-2.38,1.65,1.65,0,0,1,.1-.19c.06-.06.12,0,.2,0a.4.4,0,0,1,.14.22.23.23,0,0,0,.15.2.67.67,0,0,0,.46-.1.63.63,0,0,1,.26-.11c.11,0,.18-.12.14-.4s.11-.22.26-.26l.66-.1a.35.35,0,0,0,.31-.22,2,2,0,0,1,.1-.47l.11-.41a1.42,1.42,0,0,1,.2-.41s0-.07,0-.07a5.16,5.16,0,0,0-2.17,1.36,8.67,8.67,0,0,1-.66.57h0c-.08,0-.09,0-.06-.06a8.38,8.38,0,0,0,.66-.57,5.29,5.29,0,0,1,2.21-1.39s0-.12,0-.14a2.45,2.45,0,0,1-.76.17c-.18,0-.37-.11-.56,0a2.08,2.08,0,0,1-.4.15,1.68,1.68,0,0,0-.46.27,2.63,2.63,0,0,1-.39.35,1.49,1.49,0,0,0-.37.42.93.93,0,0,0-.05.59H9.6a.09.09,0,0,0-.06,0c-.13-.68-.22-1.36-.29-2.06a.05.05,0,0,0,.05,0c.11,0,.14-.22.22-.3s.14-.11.19-.14a.43.43,0,0,1,.27,0,.27.27,0,0,1,.13.23.33.33,0,0,0,.16.21.91.91,0,0,0,.49-.11.54.54,0,0,1,.27-.12c.15,0,.18-.19.15-.4a.28.28,0,0,1,.27-.28,1.06,1.06,0,0,0,.69-.11,1,1,0,0,0,.32-.23,1,1,0,0,0,.1-.48,1.45,1.45,0,0,1,.12-.44,2.06,2.06,0,0,1,.21-.42,5,5,0,0,0-2.43,1.43,8.55,8.55,0,0,1-.65.57c-.1.06-.13,0-.05-.07a8.27,8.27,0,0,0,.64-.56,5.16,5.16,0,0,1,2.47-1.46c.12-.08.09-.24,0-.22a1.64,1.64,0,0,1-.8.16.77.77,0,0,0-.58,0,1,1,0,0,1-.42.16.71.71,0,0,0-.48.28.92.92,0,0,1-.41.37.52.52,0,0,0-.39.43,3.29,3.29,0,0,1-.07.83c-.07,0-.13,0-.17-.05s.05-.19-.2-.17c-.07,0-.09.07-.12.13-.07-.94-.1-1.9-.09-2.87.05.06.18.07.23.13s0,.31.16.31.2-.19.22-.3.09-.08.16-.1a.26.26,0,0,0,0,.28.36.36,0,0,0,.31,0,.18.18,0,0,1,.15.23c0,.13,0,.24.15.21a.7.7,0,0,1,.49-.11.23.23,0,0,0,.27-.11c0-.14.1-.27.14-.41a.57.57,0,0,1,.27-.28,4.1,4.1,0,0,1,.69-.1.48.48,0,0,0,.32-.23,2.29,2.29,0,0,0,.11-.49,1.8,1.8,0,0,1,.12-.44,2,2,0,0,1,.2-.42v-.05a5,5,0,0,0-2.31,1.41,8.51,8.51,0,0,1-.66.56c-.1.07-.12,0-.05-.06a8.39,8.39,0,0,0,.65-.56A5.11,5.11,0,0,1,13,27.29c.12-.05.11-.21,0-.18a1.53,1.53,0,0,1-.79.17,1,1,0,0,0-.58-.05,2.61,2.61,0,0,1-.42.16,1.07,1.07,0,0,0-.48.28,3.25,3.25,0,0,1-.41.37,1.89,1.89,0,0,0-.38.43.76.76,0,0,0,0,.63c-.06,0-.17-.05-.2-.17s.05-.19-.2-.17-.11.17-.18.24-.17.07-.21.11q0-1.29.09-2.61a.34.34,0,0,1,.12.06c.07.08,0,.32.15.32s.14-.23.22-.31a.24.24,0,0,1,.14-.09.37.37,0,0,1,.31.05.7.7,0,0,1,.15.23.32.32,0,0,0,.16.21.62.62,0,0,0,.48-.11.4.4,0,0,1,.27-.11.42.42,0,0,0,.15-.41.41.41,0,0,1,.26-.28,3.93,3.93,0,0,0,.7-.11.54.54,0,0,0,.31-.22c.06-.15.06-.33.11-.49a3.6,3.6,0,0,1,.12-.44,2.67,2.67,0,0,1,.2-.42s0-.06,0-.07a5.08,5.08,0,0,0-2.3,1.4c-.22.2-.43.4-.65.57s-.13,0-.05-.07a8.27,8.27,0,0,0,.64-.56A5.2,5.2,0,0,1,13,24.23c.06-.05,0-.17,0-.16a2.89,2.89,0,0,1-.79.17c-.19,0-.39-.06-.58,0a.81.81,0,0,0-.42.16,2.87,2.87,0,0,1-.48.28,1,1,0,0,0-.41.37,1.23,1.23,0,0,0-.39.43c-.11.22,0,.76-.07.86s-.14-.05-.17-.14,0-.19-.2-.17-.1.17-.18.24a.18.18,0,0,1-.07.05c.07-1,.16-2.06.27-3.1a.38.38,0,0,1,.18.09c.07.07,0,.31.15.31s.15-.22.22-.3a.12.12,0,0,1,.09-.06.3.3,0,0,1,.3,0,.7.7,0,0,1,.15.23.4.4,0,0,0,.16.21.63.63,0,0,0,.48-.11.64.64,0,0,1,.27-.11c.11,0,.16-.19.15-.41s.08-.21.27-.27.46,0,.69-.11a.67.67,0,0,0,.32-.23A1.7,1.7,0,0,0,13,22a1.52,1.52,0,0,1,.12-.43c.08-.15.14-.29.21-.43s0-.06,0-.06A5.08,5.08,0,0,0,11,22.45a6.86,6.86,0,0,1-.65.56c-.1.07-.12,0-.05-.06a8.39,8.39,0,0,0,.65-.56A5.11,5.11,0,0,1,13.29,21c.08-.06.06-.16,0-.17a2,2,0,0,1-.8.17,1.05,1.05,0,0,0-.58-.05,3.18,3.18,0,0,0-1.7,1.25c-.18.24,0,.73-.06.78a.19.19,0,0,1-.12-.09c0-.1.05-.2-.2-.18s-.1.17-.18.25a.26.26,0,0,1-.13.06v-.1c.08-.07.19-.07.19-.18s-.08-.13-.15-.18c.1-.87.21-1.76.33-2.64A.54.54,0,0,1,10,20c.06.06,0,.25.12.25s.12-.18.18-.24a.67.67,0,0,1,.11-.07c0,.08-.1.23,0,.25a.85.85,0,0,1,.32,0,.24.24,0,0,1,.14.23c0,.16,0,.25.16.21a1.06,1.06,0,0,1,.49-.11.23.23,0,0,0,.26-.11l.15-.41a.42.42,0,0,1,.27-.28l.69-.1c.18,0,.29-.11.32-.23l.11-.49.11-.44a1,1,0,0,1,.21-.42s0,0,0,0a5.07,5.07,0,0,0-2.33,1.41,7,7,0,0,1-.65.57c-.1.06-.12,0-.05-.07a8.39,8.39,0,0,0,.65-.56,5.18,5.18,0,0,1,2.36-1.43c.13-.05.08-.23,0-.2a1.4,1.4,0,0,1-.8.17,1.61,1.61,0,0,0-.58-.05,2.22,2.22,0,0,0-.42.16,3.2,3.2,0,0,0-1.27,1.08.81.81,0,0,0-.06.66s-.1-.08-.14-.12,0-.15-.16-.14-.08.14-.14.2l-.09.05.24-1.84h0c.11,0,.14-.22.22-.3s.19-.07.19-.18-.13-.16-.21-.24,0-.07,0-.1.14.18.29.11a1.5,1.5,0,0,0,.35-.36l.16-.24c.08-.14,0-.28-.1-.42s0-.21.07-.38a3.25,3.25,0,0,1,.52-.47.32.32,0,0,0,.15-.36,2.5,2.5,0,0,0-.18-.47,2.68,2.68,0,0,1-.14-.43,3.55,3.55,0,0,1-.06-.47c0-.05,0-.06-.05,0a5.06,5.06,0,0,0-.92,2.61,5.58,5.58,0,0,1-.14.85.2.2,0,0,0-.08,0h0a7.53,7.53,0,0,0,.14-.85,5.1,5.1,0,0,1,.94-2.66c.06-.11,0-.16-.12-.11a4.38,4.38,0,0,0-.57.57,1.06,1.06,0,0,1-.51.27.39.39,0,0,0-.27.37,1,1,0,0,1-.25.49.79.79,0,0,0-.14.54,1.18,1.18,0,0,1-.09.57.72.72,0,0,0,.51.93.33.33,0,0,0,.28-.13s0,0,.05,0h0c-.12,0-.1.17-.18.24s-.24.07-.23.17.09.09.17.12l.09,0A.39.39,0,0,1,10.06,17.78Z"/><path class="cls-3" d="M25.09,17.82H23.66c-.3,0-.32.41,0,.41s1.66,0,1.66,0V17.6a.23.23,0,0,1-.2.22"/><path class="cls-3" d="M35.87,19.75h.35l-.11-.4a3,3,0,0,1-.07-.3c0,.1,0,.18-.06.27Zm-.3.6L36,18.91h.15l.42,1.44h-.15l-.12-.43h-.43l-.12.43Zm-.28,0V18.91h.15v1.44Zm-.66,0V19.08h-.34v-.17h.82v.17h-.34v1.27Zm-1.32,0V18.91h.13L34,20V18.91h.13v1.44H34l-.54-1.13v1.13Zm-1,0V18.91h.74v.17h-.61v.44H33v.17h-.57v.49h.63v.17Zm-.4,0V18.91h.13v1.44Zm-.35-.51.13.06a.76.76,0,0,1-.15.35.36.36,0,0,1-.27.12.34.34,0,0,1-.27-.09.72.72,0,0,1-.16-.27,1.67,1.67,0,0,1-.06-.39,1.13,1.13,0,0,1,.07-.39.56.56,0,0,1,.17-.26.38.38,0,0,1,.25-.09.35.35,0,0,1,.26.11.69.69,0,0,1,.15.31l-.13.05a.49.49,0,0,0-.11-.23.21.21,0,0,0-.17-.07.24.24,0,0,0-.2.08.42.42,0,0,0-.11.21,1.36,1.36,0,0,0,0,.27,1.49,1.49,0,0,0,0,.33.44.44,0,0,0,.13.21.27.27,0,0,0,.17.06.25.25,0,0,0,.19-.09A.48.48,0,0,0,31.59,19.84Zm-1.76.05.13,0a.4.4,0,0,0,0,.18.35.35,0,0,0,.1.11.33.33,0,0,0,.16.05.33.33,0,0,0,.14,0,.2.2,0,0,0,.09-.09.25.25,0,0,0,0-.24.38.38,0,0,0-.09-.09l-.18-.06a.71.71,0,0,1-.2-.1.3.3,0,0,1-.12-.13.48.48,0,0,1,0-.18.52.52,0,0,1,0-.21.38.38,0,0,1,.14-.14.48.48,0,0,1,.18-.05.65.65,0,0,1,.21.05.53.53,0,0,1,.13.16.78.78,0,0,1,.05.23h-.13a.28.28,0,0,0-.08-.2.17.17,0,0,0-.17-.08.21.21,0,0,0-.18.07.2.2,0,0,0-.06.15.28.28,0,0,0,0,.13.45.45,0,0,0,.2.1.67.67,0,0,1,.23.09.4.4,0,0,1,.14.15.45.45,0,0,1,0,.2.42.42,0,0,1,0,.22.34.34,0,0,1-.13.16.46.46,0,0,1-.2.05.52.52,0,0,1-.23-.05.35.35,0,0,1-.15-.17A.58.58,0,0,1,29.83,19.89Zm-1.17.46V19.08h-.34v-.17h.82v.17H28.8v1.27Zm-1.24,0V18.91h.75v.17h-.61v.44h.57v.17h-.57v.49h.63v.17Zm-1.6-.46.12,0a.56.56,0,0,0,0,.18.35.35,0,0,0,.1.11.33.33,0,0,0,.16.05.29.29,0,0,0,.14,0,.26.26,0,0,0,.09-.09.25.25,0,0,0,0-.24.38.38,0,0,0-.09-.09l-.19-.06a1.21,1.21,0,0,1-.2-.1.28.28,0,0,1-.11-.13.48.48,0,0,1,0-.18.52.52,0,0,1,0-.21.35.35,0,0,1,.13-.14.41.41,0,0,1,.39,0,.36.36,0,0,1,.14.16.78.78,0,0,1,.05.23h-.13a.28.28,0,0,0-.08-.2c0-.06-.09-.08-.18-.08a.18.18,0,0,0-.17.07.2.2,0,0,0-.06.15.2.2,0,0,0,0,.13.39.39,0,0,0,.2.1.77.77,0,0,1,.23.09.37.37,0,0,1,.13.15.46.46,0,0,1,.05.2.54.54,0,0,1-.05.22.36.36,0,0,1-.14.16.42.42,0,0,1-.2.05.48.48,0,0,1-.22-.05.35.35,0,0,1-.15-.17A.58.58,0,0,1,25.82,19.89ZM25,19.55h.28a.43.43,0,0,0,.15,0,.14.14,0,0,0,.08-.09.19.19,0,0,0,0-.13.34.34,0,0,0,0-.17.22.22,0,0,0-.17-.06H25Zm-.14.8V18.91h.45a.37.37,0,0,1,.21,0,.26.26,0,0,1,.12.13.54.54,0,0,1,0,.22.42.42,0,0,1-.07.26.36.36,0,0,1-.21.14l.08.07.11.18.17.4h-.17l-.13-.3a1.83,1.83,0,0,0-.1-.2.86.86,0,0,0-.07-.1l-.06,0H25v.64Zm-.79-.6h.34l-.11-.4-.07-.3a2.16,2.16,0,0,1-.05.27Zm-.3.6.39-1.44h.15l.42,1.44h-.15l-.12-.43H24l-.11.43Z"/></svg>