<svg id="Camada_1" data-name="Camada 1" xmlns="http://www.w3.org/2000/svg" viewBox="0 0 127.27 37.83"><defs><style>.cls-1,.cls-2{fill:#fff;}.cls-1{fill-rule:evenodd;}</style></defs><path class="cls-1" d="M9.73,14.23,13.32,36v0h0a1,1,0,0,1-.47-.21L2,10.65a.42.42,0,0,1,.2-.51L27.65,1a1.66,1.66,0,0,1,.25.3l-18,12.42A.54.54,0,0,0,9.73,14.23Z"/><path class="cls-1" d="M28,1.44l0,.1-.1-.23A.83.83,0,0,1,28,1.44Z"/><path class="cls-1" d="M108.25,13.44c-.11.77-.26,1.5-.35,2.29-3.8-1.33-6.92.69-7.34,3.79-.66,4.74,3.11,8.11,8.37,6.43-.18.65-.09,1.59-.23,2.29-1.2.09-2,.35-3.09.35-5.69,0-8.35-3.84-8-8.15.34-4.77,4.75-8.51,10.68-7"/><path class="cls-1" d="M117.2,13.32a7.3,7.3,0,0,1,7.11,3.56c2.86,5.45-1.09,12.05-6.65,12.05-8.2,0-9.06-11.49-3.33-14.8a6.93,6.93,0,0,1,2.87-.81m-.35,13.2c7.11,1.74,7.23-12.16.23-11C112.16,16.31,112.42,25.44,116.85,26.52Z"/><path class="cls-1" d="M93.67,13.44a14.39,14.39,0,0,1-.35,2.18c-1.61-.36-4.69-.59-5,1-.57,2.6,3.87,2.88,5.62,4.25,1.31,1,2.77,3.94,1,6.19-1.45,1.9-4.89,2-8.26,1.61,0-.83.37-1.39.46-2.18,2.14.31,5.55.68,5.85-1.26.46-3-6-3.3-7.12-6.08C84,14.73,89,12.41,93.67,13.44"/><path class="cls-1" d="M33.87,13.78c1.9,5,3.94,9.84,5.74,14.92H36.28c-.17-1.62-.74-2.85-1-4.36H29.63a16.86,16.86,0,0,0-1.27,4.36h-3.1c1.88-5.05,3.75-10.1,5.86-14.92h2.75M32.15,15.5c-.59,2.47-1.53,4.59-2.18,7h4.71c-.77-2.33-1.35-4.85-2.3-7Z"/><path class="cls-1" d="M49.71,20.44c1.09.75,2.56.85,3.22,2.06a4.22,4.22,0,0,1-.35,4.25c-1.79,2.37-6.89,2.09-10.67,1.95.25-4.73,0-10.38.11-14.92C45.29,14,50.29,13,51.89,15s-.13,4.95-2.18,5.4m-.23-3.67c-.53-1.31-2.71-1.3-4.59-1h-.23c-.07,3.36,0,7.62.12,11.14,2,.09,4.34.21,5.28-.92,1.78-2.16-1-4.66-4.14-4V20.21C48.38,20.37,50.38,19,49.48,16.77Z"/><path class="cls-1" d="M63.48,21.36c.28.64,1,.6,1.38,1,1.55,1.53,1.84,4.27,3,6.2a16.35,16.35,0,0,1-3.1.11c-1.16-2.48-1-6.22-4.82-6.08V20.9c2.7.12,4.45-1.34,3.9-3.56-.46-1.85-3.07-2-5.28-1.49.19,4.17.13,8.59.23,12.85H55.91c.18-4.72.19-10.19,0-14.92,3.58.16,8.61-.67,10.1,1.49A4.16,4.16,0,0,1,65.55,20c-.65.67-1.46.66-2.07,1.38"/><path class="cls-1" d="M78.52,13.78c1.79,5,4.06,9.57,5.51,14.92H80.7c-.18-1.62-.75-2.85-1-4.36H74a17.26,17.26,0,0,0-1.26,4.36h-3.1c1.88-5,3.77-10.08,5.86-14.92h3m-2,1.72C76,18,75,20.08,74.39,22.5h4.7c-.77-2.32-1.35-4.84-2.29-7Z"/><path class="cls-2" d="M123.71,34.41c-.36-.9-.54-1.37-.54-1.43h0c0,.05-.19.53-.56,1.43Zm.87,1.25h-.48a5.37,5.37,0,0,0-.29-1H122.5a4.56,4.56,0,0,0-.28,1h-.46a15.14,15.14,0,0,1,.58-1.45,10.2,10.2,0,0,0,.59-1.51h.53a11.57,11.57,0,0,0,.56,1.48A13,13,0,0,1,124.58,35.66Zm-3-3a8.54,8.54,0,0,1-.58,1.48,7.75,7.75,0,0,0-.57,1.48h-.3a8.71,8.71,0,0,0-.54-1.47,7.88,7.88,0,0,1-.55-1.49h.44a6.28,6.28,0,0,0,.41,1.26,7.28,7.28,0,0,1,.42,1.25h0a6.5,6.5,0,0,1,.42-1.24,6.23,6.23,0,0,0,.42-1.27Zm-3.17,3H118q0-.73,0-1.56c0-.53,0-1,0-1.4h.43c0,.41,0,.88,0,1.4S118.43,35.17,118.45,35.66Zm-1.1-3V33c-.3,0-.61,0-.93,0v1.1c0,.5,0,1,0,1.56H116c0-.52,0-1,0-1.56s0-.81,0-1.1c-.23,0-.54,0-1,0V32.7Zm-2.65,2.62,0,.34h-1.83q0-.7,0-1.56c0-.53,0-1,0-1.4h1.72l0,.34c-.42,0-.86,0-1.33,0,0,.23,0,.55,0,1l1.08,0v.34q-.51,0-1.08,0c0,.4,0,.76,0,1.1Q114,35.35,114.7,35.32Zm-2.51,0,0,.33h-1.79q0-.55,0-1.56c0-.57,0-1,0-1.4h.42c0,.3,0,.77,0,1.4s0,.94,0,1.25Zm-3-1.14a1.28,1.28,0,0,0-.31-.91,1,1,0,0,0-.71-.33.9.9,0,0,0-.67.34,1.38,1.38,0,0,0-.29.91,1.24,1.24,0,0,0,.31.91,1,1,0,0,0,.71.33.88.88,0,0,0,.67-.35A1.37,1.37,0,0,0,109.14,34.19Zm.4-.06a1.6,1.6,0,0,1-.43,1.18,1.35,1.35,0,0,1-1,.44,1.3,1.3,0,0,1-1-.4,1.46,1.46,0,0,1-.41-1.1,1.6,1.6,0,0,1,.43-1.18,1.36,1.36,0,0,1,1-.43,1.29,1.29,0,0,1,.95.4A1.45,1.45,0,0,1,109.54,34.13Zm-3.32,1.17,0,.34a2,2,0,0,1-.62.08,1.52,1.52,0,0,1-1.17-.42,1.48,1.48,0,0,1-.4-1,1.58,1.58,0,0,1,.44-1.12,1.53,1.53,0,0,1,1.18-.47,1.72,1.72,0,0,1,.44.06l-.07.36a1.39,1.39,0,0,0-.46-.08,1,1,0,0,0-.84.34,1.36,1.36,0,0,0,0,1.7,1.17,1.17,0,0,0,.91.36A2,2,0,0,0,106.22,35.3Zm-3.78,0v.34h-1.84c0-.47,0-1,0-1.56s0-1,0-1.4h1.73l0,.34c-.42,0-.86,0-1.33,0,0,.23,0,.55,0,1l1.08,0v.34q-.5,0-1.08,0c0,.4,0,.76,0,1.1Q101.77,35.35,102.44,35.32Zm-3.08-1.14a1.21,1.21,0,0,0-.32-.85A1.32,1.32,0,0,0,98,33l-.26,0c0,.36,0,.72,0,1.09s0,.83,0,1.25a1.45,1.45,0,0,0,.35,0,1.09,1.09,0,0,0,.9-.36A1.31,1.31,0,0,0,99.36,34.18Zm.4-.11a1.71,1.71,0,0,1-.42,1.14,1.41,1.41,0,0,1-1.14.48l-.79,0c0-.47,0-1,0-1.56s0-1,0-1.4h.78a1.55,1.55,0,0,1,1.18.4A1.34,1.34,0,0,1,99.76,34.07Zm-3.82-2.26a1.94,1.94,0,0,1-.3.31,2.68,2.68,0,0,0-.32.32H95a1.39,1.39,0,0,1,.21-.32,2.16,2.16,0,0,0,.2-.31Zm.48.89c0,.28,0,.55,0,.8v.7c0,1-.41,1.52-1.21,1.52a1.45,1.45,0,0,1-.54-.09.91.91,0,0,1-.37-.27,1.36,1.36,0,0,1-.21-.47,3.21,3.21,0,0,1-.07-.67v-.71c0-.26,0-.53,0-.81h.43c0,.58,0,1,0,1.36a3.75,3.75,0,0,0,0,.64,1.15,1.15,0,0,0,.14.42.5.5,0,0,0,.25.23.86.86,0,0,0,.38.07.93.93,0,0,0,.4-.07.55.55,0,0,0,.25-.23,1,1,0,0,0,.13-.41,4,4,0,0,0,0-.66c0-.16,0-.35,0-.58s0-.48,0-.77Zm-3.84,1.71c-.35-.9-.53-1.37-.53-1.43h0c0,.05-.18.53-.55,1.43Zm.88,1.25H93a5.37,5.37,0,0,0-.29-1H91.37a5.35,5.35,0,0,0-.28,1h-.46s.2-.54.59-1.45a11.77,11.77,0,0,0,.59-1.51h.53a10,10,0,0,0,.56,1.48A13,13,0,0,1,93.46,35.66ZM90.2,34.9q0,.84-1.17.84a2.61,2.61,0,0,1-.77-.1l.08-.36a2.21,2.21,0,0,0,.73.13c.52,0,.78-.14.78-.43a.46.46,0,0,0-.21-.38,2.67,2.67,0,0,0-.52-.28,2.14,2.14,0,0,1-.58-.34.68.68,0,0,1-.23-.54.7.7,0,0,1,.23-.55,1.06,1.06,0,0,1,.74-.23,2.46,2.46,0,0,1,.74.07l0,.36a2.55,2.55,0,0,0-.74-.11c-.39,0-.58.13-.58.39a.37.37,0,0,0,.17.32,3.34,3.34,0,0,0,.48.24,2.28,2.28,0,0,1,.61.35A.8.8,0,0,1,90.2,34.9Zm-3.5.42,0,.34H84.85q0-.7,0-1.56c0-.53,0-1,0-1.4h1.72l0,.34c-.42,0-.86,0-1.33,0,0,.23,0,.55,0,1l1.07,0v.34c-.33,0-.69,0-1.07,0,0,.4,0,.76,0,1.1Q86,35.35,86.7,35.32Zm-3.09-1.14a1.17,1.17,0,0,0-.32-.85,1.3,1.3,0,0,0-1-.34L82,33c0,.36,0,.72,0,1.09s0,.83,0,1.25a1.39,1.39,0,0,0,.35,0,1.07,1.07,0,0,0,.89-.36A1.25,1.25,0,0,0,83.61,34.18Zm.4-.11a1.75,1.75,0,0,1-.41,1.14,1.44,1.44,0,0,1-1.14.48l-.79,0q0-.7,0-1.56c0-.53,0-1,0-1.4h.77a1.57,1.57,0,0,1,1.19.4A1.37,1.37,0,0,1,84,34.07Zm-4.86.34c-.36-.9-.54-1.37-.54-1.43h0c0,.05-.19.53-.56,1.43ZM80,35.66h-.48a5.37,5.37,0,0,0-.29-1H77.94a4.91,4.91,0,0,0-.29,1h-.46s.2-.54.59-1.45a11.77,11.77,0,0,0,.59-1.51h.53a10,10,0,0,0,.56,1.48A13,13,0,0,1,80,35.66Zm-3.88-2.13c0-.37-.25-.55-.73-.55A2.59,2.59,0,0,0,75,33c0,.27,0,.63,0,1.08h.26Q76.14,34.1,76.14,33.53Zm.7,2.13H76.4c-.15-.43-.26-.72-.32-.86a.75.75,0,0,0-.29-.35,1.23,1.23,0,0,0-.46-.06H75c0,.49,0,.91,0,1.26h-.42q0-.7,0-1.56c0-.53,0-1,0-1.4h.94c.67,0,1,.23,1,.69a.83.83,0,0,1-.56.81v0a.67.67,0,0,1,.4.35A10.44,10.44,0,0,1,76.84,35.66Zm-3.29,0h-.43q0-.73,0-1.56c0-.53,0-1,0-1.4h.43c0,.41,0,.88,0,1.4S73.53,35.17,73.55,35.66Zm-1.19-.34,0,.34H70.51q0-.7,0-1.56c0-.53,0-1,0-1.4h1.72l0,.34c-.42,0-.86,0-1.33,0,0,.23,0,.55,0,1l1.08,0v.34q-.51,0-1.08,0c0,.4,0,.76,0,1.1Q71.67,35.35,72.36,35.32Zm-2.51,0,0,.33H68q0-.55,0-1.56c0-.57,0-1,0-1.4h.42c0,.3,0,.77,0,1.4s0,.94,0,1.25ZM67,35.66h-.43q0-.73,0-1.56c0-.53,0-1,0-1.4H67c0,.41,0,.88,0,1.4S67,35.17,67,35.66Zm-1.27-.76q0,.84-1.17.84a2.5,2.5,0,0,1-.76-.1l.08-.36a2.15,2.15,0,0,0,.72.13c.52,0,.78-.14.78-.43a.47.47,0,0,0-.2-.38,3.25,3.25,0,0,0-.53-.28,2.14,2.14,0,0,1-.58-.34.71.71,0,0,1-.23-.54.73.73,0,0,1,.23-.55,1.08,1.08,0,0,1,.74-.23,2.54,2.54,0,0,1,.75.07l-.06.36a2.48,2.48,0,0,0-.73-.11c-.39,0-.59.13-.59.39a.4.4,0,0,0,.17.32,3.34,3.34,0,0,0,.48.24,2.37,2.37,0,0,1,.62.35A.79.79,0,0,1,65.73,34.9Zm-3.24-.49C62.14,33.51,62,33,62,33h0c0,.05-.18.53-.55,1.43Zm.88,1.25h-.49a4.93,4.93,0,0,0-.28-1H61.28a4.56,4.56,0,0,0-.28,1h-.46s.2-.54.59-1.45a11.77,11.77,0,0,0,.59-1.51h.52a11.57,11.57,0,0,0,.56,1.48A12.14,12.14,0,0,1,63.37,35.66Zm-3.88-2.13c0-.37-.25-.55-.74-.55a2.76,2.76,0,0,0-.44,0c0,.27,0,.63,0,1.08h.26Q59.49,34.1,59.49,33.53Zm.69,2.13h-.44a7.44,7.44,0,0,0-.32-.86.74.74,0,0,0-.28-.35,1.23,1.23,0,0,0-.46-.06h-.35q0,.74,0,1.26h-.42q0-.7,0-1.56c0-.53,0-1,0-1.4h.94c.66,0,1,.23,1,.69a.83.83,0,0,1-.57.81v0a.66.66,0,0,1,.41.35A9.16,9.16,0,0,1,60.18,35.66Zm-3.65-2.21c0-.31-.21-.47-.63-.47a3.54,3.54,0,0,0-.52,0c0,.11,0,.42,0,.93h.24a1.54,1.54,0,0,0,.66-.11A.39.39,0,0,0,56.53,33.45Zm.19,1.35c0-.38-.34-.56-1-.56H55.4c0,.41,0,.77,0,1.09l.3,0a1.48,1.48,0,0,0,.78-.15A.44.44,0,0,0,56.72,34.8Zm.38,0a.75.75,0,0,1-.38.68,1.8,1.8,0,0,1-1,.24l-.7,0q0-.7,0-1.56c0-.53,0-1,0-1.4H56c.63,0,.94.22.94.66a.67.67,0,0,1-.44.68v0A.67.67,0,0,1,57.1,34.76Zm-4.33-.57a1.24,1.24,0,0,0-.31-.91,1,1,0,0,0-.71-.33.9.9,0,0,0-.67.34,1.38,1.38,0,0,0-.29.91,1.24,1.24,0,0,0,.31.91,1,1,0,0,0,.71.33.88.88,0,0,0,.67-.35A1.37,1.37,0,0,0,52.77,34.19Zm.4-.06a1.6,1.6,0,0,1-.43,1.18,1.35,1.35,0,0,1-1,.44,1.3,1.3,0,0,1-1-.4,1.46,1.46,0,0,1-.41-1.1,1.6,1.6,0,0,1,.43-1.18,1.36,1.36,0,0,1,1-.43,1.29,1.29,0,0,1,.95.4A1.45,1.45,0,0,1,53.17,34.13Zm-3.7-2.2q-.26.42-.57.42a.88.88,0,0,1-.29-.06,1.35,1.35,0,0,0-.29,0,.55.55,0,0,0-.39.19l-.14-.11c.16-.28.35-.43.57-.43a1,1,0,0,1,.29.06.88.88,0,0,0,.29.05.55.55,0,0,0,.39-.19Zm-.39,2.48c-.35-.9-.53-1.37-.53-1.43h0c0,.05-.18.53-.55,1.43ZM50,35.66h-.48a4.93,4.93,0,0,0-.28-1H47.87a4.56,4.56,0,0,0-.28,1h-.46s.2-.54.59-1.45a11.77,11.77,0,0,0,.59-1.51h.52a11.57,11.57,0,0,0,.56,1.48A11,11,0,0,1,50,35.66ZM46.8,35.3l0,.34a2.81,2.81,0,0,1-.61.08l-.36,0,0,.19c.3.07.45.22.45.44s-.18.5-.55.5l0-.21a.24.24,0,0,0,.18-.07.25.25,0,0,0,.06-.17c0-.17-.11-.28-.34-.33l.08-.39a1.37,1.37,0,0,1-.67-.39,1.48,1.48,0,0,1-.36-1,1.55,1.55,0,0,1,1.62-1.59,1.71,1.71,0,0,1,.43.06l-.06.36a1.45,1.45,0,0,0-.47-.08,1,1,0,0,0-.86.37,1.25,1.25,0,0,0-.26.81,1.19,1.19,0,0,0,.3.83,1.18,1.18,0,0,0,.93.39A2.13,2.13,0,0,0,46.8,35.3Zm-3.52-.89c-.36-.9-.54-1.37-.54-1.43h0c0,.05-.19.53-.55,1.43Zm.87,1.25h-.48a4.57,4.57,0,0,0-.29-1H42.07a4.56,4.56,0,0,0-.28,1h-.46a14,14,0,0,1,.59-1.45,10.78,10.78,0,0,0,.58-1.51H43a11.57,11.57,0,0,0,.56,1.48A11,11,0,0,1,44.15,35.66Zm-3.46,0h-.43q0-.73,0-1.56c0-.53,0-1,0-1.4h.43c0,.41,0,.88,0,1.4S40.67,35.17,40.69,35.66Zm-1.17-.36,0,.34a2,2,0,0,1-.61.08,1.52,1.52,0,0,1-1.17-.42,1.48,1.48,0,0,1-.4-1,1.58,1.58,0,0,1,.44-1.12,1.52,1.52,0,0,1,1.18-.47,1.78,1.78,0,0,1,.44.06l-.07.36a1.39,1.39,0,0,0-.46-.08,1,1,0,0,0-.84.34,1.28,1.28,0,0,0-.29.84A1.23,1.23,0,0,0,38,35a1.17,1.17,0,0,0,.91.36A2,2,0,0,0,39.52,35.3Zm-3.29-1.11a1.28,1.28,0,0,0-.31-.91,1,1,0,0,0-.71-.33.9.9,0,0,0-.67.34,1.38,1.38,0,0,0-.29.91,1.24,1.24,0,0,0,.31.91,1,1,0,0,0,.71.33.88.88,0,0,0,.67-.35A1.37,1.37,0,0,0,36.23,34.19Zm.4-.06a1.6,1.6,0,0,1-.43,1.18,1.37,1.37,0,0,1-1,.44,1.29,1.29,0,0,1-1-.4,1.46,1.46,0,0,1-.41-1.1,1.6,1.6,0,0,1,.43-1.18,1.34,1.34,0,0,1,1-.43,1.3,1.3,0,0,1,.95.4A1.45,1.45,0,0,1,36.63,34.13Zm-3.42.77q0,.84-1.17.84a2.5,2.5,0,0,1-.76-.1l.08-.36a2.17,2.17,0,0,0,.73.13c.51,0,.77-.14.77-.43a.47.47,0,0,0-.2-.38,3.25,3.25,0,0,0-.53-.28,2.14,2.14,0,0,1-.58-.34.71.71,0,0,1-.23-.54.73.73,0,0,1,.23-.55,1.09,1.09,0,0,1,.75-.23,2.5,2.5,0,0,1,.74.07l-.06.36a2.48,2.48,0,0,0-.73-.11c-.39,0-.59.13-.59.39a.4.4,0,0,0,.17.32,3.34,3.34,0,0,0,.48.24,2.37,2.37,0,0,1,.62.35A.79.79,0,0,1,33.21,34.9Zm-2.56,0c0,.56-.4.84-1.18.84a2.54,2.54,0,0,1-.76-.1l.08-.36a2.21,2.21,0,0,0,.73.13c.51,0,.77-.14.77-.43a.44.44,0,0,0-.2-.38,2.86,2.86,0,0,0-.53-.28A2.31,2.31,0,0,1,29,34a.75.75,0,0,1,0-1.09,1,1,0,0,1,.74-.23,2.46,2.46,0,0,1,.74.07l0,.36a2.6,2.6,0,0,0-.74-.11c-.39,0-.59.13-.59.39a.4.4,0,0,0,.17.32,4.47,4.47,0,0,0,.49.24,2.46,2.46,0,0,1,.61.35A.8.8,0,0,1,30.65,34.9Zm-3.24-.49c-.36-.9-.54-1.37-.54-1.43h0c0,.05-.19.53-.56,1.43Zm.87,1.25H27.8a5.37,5.37,0,0,0-.29-1H26.2a4.91,4.91,0,0,0-.29,1h-.46s.2-.54.59-1.45a11.77,11.77,0,0,0,.59-1.51h.53a10,10,0,0,0,.56,1.48A13,13,0,0,1,28.28,35.66Z"/><path class="cls-1" d="M28,1.54,13.48,36.06h-.16v0l2.29-20.27a.77.77,0,0,1,.25-.58L27.9,1.3a0,0,0,0,1,0,0Z"/></svg>