<?xml version="1.0" encoding="utf-8"?>
<!-- Generator: Adobe Illustrator 17.0.0, SVG Export Plug-In . SVG Version: 6.00 Build 0)  -->
<!DOCTYPE svg PUBLIC "-//W3C//DTD SVG 1.1//EN" "http://www.w3.org/Graphics/SVG/1.1/DTD/svg11.dtd">
<svg version="1.1" id="Layer_1" xmlns="http://www.w3.org/2000/svg" xmlns:xlink="http://www.w3.org/1999/xlink" x="0px" y="0px"
	 width="56.611px" height="17.591px" viewBox="0 0 56.611 17.591" enable-background="new 0 0 56.611 17.591" xml:space="preserve">
<g>
	<g>
		<path fill="#FFFFFF" d="M0,0.383h0.766l2.43,3.643l2.434-3.643h0.766v6.672H5.643V1.649L3.205,5.223H3.166L0.736,1.66v5.394H0
			V0.383z"/>
		<path fill="#FFFFFF" d="M7.984,0.238h0.844v0.811H7.984V0.238z M8.037,2.125h0.73v4.93h-0.73V2.125z"/>
		<path fill="#FFFFFF" d="M10.281,2.125h0.74v0.859c0.32-0.53,0.836-0.959,1.684-0.959c1.197,0,1.887,0.798,1.887,1.967v3.063
			h-0.732V4.178c0-0.916-0.492-1.487-1.359-1.487c-0.852,0-1.479,0.62-1.479,1.548v2.816h-0.74V2.125z"/>
		<path fill="#FFFFFF" d="M15.988,0.238h0.838v0.811h-0.838V0.238z M16.033,2.125h0.738v4.93h-0.738V2.125z"/>
		<path fill="#FFFFFF" d="M17.879,6.432l0.375-0.529c0.529,0.402,1.123,0.631,1.699,0.631c0.594,0,1.023-0.308,1.023-0.779v-0.02
			c0-0.5-0.58-0.688-1.228-0.873c-0.777-0.214-1.633-0.481-1.633-1.387V3.454c0-0.852,0.705-1.415,1.68-1.415
			c0.601,0,1.266,0.214,1.775,0.543l-0.334,0.559c-0.459-0.297-0.983-0.48-1.461-0.48c-0.584,0-0.955,0.303-0.955,0.717v0.02
			c0,0.468,0.613,0.653,1.27,0.848c0.762,0.231,1.582,0.525,1.582,1.41v0.022c0,0.932-0.77,1.475-1.756,1.475
			C19.207,7.151,18.428,6.88,17.879,6.432z"/>
		<path fill="#FFFFFF" d="M23.008,5.754V2.776h-0.685V2.125h0.685V0.641h0.738v1.484h1.562v0.651h-1.562v2.878
			c0,0.603,0.332,0.822,0.828,0.822c0.25,0,0.455-0.045,0.711-0.172v0.634c-0.256,0.128-0.533,0.204-0.887,0.204
			C23.609,7.143,23.008,6.753,23.008,5.754z"/>
		<path fill="#FFFFFF" d="M28.586,6.533c0.678,0,1.156-0.276,1.555-0.695l0.457,0.414c-0.492,0.552-1.094,0.92-2.033,0.92
			c-1.35,0-2.459-1.036-2.459-2.573c0-1.431,1.006-2.573,2.369-2.573c1.461,0,2.297,1.164,2.297,2.609c0,0.066,0,0.145-0.006,0.259
			h-3.918C26.959,5.937,27.719,6.533,28.586,6.533z M30.029,4.303c-0.086-0.897-0.607-1.656-1.576-1.656
			c-0.846,0-1.494,0.698-1.605,1.656H30.029z M28.92,0l0.764,0.356l-1.078,1.027h-0.59L28.92,0z"/>
		<path fill="#FFFFFF" d="M31.865,2.125h0.736v1.291c0.365-0.82,1.08-1.412,2.016-1.377V2.83h-0.055
			c-1.076,0-1.961,0.779-1.961,2.265v1.96h-0.736V2.125z"/>
		<path fill="#FFFFFF" d="M35.561,0.238h0.84v0.811h-0.84V0.238z M35.611,2.125h0.732v4.93h-0.732V2.125z"/>
		<path fill="#FFFFFF" d="M37.551,4.613V4.599c0-1.394,1.092-2.573,2.576-2.573c1.48,0,2.568,1.164,2.568,2.553v0.021
			c0,1.391-1.101,2.573-2.582,2.573C38.631,7.172,37.551,6.009,37.551,4.613z M41.941,4.613V4.599c0-1.06-0.793-1.929-1.828-1.929
			c-1.072,0-1.805,0.869-1.805,1.908v0.021c0,1.056,0.783,1.913,1.818,1.913C41.197,6.512,41.941,5.654,41.941,4.613z"/>
		<path fill="#FFFFFF" d="M46.215,4.608v-0.02c0-1.607,1.174-2.563,2.355-2.563c0.918,0,1.504,0.49,1.885,1.048V0.094h0.736v6.961
			h-0.736V6.066c-0.4,0.593-0.979,1.096-1.885,1.096C47.389,7.162,46.215,6.226,46.215,4.608z M50.49,4.599V4.578
			c0-1.136-0.871-1.898-1.785-1.898c-0.955,0-1.734,0.705-1.734,1.898v0.021c0,1.164,0.799,1.909,1.734,1.909
			C49.619,6.508,50.49,5.734,50.49,4.599z"/>
		<path fill="#FFFFFF" d="M52.271,5.63V5.609c0-1.059,0.861-1.617,2.109-1.617c0.631,0,1.066,0.086,1.506,0.215V4.054
			c0-0.879-0.533-1.335-1.459-1.335c-0.58,0-1.043,0.146-1.498,0.354l-0.219-0.601c0.543-0.248,1.066-0.42,1.795-0.42
			c0.695,0,1.238,0.188,1.592,0.543c0.336,0.34,0.514,0.82,0.514,1.454v3.005h-0.725V6.323c-0.346,0.438-0.908,0.839-1.773,0.839
			C53.186,7.162,52.271,6.639,52.271,5.63z M55.893,5.25V4.787c-0.357-0.105-0.838-0.209-1.437-0.209
			c-0.91,0-1.441,0.404-1.441,0.99v0.022c0,0.619,0.578,0.982,1.242,0.982C55.16,6.572,55.893,6.025,55.893,5.25z"/>
		<path fill="#FFFFFF" d="M13.938,16.508l0.867-1.038c0.603,0.496,1.228,0.805,1.994,0.805c0.6,0,0.965-0.236,0.965-0.625V15.63
			c0-0.373-0.231-0.566-1.346-0.852c-1.348-0.345-2.215-0.713-2.215-2.046v-0.015c0-1.207,0.977-2.014,2.34-2.014
			c0.971,0,1.805,0.31,2.479,0.852l-0.766,1.107c-0.59-0.416-1.17-0.659-1.734-0.659c-0.563,0-0.861,0.257-0.861,0.584v0.015
			c0,0.444,0.291,0.583,1.441,0.881c1.354,0.355,2.119,0.84,2.119,2.002v0.021c0,1.322-1.012,2.07-2.449,2.07
			C15.756,17.577,14.742,17.225,13.938,16.508z"/>
		<path fill="#FFFFFF" d="M19.854,16.008v-0.015c0-1.117,0.85-1.632,2.057-1.632c0.518,0,0.889,0.086,1.254,0.206v-0.08
			c0-0.601-0.373-0.936-1.098-0.936c-0.551,0-0.947,0.107-1.414,0.275l-0.357-1.109c0.557-0.246,1.109-0.408,1.98-0.408
			c0.789,0,1.363,0.213,1.721,0.57c0.389,0.385,0.557,0.947,0.557,1.635v2.965h-1.404v-0.558c-0.35,0.394-0.836,0.655-1.541,0.655
			C20.643,17.577,19.854,17.024,19.854,16.008z M23.176,15.674v-0.255c-0.246-0.116-0.57-0.192-0.924-0.192
			c-0.617,0-1.002,0.247-1.002,0.707v0.019c0,0.395,0.33,0.617,0.795,0.617C22.721,16.569,23.176,16.202,23.176,15.674z"/>
		<path fill="#FFFFFF" d="M25.576,15.674v-3.313h1.447v2.851c0,0.693,0.324,1.044,0.881,1.044c0.549,0,0.908-0.351,0.908-1.044
			v-2.851h1.447v5.118h-1.447v-0.725c-0.338,0.43-0.77,0.822-1.498,0.822C26.217,17.577,25.576,16.853,25.576,15.674z
			 M28.299,10.116l1.256,0.547l-1.225,1.144h-1.107L28.299,10.116z"/>
		<path fill="#FFFFFF" d="M31.137,14.932v-0.017c0-1.707,1.113-2.645,2.326-2.645c0.775,0,1.248,0.354,1.592,0.764v-2.516h1.447
			v6.961h-1.447v-0.738c-0.352,0.483-0.84,0.836-1.592,0.836C32.271,17.577,31.137,16.644,31.137,14.932z M35.074,14.932v-0.017
			c0-0.85-0.559-1.411-1.24-1.411c-0.676,0-1.246,0.552-1.246,1.411v0.017c0,0.849,0.57,1.415,1.246,1.415
			C34.516,16.347,35.074,15.78,35.074,14.932z"/>
		<path fill="#FFFFFF" d="M37.363,14.948v-0.017c0-1.458,1.043-2.661,2.531-2.661c1.699,0,2.486,1.328,2.486,2.777
			c0,0.111-0.006,0.244-0.023,0.381h-3.557c0.144,0.658,0.604,1.006,1.252,1.006c0.486,0,0.84-0.16,1.238-0.529l0.832,0.738
			c-0.475,0.588-1.162,0.947-2.09,0.947C38.5,17.591,37.363,16.515,37.363,14.948z M40.967,14.521
			c-0.084-0.649-0.463-1.087-1.072-1.087c-0.602,0-0.992,0.428-1.107,1.087H40.967z"/>
	</g>
</g>
</svg>
